<svg width="200" height="200" viewBox="0 0 200 200" fill="none" xmlns="http://www.w3.org/2000/svg">
<path d="M31.0642 101.308C-7.00778 123.308 -7.00378 158.908 31.0642 180.908C69.1322 202.908 130.86 202.908 168.932 180.908C207.004 158.908 207 123.308 168.932 101.308C130.864 79.3079 69.1362 79.3279 31.0642 101.308Z" fill="#FAFAFA"/>
<path d="M172.528 119.532C172.988 119.326 173.461 119.151 173.944 119.008C174.458 118.856 174.984 118.752 175.516 118.696C176.09 118.64 176.667 118.64 177.24 118.696C177.882 118.766 178.514 118.9 179.128 119.096C179.96 119.343 180.746 119.723 181.456 120.22C182.082 120.656 182.613 121.212 183.02 121.856C183.403 122.472 183.645 123.164 183.728 123.884C183.812 124.662 183.731 125.448 183.492 126.192C183.296 126.888 182.969 127.539 182.528 128.112C182.159 128.586 181.719 129 181.224 129.34C180.772 129.648 180.285 129.901 179.772 130.092L178.356 130.608C177.952 130.755 177.558 130.927 177.176 131.124C176.855 131.284 176.594 131.544 176.432 131.864L175.388 134L172.8 133.2L173.308 130.604C173.374 130.15 173.584 129.729 173.908 129.404C174.233 129.093 174.608 128.837 175.016 128.648C175.467 128.439 175.93 128.26 176.404 128.112C176.897 127.958 177.379 127.768 177.844 127.544C178.3 127.325 178.721 127.039 179.092 126.696C179.482 126.318 179.765 125.843 179.912 125.32C180.023 124.979 180.056 124.616 180.008 124.26C179.962 123.929 179.844 123.611 179.664 123.328C179.47 123.03 179.22 122.772 178.928 122.568C178.601 122.344 178.24 122.171 177.86 122.056C177.362 121.891 176.841 121.802 176.316 121.792C175.924 121.789 175.532 121.828 175.148 121.908C174.816 121.98 174.536 122.048 174.3 122.116C174.113 122.185 173.91 122.196 173.716 122.148C173.549 122.108 173.398 122.019 173.28 121.893C173.163 121.767 173.085 121.61 173.056 121.44L172.528 119.532ZM170.4 136.896C170.494 136.585 170.649 136.295 170.856 136.044C171.051 135.801 171.294 135.599 171.569 135.452C171.844 135.305 172.146 135.215 172.456 135.188C172.785 135.154 173.118 135.187 173.434 135.284C173.75 135.38 174.043 135.54 174.296 135.752C174.534 135.955 174.734 136.199 174.884 136.472C175.037 136.755 175.132 137.065 175.163 137.384C175.194 137.704 175.16 138.026 175.064 138.332C174.972 138.649 174.812 138.943 174.596 139.192C174.396 139.432 174.15 139.629 173.872 139.772C173.596 139.914 173.294 140.001 172.984 140.028C172.657 140.061 172.326 140.025 172.012 139.924C171.695 139.829 171.399 139.673 171.14 139.464C170.898 139.269 170.698 139.027 170.552 138.752C170.407 138.478 170.318 138.177 170.288 137.868C170.261 137.54 170.299 137.21 170.4 136.896Z" fill="#E0E0E0"/>
<path d="M178.768 62.4762C178.466 62.6449 178.154 62.7932 177.832 62.9202C177.492 63.0552 177.14 63.1583 176.78 63.2282C176.394 63.3025 176.001 63.3373 175.608 63.3322C175.167 63.3278 174.727 63.2782 174.296 63.1842C173.714 63.068 173.154 62.8572 172.64 62.5602C172.188 62.3012 171.792 61.9544 171.476 61.5402C171.178 61.1439 170.972 60.6862 170.872 60.2002C170.765 59.6715 170.772 59.1261 170.892 58.6002C170.983 58.114 171.167 57.6497 171.432 57.2322C171.651 56.8884 171.921 56.5796 172.232 56.3162C172.522 56.0793 172.839 55.8778 173.176 55.7162L174.112 55.2762C174.379 55.1538 174.637 55.0135 174.884 54.8562C175.093 54.7271 175.255 54.5333 175.344 54.3042L175.928 52.7842L177.752 53.1842L177.56 54.9802C177.545 55.2959 177.427 55.5981 177.224 55.8402C177.022 56.0719 176.783 56.268 176.516 56.4202C176.221 56.5907 175.915 56.7417 175.6 56.8722C175.274 57.0059 174.958 57.165 174.656 57.3482C174.358 57.5238 174.088 57.7437 173.856 58.0002C173.611 58.2805 173.447 58.6219 173.38 58.9882C173.324 59.2188 173.321 59.4592 173.371 59.6913C173.42 59.9233 173.522 60.1411 173.668 60.3282C173.82 60.52 174.007 60.6803 174.22 60.8002C174.455 60.9364 174.71 61.0336 174.976 61.0882C175.326 61.1698 175.686 61.1981 176.044 61.1722C176.316 61.1529 176.584 61.1033 176.844 61.0242C177.068 60.9562 177.244 60.8922 177.412 60.8282C177.537 60.7709 177.676 60.7514 177.812 60.7722C177.928 60.7907 178.037 60.8425 178.124 60.9213C178.211 61.0001 178.274 61.1025 178.304 61.2162L178.768 62.4762ZM179.168 50.5082C179.125 50.7274 179.038 50.9355 178.912 51.1202C178.793 51.2969 178.639 51.4478 178.46 51.5642C178.28 51.6808 178.079 51.7609 177.868 51.8002C177.645 51.8461 177.415 51.8461 177.192 51.8002C176.972 51.7562 176.763 51.6662 176.58 51.5362C176.406 51.4122 176.256 51.2577 176.136 51.0802C176.016 50.9013 175.933 50.7 175.892 50.4882C175.848 50.2677 175.848 50.0407 175.892 49.8202C175.936 49.5993 176.028 49.3905 176.16 49.2082C176.282 49.0334 176.437 48.8839 176.616 48.7682C176.797 48.6555 176.998 48.5781 177.208 48.5402C177.429 48.4964 177.656 48.4964 177.876 48.5402C178.098 48.5844 178.309 48.6729 178.496 48.8002C178.674 48.9194 178.827 49.0731 178.944 49.2522C179.063 49.4357 179.143 49.6411 179.18 49.8562C179.217 50.0713 179.21 50.2917 179.16 50.5042L179.168 50.5082Z" fill="#E0E0E0"/>
<path d="M24.4358 127.776C24.1332 127.943 23.8206 128.091 23.4998 128.22C23.1593 128.354 22.8071 128.455 22.4478 128.524C22.0602 128.598 21.6664 128.634 21.2718 128.632C20.8318 128.626 20.3935 128.575 19.9638 128.48C19.3818 128.365 18.8225 128.155 18.3078 127.86C17.8556 127.599 17.4599 127.251 17.1438 126.836C16.8436 126.44 16.6358 125.982 16.5358 125.496C16.4304 124.967 16.4386 124.422 16.5598 123.896C16.6525 123.41 16.8357 122.946 17.0998 122.528C17.3197 122.185 17.5893 121.876 17.8998 121.612C18.1893 121.374 18.5078 121.174 18.8478 121.016L19.7798 120.576C20.0469 120.453 20.3049 120.311 20.5518 120.152C20.7661 120.024 20.9331 119.831 21.0278 119.6L21.5998 118.092L23.4238 118.492L23.2358 120.292C23.2184 120.606 23.1006 120.906 22.8998 121.148C22.6968 121.381 22.4561 121.578 22.1878 121.732C21.894 121.901 21.5893 122.051 21.2758 122.18C20.949 122.316 20.6322 122.475 20.3278 122.656C20.0304 122.833 19.7608 123.052 19.5278 123.308C19.2857 123.59 19.1228 123.931 19.0558 124.296C19.0018 124.536 19.0018 124.784 19.0558 125.024C19.1084 125.248 19.2079 125.458 19.3478 125.64C19.498 125.832 19.6842 125.992 19.8958 126.112C20.1317 126.245 20.3867 126.341 20.6518 126.396C21.0027 126.479 21.3641 126.509 21.7238 126.484C21.9946 126.46 22.2625 126.411 22.5238 126.336C22.7438 126.264 22.9238 126.2 23.0878 126.14C23.2123 126.081 23.3519 126.061 23.4878 126.084C23.6042 126.1 23.7132 126.151 23.8008 126.229C23.8885 126.307 23.9508 126.41 23.9798 126.524L24.4358 127.776ZM24.8358 115.808C24.7445 116.238 24.4909 116.616 24.1278 116.864C23.9469 116.979 23.7461 117.059 23.5358 117.1C23.3126 117.144 23.083 117.144 22.8598 117.1C22.6385 117.053 22.429 116.962 22.2438 116.832C22.0687 116.709 21.9181 116.554 21.7998 116.376C21.682 116.196 21.6004 115.995 21.5598 115.784C21.5188 115.563 21.5217 115.337 21.5684 115.117C21.615 114.897 21.7046 114.689 21.8318 114.504C21.9553 114.33 22.1116 114.182 22.2918 114.068C22.6662 113.831 23.1193 113.752 23.5518 113.848C23.7736 113.895 23.9842 113.985 24.1718 114.112C24.3489 114.23 24.5001 114.382 24.6163 114.561C24.7325 114.739 24.8113 114.939 24.8478 115.148C24.8906 115.366 24.8906 115.59 24.8478 115.808H24.8358Z" fill="#E0E0E0"/>
<path d="M15.0039 50.7481C15.1851 50.4523 15.3842 50.1678 15.5999 49.8961C15.8285 49.6083 16.0814 49.3406 16.3559 49.0961C16.6544 48.8387 16.9773 48.611 17.3199 48.4161C17.701 48.2011 18.1031 48.0255 18.5199 47.8921C19.0829 47.7006 19.6733 47.602 20.2679 47.6001C20.7882 47.5976 21.3038 47.6996 21.7839 47.9001C22.2418 48.0941 22.6515 48.3863 22.9839 48.7561C23.647 49.5518 23.9994 50.5607 23.9759 51.5961C23.9554 52.0065 23.8717 52.4113 23.7279 52.7961C23.5949 53.1504 23.4174 53.4865 23.1999 53.7961L22.6119 54.6441C22.4428 54.8841 22.2905 55.1353 22.1559 55.3961C22.0362 55.6115 21.9925 55.8609 22.0319 56.1041L22.2879 57.7041L20.5159 58.2801L19.7799 56.6281C19.6364 56.3471 19.5873 56.0273 19.6399 55.7161C19.6998 55.4136 19.8093 55.123 19.9639 54.8561C20.1333 54.5628 20.3217 54.2809 20.5279 54.0121C20.7432 53.7302 20.9383 53.4335 21.1119 53.1241C21.2799 52.8224 21.4025 52.4976 21.4759 52.1601C21.546 51.7952 21.517 51.4181 21.3919 51.0681C21.3188 50.8332 21.1945 50.6173 21.0279 50.4361C20.8725 50.2638 20.6814 50.1273 20.4679 50.0361C20.2417 49.9448 19.9998 49.8986 19.7559 49.9001C19.4839 49.9016 19.2139 49.9461 18.9559 50.0321C18.6141 50.1467 18.2918 50.3126 17.9999 50.5241C17.7801 50.6764 17.5764 50.8506 17.3919 51.0441C17.2359 51.2161 17.1079 51.3681 16.9919 51.4961C16.9148 51.608 16.8062 51.6943 16.6799 51.7441C16.5708 51.7849 16.4521 51.7929 16.3385 51.7674C16.2248 51.7418 16.1211 51.6837 16.0399 51.6001L15.0039 50.7481ZM20.6399 61.3161C20.5718 61.1032 20.5447 60.8792 20.5599 60.6561C20.5745 60.443 20.6316 60.2349 20.7279 60.0441C20.8274 59.853 20.9633 59.6832 21.1279 59.5441C21.3003 59.3961 21.5001 59.2834 21.7159 59.2121C21.9311 59.1418 22.1584 59.116 22.3839 59.1361C22.5967 59.1554 22.8042 59.2137 22.9959 59.3081C23.1889 59.4065 23.3603 59.5425 23.4999 59.7081C23.6494 59.8758 23.7613 60.0736 23.8279 60.2881C23.8995 60.5017 23.9267 60.7277 23.9079 60.9521C23.8865 61.1643 23.8254 61.3705 23.7279 61.5601C23.6261 61.7486 23.4905 61.9167 23.3279 62.0561C23.1571 62.2024 22.9584 62.3126 22.7439 62.3801C22.5287 62.451 22.3019 62.4795 22.0759 62.4641C21.863 62.4508 21.6549 62.3951 21.4639 62.3001C21.2744 62.1999 21.106 62.0641 20.9679 61.9001C20.8231 61.7277 20.7118 61.5296 20.6399 61.3161Z" fill="#E0E0E0"/>
<path d="M80.152 52.4484C79.9139 52.7895 79.6547 53.1155 79.376 53.4244C79.0811 53.7507 78.7556 54.0481 78.404 54.3124C78.0281 54.596 77.6263 54.8438 77.204 55.0524C76.7244 55.2802 76.2232 55.4598 75.708 55.5884C75.0158 55.7712 74.2984 55.8401 73.584 55.7924C72.958 55.7513 72.3462 55.5868 71.784 55.3084C71.2502 55.0382 70.783 54.6529 70.416 54.1804C70.0305 53.6672 69.7579 53.0783 69.616 52.4524C69.4548 51.8792 69.4046 51.2804 69.468 50.6884C69.53 50.1965 69.6648 49.7166 69.868 49.2644C70.0549 48.8544 70.2913 48.4688 70.572 48.1164L71.348 47.1444C71.5719 46.8696 71.7764 46.5796 71.96 46.2764C72.1187 46.0265 72.1904 45.7312 72.164 45.4364L71.984 43.4804L74.164 42.9324L74.912 44.9764C75.0627 45.3257 75.0963 45.7143 75.008 46.0844C74.9116 46.4435 74.7561 46.7842 74.548 47.0924C74.3203 47.4311 74.0704 47.7545 73.8 48.0604C73.5188 48.3816 73.2608 48.7225 73.028 49.0804C72.8007 49.4285 72.6268 49.8087 72.512 50.2084C72.3941 50.6405 72.3941 51.0963 72.512 51.5284C72.575 51.8072 72.6996 52.0684 72.8769 52.2926C73.0541 52.5169 73.2793 52.6986 73.536 52.8244C73.8 52.953 74.0869 53.0278 74.38 53.0444C74.7069 53.0663 75.0351 53.0353 75.352 52.9524C75.7735 52.8545 76.178 52.6941 76.552 52.4764C76.8289 52.3106 77.0877 52.1162 77.324 51.8964C77.528 51.7044 77.696 51.5324 77.832 51.3844C77.9366 51.2573 78.0754 51.1629 78.232 51.1124C78.3676 51.0707 78.5123 51.0693 78.6487 51.1084C78.785 51.1474 78.9071 51.2252 79 51.3324L80.152 52.4484ZM74.24 39.2924C74.3085 39.5533 74.3235 39.8255 74.284 40.0924C74.2513 40.348 74.1669 40.5943 74.036 40.8164C73.9017 41.0368 73.7265 41.2295 73.52 41.3844C73.3024 41.5494 73.0543 41.6697 72.79 41.7384C72.5257 41.8071 72.2504 41.8227 71.98 41.7844C71.7252 41.7434 71.4799 41.6567 71.256 41.5284C71.0346 41.3955 70.8405 41.2218 70.684 41.0164C70.5202 40.801 70.4019 40.5547 70.336 40.2924C70.2698 40.031 70.2562 39.759 70.296 39.4924C70.3368 39.2376 70.4264 38.9931 70.56 38.7724C70.6975 38.5554 70.8738 38.3655 71.08 38.2124C71.2969 38.0495 71.5445 37.9325 71.808 37.8684C72.0693 37.8018 72.341 37.7868 72.608 37.8244C72.8623 37.8577 73.1072 37.9421 73.328 38.0724C73.5466 38.2045 73.7369 38.3785 73.888 38.5844C74.0513 38.7946 74.171 39.0353 74.24 39.2924Z" fill="#E0E0E0"/>
<path d="M121.424 31.1442C121.75 30.9887 122.087 30.8551 122.432 30.7442C123.191 30.4772 123.995 30.3603 124.8 30.4002C125.264 30.4289 125.723 30.5053 126.172 30.6282C126.776 30.7839 127.351 31.0351 127.876 31.3722C128.337 31.6707 128.734 32.0583 129.044 32.5122C129.335 32.945 129.528 33.4366 129.608 33.9522C129.689 34.5096 129.653 35.078 129.5 35.6202C129.376 36.1259 129.157 36.6036 128.856 37.0282C128.602 37.3786 128.298 37.6888 127.952 37.9482C127.634 38.182 127.289 38.3754 126.924 38.5242L125.92 38.9242C125.632 39.0376 125.352 39.1713 125.084 39.3242C124.856 39.4489 124.675 39.6439 124.568 39.8802L123.872 41.4482L121.976 40.9402L122.276 39.0602C122.307 38.7294 122.448 38.4184 122.676 38.1762C122.899 37.9421 123.162 37.7486 123.452 37.6042C123.768 37.4496 124.094 37.3147 124.428 37.2002C124.78 37.0764 125.122 36.9266 125.452 36.7522C125.774 36.5822 126.069 36.3651 126.328 36.1082C126.598 35.826 126.789 35.4767 126.88 35.0962C126.951 34.848 126.966 34.587 126.924 34.3322C126.881 34.0948 126.786 33.8695 126.648 33.6722C126.503 33.4605 126.316 33.2808 126.1 33.1442C125.859 32.9897 125.596 32.8736 125.32 32.8002C124.955 32.6935 124.576 32.6423 124.196 32.6482C123.914 32.6577 123.633 32.6965 123.36 32.7642C123.124 32.8242 122.924 32.8802 122.756 32.9362C122.622 32.9887 122.477 33.0026 122.336 32.9762C122.215 32.9509 122.104 32.8908 122.016 32.8034C121.929 32.7161 121.869 32.6051 121.844 32.4842L121.424 31.1442ZM120.336 43.7002C120.395 43.473 120.498 43.2597 120.64 43.0722C120.776 42.8935 120.946 42.7428 121.14 42.6282C121.447 42.4563 121.798 42.3783 122.149 42.4039C122.5 42.4295 122.836 42.5575 123.116 42.7722C123.292 42.9115 123.441 43.0824 123.556 43.2762C123.672 43.4708 123.747 43.6873 123.776 43.9122C123.81 44.1458 123.797 44.3841 123.736 44.6122C123.676 44.8417 123.568 45.0558 123.42 45.2402C123.282 45.4177 123.111 45.566 122.916 45.6762C122.715 45.79 122.493 45.8628 122.264 45.8902C122.034 45.9177 121.802 45.8993 121.58 45.8362C121.348 45.7755 121.131 45.6709 120.94 45.5282C120.76 45.3927 120.609 45.2227 120.496 45.0282C120.385 44.8358 120.313 44.6239 120.284 44.4042C120.255 44.1684 120.273 43.9293 120.336 43.7002Z" fill="#E0E0E0"/>
<path d="M174.907 16.7362C175.076 16.28 175.274 15.8351 175.499 15.4042C175.74 14.9486 176.023 14.5161 176.343 14.1122C176.689 13.6743 177.077 13.2722 177.503 12.9122C177.978 12.5125 178.493 12.1626 179.039 11.8682C179.768 11.4591 180.558 11.1714 181.379 11.0162C182.1 10.8795 182.841 10.8877 183.559 11.0402C184.243 11.1904 184.886 11.491 185.439 11.9202C186.032 12.3833 186.52 12.9668 186.871 13.6322C187.217 14.2374 187.447 14.9023 187.547 15.5922C187.623 16.1652 187.613 16.7464 187.515 17.3162C187.425 17.836 187.271 18.3426 187.055 18.8242C186.843 19.2922 186.655 19.7362 186.459 20.1482C186.287 20.5243 186.141 20.9119 186.023 21.3082C185.914 21.6367 185.914 21.9918 186.023 22.3202L186.799 24.4962L184.491 25.7522L183.047 23.6562C182.775 23.3058 182.625 22.876 182.619 22.4322C182.622 21.9974 182.698 21.5661 182.843 21.1562C183.003 20.7058 183.191 20.2662 183.407 19.8402C183.639 19.397 183.837 18.937 183.999 18.4642C184.157 18.0028 184.244 17.5198 184.255 17.0322C184.256 16.5083 184.118 15.9935 183.855 15.5402C183.697 15.2268 183.47 14.9533 183.191 14.7402C182.931 14.5459 182.632 14.4095 182.315 14.3402C181.978 14.2741 181.632 14.2741 181.295 14.3402C180.919 14.4172 180.558 14.5522 180.223 14.7402C179.774 14.975 179.362 15.2742 178.999 15.6282C178.736 15.8975 178.5 16.1923 178.295 16.5082C178.123 16.7882 177.979 17.0282 177.867 17.2362C177.788 17.4103 177.66 17.5576 177.499 17.6602C177.359 17.7483 177.196 17.7933 177.03 17.7898C176.865 17.7862 176.704 17.7342 176.567 17.6402L174.907 16.7362ZM185.439 29.9082C185.289 29.6317 185.192 29.3289 185.155 29.0162C185.121 28.7181 185.147 28.4162 185.231 28.1282C185.311 27.838 185.447 27.5663 185.631 27.3282C185.828 27.0762 186.076 26.8689 186.359 26.7202C186.637 26.5654 186.943 26.4701 187.259 26.4402C187.56 26.412 187.864 26.4392 188.155 26.5202C188.446 26.5994 188.718 26.7354 188.955 26.9202C189.448 27.3168 189.764 27.8918 189.835 28.5202C189.863 28.8204 189.833 29.1232 189.747 29.4122C189.66 29.7043 189.516 29.9762 189.323 30.2122C189.127 30.4607 188.88 30.6651 188.599 30.8122C188.32 30.9677 188.013 31.067 187.695 31.1042C187.397 31.1374 187.096 31.113 186.807 31.0322C186.516 30.9545 186.244 30.8185 186.007 30.6322C185.773 30.4294 185.581 30.1837 185.439 29.9082Z" fill="#E0E0E0"/>
<path d="M24.9398 32.5522C24.4591 32.6256 23.974 32.6657 23.4878 32.6722C22.4146 32.6926 21.3478 32.5024 20.3478 32.1122C19.7697 31.8864 19.2162 31.6023 18.6958 31.2642C17.9859 30.8241 17.3534 30.27 16.8238 29.6242C16.3583 29.0564 16.009 28.4027 15.7958 27.7002C15.6004 27.029 15.554 26.3232 15.6598 25.6322C15.7786 24.8907 16.0511 24.1822 16.4598 23.5522C16.8259 22.9498 17.3038 22.423 17.8678 22.0002C18.333 21.6566 18.8484 21.3868 19.3958 21.2002C19.8955 21.031 20.414 20.9235 20.9398 20.8802L22.3998 20.7762C22.8031 20.7454 23.204 20.6879 23.5998 20.6042C23.9385 20.5369 24.2468 20.3631 24.4798 20.1082L26.0198 18.4002L28.2318 19.8162L27.0878 22.0802C26.9113 22.4886 26.6066 22.8283 26.2198 23.0482C25.8367 23.2482 25.4231 23.3834 24.9958 23.4482C24.5235 23.5272 24.0464 23.574 23.5678 23.5882C23.07 23.6039 22.574 23.656 22.0838 23.7442C21.6049 23.8309 21.1414 23.9872 20.7078 24.2082C20.249 24.4633 19.8665 24.8361 19.5998 25.2882C19.4081 25.5754 19.2837 25.9022 19.2358 26.2442C19.1921 26.5648 19.2194 26.8912 19.3158 27.2002C19.4178 27.5269 19.5836 27.8301 19.8038 28.0922C20.0468 28.3872 20.3359 28.6411 20.6598 28.8442C21.08 29.1288 21.5413 29.3474 22.0278 29.4922C22.3906 29.5954 22.7634 29.6598 23.1398 29.6842C23.4638 29.7042 23.7478 29.7122 23.9838 29.7082C24.1745 29.6974 24.3643 29.7404 24.5318 29.8322C24.6762 29.9133 24.7937 30.035 24.8697 30.1821C24.9458 30.3292 24.9771 30.4954 24.9598 30.6602L24.9398 32.5522ZM31.4238 16.9842C31.2548 17.2503 31.0345 17.4801 30.7758 17.6602C30.5353 17.8324 30.2636 17.9561 29.9758 18.0242C29.68 18.0824 29.3756 18.0824 29.0798 18.0242C28.7638 17.97 28.4618 17.853 28.1918 17.6802C27.9236 17.5105 27.6934 17.2871 27.5158 17.0242C27.348 16.7744 27.2261 16.4967 27.1558 16.2042C27.0879 15.902 27.0808 15.5893 27.1351 15.2844C27.1894 14.9795 27.3038 14.6884 27.4718 14.4282C27.639 14.1594 27.8612 13.929 28.1238 13.7522C28.3738 13.5847 28.6534 13.4666 28.9478 13.4042C29.4078 13.3184 29.8827 13.3666 30.3161 13.5432C30.7494 13.7198 31.1228 14.0173 31.3918 14.4002C31.5656 14.6397 31.6894 14.9118 31.7558 15.2002C31.814 15.4933 31.814 15.795 31.7558 16.0882C31.7046 16.4056 31.5919 16.71 31.4238 16.9842Z" fill="#E0E0E0"/>
<path d="M56.7599 169.352C56.5858 170.201 56.2401 171.006 55.7439 171.716C54.7496 173.124 53.4437 174.284 51.9279 175.104C45.3279 178.912 34.6239 178.912 28.0239 175.104C26.5096 174.283 25.2051 173.124 24.2119 171.716C23.7181 171.005 23.3738 170.201 23.1999 169.352C22.6119 166.488 24.2239 163.504 28.0279 161.304C34.6279 157.492 45.3319 157.492 51.9319 161.304C55.7359 163.504 57.3479 166.488 56.7599 169.352Z" fill="#E0E0E0"/>
<path d="M146.98 126.972C169.86 140.4 169.708 161.908 146.636 175.012C123.564 188.116 86.3155 187.844 63.4355 174.416C40.5555 160.988 40.7075 139.48 63.7795 126.38C86.8515 113.28 124.1 113.544 146.98 126.972Z" fill="#E0E0E0"/>
<path d="M73.86 73.2956C63.3 79.3916 48 93.8196 48 119.84C48 145.86 60.296 165.212 83.848 173.84C91.396 176.612 101.672 177.808 111.484 177.328C122.783 176.832 133.665 172.912 142.684 166.088C148.948 161.288 153.568 155.604 156.6 147.708C161.6 133.04 152.656 117.684 140.496 108.908C128.336 100.132 129.808 90.1516 121.2 79.7676C116.576 74.1676 109.768 69.4076 101.46 68.4836C92.4 67.4716 81.9 68.6516 73.86 73.2956Z" fill="#1C6758"/>
<path opacity="0.6" d="M73.86 73.2956C63.3 79.3916 48 93.8196 48 119.84C48 145.86 60.296 165.212 83.848 173.84C91.396 176.612 101.672 177.808 111.484 177.328C122.783 176.832 133.665 172.912 142.684 166.088C148.948 161.288 153.568 155.604 156.6 147.708C161.6 133.04 152.656 117.684 140.496 108.908C128.336 100.132 129.808 90.1516 121.2 79.7676C116.576 74.1676 109.768 69.4076 101.46 68.4836C92.4 67.4716 81.9 68.6516 73.86 73.2956Z" fill="white"/>
<path opacity="0.3" d="M149.808 141.952C151.471 140.2 152.737 138.11 153.519 135.824C154.301 133.539 154.581 131.111 154.34 128.708C154.099 126.304 153.343 123.981 152.122 121.896C150.902 119.811 149.246 118.014 147.268 116.628C143.72 114.088 139.18 113.152 135.356 111.028C126.084 105.896 124.28 100.284 116.232 79.3716C115.326 76.9852 114.216 74.6818 112.912 72.4876C109.442 70.3223 105.535 68.9559 101.472 68.4876C92.4117 67.4756 81.8997 68.6556 73.8717 73.2876C71.0751 74.9143 68.4393 76.8028 65.9997 78.9276C63.2717 90.0956 63.5997 108.588 66.6637 118.948C68.6637 125.712 71.4317 128.904 71.4317 128.904C60.8317 126.82 52.3877 133.972 52.3877 133.972C55.4357 132.524 59.3117 132.372 62.5997 132.528C66.7185 132.764 70.7771 133.628 74.6357 135.088C78.6637 136.556 80.2357 138.496 82.9197 141.732C84.6873 143.85 87.0143 145.43 89.6357 146.292C93.0037 147.396 96.6317 147.244 100.148 147.676C103.664 148.108 107.396 149.34 109.348 152.3C110.288 153.728 110.716 155.42 111.128 157.08L113.408 166.228C113.74 167.556 114.084 168.912 114.856 170.04C116.836 172.94 121.432 173.332 124.176 171.14C125.472 170.1 126.392 168.628 127.776 167.68C130.38 165.864 133.676 166.436 136.616 166.8C138.255 167.004 139.91 167.062 141.56 166.972C141.96 166.688 142.36 166.404 142.76 166.104C146.221 163.509 149.271 160.408 151.808 156.904C151.19 156.25 150.5 155.667 149.752 155.168C148.036 153.992 146.112 152.964 144.988 151.216C142.28 147.06 147.44 144.46 149.808 141.952Z" fill="#1C6758"/>
<path opacity="0.3" d="M121.7 175.928C107.324 177.08 92.4999 173.336 80.7519 165.34C61.7999 152.444 53.5999 132 57.6519 107.788C61.2519 86.3957 71.9319 74.6157 82.6679 69.7437C82.0719 69.9037 81.4679 70.0756 80.8879 70.2596C80.3039 70.4436 79.7279 70.6397 79.1599 70.8477H79.1279C78.5639 71.0557 78.0039 71.2757 77.4519 71.5117H77.4159C76.8559 71.7517 76.3052 72.0037 75.7639 72.2677C67.0679 78.6117 59.3359 89.8676 56.3759 107.544C52.2199 132.32 60.6199 153.22 79.9999 166.42C89.4039 172.82 100.724 176.54 112.244 177.292C115.428 177.096 118.591 176.64 121.7 175.928Z" fill="#1C6758"/>
<path d="M157.9 53.72C157.271 53.562 156.61 53.5772 155.988 53.764C155.261 53.9933 154.557 54.2934 153.888 54.6599C152.843 55.1799 151.776 55.6599 150.688 56.0999C149.728 56.4999 148.708 56.9439 147.648 56.9319C147.296 56.9319 146.56 56.8119 147.024 56.3559C147.668 55.7949 148.262 55.1793 148.8 54.5159C149.067 54.1816 149.26 53.7957 149.37 53.3826C149.479 52.9695 149.502 52.5382 149.436 52.1159C149.395 51.859 149.26 51.6266 149.056 51.464C148.756 51.26 148.56 51.404 148.336 51.584C148.092 51.7658 147.837 51.9327 147.572 52.084C147.036 52.412 146.5 52.7399 145.972 53.0759C142.868 55.0319 139.24 56.5679 137.476 59.8759C137.22 60.3559 136.504 62.576 135.8 66.428C135.096 70.28 132.06 80.3199 132.06 80.3199C132.06 80.3199 126.06 73.3359 121.696 67.7319C119.654 65.0438 116.887 62.9942 113.72 61.8239C112.155 61.2653 110.551 60.8228 108.92 60.4999L113.284 79.4039C113.284 79.4039 123.72 90.5399 129.684 95.2239C135.072 99.4519 138.368 97.6719 139.38 96.1319C141.06 93.5759 142.512 92.4959 143.556 76.7719C143.644 75.5719 143.708 74.3399 143.784 73.1239C144.048 70.6039 144.776 68.12 145.836 67.752C147.802 67.1061 149.695 66.2576 151.484 65.2199C152.659 64.5234 153.735 63.6732 154.684 62.6919C155.084 62.2919 155.74 61.6959 155.884 61.1319C156.028 60.5679 155.884 59.9039 156.176 59.3599C156.368 58.9919 156.688 58.7199 156.86 58.3199C157.208 57.5199 157.308 56.5159 157.98 55.8719C158.348 55.5199 158.908 55.2439 158.928 54.7319C158.906 54.5289 158.827 54.3364 158.698 54.1775C158.57 54.0186 158.398 53.9 158.204 53.8359C158.105 53.7914 158.004 53.7527 157.9 53.72Z" fill="#FFBDA7"/>
<path d="M132.068 80.3198C130.736 84.3438 130.636 89.6638 130.636 89.6638C130.636 89.6638 129.16 83.5238 130.84 78.8638L132.068 80.3198Z" fill="#F0997A"/>
<path d="M145.844 58.4961C145.18 60.5241 143.236 62.8601 142.088 63.5561C142.088 63.5561 143.916 62.9081 144.888 61.5801C145.92 60.1241 145.976 59.3001 145.844 58.4961Z" fill="#F0997A"/>
<path d="M108.964 59.9316C115.112 61.3636 117.664 62.3316 120.564 65.5316C123.464 68.7316 132.216 79.5876 132.216 79.5876L132.84 77.6996C132.84 77.6996 132.816 81.7356 136.916 84.6036C141.016 87.4716 142.992 85.9996 142.992 85.9996C142.992 85.9996 142.536 89.1436 141.856 92.0276C141.176 94.9116 139.112 98.1596 136.88 98.4556C134.648 98.7516 131.864 97.6556 126.968 93.3716C122.072 89.0876 111.44 78.8956 111.44 78.8956L108.964 59.9316Z" fill="#E0E0E0"/>
<path opacity="0.1" d="M132.224 79.5758C131.404 82.1518 130.06 86.8638 131.556 90.0758C129.904 88.0118 129.956 83.3358 131.38 78.5278L132.224 79.5758Z" fill="black"/>
<path d="M126.129 142.468L132.029 132.992L141.629 139.792L127.857 153.444C127.857 153.444 121.717 152.332 121.001 149.016C120.285 145.7 124.333 143.396 126.129 142.468Z" fill="#FFBDA7"/>
<path d="M118.656 145.74C118.054 146.104 117.531 146.584 117.116 147.152C116.656 147.72 116.528 150.668 116.02 151.996C115.512 153.324 115.176 153.66 114.38 155.312C113.492 157.14 112.008 158.752 113.092 163.744C114.188 168.804 116.388 171.268 118.32 172.632C119.045 173.087 119.868 173.361 120.72 173.432C120.72 173.432 123.48 172.656 123.208 171.032C122.936 169.408 118.656 145.74 118.656 145.74Z" fill="#263238"/>
<path d="M129.904 152.1C129.788 152.592 129.02 153.3 128.704 153.7C127.624 154.992 127.024 156.812 126.548 158.408C124.304 165.968 127.024 170.144 122.628 172.668C121.364 173.32 118.892 172.896 115.532 167.716C113.816 165.072 113.156 159.88 114.112 157.64C115.068 155.4 116.228 153.984 116.868 152.252C117.508 150.52 117.548 147.192 118.66 145.752C119.37 144.947 120.252 144.313 121.24 143.896C122.016 143.496 123.672 143.064 124.46 142.696C125.308 142.296 125.7 141.896 126.132 142.472L125.176 143.468C123.664 145.22 124.016 145.524 123.976 146.524C123.936 147.524 123.48 148.632 123.2 149.648C124.264 148.52 124.748 147.496 125.784 147.772C126.748 148.032 126.944 148.008 128.324 149.552C129.704 151.096 130 151.66 129.904 152.1Z" fill="#455A64"/>
<path d="M115.528 167.704C113.812 165.06 113.152 159.868 114.108 157.628C114.427 156.888 114.788 156.167 115.188 155.468C115.144 155.62 115.084 155.776 115.052 155.908C114.976 156.204 114.912 156.5 114.856 156.796C114.644 157.944 114.54 159.196 114.936 160.324C115.288 161.32 116.084 163.812 117.372 163.98C118.104 164.072 118.788 163.408 119.14 162.616C119.288 162.28 119.568 161.364 119.568 161.364C120.732 161.74 121.828 162.302 122.812 163.028C124.584 164.436 124.488 164.704 124.488 164.704C124.332 165.237 124.263 165.792 124.284 166.348C124.344 166.949 124.534 167.531 124.84 168.052C124.971 168.21 125.12 168.352 125.284 168.476C125.052 170.244 124.484 171.6 122.624 172.656C121.36 173.308 118.888 172.884 115.528 167.704Z" fill="#37474F"/>
<path d="M126.545 158.4C125.966 160.39 125.625 162.441 125.529 164.512C124.653 166.42 124.037 166.304 124.041 165.28C124.045 164.256 125.773 160.132 127.093 156.72C126.889 157.28 126.709 157.852 126.545 158.4Z" fill="#37474F"/>
<path d="M122.941 145.652C122.941 144.646 123.294 143.673 123.937 142.9C124.129 142.828 124.313 142.76 124.457 142.692C125.305 142.292 125.697 141.892 126.129 142.468L125.173 143.464C123.661 145.216 124.013 145.52 123.973 146.52C123.933 147.52 123.477 148.628 123.197 149.644C122.121 152.916 121.309 153.968 120.661 157.092C120.013 160.216 120.465 162.392 120.005 162.532C119.545 162.672 118.673 162.236 118.729 159.692C118.785 157.148 120.273 152.996 121.237 151.052C122.201 149.108 122.981 147.012 122.941 145.652Z" fill="#37474F"/>
<path d="M119.324 161.564C119.363 161.612 119.417 161.647 119.476 161.664C121.652 162.316 122.784 162.976 124.276 165.06C124.325 165.127 124.399 165.173 124.481 165.187C124.563 165.201 124.648 165.183 124.716 165.136C124.785 165.087 124.831 165.014 124.845 164.931C124.86 164.849 124.841 164.764 124.792 164.696C123.228 162.492 121.992 161.748 119.668 161.06C119.604 161.041 119.534 161.044 119.471 161.067C119.408 161.09 119.354 161.133 119.317 161.19C119.28 161.246 119.262 161.313 119.265 161.38C119.269 161.447 119.294 161.512 119.336 161.564H119.324Z" fill="#EBEBEB"/>
<path d="M119.953 158.968C119.992 159.014 120.043 159.048 120.101 159.068C122.349 159.8 123.565 160.56 125.137 162.756C125.16 162.792 125.191 162.823 125.227 162.846C125.263 162.87 125.304 162.886 125.346 162.893C125.388 162.9 125.432 162.898 125.474 162.888C125.515 162.877 125.555 162.858 125.589 162.832C125.623 162.807 125.653 162.776 125.675 162.74C125.698 162.704 125.713 162.664 125.72 162.622C125.727 162.58 125.726 162.537 125.717 162.495C125.707 162.454 125.689 162.415 125.665 162.38C124.005 160.064 122.685 159.228 120.305 158.452C120.224 158.428 120.137 158.436 120.063 158.475C119.988 158.514 119.931 158.58 119.905 158.66C119.888 158.711 119.883 158.766 119.891 158.82C119.9 158.873 119.921 158.924 119.953 158.968Z" fill="#EBEBEB"/>
<path d="M120.148 156.064C120.194 156.115 120.252 156.154 120.316 156.176C122.792 156.976 124.204 157.896 125.916 160.32C125.974 160.393 126.057 160.441 126.149 160.454C126.241 160.467 126.334 160.444 126.41 160.39C126.485 160.335 126.536 160.254 126.553 160.163C126.57 160.072 126.551 159.977 126.5 159.9C124.676 157.356 123.14 156.348 120.5 155.5C120.41 155.471 120.312 155.478 120.228 155.521C120.143 155.564 120.079 155.638 120.048 155.728C120.036 155.788 120.038 155.85 120.056 155.909C120.073 155.967 120.105 156.021 120.148 156.064Z" fill="#EBEBEB"/>
<path d="M120.801 153.624C120.844 153.675 120.901 153.714 120.965 153.736C123.393 154.536 124.761 155.4 126.465 157.78C126.52 157.849 126.6 157.894 126.688 157.907C126.775 157.919 126.865 157.898 126.937 157.847C127.009 157.796 127.06 157.719 127.078 157.632C127.095 157.545 127.079 157.455 127.033 157.38C125.249 154.884 123.753 153.912 121.181 153.076C121.092 153.047 120.996 153.054 120.912 153.096C120.829 153.138 120.766 153.211 120.737 153.3C120.721 153.355 120.718 153.413 120.729 153.469C120.741 153.526 120.765 153.579 120.801 153.624Z" fill="#EBEBEB"/>
<path d="M121.904 151.292C121.947 151.342 122.002 151.38 122.064 151.404C124.492 152.204 125.86 153.068 127.564 155.448C127.587 155.492 127.62 155.531 127.659 155.562C127.698 155.593 127.744 155.615 127.793 155.627C127.841 155.639 127.892 155.64 127.941 155.631C127.99 155.622 128.037 155.602 128.078 155.574C128.119 155.545 128.154 155.508 128.179 155.465C128.205 155.422 128.221 155.374 128.226 155.324C128.232 155.274 128.227 155.224 128.211 155.176C128.196 155.128 128.17 155.085 128.136 155.048C126.344 152.548 124.856 151.58 122.284 150.744C122.196 150.715 122.099 150.722 122.016 150.764C121.933 150.806 121.869 150.879 121.84 150.968C121.822 151.023 121.819 151.081 121.83 151.138C121.841 151.195 121.867 151.248 121.904 151.292Z" fill="#EBEBEB"/>
<path d="M128.793 143.5L134.885 149.436L138.393 152.084L133.461 159.724L122.029 152.972L128.793 143.5Z" fill="#FFBDA7"/>
<path d="M118.552 106.532C118.552 106.532 142.764 104.656 152.972 105.612C163.372 106.584 163.676 114.496 160.648 119.06C154.856 127.804 135.796 145.752 135.796 145.752C135.796 145.752 130.196 142.572 128.844 137.372L133.6 128.636L120.8 131.536L114.8 126.708L114.564 123.416L118.552 106.532Z" fill="#455A64"/>
<path d="M118.552 106.532L76.6322 109.808C76.6322 109.808 75.3642 119.664 78.4802 128.864C81.1562 136.764 87.6802 140.736 92.9082 142.016C97.0004 142.941 101.14 143.644 105.308 144.12C105.308 144.12 108.328 146.94 111.504 148.52C114.68 150.1 128.544 157.396 128.544 157.396C128.544 157.396 132.884 154.328 133.104 147.16L120.8 131.536C118.052 127.536 117.08 126.216 115.44 125.22C118.22 114.572 118.36 112.14 118.552 106.532Z" fill="#455A64"/>
<path d="M118.945 128.936C120.193 130.688 120.789 131.536 120.789 131.536L122.841 131.056C122.841 131.056 119.641 126.9 117.533 124.68C115.229 122.244 111.933 121.828 108.733 122.08C104.677 122.396 92.9209 123.36 92.9209 123.36C92.9209 123.36 104.121 123.328 109.909 123.608C115.697 123.888 117.693 127.2 118.945 128.936Z" fill="#37474F"/>
<path d="M116.228 113.256C115.988 117.316 113.4 121.868 111.908 123.052L114.308 124.14C114.308 124.14 117.2 118.64 116.228 113.256Z" fill="#37474F"/>
<path d="M136.353 121.084C134.186 123.729 132.174 126.496 130.325 129.372L133.597 128.636C137.933 120.396 138.885 117.968 144.969 114.464C144.969 114.464 140.721 115.656 136.353 121.084Z" fill="#37474F"/>
<path d="M102.692 139.06C102.692 139.06 104.592 142.4 111.376 146C115.192 148.024 127.024 153.888 130.672 155.092C130.094 155.97 129.38 156.75 128.556 157.404C128.556 157.404 114.688 150.12 111.516 148.528C110.828 148.176 110.161 147.786 109.516 147.36C109.232 147.176 108.952 146.988 108.684 146.8C107.984 146.308 107.352 145.82 106.828 145.396C106.304 144.972 105.892 144.616 105.628 144.388L105.364 144.148L105.328 144.116C102.46 141.156 102.692 139.06 102.692 139.06Z" fill="#37474F"/>
<path d="M153.065 157.568C155.773 158.916 157.413 160.184 158.561 161.992C159.709 163.8 159.957 165.552 158.561 167.496C157.165 169.44 154.677 171.656 152.001 171.264C149.325 170.872 147.733 170.064 145.353 168.488L153.065 157.568Z" fill="#263238"/>
<path d="M130.42 158C130.308 158.836 133.708 160.8 137.24 162.9C141.024 165.128 141.888 166.44 144.972 168.308C148.5 170.44 149.888 170.668 152.816 170.124C155.744 169.58 159.616 165.792 157.5 161.816C155.764 158.576 153.244 157.508 149.396 156.128C146.334 155.065 143.345 153.802 140.448 152.348C137.704 150.996 135.532 148.808 134.884 149.448C135.284 149.68 138.084 151.772 137.48 152.224C137.32 152.468 136.904 152.352 136.2 151.984C136.051 151.889 135.882 151.828 135.707 151.805C135.532 151.781 135.353 151.796 135.184 151.848C134.842 152.035 134.563 152.321 134.384 152.668C133.852 153.468 133.748 153.988 133.296 154.844C133.028 155.344 133.148 155.052 132.896 155.56C132.616 156.128 132.096 156.976 132.096 157.52C132.096 157.848 132.328 157.972 132.564 158.152C132.8 158.332 133.136 158.552 133.364 158.756C133.452 158.84 133.6 159.096 133.536 159.212C133.428 159.412 132.924 159.268 132.736 159.16C132.548 159.052 132.18 158.936 131.936 158.816C131.692 158.696 131.044 158.344 130.42 158Z" fill="#455A64"/>
<path d="M143.761 167.576C144.269 167.888 147.477 169.732 148.609 168.892C149.833 167.984 147.289 166.14 147.289 166.14C147.289 166.14 147.101 163.584 150.469 160.14C150.961 160.592 153.161 160.764 153.245 159.468C153.329 158.172 149.781 156.268 149.729 156.236C153.409 157.572 155.817 158.656 157.501 161.804C159.629 165.78 155.745 169.564 152.817 170.112C149.889 170.66 148.501 170.428 144.973 168.296C144.621 168.08 144.069 167.792 143.761 167.576Z" fill="#37474F"/>
<path d="M147.672 165.92C149.024 166.508 147.956 167.692 145.952 167.12C142.944 166.236 140.552 164.276 137.24 162.904C133.708 160.824 130.1 158.864 130.42 157.952C131.06 158.256 132.42 158.968 132.42 158.968C132.688 159.108 133.376 159.436 133.376 159.436C136.064 160.884 138.976 163.092 141.932 164.176C144.524 165.112 146.316 165.332 147.672 165.92Z" fill="#37474F"/>
<path d="M150.225 160.6C149.025 159.748 148.845 159.1 146.441 157.732C144.037 156.364 140.021 153.536 137.541 151.784C136.615 151.048 135.728 150.264 134.885 149.436C135.361 148.98 136.917 149.572 138.425 150.72C139.933 151.868 140.849 152.588 142.357 153.548C145.269 155.664 148.665 157.216 150.321 158.496C151.977 159.776 151.437 161.448 150.225 160.6Z" fill="#37474F"/>
<path d="M150.44 160.276C150.419 160.316 150.392 160.352 150.36 160.384C150.328 160.408 148.14 162.428 147.432 166.352C147.417 166.441 147.371 166.523 147.301 166.581C147.231 166.639 147.143 166.67 147.052 166.668C147.009 166.662 146.968 166.647 146.932 166.624C146.895 166.601 146.864 166.57 146.84 166.534C146.816 166.499 146.8 166.458 146.794 166.415C146.787 166.373 146.789 166.329 146.8 166.288C147.56 162.092 149.852 159.976 149.98 159.864C150.009 159.833 150.045 159.809 150.085 159.793C150.124 159.778 150.167 159.771 150.209 159.773C150.252 159.775 150.294 159.787 150.331 159.806C150.369 159.826 150.402 159.854 150.428 159.888C150.466 159.945 150.487 160.011 150.489 160.08C150.491 160.148 150.474 160.216 150.44 160.276Z" fill="#F0F0F0"/>
<path d="M148.125 158.252C148.104 158.289 148.079 158.322 148.049 158.352C146.254 160.341 145.013 162.765 144.449 165.384C144.433 165.476 144.383 165.558 144.309 165.615C144.234 165.671 144.142 165.697 144.049 165.688C144.005 165.68 143.964 165.663 143.928 165.637C143.892 165.612 143.862 165.58 143.839 165.542C143.816 165.504 143.802 165.462 143.797 165.418C143.791 165.374 143.796 165.33 143.809 165.288C144.39 162.507 145.711 159.933 147.633 157.84C147.661 157.808 147.696 157.782 147.735 157.764C147.774 157.746 147.816 157.737 147.859 157.737C147.902 157.737 147.944 157.746 147.983 157.764C148.022 157.782 148.057 157.808 148.085 157.84C148.131 157.897 148.16 157.967 148.167 158.04C148.174 158.113 148.16 158.187 148.125 158.252Z" fill="#F0F0F0"/>
<path d="M142.049 164.912C142.019 164.971 141.974 165.02 141.918 165.055C141.863 165.091 141.798 165.11 141.733 165.112C141.69 165.109 141.648 165.096 141.611 165.076C141.573 165.056 141.54 165.028 141.514 164.994C141.488 164.96 141.469 164.92 141.459 164.879C141.449 164.837 141.449 164.794 141.457 164.752C141.993 160.292 145.241 156.352 145.389 156.212C145.418 156.181 145.454 156.157 145.493 156.141C145.533 156.126 145.576 156.119 145.618 156.121C145.661 156.123 145.702 156.135 145.74 156.155C145.778 156.174 145.811 156.202 145.837 156.236C145.883 156.314 145.902 156.406 145.89 156.496C145.877 156.586 145.835 156.669 145.769 156.732C145.733 156.76 142.593 160.616 142.097 164.768C142.089 164.818 142.073 164.867 142.049 164.912Z" fill="#F0F0F0"/>
<path d="M139.889 163.252C139.859 163.309 139.814 163.357 139.759 163.392C139.704 163.426 139.642 163.445 139.577 163.448C139.534 163.445 139.493 163.434 139.455 163.415C139.417 163.395 139.383 163.368 139.356 163.335C139.33 163.302 139.31 163.263 139.299 163.222C139.288 163.181 139.286 163.138 139.293 163.096C139.659 160.012 141.097 157.154 143.357 155.024C143.388 154.995 143.425 154.973 143.466 154.96C143.507 154.947 143.55 154.943 143.592 154.948C143.634 154.953 143.675 154.968 143.711 154.991C143.747 155.013 143.778 155.044 143.801 155.08C143.842 155.16 143.855 155.252 143.838 155.34C143.821 155.429 143.774 155.509 143.705 155.568C141.628 157.577 140.298 160.233 139.933 163.1C139.929 163.153 139.914 163.205 139.889 163.252Z" fill="#F0F0F0"/>
<path d="M137.029 161.74C137 161.796 136.957 161.845 136.903 161.879C136.85 161.914 136.788 161.933 136.724 161.936C136.682 161.934 136.64 161.924 136.601 161.905C136.563 161.887 136.529 161.86 136.502 161.827C136.474 161.794 136.454 161.756 136.443 161.714C136.432 161.673 136.43 161.63 136.436 161.588C136.86 156.936 140.437 153.624 140.605 153.492C140.635 153.461 140.672 153.438 140.712 153.424C140.753 153.409 140.796 153.404 140.839 153.408C140.882 153.412 140.923 153.426 140.96 153.448C140.997 153.47 141.028 153.5 141.053 153.536C141.096 153.615 141.111 153.708 141.095 153.797C141.079 153.886 141.033 153.968 140.965 154.028C140.929 154.056 137.473 157.264 137.077 161.584C137.073 161.639 137.056 161.692 137.029 161.74Z" fill="#EBEBEB"/>
<path d="M116.045 75.4837C116.445 64.3397 114.217 61.0597 108.645 59.9477L99.4448 58.1597C96.6448 58.4837 84.2208 62.8877 80.9328 63.7157C78.8128 64.2517 77.5488 68.5437 76.5088 75.3437C75.6648 80.8717 75.7448 85.2717 75.2568 92.9717C74.8568 99.4237 75.3608 109.892 76.5488 119.012C94.1488 125.7 116.121 115.324 118.201 106.884C117.685 104.528 114.321 100.548 114.273 95.8997C115.397 86.2637 115.917 78.9877 116.045 75.4837Z" fill="#263238"/>
<path d="M80.7328 63.448L90.5968 59.5C90.5968 59.5 91.5488 62.536 93.7488 68.364C95.9488 74.192 95.8208 76.736 95.2208 86.52C94.6208 96.304 93.8168 106.8 97.6008 121.056C92.9928 121.68 86.7248 122.752 75.8488 119.856C75.8488 119.856 74.6488 109.972 74.7968 92.004C74.8728 82 75.6008 65.844 80.7328 63.448Z" fill="#EBEBEB"/>
<path d="M103.529 59.812C107.345 61.692 109.857 66.332 110.265 72.484C110.673 78.636 110.081 94.1839 110.333 98.82C110.585 103.456 114.801 112.532 114.801 112.532C116.792 110.858 118.405 108.78 119.533 106.436C117.553 103.328 115.833 99.1039 115.781 95.2559C115.729 91.4079 117.145 79.2559 116.981 74.5599C116.817 69.8639 116.881 63.36 111.545 60.752C109.249 59.62 103.681 58.752 103.681 58.752L103.529 59.812Z" fill="#EBEBEB"/>
<path d="M110.401 76.0241C110.253 71.5081 108.401 63.3001 103.713 61.2521C103.57 60.7864 103.514 60.2981 103.549 59.8121L103.797 57.4961C105.201 58.1308 106.526 58.9268 107.745 59.8681C109.713 61.4001 112.945 66.0241 113.569 69.5801C111.601 67.6201 110.525 70.4401 110.401 76.0241Z" fill="#FAFAFA"/>
<path d="M89.737 32.5757C89.737 32.5757 87.6891 32.6557 86.2531 35.1837C85.5331 36.4517 84.9611 38.7837 86.5571 45.6117C87.5811 50.0117 88.9571 51.9437 89.5291 53.1757C89.9271 53.9306 90.6002 54.5035 91.4091 54.7757L91.4651 49.5757L91.405 45.9757C91.405 45.9757 94.417 43.4397 94.761 40.8517C95.209 37.5197 93.961 35.5797 93.961 35.5797L89.737 32.5757Z" fill="#37474F"/>
<path d="M89.021 32.7239C89.637 29.8279 93.461 26.4839 100.621 26.3679C106.477 26.2719 109.821 28.4079 111.729 31.8879C113.637 35.3679 112.129 39.7359 112.129 39.7359L93.809 37.8599L89.021 32.7239Z" fill="#37474F"/>
<path d="M86.6692 50.9438C89.3092 52.3518 90.6132 50.2718 90.6132 50.2718V61.9278C95.5172 69.0238 109.385 66.7518 103.929 61.3718L104.029 58.0918C104.81 58.0848 105.591 58.03 106.365 57.9278C107.572 57.7801 108.709 57.2802 109.634 56.4906C110.558 55.7011 111.23 54.6567 111.565 53.4878C112.765 49.7158 112.925 43.5918 111.729 37.0518C111.497 35.7878 111.009 34.3998 109.877 33.7878C107.077 32.2718 104.357 34.1878 100.325 35.6158C98.6532 36.1958 94.6452 36.3318 93.6092 35.7958C94.9412 37.3958 94.0092 41.3198 93.5812 42.5638C92.9812 44.3558 92.1852 45.2118 91.8012 45.2758C90.1612 45.5598 90.0212 44.1518 89.3212 43.3598C88.6212 42.5678 85.8932 41.7918 84.6172 44.2598C84.3049 44.8316 84.1101 45.4601 84.0444 46.1083C83.9787 46.7566 84.0434 47.4114 84.2346 48.0342C84.4258 48.6571 84.7397 49.2354 85.1578 49.7351C85.5759 50.2347 86.0898 50.6457 86.6692 50.9438Z" fill="#FFBDA7"/>
<path d="M93.9648 54.6396C94.4288 57.2916 97.9288 59.1596 103.965 59.5236L104.009 58.0916C102.53 58.0205 101.058 57.8319 99.6088 57.5276C96.8008 56.9556 93.9648 54.6396 93.9648 54.6396Z" fill="#F0997A"/>
<path d="M97.7646 39.924L100.321 38.624C100.487 38.9741 100.511 39.3746 100.39 39.7425C100.269 40.1104 100.01 40.4175 99.6686 40.6C99.5 40.6846 99.3159 40.7343 99.1275 40.746C98.9392 40.7576 98.7504 40.7311 98.5725 40.6679C98.3947 40.6048 98.2314 40.5064 98.0926 40.3785C97.9538 40.2507 97.8422 40.0961 97.7646 39.924Z" fill="#37474F"/>
<path d="M108.121 36.1958L110.449 37.8998C110.345 38.0571 110.211 38.1916 110.054 38.2952C109.896 38.3988 109.72 38.4692 109.534 38.5021C109.349 38.5351 109.159 38.5299 108.976 38.4868C108.792 38.4438 108.62 38.3638 108.469 38.2518C108.158 38.0193 107.948 37.6761 107.884 37.2934C107.819 36.9107 107.904 36.5177 108.121 36.1958Z" fill="#37474F"/>
<path d="M99.0374 42.8317C99.0266 43.0623 99.0844 43.291 99.2035 43.4888C99.3226 43.6866 99.4977 43.8446 99.7066 43.943C99.9155 44.0413 100.149 44.0756 100.377 44.0414C100.606 44.0072 100.819 43.906 100.99 43.7508C101.16 43.5955 101.281 43.3931 101.337 43.1691C101.393 42.945 101.382 42.7095 101.304 42.4921C101.226 42.2748 101.085 42.0854 100.9 41.9479C100.714 41.8104 100.492 41.731 100.261 41.7197C100.108 41.7121 99.9546 41.7349 99.81 41.7868C99.6654 41.8386 99.5324 41.9185 99.4187 42.0218C99.305 42.125 99.2128 42.2498 99.1474 42.3887C99.082 42.5277 99.0446 42.6782 99.0374 42.8317Z" fill="#263238"/>
<path d="M108.137 42.452C108.125 42.6829 108.183 42.9121 108.301 43.1105C108.42 43.3089 108.595 43.4676 108.804 43.5665C109.013 43.6654 109.247 43.7 109.475 43.666C109.704 43.632 109.918 43.5308 110.089 43.3754C110.26 43.2199 110.381 43.0171 110.437 42.7927C110.493 42.5683 110.481 42.3324 110.402 42.1149C110.324 41.8973 110.183 41.7079 109.997 41.5707C109.811 41.4335 109.588 41.3545 109.357 41.344C109.201 41.3199 109.041 41.3309 108.89 41.3764C108.739 41.4219 108.6 41.5007 108.483 41.6069C108.366 41.7131 108.274 41.8441 108.214 41.9903C108.154 42.1365 108.128 42.2942 108.137 42.452Z" fill="#263238"/>
<path d="M103.929 40.312L104.033 47.94L108.285 46.996C107.449 43.96 105.437 41.828 103.929 40.312Z" fill="#F0997A"/>
<path d="M102.685 50.9998C102.645 50.9599 102.596 50.9309 102.541 50.9158L102.429 50.8758H102.453C102.413 50.8573 102.369 50.8464 102.325 50.8438C102.31 50.8463 102.296 50.8533 102.285 50.8638C102.279 50.8793 102.279 50.8963 102.285 50.9118C102.283 50.932 102.286 50.9523 102.294 50.9711C102.302 50.9899 102.314 51.0066 102.329 51.0198C102.378 51.058 102.432 51.089 102.489 51.1118L102.625 51.1678C102.65 51.1778 102.677 51.1778 102.701 51.1678C102.71 51.1582 102.716 51.1466 102.72 51.1342C102.723 51.1217 102.724 51.1085 102.721 51.0958C102.719 51.0609 102.707 51.0274 102.685 50.9998ZM103.725 50.6318C103.631 50.547 103.529 50.4707 103.421 50.4038C103.206 50.2642 102.977 50.1476 102.737 50.0558C102.504 49.966 102.263 49.8977 102.017 49.8518C101.756 49.7815 101.483 49.7692 101.217 49.8158C101.029 49.8638 101.177 50.0878 101.293 50.1198C101.577 50.1998 101.881 50.1958 102.169 50.2758C102.396 50.3374 102.617 50.4191 102.829 50.5198C103.04 50.6201 103.244 50.7365 103.437 50.8678C103.553 50.9398 103.673 51.0038 103.785 51.0758C103.826 51.111 103.876 51.1345 103.929 51.1438C104.001 51.1438 104.013 51.1038 104.005 51.0398C103.957 50.8776 103.859 50.7348 103.725 50.6318Z" fill="#B16668"/>
<path d="M95.6007 77.7396C95.2847 68.8796 91.0887 70.7716 90.0007 73.5756C87.2287 68.5236 87.6487 62.2676 87.8407 60.6396C88.8407 59.2076 89.0007 58.8956 89.4407 58.1916C90.0327 57.2556 90.1167 57.0676 90.6167 56.9116V59.4996C90.6167 59.4996 91.3327 61.2356 93.6727 64.6996C95.3687 67.2196 95.7847 70.3036 95.6007 77.7396Z" fill="#FAFAFA"/>
<path d="M43.3442 51.1316C43.9905 51.0805 44.6387 51.2049 45.2202 51.4916C45.9 51.8373 46.5444 52.2486 47.1442 52.7196C48.0935 53.4023 49.0628 54.0516 50.0522 54.6676C50.9362 55.2116 51.8682 55.8236 52.9122 55.9876C53.2642 56.0396 54.0082 56.0476 53.6242 55.5196C53.0825 54.8594 52.5981 54.1541 52.1762 53.4116C51.9684 53.0388 51.8405 52.6269 51.8005 52.202C51.7606 51.7771 51.8095 51.3486 51.9442 50.9436C52.0258 50.6969 52.1971 50.4899 52.4242 50.3636C52.7522 50.2076 52.9242 50.3636 53.1162 50.5956C53.3256 50.8176 53.5501 51.0247 53.7882 51.2156C54.2642 51.6156 54.7362 52.0396 55.2082 52.4596C57.9482 54.8996 61.2722 57.0116 62.4682 60.5636C62.6402 61.0796 62.9842 63.3876 63.0442 67.3036C63.1042 71.2196 64.3722 80.3996 64.3722 80.3996C64.3722 80.3996 66.1322 78.1716 70.3722 72.4596C74.2562 67.2156 75.4762 65.1796 78.8362 64.1036C80.3562 63.6196 82.0362 63.2356 82.5482 63.0956C85.3482 66.4076 83.6282 77.8476 78.3442 83.4596C78.3442 83.4596 70.8802 92.6196 64.8402 97.4316C59.4802 101.696 55.9682 99.1796 55.2402 97.4956C54.0042 94.6956 52.1402 91.8956 53.7002 76.2316C53.8122 75.0316 53.9522 73.8076 54.0762 72.5956C54.2282 70.0636 53.9162 67.4996 52.9322 66.9596C51.1008 65.9983 49.3742 64.8495 47.7802 63.5316C46.7389 62.6501 45.8189 61.6346 45.0442 60.5116C44.7242 60.0396 44.1682 59.3556 44.1042 58.7756C44.0402 58.1956 44.2882 57.5756 44.1042 56.9796C43.9802 56.5796 43.7042 56.2636 43.6042 55.8396C43.3962 54.9756 43.4602 53.9876 42.9042 53.2436C42.5962 52.8436 42.1042 52.4676 42.1562 51.9636C42.2094 51.7663 42.3192 51.5888 42.472 51.4531C42.6248 51.3173 42.8139 51.2292 43.0162 51.1996C43.1236 51.1685 43.2332 51.1458 43.3442 51.1316Z" fill="#FFBDA7"/>
<path d="M64.3721 80.3998C65.0201 84.5878 64.4041 90.3998 64.4041 90.3998C64.4041 90.3998 66.7601 83.2998 65.8681 78.4438L64.3721 80.3998Z" fill="#F0997A"/>
<path d="M54.4482 57.8276C54.7722 59.9356 56.3042 62.5596 57.3242 63.4276C57.3242 63.4276 55.6242 62.4836 54.9002 61.0276C54.1042 59.4196 54.1882 58.5996 54.4482 57.8276Z" fill="#F0997A"/>
<path d="M82.8282 62.6118C80.0282 63.3118 77.4602 64.0118 76.0282 65.1318C74.5962 66.2518 73.6282 67.5838 71.5242 70.4438C69.4202 73.3038 64.5242 79.6438 64.5242 79.6438L63.7922 75.6438C63.7922 75.6438 63.9082 78.0718 61.4202 80.1918C58.9322 82.3118 54.1682 83.2318 53.0642 81.6878C53.0642 81.6878 52.5562 87.8358 53.0642 91.5678C53.5722 95.2998 55.2322 98.6478 56.3362 99.7878C57.4402 100.928 59.5122 101.036 63.2042 98.9878C66.8962 96.9398 73.0242 90.2838 75.4322 87.4918C77.8402 84.6998 79.7242 82.9998 80.7562 81.2758C81.7882 79.5518 86.9162 68.9198 82.8282 62.6118Z" fill="#E0E0E0"/>
<path opacity="0.1" d="M64.504 79.6521C65.236 83.1201 65.18 87.9641 64.064 90.7961C66.576 86.1921 66.064 80.9001 65.552 78.2881L64.504 79.6521Z" fill="black"/>
<path d="M53.4725 156.4H26.4805L29.2805 168.028C29.4925 169.428 30.5245 170.796 32.3805 171.872C36.5805 174.292 43.3845 174.292 47.5805 171.872C49.5805 170.716 50.6165 169.22 50.7125 167.708L53.4725 156.4Z" fill="#37474F"/>
<path d="M50.1805 164.356C50.7452 164.025 51.2805 163.647 51.7805 163.224L53.2965 157.012C52.5091 157.877 51.5881 158.611 50.5685 159.184C44.8725 162.468 35.7685 162.552 29.8605 159.448L30.5485 156.68L30.3365 156.388H26.4805L29.2805 167.988C29.4925 169.388 30.5245 170.756 32.3805 171.832C35.3725 173.556 39.6805 174.048 43.4325 173.312C36.7085 173.816 32.0965 170.876 31.4045 168.164C31.1285 167.084 30.6445 164.688 30.6445 164.688C36.2565 167.564 44.8005 167.452 50.1805 164.356Z" fill="#263238"/>
<path d="M54.8769 152.948C54.722 153.701 54.4143 154.415 53.9729 155.044C53.0924 156.295 51.9341 157.324 50.5889 158.052C44.7289 161.436 35.2289 161.436 29.3889 158.052C28.0433 157.323 26.8839 156.294 26.0009 155.044C25.565 154.412 25.2603 153.7 25.1049 152.948C24.5849 150.404 26.0169 147.748 29.3929 145.804C35.2529 142.42 44.7529 142.42 50.6129 145.804C53.9649 147.756 55.3969 150.4 54.8769 152.948Z" fill="#455A64"/>
<path d="M53.973 155.044C53.0925 156.295 51.9342 157.324 50.589 158.052C44.729 161.436 35.229 161.436 29.389 158.052C28.0434 157.323 26.884 156.294 26.001 155.044C25.5651 154.413 25.2604 153.7 25.105 152.948L25.773 157.524C26.077 159.364 27.449 161.156 29.893 162.568C35.493 165.788 44.525 165.788 50.113 162.568C52.513 161.172 53.893 159.404 54.221 157.588L54.257 157.352L54.901 152.952C54.7383 153.706 54.4224 154.418 53.973 155.044Z" fill="#37474F"/>
<path d="M48.8205 146.824C43.9365 144.004 36.0205 144.004 31.1405 146.824C28.3765 148.424 27.1805 150.576 27.5405 152.656C27.8205 154.256 29.0205 155.808 31.1405 157.032C36.0205 159.852 43.9405 159.852 48.8205 157.032C50.9365 155.808 52.1365 154.252 52.4205 152.66C52.8005 150.576 51.6005 148.42 48.8205 146.824Z" fill="#263238"/>
<path d="M28.3647 154.588C29.0981 155.598 30.0462 156.432 31.1407 157.032C36.0207 159.852 43.9407 159.852 48.8207 157.032C49.9142 156.432 50.8609 155.598 51.5927 154.588C51.5567 152.9 50.4247 151.22 48.1927 149.932C43.6567 147.308 36.3007 147.308 31.7647 149.932C29.5327 151.22 28.4007 152.9 28.3647 154.588Z" fill="#FAFAFA"/>
<path d="M40.9133 149.34C38.6693 148.732 38.2893 143.872 39.5453 138.744C40.7693 133.752 44.6853 126.268 45.5173 126.432C46.3493 126.596 47.3893 134.732 46.8013 140.104C46.0933 146.612 43.1573 149.948 40.9133 149.34Z" fill="#1C6758"/>
<path opacity="0.3" d="M40.9133 149.34C38.6693 148.732 38.2893 143.872 39.5453 138.744C40.7693 133.752 44.6853 126.268 45.5173 126.432C46.3493 126.596 47.3893 134.732 46.8013 140.104C46.0933 146.612 43.1573 149.948 40.9133 149.34Z" fill="black"/>
<path opacity="0.5" d="M42.0007 133.628C42.4007 134.264 42.6527 135.34 43.6007 135.344C44.3567 135.344 44.7527 134.544 45.4327 134.36C45.7012 134.32 45.9753 134.339 46.2353 134.417C46.4953 134.496 46.7349 134.63 46.9367 134.812C46.9367 134.616 46.9367 134.412 46.9127 134.228C46.5366 133.945 46.0829 133.785 45.6127 133.768C45.2066 133.811 44.8252 133.984 44.5247 134.26C44.1767 134.532 43.7487 134.944 43.2647 134.744C42.7807 134.544 42.5647 133.836 42.2847 133.376C42.1375 133.126 41.9333 132.915 41.6887 132.76C41.6247 132.9 41.5647 133.036 41.5047 133.16C41.7107 133.266 41.8827 133.428 42.0007 133.628ZM44.6647 131.628C44.9847 131.476 45.1727 131.156 45.4207 130.916C45.5716 130.772 45.7608 130.674 45.9658 130.634C46.1707 130.594 46.3828 130.614 46.5767 130.692L46.6167 130.712C46.6167 130.54 46.5727 130.368 46.5527 130.204C46.4828 130.179 46.4104 130.161 46.3367 130.152C46.01 130.095 45.674 130.168 45.4007 130.356C45.0887 130.576 44.9167 130.96 44.6007 131.156C44.0127 131.504 43.5447 130.868 43.3727 130.388C43.2927 130.172 43.2327 129.948 43.1607 129.732L42.9807 130.076C43.0207 130.228 43.0607 130.384 43.1047 130.532C43.3007 131.152 43.9007 132 44.6687 131.62L44.6647 131.628ZM44.5887 138.12C44.1887 138.368 43.8367 138.788 43.3647 138.92C42.2047 139.248 41.9407 137.464 41.2047 136.92C40.9004 136.704 40.5275 136.607 40.1567 136.648C40.1087 136.784 40.0647 136.92 40.0207 137.048C40.2148 137.01 40.4145 137.01 40.6087 137.048C40.8329 137.115 41.0397 137.23 41.2146 137.386C41.3894 137.541 41.5281 137.733 41.6207 137.948C41.9887 138.612 42.4567 139.548 43.3847 139.376C43.781 139.253 44.1464 139.047 44.4567 138.772C44.6717 138.593 44.9226 138.463 45.1925 138.39C45.4624 138.316 45.7448 138.302 46.0207 138.348C46.3479 138.43 46.6501 138.59 46.9007 138.816C46.9007 138.644 46.9007 138.468 46.9287 138.288C46.6212 138.037 46.2526 137.873 45.8607 137.812C45.4164 137.768 44.97 137.873 44.5927 138.112L44.5887 138.12ZM45.2927 142.044C44.7757 141.929 44.2346 142 43.7647 142.244C43.2287 142.508 42.8407 143.044 42.2807 143.236C41.0567 143.7 40.8687 141.928 39.9727 141.496C39.6857 141.356 39.3671 141.294 39.0487 141.316C39.0487 141.456 39.0087 141.592 38.9927 141.716C39.111 141.704 39.2303 141.704 39.3487 141.716C39.6245 141.758 39.885 141.869 40.1056 142.04C40.3261 142.211 40.4993 142.435 40.6087 142.692C41.0407 143.492 41.6087 144.152 42.6087 143.668C43.1367 143.412 43.5167 142.928 44.0607 142.696C44.3492 142.55 44.6729 142.488 44.9948 142.518C45.3167 142.548 45.6238 142.668 45.8807 142.864C46.01 142.991 46.1254 143.132 46.2247 143.284C46.2727 143.112 46.3127 142.928 46.3567 142.752C46.0934 142.401 45.7201 142.149 45.2967 142.036L45.2927 142.044Z" fill="#1C6758"/>
<path opacity="0.1" d="M40.9133 149.34C43.1573 149.948 46.1133 146.608 46.8013 140.104C46.9803 138.25 47.0231 136.385 46.9293 134.524C45.0933 136.028 43.2573 139.1 43.2573 139.1C42.6202 137.426 41.8925 135.787 41.0773 134.192C40.4613 135.672 39.9494 137.193 39.5453 138.744C38.2893 143.872 38.6693 148.732 40.9133 149.34Z" fill="black"/>
<path d="M39.0849 152.036C36.1329 153.932 33.3809 147.192 31.9129 142.108C30.4449 137.024 31.4049 123.728 32.8889 123C33.9449 122.484 39.5169 134.4 40.6129 140.2C41.4049 144.4 41.4329 150.532 39.0849 152.036Z" fill="#1C6758"/>
<path opacity="0.1" d="M39.0849 152.036C36.1329 153.932 33.3809 147.192 31.9129 142.108C30.4449 137.024 31.4049 123.728 32.8889 123C33.9449 122.484 39.5169 134.4 40.6129 140.2C41.4049 144.4 41.4329 150.532 39.0849 152.036Z" fill="black"/>
<path d="M32.7128 132.4C33.6408 132.856 34.3768 132.86 35.1128 132.076C35.8488 131.292 36.2808 130.432 37.3288 130.552C37.2288 130.316 37.1248 130.084 37.0248 129.856C36.8524 129.846 36.6795 129.863 36.5128 129.908C35.5968 130.152 35.1888 131.108 34.5448 131.708C33.5528 132.636 32.4968 131.416 31.3768 131.484H31.2768C31.2768 131.688 31.2768 131.884 31.2488 132.096C31.7552 132.065 32.2606 132.17 32.7128 132.4ZM40.8288 141.548C40.6702 141.489 40.507 141.442 40.3408 141.408C40.0995 141.361 39.8511 141.365 39.6114 141.419C39.3717 141.474 39.146 141.578 38.9488 141.724C38.0568 142.38 38.0128 143.836 36.5488 143.456C35.4488 143.164 34.6288 142.44 33.4728 143.02C33.078 143.227 32.72 143.497 32.4128 143.82L32.5808 144.328C32.9722 143.909 33.4677 143.602 34.0168 143.436C35.2608 143.116 36.2008 144.372 37.4368 144.168C38.4448 144 38.5568 142.892 39.2568 142.344C39.7768 141.944 40.3328 142.04 40.8928 142.244C40.8888 142 40.8568 141.764 40.8288 141.536V141.548ZM32.7648 127.56C33.1128 128.036 33.5968 128.56 34.2368 128.232C34.8768 127.904 34.9728 127.032 35.4128 126.508C35.3328 126.352 35.2528 126.196 35.1728 126.048C34.7488 126.62 34.5328 127.864 33.7168 127.82C33.0728 127.784 32.8248 126.836 32.2848 126.56C32.1215 126.474 31.9361 126.44 31.7528 126.46L31.6928 126.86H31.8208C32.2688 126.856 32.5288 127.232 32.7648 127.56ZM34.9888 137.652C36.1568 137.904 36.7248 136.516 37.2488 135.748C37.6271 135.137 38.1863 134.659 38.8488 134.38L38.6088 133.752C38.3955 133.796 38.1904 133.873 38.0008 133.98C37.4876 134.304 37.0564 134.742 36.7408 135.26C36.3888 135.784 36.0968 136.488 35.5408 136.86C34.9168 137.26 34.1848 136.632 33.5408 136.512C32.9395 136.403 32.32 136.454 31.7448 136.66C31.5529 136.728 31.3692 136.816 31.1968 136.924C31.1968 137.212 31.2128 137.496 31.2448 137.776C31.7746 137.337 32.449 137.11 33.1368 137.14C33.8488 137.14 34.3528 137.516 34.9888 137.652Z" fill="#1C6758"/>
<path opacity="0.1" d="M39.0651 134.916C38.0885 136.105 37.2808 137.422 36.6651 138.832C36.6651 138.832 33.4651 134.488 31.2091 132.516C31.0851 136.116 31.2651 139.896 31.9051 142.116C33.3731 147.2 36.1251 153.94 39.0771 152.044C41.4251 150.54 41.3971 144.4 40.6051 140.204C40.2254 138.405 39.7106 136.638 39.0651 134.916Z" fill="black"/>
<path d="M38.8807 155.5C33.4847 155.792 28.4407 152.524 25.1687 148.404C21.8967 144.284 19.3407 135.772 20.0807 135.248C20.8207 134.724 29.5287 140.096 32.8007 143.972C37.0887 149.052 38.8807 155.5 38.8807 155.5Z" fill="#1C6758"/>
<path opacity="0.2" d="M38.8807 155.5C33.4847 155.792 28.4407 152.524 25.1687 148.404C21.8967 144.284 19.3407 135.772 20.0807 135.248C20.8207 134.724 29.5287 140.096 32.8007 143.972C37.0887 149.052 38.8807 155.5 38.8807 155.5Z" fill="black"/>
<path d="M27.1013 142C27.4173 141.492 27.2373 140.88 27.1693 140.332C27.113 139.968 27.1897 139.596 27.3853 139.284L26.7773 138.852C26.5355 139.3 26.4577 139.818 26.5573 140.316C26.6453 140.94 26.7973 141.716 25.9613 141.828C25.0533 141.952 23.7973 141.14 23.0693 142.04C22.7173 142.476 22.8533 143.032 22.8413 143.54C22.8276 143.772 22.7606 143.998 22.6453 144.2C22.7413 144.404 22.8413 144.6 22.9453 144.808C23.1615 144.546 23.3001 144.229 23.3453 143.892C23.4253 143.268 23.1773 142.456 24.0253 142.324C24.6093 142.228 25.1773 142.5 25.7533 142.54C26.006 142.585 26.2663 142.559 26.5046 142.463C26.7429 142.368 26.9497 142.207 27.1013 142ZM24.0893 137.496C24.1544 137.398 24.2355 137.312 24.3293 137.24C24.1653 137.136 24.0013 137.036 23.8413 136.944C23.4413 137.464 23.4413 138.176 23.0413 138.696C22.9221 138.844 22.76 138.951 22.5772 139.003C22.3945 139.054 22.2002 139.048 22.0213 138.984C21.6528 138.871 21.2569 138.885 20.8973 139.024C20.8192 139.061 20.7443 139.104 20.6733 139.152C20.7133 139.28 20.7533 139.412 20.7973 139.552C20.9696 139.455 21.1633 139.401 21.3613 139.396C21.7613 139.396 22.1613 139.596 22.5613 139.568C22.6988 139.558 22.8329 139.52 22.9557 139.458C23.0786 139.395 23.1879 139.309 23.2773 139.204C23.7253 138.692 23.7453 138 24.0893 137.476V137.496ZM30.0893 144.728C30.4931 144.36 30.7726 143.875 30.8893 143.34C30.9603 142.961 31.0071 142.578 31.0293 142.192L30.5173 141.74C30.4093 142.372 30.4693 143.012 30.1413 143.604C29.7653 144.288 29.2053 144.484 28.4613 144.484C27.9213 144.484 27.3973 144.516 27.0173 144.944C26.7015 145.365 26.514 145.868 26.4773 146.392C26.3693 147.144 26.2533 147.84 25.5533 148.264C25.435 148.334 25.3105 148.393 25.1813 148.44C25.3093 148.6 25.4413 148.752 25.5813 148.908C25.8801 148.777 26.1454 148.58 26.3573 148.332C27.2613 147.264 26.5253 145.132 28.4453 145.132C29.0413 145.116 29.6013 145.112 30.0693 144.708L30.0893 144.728ZM32.9933 145.272C33.1013 145.066 33.2358 144.875 33.3933 144.704C33.2413 144.512 33.0853 144.304 32.9253 144.124C32.4887 144.601 32.1901 145.187 32.0613 145.82C31.8973 146.508 31.8053 147.256 31.3573 147.82C30.9093 148.384 30.1573 148.36 29.5213 148.708C28.9931 149.007 28.5857 149.481 28.3693 150.048C28.2237 150.491 28.1272 150.949 28.0813 151.412C28.2693 151.572 28.4813 151.728 28.6533 151.88C28.6533 151.852 28.6533 151.824 28.6533 151.8C28.7733 151.032 28.8653 150.248 29.4533 149.688C30.0413 149.128 30.8013 149.224 31.4253 148.8C32.5893 147.976 32.4013 146.4 32.9733 145.252L32.9933 145.272ZM35.3293 147.52C35.1738 147.642 35.028 147.776 34.8933 147.92C33.9733 148.932 34.0933 150.244 33.7493 151.484C33.6886 151.812 33.5535 152.121 33.3545 152.388C33.1554 152.655 32.8978 152.873 32.6013 153.024C32.0853 153.236 31.5053 153.024 31.0573 153.424L31.0133 153.472C31.2813 153.624 31.5493 153.768 31.8133 153.908C31.9621 153.877 32.1134 153.86 32.2653 153.856C32.5567 153.849 32.8431 153.779 33.1053 153.652C33.5607 153.402 33.9206 153.008 34.1293 152.532C34.6893 151.372 34.4413 149.964 35.1373 148.86C35.2985 148.608 35.4967 148.382 35.7253 148.188C35.6013 147.956 35.4493 147.728 35.3093 147.5L35.3293 147.52Z" fill="#1C6758"/>
<path opacity="0.2" d="M26.729 138.8C27.233 143.268 29.621 155.292 38.881 155.5C38.881 155.5 37.089 149.052 32.797 143.972C31.413 142.328 29.049 140.4 26.729 138.8Z" fill="black"/>
<path d="M38.8806 155.5C34.6366 154.88 30.9926 152.196 29.1206 144.196C27.2486 136.196 26.9646 132.596 28.2486 131.796C29.7326 130.88 35.5246 138.94 37.3886 142.488C42.0726 151.396 38.8806 155.5 38.8806 155.5Z" fill="#1C6758"/>
<path opacity="0.2" d="M31.0046 140.724C32.0606 141.056 33.4406 141.408 34.2326 140.364C34.6326 139.852 34.7286 139.164 34.9966 138.62L34.4286 137.82C33.9606 138.576 33.9726 139.688 33.1566 140.12C32.5406 140.444 31.8126 140.232 31.1886 140.044C30.5679 139.807 29.9036 139.706 29.2406 139.748C28.8813 139.8 28.5359 139.922 28.2246 140.108C28.2686 140.34 28.3206 140.588 28.3726 140.832C28.5091 140.756 28.6508 140.689 28.7966 140.632C29.5207 140.404 30.3019 140.437 31.0046 140.724ZM29.7526 136.584C30.0534 136.747 30.397 136.812 30.7366 136.772C31.3806 136.64 31.7206 136.016 32.0486 135.512C32.1428 135.368 32.2514 135.234 32.3726 135.112L31.9726 134.632L31.8886 134.712C31.4886 135.2 31.1526 136.192 30.4046 136.204C30.0411 136.14 29.6857 136.037 29.3446 135.896C29.0433 135.832 28.7324 135.825 28.4286 135.876C28.1268 135.926 27.8383 136.036 27.5806 136.2C27.6006 136.384 27.6246 136.576 27.6526 136.772C27.9991 136.556 28.3933 136.429 28.8006 136.4C29.1273 136.394 29.4517 136.457 29.7526 136.584ZM34.4006 145.468C34.8006 144.876 35.0966 144.204 35.6966 143.776C36.3966 143.272 37.1006 143.304 37.8606 143.376C37.7166 143.08 37.5686 142.78 37.4046 142.472C36.9155 142.401 36.4169 142.433 35.9406 142.564C35.291 142.78 34.7293 143.201 34.3406 143.764C33.9726 144.276 33.7246 144.904 33.2526 145.332C32.3886 146.132 31.2206 145.432 30.2566 145.24C29.9776 145.184 29.6929 145.161 29.4086 145.172C29.4846 145.452 29.5606 145.724 29.6406 145.992C30.019 145.99 30.3955 146.047 30.7566 146.16C32.1606 146.612 33.4206 146.876 34.4006 145.468ZM39.2886 147.024C39.2169 147.041 39.1461 147.061 39.0766 147.084C38.5064 147.305 38.0081 147.679 37.6366 148.164C37.2366 148.696 37.0086 149.34 36.6206 149.884C36.4575 150.17 36.1947 150.386 35.8825 150.49C35.5702 150.594 35.2305 150.579 34.9286 150.448C34.3402 150.195 33.6842 150.146 33.0646 150.308C32.6131 150.46 32.2025 150.713 31.8646 151.048C32.0086 151.264 32.1566 151.448 32.3086 151.66C32.5712 151.42 32.8822 151.239 33.2206 151.128C33.7144 151.004 34.2369 151.07 34.6846 151.312C35.2073 151.571 35.8091 151.621 36.3672 151.451C36.9254 151.282 37.3979 150.906 37.6886 150.4C38.0526 149.868 38.2606 149.24 38.6686 148.736C38.9057 148.449 39.2053 148.219 39.5446 148.064C39.4686 147.724 39.3806 147.38 39.2726 147.024H39.2886Z" fill="white"/>
<path opacity="0.15" d="M37.3892 142.488C37.0532 141.844 36.5892 141.056 36.0412 140.196C34.2052 145.876 33.6132 154.156 38.8812 155.5C38.8812 155.5 42.0732 151.396 37.3892 142.488Z" fill="black"/>
<path d="M41.0771 155.5C46.4731 155.792 51.5171 152.524 54.7891 148.404C58.0611 144.284 60.6171 135.772 59.8771 135.248C59.1371 134.724 50.4291 140.096 47.1611 143.972C42.8691 149.052 41.0771 155.5 41.0771 155.5Z" fill="#1C6758"/>
<path opacity="0.2" d="M41.0771 155.5C46.4731 155.792 51.5171 152.524 54.7891 148.404C58.0611 144.284 60.6171 135.772 59.8771 135.248C59.1371 134.724 50.4291 140.096 47.1611 143.972C42.8691 149.052 41.0771 155.5 41.0771 155.5Z" fill="black"/>
<path d="M54.2051 142.52C54.7811 142.48 55.3491 142.208 55.9331 142.304C56.7811 142.436 56.5331 143.248 56.6131 143.872C56.6584 144.209 56.7969 144.526 57.0131 144.788C57.1171 144.588 57.2171 144.388 57.3131 144.18C57.1979 143.978 57.1308 143.752 57.1171 143.52C57.1171 143.012 57.2411 142.456 56.8891 142.02C56.1611 141.12 54.8891 141.932 53.9971 141.808C53.1611 141.696 53.3131 140.92 53.4011 140.296C53.5008 139.797 53.423 139.279 53.1811 138.832L52.5731 139.264C52.7687 139.576 52.8454 139.948 52.7891 140.312C52.7211 140.86 52.5411 141.472 52.8571 141.98C53.0088 142.187 53.2155 142.348 53.4538 142.443C53.6921 142.538 53.9524 142.565 54.2051 142.52ZM56.6771 139.176C56.7665 139.281 56.8758 139.367 56.9987 139.43C57.1216 139.492 57.2556 139.53 57.3931 139.54C57.7931 139.568 58.1931 139.356 58.5931 139.368C58.7911 139.373 58.9849 139.426 59.1571 139.524C59.2011 139.392 59.2411 139.26 59.2811 139.124C59.2102 139.075 59.1352 139.032 59.0571 138.996C58.6975 138.857 58.3017 138.843 57.9331 138.956C57.7542 139.02 57.56 139.026 57.3772 138.975C57.1945 138.923 57.0323 138.816 56.9131 138.668C56.5131 138.148 56.5131 137.436 56.1131 136.916C55.9531 137.008 55.7891 137.108 55.6251 137.212C55.7189 137.283 55.8001 137.37 55.8651 137.468C56.2131 138 56.2331 138.692 56.6771 139.176ZM51.5211 145.116C53.4411 145.116 52.7211 147.244 53.6091 148.316C53.8211 148.564 54.0863 148.761 54.3851 148.892C54.5171 148.736 54.6491 148.584 54.7851 148.424C54.656 148.377 54.5315 148.318 54.4131 148.248C53.7131 147.824 53.6131 147.128 53.4891 146.376C53.4525 145.851 53.2649 145.349 52.9491 144.928C52.5691 144.5 52.0451 144.468 51.5051 144.468C50.7611 144.468 50.2011 144.272 49.8251 143.588C49.4971 142.996 49.5571 142.356 49.4491 141.724L48.9371 142.176C48.9594 142.561 49.0061 142.945 49.0771 143.324C49.1938 143.858 49.4733 144.343 49.8771 144.712C50.3771 145.112 50.9171 145.116 51.5211 145.116ZM48.5331 148.796C49.1411 149.224 49.9251 149.144 50.4971 149.68C51.0691 150.216 51.1851 151.024 51.2971 151.792C51.2971 151.816 51.2971 151.844 51.2971 151.872C51.4891 151.72 51.6971 151.564 51.8691 151.404C51.8233 150.94 51.7267 150.483 51.5811 150.04C51.3648 149.473 50.9574 148.999 50.4291 148.7C49.8091 148.352 49.0611 148.416 48.5931 147.812C48.1251 147.208 48.0531 146.488 47.8891 145.812C47.7619 145.178 47.4631 144.592 47.0251 144.116C46.8651 144.308 46.7091 144.516 46.5571 144.696C46.7146 144.867 46.8491 145.058 46.9571 145.264C47.5731 146.4 47.3691 147.976 48.5331 148.8V148.796ZM44.2451 148.184C44.4737 148.377 44.6719 148.604 44.8331 148.856C45.5291 149.96 45.2811 151.368 45.8411 152.528C46.0498 153.004 46.4098 153.398 46.8651 153.648C47.1274 153.775 47.4138 153.845 47.7051 153.852C47.8571 153.855 48.0084 153.873 48.1571 153.904C48.4291 153.764 48.6971 153.62 48.9571 153.468L48.9131 153.42C48.4651 153.02 47.8851 153.22 47.3691 153.02C47.0727 152.868 46.815 152.651 46.616 152.384C46.417 152.117 46.2819 151.807 46.2211 151.48C45.8851 150.24 45.9971 148.928 45.0771 147.916C44.9425 147.771 44.7967 147.638 44.6411 147.516C44.5091 147.728 44.3771 147.956 44.2451 148.184Z" fill="#1C6758"/>
<path opacity="0.2" d="M53.2331 138.8C52.7251 143.268 50.3371 155.292 41.0771 155.5C41.0771 155.5 42.8691 149.052 47.1611 143.972C48.5451 142.328 50.9091 140.4 53.2331 138.8Z" fill="black"/>
<path d="M41.0766 155.5C45.3206 154.88 48.9646 152.196 50.8366 144.196C52.7086 136.196 52.9926 132.596 51.7086 131.796C50.2246 130.88 44.4326 138.94 42.5686 142.488C37.8846 151.396 41.0766 155.5 41.0766 155.5Z" fill="#1C6758"/>
<path opacity="0.2" d="M51.1609 140.616C51.307 140.672 51.4487 140.739 51.5849 140.816C51.6369 140.572 51.6889 140.324 51.7329 140.092C51.4215 139.906 51.0761 139.784 50.7169 139.732C50.0538 139.69 49.3895 139.791 48.7689 140.028C48.1449 140.216 47.4169 140.428 46.8009 140.104C46.0009 139.672 46.0009 138.56 45.5289 137.804L44.9609 138.604C45.2289 139.144 45.3369 139.836 45.7249 140.348C46.5249 141.392 47.8969 141.04 48.9529 140.708C49.6556 140.421 50.4367 140.388 51.1609 140.616ZM51.1609 136.404C51.5634 136.427 51.9545 136.546 52.3009 136.752C52.3289 136.556 52.3529 136.352 52.3729 136.18C52.1151 136.016 51.8266 135.906 51.5249 135.856C51.221 135.805 50.9102 135.812 50.6089 135.876C50.2678 136.017 49.9124 136.12 49.5489 136.184C48.8009 136.184 48.4649 135.18 48.0649 134.692L47.9809 134.612L47.5809 135.092C47.7021 135.214 47.8106 135.348 47.9049 135.492C48.2329 135.996 48.5729 136.62 49.2169 136.752C49.5564 136.792 49.9001 136.727 50.2009 136.564C50.5057 136.442 50.8329 136.387 51.1609 136.4V136.404ZM49.2369 146.16C49.5979 146.047 49.9744 145.99 50.3529 145.992C50.4329 145.724 50.5089 145.452 50.5849 145.172C50.3005 145.161 50.0159 145.184 49.7369 145.24C48.7729 145.432 47.6049 146.12 46.7409 145.332C46.2689 144.904 46.0209 144.276 45.6529 143.764C45.2642 143.201 44.7025 142.78 44.0529 142.564C43.5765 142.433 43.078 142.401 42.5889 142.472C42.4249 142.78 42.2769 143.08 42.1329 143.376C42.8929 143.288 43.5969 143.256 44.2969 143.776C44.8969 144.204 45.1889 144.876 45.5929 145.468C46.5369 146.876 47.7969 146.612 49.2369 146.16ZM40.4009 148.06C40.7402 148.215 41.0398 148.445 41.2769 148.732C41.6769 149.236 41.8929 149.864 42.2569 150.396C42.5469 150.903 43.0191 151.279 43.5773 151.45C44.1355 151.62 44.7376 151.571 45.2609 151.312C45.7086 151.07 46.2311 151.004 46.7249 151.128C47.0633 151.239 47.3742 151.42 47.6369 151.66C47.7889 151.464 47.9369 151.26 48.0809 151.048C47.7429 150.713 47.3323 150.46 46.8809 150.308C46.2613 150.146 45.6053 150.195 45.0169 150.448C44.7149 150.579 44.3752 150.594 44.063 150.49C43.7507 150.386 43.4879 150.17 43.3249 149.884C42.9249 149.34 42.7209 148.684 42.3089 148.164C41.9373 147.679 41.4391 147.305 40.8689 147.084C40.7993 147.061 40.7285 147.041 40.6569 147.024C40.5769 147.38 40.4889 147.724 40.4009 148.06Z" fill="white"/>
<path opacity="0.15" d="M42.5686 142.488C42.9046 141.844 43.3686 141.056 43.9166 140.196C45.7526 145.876 46.3446 154.156 41.0766 155.5C41.0766 155.5 37.8846 151.396 42.5686 142.488Z" fill="black"/>
<path d="M39.977 156.4C43.577 156.4 44.749 151.528 44.377 147.6C44.005 143.672 41.541 136.216 39.977 136.216C38.413 136.216 35.925 143.68 35.577 147.6C35.229 151.52 36.401 156.4 39.977 156.4Z" fill="#1C6758"/>
<path opacity="0.3" d="M39.977 156.4C43.577 156.4 44.749 151.528 44.377 147.6C44.005 143.672 41.541 136.216 39.977 136.216C38.413 136.216 35.925 143.68 35.577 147.6C35.229 151.52 36.401 156.4 39.977 156.4Z" fill="white"/>
<path opacity="0.2" d="M39.9568 141.304C40.5288 141.192 40.8928 140.724 41.2928 140.348C41.6018 140.06 41.9835 139.863 42.3968 139.776C42.3048 139.544 42.2128 139.316 42.1208 139.1C41.5422 139.267 41.0197 139.588 40.6088 140.028C40.405 140.27 40.1494 140.463 39.8608 140.592C39.4248 140.74 39.1608 140.508 38.8768 140.224C38.5631 139.878 38.1538 139.633 37.7008 139.52H37.6648C37.5888 139.704 37.5168 139.892 37.4408 140.084C37.9252 140.176 38.3646 140.429 38.6888 140.8C38.8362 140.989 39.0314 141.136 39.2543 141.224C39.4772 141.313 39.7197 141.341 39.9568 141.304ZM37.2848 145.6C38.4848 146.536 39.4648 145.2 40.2288 144.42C40.8648 143.764 41.5368 143.62 42.2648 144.236C42.6577 144.643 43.1195 144.978 43.6288 145.224C43.7584 145.271 43.8924 145.304 44.0288 145.324C43.9848 145.104 43.9368 144.876 43.8848 144.648C43.3248 144.508 42.9168 144.08 42.4288 143.68C41.3648 142.804 40.4048 143.172 39.5608 144.14C39.0728 144.7 38.2848 145.66 37.4848 145.06C37.0128 144.708 36.7888 144.108 36.2848 143.764H36.2648C36.2141 143.961 36.1661 144.157 36.1208 144.352C36.6048 144.656 36.8408 145.256 37.2848 145.6ZM38.6248 149.892C39.3008 150.788 40.1448 151.012 41.0608 150.24C41.5048 149.868 41.8008 149.336 42.2888 149.004C42.9688 148.544 43.7488 148.784 44.4528 149.06C44.4528 148.844 44.4528 148.632 44.4528 148.424C44.1345 148.284 43.8019 148.18 43.4608 148.112C43.1957 148.058 42.9224 148.058 42.6572 148.112C42.392 148.165 42.1403 148.272 41.9168 148.424C41.4128 148.784 41.1168 149.348 40.6128 149.724C40.3448 149.928 39.9248 150.184 39.5768 150.056C39.2288 149.928 38.9248 149.392 38.6248 149.092C38.2462 148.703 37.7672 148.426 37.2408 148.292C36.6681 148.146 36.0622 148.205 35.5288 148.46C35.5288 148.663 35.5288 148.867 35.5288 149.072C36.0603 148.831 36.6588 148.781 37.2229 148.93C37.7871 149.08 38.2823 149.42 38.6248 149.892ZM42.0208 153.544C41.457 153.996 40.7404 154.212 40.0208 154.148C39.6386 154.127 39.2768 153.969 39.0008 153.704C38.8048 153.5 38.6608 153.252 38.4568 153.048C38.084 152.688 37.6034 152.461 37.0888 152.4C36.7129 152.351 36.3309 152.384 35.9688 152.496C36.0288 152.716 36.0968 152.928 36.1728 153.14C36.4665 153.026 36.7843 152.989 37.0963 153.032C37.4083 153.075 37.7044 153.196 37.9568 153.384C38.3888 153.704 38.5928 154.228 39.0488 154.524C39.4687 154.779 39.9539 154.905 40.4448 154.888C40.9619 154.887 41.4711 154.761 41.9288 154.52C42.4448 154.248 42.8088 153.784 43.3088 153.496C43.4361 153.421 43.57 153.358 43.7088 153.308C43.8132 153.047 43.9027 152.78 43.9768 152.508C43.8068 152.526 43.6392 152.562 43.4768 152.616C42.9409 152.838 42.4481 153.152 42.0208 153.544Z" fill="white"/>
<path d="M134.979 22.5321L136.651 20.6801C136.684 20.6487 136.719 20.6193 136.755 20.5921L140.283 18.1001C140.458 17.9826 140.67 17.9314 140.879 17.9556C141.089 17.9797 141.283 18.0778 141.427 18.2321L159.199 38.0321L163.643 42.9881C163.778 43.1251 163.854 43.3098 163.854 43.5021C163.854 43.6945 163.778 43.8792 163.643 44.0161C163.643 44.0161 162.235 45.6161 161.967 45.8681L161.935 45.9041L158.735 48.7601C158.583 48.8961 158.383 48.9661 158.179 48.9549C157.975 48.9436 157.784 48.852 157.647 48.7001L134.987 23.4601C134.865 23.3371 134.795 23.1712 134.794 22.9978C134.792 22.8244 134.859 22.6572 134.979 22.5321Z" fill="#263238"/>
<path d="M134.979 22.5321L136.651 20.6801C136.684 20.6486 136.718 20.6192 136.755 20.5921L140.283 18.1001C140.39 18.0288 140.511 17.9816 140.638 17.9616C140.765 17.9415 140.895 17.9492 141.019 17.9841L135.175 23.6921L134.967 23.4601C134.847 23.3345 134.782 23.1671 134.784 22.9936C134.786 22.8202 134.856 22.6546 134.979 22.5321Z" fill="#455A64"/>
<path d="M135.082 22.4442L138.61 19.9522C138.785 19.8347 138.997 19.7834 139.207 19.8076C139.416 19.8318 139.61 19.9299 139.754 20.0842L157.53 39.8842L161.974 44.8402C162.044 44.9116 162.098 44.9963 162.133 45.0892C162.169 45.1821 162.186 45.2813 162.182 45.3808C162.178 45.4802 162.154 45.5779 162.112 45.6678C162.069 45.7578 162.009 45.8382 161.934 45.9042L158.734 48.7602C158.582 48.8961 158.382 48.9662 158.178 48.9549C157.974 48.9437 157.783 48.8521 157.646 48.7002L134.986 23.4602C134.918 23.3908 134.866 23.3074 134.834 23.2158C134.801 23.1242 134.789 23.0266 134.798 22.9299C134.808 22.8332 134.838 22.7396 134.887 22.6557C134.936 22.5718 135.002 22.4996 135.082 22.4442Z" fill="#37474F"/>
<path d="M164.579 25.3641L155.307 33.6921L151.807 33.5001L147.479 37.3881L149.135 39.2361L144.799 43.1401L139.827 47.6001C139.69 47.7364 139.504 47.8129 139.311 47.8129C139.118 47.8129 138.932 47.7364 138.795 47.6001C138.795 47.6001 137.195 46.1961 136.947 45.9321C136.934 45.9211 136.922 45.909 136.911 45.8961L134.051 42.6961C133.915 42.5425 133.846 42.3414 133.858 42.1369C133.87 41.9323 133.962 41.7407 134.115 41.6041C137.987 38.1321 155.483 22.4041 159.355 18.9441C159.478 18.8219 159.645 18.7534 159.819 18.7534C159.993 18.7534 160.159 18.8219 160.283 18.9441L162.135 20.6121C162.166 20.6449 162.196 20.6796 162.223 20.7161L164.711 24.2441C164.823 24.4169 164.871 24.6234 164.847 24.8278C164.823 25.0323 164.728 25.222 164.579 25.3641Z" fill="#263238"/>
<path d="M160.283 18.9163L162.135 20.5883C162.166 20.6201 162.195 20.655 162.219 20.6923L164.711 24.2203C164.784 24.3266 164.833 24.4477 164.853 24.5749C164.874 24.7021 164.866 24.8323 164.831 24.9563L159.123 19.1123L159.355 18.9043C159.481 18.7847 159.648 18.719 159.821 18.7212C159.995 18.7235 160.161 18.7935 160.283 18.9163Z" fill="#455A64"/>
<path d="M160.371 19.0201L162.859 22.5481C162.977 22.7229 163.029 22.934 163.006 23.1436C162.982 23.3532 162.885 23.5477 162.731 23.6921L142.931 41.4681L137.975 45.9121C137.904 45.982 137.82 46.0366 137.727 46.0726C137.634 46.1086 137.534 46.1253 137.435 46.1215C137.335 46.1178 137.237 46.0937 137.147 46.0508C137.057 46.0079 136.977 45.9471 136.911 45.8721L134.051 42.6521C133.917 42.4987 133.848 42.2986 133.86 42.095C133.872 41.8913 133.964 41.7006 134.115 41.5641L159.355 18.9041C159.426 18.8371 159.511 18.7864 159.603 18.7556C159.696 18.7247 159.794 18.7145 159.89 18.7255C159.987 18.7366 160.08 18.7687 160.163 18.8195C160.247 18.8704 160.318 18.9389 160.371 19.0201Z" fill="#37474F"/>
<path d="M67.8154 23.412L65.9994 21.692C65.9669 21.6609 65.9306 21.634 65.8914 21.612L62.1874 19.388C62.0047 19.2841 61.7911 19.2484 61.5846 19.2873C61.378 19.3261 61.1919 19.4369 61.0594 19.6L46.6034 38.336L40.7994 33.9C40.6352 33.7736 40.4283 33.716 40.2224 33.7391C40.0165 33.7622 39.8275 33.8644 39.6954 34.024L35.8354 38.484C35.7114 38.6317 35.6503 38.8221 35.6653 39.0143C35.6803 39.2066 35.7701 39.3853 35.9154 39.512C35.9154 39.512 37.4354 40.988 37.7194 41.236L37.7594 41.264L47.8834 49C48.0462 49.1227 48.2508 49.1763 48.4529 49.1494C48.655 49.1225 48.8384 49.0171 48.9634 48.856L67.8954 24.34C68.0065 24.2057 68.0604 24.0332 68.0454 23.8596C68.0305 23.686 67.9478 23.5252 67.8154 23.412Z" fill="#263238"/>
<path d="M67.8154 23.412L65.9994 21.692C65.9668 21.6609 65.9305 21.634 65.8914 21.612L62.1874 19.388C62.0752 19.3244 61.9507 19.2858 61.8223 19.2748C61.6939 19.2637 61.5647 19.2805 61.4434 19.324L67.6954 24.584L67.8834 24.34C67.9959 24.2072 68.0518 24.0356 68.0391 23.8621C68.0264 23.6885 67.946 23.5269 67.8154 23.412Z" fill="#455A64"/>
<path d="M67.7076 23.3358L63.9996 21.1118C63.8171 21.0071 63.6032 20.971 63.3965 21.0098C63.1897 21.0487 63.0036 21.16 62.8716 21.3238L48.3996 40.0558L42.5916 35.6238C42.4273 35.4975 42.2205 35.4398 42.0145 35.4629C41.8086 35.486 41.6197 35.5882 41.4876 35.7478L37.6396 40.2078C37.5755 40.2839 37.5277 40.3723 37.499 40.4675C37.4702 40.5627 37.4612 40.6628 37.4725 40.7616C37.4837 40.8604 37.5149 40.9559 37.5643 41.0423C37.6137 41.1286 37.6801 41.204 37.7596 41.2638L47.8836 48.9998C48.0464 49.1225 48.251 49.1762 48.4531 49.1492C48.6552 49.1223 48.8386 49.0169 48.9636 48.8558L67.8956 24.3398C67.9571 24.2645 68.0015 24.1766 68.0256 24.0824C68.0497 23.9881 68.0529 23.8897 68.0349 23.7941C68.017 23.6985 67.9785 23.6079 67.9219 23.5288C67.8654 23.4496 67.7922 23.3837 67.7076 23.3358Z" fill="#37474F"/>
<path d="M46.6034 38.3358L48.4034 40.0598L42.5954 35.6238C42.4287 35.4974 42.219 35.4414 42.0114 35.4678L40.2114 33.7438C40.4164 33.7196 40.6227 33.7755 40.7874 33.8998L46.6034 38.3358Z" fill="#455A64"/>
<path d="M158.335 66.984C160.795 65.588 164.183 65.784 167.935 67.96C175.463 72.308 181.563 82.876 181.563 91.56C181.563 95.904 180.039 98.956 177.563 100.38L172.903 103.056C170.439 104.476 167.035 104.256 163.275 102.1C155.747 97.756 149.647 87.184 149.647 78.5C149.647 74.168 151.163 71.12 153.619 69.7C154.655 69.092 157.291 67.576 158.335 66.984Z" fill="#1C6758"/>
<path opacity="0.15" d="M181.055 87.0518C181.378 88.5357 181.545 90.0492 181.555 91.5678C181.555 95.9118 180.031 98.9638 177.555 100.388L172.895 103.064C170.431 104.484 167.027 104.264 163.267 102.108C161.96 101.342 160.736 100.442 159.615 99.4238L181.055 87.0518Z" fill="black"/>
<path d="M153.64 91.9241C151.18 87.6561 149.64 82.8441 149.64 78.5001C149.64 69.8081 155.74 66.2841 163.268 70.6321C170.796 74.9801 176.9 85.5481 176.9 94.2321C176.9 102.916 170.8 106.456 163.284 102.108C161.309 100.937 159.517 99.4827 157.964 97.7921L152.4 98.8001C152.239 98.8296 152.073 98.8154 151.919 98.7591C151.766 98.7027 151.63 98.6063 151.526 98.4797C151.422 98.3531 151.354 98.2011 151.329 98.0393C151.304 97.8776 151.323 97.7122 151.384 97.5601L153.64 91.9241Z" fill="#1C6758"/>
<path opacity="0.35" d="M153.64 91.9241C151.18 87.6561 149.64 82.8441 149.64 78.5001C149.64 69.8081 155.74 66.2841 163.268 70.6321C170.796 74.9801 176.9 85.5481 176.9 94.2321C176.9 102.916 170.8 106.456 163.284 102.108C161.309 100.937 159.517 99.4827 157.964 97.7921L152.4 98.8001C152.239 98.8296 152.073 98.8154 151.919 98.7591C151.766 98.7027 151.63 98.6063 151.526 98.4797C151.422 98.3531 151.354 98.2011 151.329 98.0393C151.304 97.8776 151.323 97.7122 151.384 97.5601L153.64 91.9241Z" fill="white"/>
<path d="M161.04 91.1319C160.912 91.0561 160.81 90.9449 160.744 90.8119C160.686 90.7114 160.638 90.6056 160.6 90.4959L158.14 83.4319V89.0119C158.145 89.0593 158.14 89.1072 158.125 89.1526C158.111 89.198 158.087 89.24 158.056 89.2759C158.027 89.3004 157.991 89.3139 157.954 89.3139C157.916 89.3139 157.88 89.3004 157.852 89.2759L156.448 88.4759C156.355 88.4168 156.284 88.33 156.244 88.2279C156.187 88.1149 156.157 87.9904 156.156 87.8639V77.1999C156.151 77.1522 156.157 77.1041 156.172 77.0586C156.187 77.0132 156.212 76.9714 156.244 76.9359C156.272 76.9114 156.308 76.8979 156.346 76.8979C156.383 76.8979 156.419 76.9114 156.448 76.9359L157.564 77.5799C157.691 77.6549 157.793 77.7664 157.856 77.8999C157.913 78.0002 157.962 78.1045 158.004 78.2119L160.46 85.2799V79.6799C160.456 79.6325 160.461 79.5848 160.475 79.5395C160.49 79.4942 160.513 79.4522 160.544 79.4159C160.572 79.3906 160.608 79.3766 160.646 79.3766C160.684 79.3766 160.72 79.3906 160.748 79.4159L162.156 80.2159C162.245 80.2792 162.314 80.3666 162.356 80.4679C162.414 80.5806 162.444 80.7053 162.444 80.8319V91.4999C162.449 91.5477 162.444 91.596 162.429 91.6416C162.414 91.6872 162.389 91.7289 162.356 91.7639C162.328 91.7881 162.293 91.8014 162.256 91.8014C162.219 91.8014 162.184 91.7881 162.156 91.7639L161.04 91.1319Z" fill="#FAFAFA"/>
<path d="M163.7 85.416C163.709 84.8729 163.796 84.3339 163.96 83.816C164.08 83.4148 164.307 83.0538 164.616 82.772C164.905 82.53 165.271 82.4007 165.648 82.408C166.145 82.434 166.626 82.5898 167.044 82.86C167.571 83.1658 168.043 83.5579 168.44 84.02C168.848 84.4941 169.196 85.0167 169.476 85.576C169.762 86.1495 169.982 86.7533 170.132 87.376C170.283 87.9962 170.37 88.6301 170.392 89.268C170.397 89.756 170.4 90.2667 170.4 90.8C170.4 91.3333 170.392 91.8133 170.376 92.24C170.368 92.7831 170.28 93.3221 170.116 93.84C169.996 94.243 169.769 94.6063 169.46 94.892C169.172 95.1378 168.802 95.2663 168.424 95.252C167.927 95.2206 167.447 95.0622 167.028 94.792C166.501 94.4898 166.029 94.1003 165.632 93.64C165.223 93.1679 164.876 92.645 164.6 92.084C164.315 91.5088 164.095 90.9038 163.944 90.28C163.793 89.6585 163.706 89.0232 163.684 88.384C163.668 87.9253 163.66 87.4373 163.66 86.92C163.66 86.4027 163.673 85.9013 163.7 85.416ZM168.4 90.992C168.4 90.8 168.408 90.584 168.424 90.344C168.424 90.108 168.424 89.86 168.424 89.608C168.424 89.356 168.424 89.108 168.424 88.868C168.424 88.628 168.424 88.408 168.4 88.22C168.388 87.9412 168.35 87.6641 168.288 87.392C168.229 87.1343 168.144 86.8836 168.032 86.644C167.927 86.4128 167.793 86.1963 167.632 86C167.469 85.8052 167.273 85.6412 167.052 85.516C166.88 85.4034 166.681 85.3398 166.476 85.332C166.327 85.3339 166.184 85.3925 166.076 85.496C165.955 85.6248 165.867 85.7814 165.82 85.952C165.754 86.1771 165.716 86.4096 165.708 86.644C165.708 86.824 165.684 87.044 165.68 87.264C165.676 87.484 165.68 87.744 165.68 87.996C165.68 88.248 165.68 88.5 165.68 88.744C165.68 88.988 165.68 89.212 165.708 89.42C165.729 89.9717 165.854 90.5145 166.076 91.02C166.279 91.4895 166.627 91.8819 167.068 92.14C167.512 92.396 167.844 92.404 168.056 92.164C168.297 91.8218 168.418 91.4099 168.4 90.992Z" fill="#FAFAFA"/>
<path d="M37.2476 71.3839C34.7836 69.9879 31.3956 70.1839 27.6476 72.3599C20.1196 76.7079 14.0156 87.2759 14.0156 95.9599C14.0156 100.304 15.5396 103.356 18.0156 104.78L22.6716 107.456C25.1396 108.876 28.5396 108.656 32.2996 106.5C39.8276 102.156 45.9316 91.5839 45.9316 82.8999C45.9316 78.5679 44.4116 75.5199 41.9596 74.0999C40.9236 73.4919 38.2916 71.9759 37.2476 71.3839Z" fill="#1C6758"/>
<path opacity="0.15" d="M14.5234 91.4517C14.2008 92.9356 14.0333 94.4491 14.0234 95.9677C14.0234 100.312 15.5474 103.364 18.0234 104.788L22.6794 107.464C25.1474 108.884 28.5474 108.664 32.3074 106.508C33.6165 105.742 34.8418 104.841 35.9634 103.82L14.5234 91.4517Z" fill="black"/>
<path d="M45.928 82.9001C45.928 86.6561 44.828 90.4681 43.22 93.8721C43.092 94.1481 42.956 94.4201 42.82 94.6721C40.9648 98.4381 38.3579 101.784 35.16 104.504C28 110.82 18.556 109.528 18.664 98.6361C18.688 94.2641 20.128 89.8681 22.204 86.0241C22.348 85.7561 22.5 85.4881 22.648 85.2241C23.8628 83.1131 25.3119 81.146 26.968 79.3601V79.3401C33.692 71.6001 45.764 69.6721 45.928 82.9001Z" fill="#1C6758"/>
<path d="M40 75.5997L48.28 70.9197C48.3962 70.8536 48.53 70.8253 48.663 70.8387C48.796 70.8521 48.9215 70.9065 49.0221 70.9944C49.1228 71.0823 49.1936 71.1994 49.2248 71.3293C49.2559 71.4593 49.2459 71.5957 49.196 71.7197L44.528 83.5997L40 75.5997Z" fill="#1C6758"/>
<path opacity="0.35" d="M48.26 70.9039L42.26 74.2799C38.124 71.6719 31.384 74.2439 26.968 79.3279V79.3479C25.3141 81.1302 23.8662 83.0933 22.652 85.1999C22.504 85.4599 22.352 85.7279 22.208 85.9999C20.132 89.8439 18.692 94.2399 18.668 98.6119C18.556 109.528 28 110.82 35.16 104.504C38.3468 101.793 40.9465 98.4591 42.8 94.7079C42.936 94.4399 43.072 94.1679 43.2 93.9079C44.8 90.5039 45.9 86.7079 45.908 82.9359C45.8987 82.1327 45.8372 81.3311 45.724 80.5359L49.156 71.7359C49.2122 71.6127 49.2283 71.475 49.2018 71.3422C49.1753 71.2095 49.1077 71.0884 49.0084 70.9963C48.9092 70.9042 48.7835 70.8457 48.6492 70.8291C48.5148 70.8125 48.3786 70.8387 48.26 70.9039Z" fill="white"/>
<path d="M26.3 100.368C26.2988 100.494 26.2702 100.618 26.216 100.732C26.173 100.832 26.1022 100.918 26.0119 100.98L24.6039 101.78C24.5756 101.804 24.5394 101.818 24.502 101.818C24.4645 101.818 24.4283 101.804 24.4 101.78C24.3686 101.744 24.345 101.702 24.3305 101.656C24.3161 101.611 24.3111 101.563 24.316 101.516V97.9998L21.836 92.3997C21.8086 92.3395 21.7949 92.2739 21.796 92.2078C21.7954 92.1052 21.8187 92.0038 21.8639 91.9117C21.9003 91.8297 21.9584 91.7592 22.032 91.7078L23.5 90.8597C23.644 90.7757 23.748 90.7717 23.824 90.8597C23.8775 90.9081 23.921 90.9665 23.952 91.0318L25.3039 94.3157L26.664 89.4677C26.6987 89.3568 26.7415 89.2485 26.792 89.1438C26.8615 88.9961 26.9746 88.8733 27.116 88.7917L28.584 87.9437C28.6076 87.9242 28.6373 87.9136 28.6679 87.9136C28.6986 87.9136 28.7283 87.9242 28.7519 87.9437C28.8024 88.0039 28.8268 88.0816 28.82 88.1597C28.8178 88.2412 28.8044 88.322 28.7799 88.3997L26.3 96.8477V100.368Z" fill="#FAFAFA"/>
<path d="M35.12 93.0797C35.1477 93.0555 35.1833 93.0421 35.22 93.0421C35.2568 93.0421 35.2923 93.0555 35.32 93.0797C35.3529 93.1147 35.3778 93.1564 35.393 93.202C35.4082 93.2476 35.4133 93.2959 35.408 93.3437V95.0917C35.4079 95.2183 35.3778 95.343 35.32 95.4557C35.2787 95.557 35.2093 95.6444 35.12 95.7077L30.032 98.6437C30.0037 98.6682 29.9675 98.6816 29.93 98.6816C29.8926 98.6816 29.8564 98.6682 29.828 98.6437C29.7973 98.6074 29.774 98.5654 29.7596 98.5201C29.7452 98.4748 29.7399 98.427 29.744 98.3797V87.7077C29.7451 87.5829 29.7738 87.46 29.828 87.3477C29.8709 87.2461 29.9416 87.1587 30.032 87.0957L35.032 84.2117C35.06 84.1864 35.0963 84.1724 35.134 84.1724C35.1717 84.1724 35.2081 84.1864 35.236 84.2117C35.2668 84.2479 35.29 84.29 35.3044 84.3353C35.3189 84.3806 35.3242 84.4283 35.32 84.4757V86.2277C35.3189 86.3537 35.2902 86.4779 35.236 86.5917C35.1959 86.6938 35.1245 86.7806 35.032 86.8397L31.728 88.7477V90.5317L34.8 88.7717C34.8284 88.7472 34.8646 88.7337 34.902 88.7337C34.9395 88.7337 34.9757 88.7472 35.004 88.7717C35.0355 88.8076 35.0595 88.8495 35.0746 88.8948C35.0897 88.9401 35.0956 88.988 35.092 89.0357V90.7997C35.089 90.9259 35.059 91.05 35.004 91.1637C34.9639 91.2658 34.8925 91.3526 34.8 91.4117L31.728 93.1997V95.0477L35.12 93.0797Z" fill="#FAFAFA"/>
<path d="M39.4317 81.504C39.8138 81.2721 40.2458 81.1349 40.6917 81.104C41.0358 81.0786 41.3801 81.1522 41.6837 81.316C41.9638 81.4742 42.1917 81.7105 42.3397 81.996C42.4962 82.2935 42.5798 82.6239 42.5837 82.96C42.5818 83.0624 42.5586 83.1631 42.5157 83.256C42.483 83.3347 42.429 83.4026 42.3597 83.452L40.9557 84.252C40.8834 84.2998 40.7984 84.3248 40.7117 84.324C40.6424 84.3118 40.5776 84.2814 40.5237 84.236C40.5237 84.236 40.4677 84.18 40.4237 84.128C40.3671 84.0724 40.2988 84.0301 40.2237 84.004C40.1209 83.969 40.0111 83.9594 39.9037 83.976C39.7354 84.0019 39.5745 84.0632 39.4317 84.156C39.2919 84.2353 39.1582 84.3249 39.0317 84.424C38.9096 84.5196 38.7983 84.6283 38.6997 84.748C38.6014 84.8688 38.5218 85.0036 38.4637 85.148C38.412 85.2928 38.3903 85.4466 38.3997 85.6C38.3874 85.7258 38.4231 85.8516 38.4997 85.952C38.5468 85.9923 38.6016 86.0226 38.6607 86.0412C38.7198 86.0597 38.7821 86.0661 38.8437 86.06C39.06 86.0522 39.2747 86.02 39.4837 85.964C39.7477 85.9 40.0757 85.812 40.4677 85.708C40.8021 85.6075 41.1508 85.5629 41.4997 85.576C41.7691 85.5828 42.0283 85.68 42.2357 85.852C42.4496 86.052 42.6022 86.3086 42.6757 86.592C42.7824 87.0032 42.8309 87.4274 42.8197 87.852C42.8197 88.4107 42.7361 88.9662 42.5717 89.5C42.4057 90.0363 42.1733 90.5496 41.8797 91.028C41.584 91.5116 41.2307 91.9575 40.8277 92.356C40.4312 92.7482 39.9862 93.0883 39.5037 93.368C39.1009 93.62 38.6475 93.7798 38.1757 93.836C37.8198 93.8795 37.4589 93.8154 37.1397 93.652C36.8449 93.4912 36.6063 93.2442 36.4557 92.944C36.286 92.6066 36.1982 92.2338 36.1997 91.856C36.2012 91.7537 36.2244 91.6528 36.2677 91.56C36.2992 91.4807 36.3535 91.4125 36.4237 91.364L37.8317 90.564C37.9007 90.5146 37.9829 90.4867 38.0677 90.484C38.1311 90.4927 38.1907 90.519 38.2397 90.56L38.3677 90.7C38.4409 90.7841 38.5333 90.8491 38.6371 90.8895C38.7409 90.9299 38.853 90.9445 38.9637 90.932C39.1566 90.9099 39.3416 90.8427 39.5037 90.736C39.8547 90.5394 40.1742 90.2913 40.4517 90C40.6995 89.7619 40.8432 89.4356 40.8517 89.092C40.8596 89.0293 40.8508 88.9656 40.8262 88.9073C40.8017 88.849 40.7622 88.7982 40.7117 88.76C40.587 88.7017 40.4484 88.6795 40.3117 88.696C40.0707 88.7214 39.8324 88.7682 39.5997 88.836C39.3077 88.916 38.9677 89 38.5757 89.096C37.8397 89.28 37.3064 89.1867 36.9757 88.816C36.6451 88.4454 36.4531 87.7827 36.3997 86.828C36.4023 86.3289 36.4722 85.8324 36.6077 85.352C36.7448 84.8329 36.9435 84.332 37.1997 83.86C37.4645 83.3775 37.7868 82.9289 38.1597 82.524C38.5275 82.1193 38.9567 81.775 39.4317 81.504Z" fill="#FAFAFA"/>
</svg>
