<svg width="32" height="33" viewBox="0 0 32 33" fill="none" xmlns="http://www.w3.org/2000/svg">
<path d="M22.7332 27.4284C21.4266 28.6951 19.9999 28.4951 18.6266 27.8951C17.1732 27.2818 15.8399 27.2551 14.3066 27.8951C12.3866 28.7218 11.3732 28.4818 10.2266 27.4284C3.71989 20.7218 4.67989 10.5084 12.0666 10.1351C13.8666 10.2284 15.1199 11.1218 16.1732 11.2018C17.7466 10.8818 19.2532 9.96176 20.9332 10.0818C22.9466 10.2418 24.4666 11.0418 25.4666 12.4818C21.3066 14.9751 22.2932 20.4551 26.1066 21.9884C25.3466 23.9884 24.3599 25.9751 22.7199 27.4418L22.7332 27.4284ZM16.0399 10.0551C15.8399 7.08176 18.2532 4.62843 21.0266 4.38843C21.4132 7.82843 17.9066 10.3884 16.0399 10.0551Z" fill="#FAFAFA"/>
</svg>
