<svg width="24" height="24" viewBox="0 0 24 24" fill="none" xmlns="http://www.w3.org/2000/svg">
<path d="M18.6848 13.8052C18.7468 13.6932 18.7748 13.5712 18.7748 13.4512C18.7748 13.1832 18.6318 12.9262 18.3808 12.7902C18.0158 12.5942 17.5608 12.7292 17.3648 13.0942C16.3498 14.9754 14.3581 17.8052 12.7505 18.5598L12.7505 4.49976C12.7505 4.08576 12.4145 3.74976 12.0005 3.74976C11.5865 3.74976 11.2505 4.08576 11.2505 4.49976L11.2505 18.5581C9.64133 17.8012 7.65092 14.9741 6.63578 13.0942C6.43878 12.7292 5.98478 12.5942 5.61978 12.7902C5.25578 12.9872 5.12078 13.4442 5.31578 13.8052C5.67078 14.4662 8.87978 20.2502 12.0028 20.2502C15.1218 20.2502 18.3298 14.4662 18.6848 13.8052Z" fill="#D32D28"/>
</svg>
