<svg width="24" height="25" viewBox="0 0 24 25" fill="none" xmlns="http://www.w3.org/2000/svg">
<path d="M18.6848 10.6948C18.7468 10.8068 18.7748 10.9288 18.7748 11.0488C18.7748 11.3168 18.6318 11.5738 18.3808 11.7098C18.0158 11.9058 17.5608 11.7708 17.3648 11.4058C16.3498 9.52456 14.3581 6.69482 12.7505 5.94024L12.7505 20.0002C12.7505 20.4142 12.4145 20.7502 12.0005 20.7502C11.5865 20.7502 11.2505 20.4142 11.2505 20.0002L11.2505 5.94186C9.64133 6.69885 7.65092 9.5259 6.63578 11.4058C6.43878 11.7708 5.98478 11.9058 5.61978 11.7098C5.25578 11.5128 5.12078 11.0558 5.31578 10.6948C5.67078 10.0338 8.87978 4.24976 12.0028 4.24976C15.1218 4.24976 18.3298 10.0338 18.6848 10.6948Z" fill="#1AA536"/>
</svg>
