<svg width="32" height="33" viewBox="0 0 32 33" fill="none" xmlns="http://www.w3.org/2000/svg">
<path fill-rule="evenodd" clip-rule="evenodd" d="M19.908 20.3973C19.7133 20.592 19.4573 20.6907 19.2013 20.6907C18.944 20.6907 18.6893 20.592 18.4933 20.3973L15.996 17.9L13.5067 20.3893C13.312 20.5853 13.056 20.6827 12.8 20.6827C12.5453 20.6827 12.288 20.5853 12.0933 20.3893C11.7027 19.9987 11.7027 19.3667 12.0933 18.976L14.5813 16.4853L12.0933 13.9973C11.7027 13.6067 11.7027 12.9747 12.0933 12.584C12.484 12.1933 13.116 12.1933 13.5067 12.584L15.9947 15.072L18.48 12.5867C18.8707 12.196 19.5027 12.196 19.8933 12.5867C20.284 12.9773 20.284 13.6093 19.8933 14L17.4093 16.4853L19.908 18.9827C20.2987 19.3733 20.2987 20.0067 19.908 20.3973ZM16 3.5C6.40267 3.5 3 6.90267 3 16.5C3 26.0973 6.40267 29.5 16 29.5C25.5987 29.5 29 26.0973 29 16.5C29 6.90267 25.5987 3.5 16 3.5Z" fill="#D32D28"/>
</svg>
