<svg width="40" height="40" viewBox="0 0 40 40" fill="none" xmlns="http://www.w3.org/2000/svg">
<path fill-rule="evenodd" clip-rule="evenodd" d="M24.885 24.8717C24.6417 25.115 24.3217 25.2383 24.0017 25.2383C23.68 25.2383 23.3617 25.115 23.1167 24.8717L19.995 21.75L16.8833 24.8617C16.64 25.1067 16.32 25.2283 16 25.2283C15.6817 25.2283 15.36 25.1067 15.1167 24.8617C14.6283 24.3733 14.6283 23.5833 15.1167 23.095L18.2267 19.9817L15.1167 16.8717C14.6283 16.3833 14.6283 15.5933 15.1167 15.105C15.605 14.6167 16.395 14.6167 16.8833 15.105L19.9933 18.215L23.1 15.1083C23.5883 14.62 24.3783 14.62 24.8667 15.1083C25.355 15.5967 25.355 16.3867 24.8667 16.875L21.7617 19.9817L24.885 23.1033C25.3733 23.5917 25.3733 24.3833 24.885 24.8717ZM20 3.75C8.00333 3.75 3.75 8.00333 3.75 20C3.75 31.9967 8.00333 36.25 20 36.25C31.9983 36.25 36.25 31.9967 36.25 20C36.25 8.00333 31.9983 3.75 20 3.75Z" fill="#D32D28"/>
</svg>
