<svg width="37" height="36" viewBox="0 0 37 36" fill="none" xmlns="http://www.w3.org/2000/svg">
<path d="M36.4892 17.3076C36.4892 17.585 36.4892 17.8624 36.4643 18.1398C36.0095 27.1586 28.1475 34.3418 18.51 34.3418C8.87256 34.3418 1.0168 27.1586 0.562029 18.1339C0.543339 17.8565 0.537109 17.5791 0.537109 17.3017C0.537109 14.0318 1.51519 10.9744 3.20346 8.37733C6.36819 3.51969 12.0435 0.279297 18.51 0.279297C21.6561 0.279297 24.6215 1.0466 27.1944 2.39234C32.7326 5.2963 36.4892 10.8858 36.4892 17.3076Z" fill="#EEBE97"/>
<path d="M36.4643 18.1328C36.483 18.4102 36.4892 18.6876 36.4892 18.965C36.4892 28.3734 28.4403 35.9992 18.51 35.9992C8.57976 35.9992 0.537109 28.3734 0.537109 18.965C0.537109 18.6876 0.537109 18.4102 0.562029 18.1328C1.0168 27.1516 8.87879 34.3348 18.51 34.3348C28.1413 34.3348 36.0095 27.1516 36.4643 18.1328Z" fill="#D27641"/>
<path d="M33.8846 17.3131C33.8846 25.3521 27.0007 31.8742 18.5157 31.8742C10.0308 31.8742 3.14062 25.3521 3.14062 17.3131C3.14062 9.2741 10.0245 2.74609 18.5157 2.74609C27.0069 2.74609 33.8846 9.2682 33.8846 17.3131Z" fill="#F4F1A5"/>
<path d="M18.5163 6.57031C24.7025 6.57031 29.7237 11.3217 29.7237 17.1946C29.7237 23.0674 24.7087 27.8188 18.5163 27.8188C12.3239 27.8188 7.30273 23.0615 7.30273 17.1946C7.30273 11.3276 12.3239 6.57031 18.5163 6.57031Z" fill="#EEBE97"/>
<path d="M0.561721 18.1336C-0.304219 8.66028 8.06238 0.131377 18.0674 0.0133304C28.0538 -0.376225 36.8564 7.82805 36.4889 17.3013C36.4204 8.09366 27.817 0.131377 18.0799 0.568152C8.34895 0.597664 0.131866 8.92589 0.561721 18.1336Z" fill="#F5DCCB"/>
<path d="M24.0293 19.6908C23.8798 19.9623 23.8237 20.2751 23.8798 20.588L24.4654 23.8284C24.59 24.4894 24.2224 25.062 23.6804 25.3335C23.2692 25.546 22.7522 25.5755 22.2725 25.3335L19.631 24.0172L19.2012 23.8048C18.7651 23.5805 18.2418 23.5805 17.7995 23.8048L14.7282 25.3335C13.6567 25.8706 12.4107 25.0502 12.5166 23.9464C12.5166 23.9051 12.5291 23.8638 12.5353 23.8284L12.7534 22.6302L13.1209 20.588C13.2081 20.1217 13.0399 19.6495 12.6848 19.319L10.1991 17.0289C9.30206 16.1966 9.79421 14.7564 11.0339 14.5853L14.4666 14.1072C14.9587 14.0423 15.3823 13.7471 15.6004 13.3281L17.1329 10.3769C17.6936 9.31447 19.2884 9.31447 19.8429 10.3769L21.3754 13.3281C21.5997 13.753 22.0233 14.0423 22.5154 14.1072L22.9764 14.1721L25.5556 14.5263L25.948 14.5853C26.5274 14.6679 26.9448 15.0221 27.1317 15.4647C27.3497 15.9723 27.2625 16.5862 26.7828 17.0289L24.2972 19.319C24.1975 19.4134 24.1103 19.5196 24.048 19.6318C24.0355 19.6495 24.023 19.6731 24.0106 19.6908H24.0293Z" fill="#E48A5D"/>
<path d="M24.0293 18.9838C23.8798 19.2553 23.8237 19.5681 23.8798 19.8809L24.4654 23.1213C24.59 23.7824 24.2224 24.3549 23.6804 24.6264C23.2692 24.8389 22.7522 24.8684 22.2725 24.6264L19.631 23.3102L19.2012 23.0977C18.7651 22.8734 18.2418 22.8734 17.7995 23.0977L14.7282 24.6264C13.6567 25.1636 12.4107 24.3431 12.5166 23.2394C12.5166 23.1981 12.5291 23.1567 12.5353 23.1213L12.7534 21.9232L13.1209 19.8809C13.2081 19.4147 13.0399 18.9425 12.6848 18.6119L10.1991 16.3218C9.30206 15.4896 9.79421 14.0494 11.0339 13.8782L14.4666 13.4002C14.9587 13.3352 15.3823 13.0401 15.6004 12.621L17.1329 9.66986C17.6936 8.60744 19.2884 8.60744 19.8429 9.66986L21.3754 12.621C21.5997 13.046 22.0233 13.3352 22.5154 13.4002L22.9764 13.4651L25.5556 13.8192L25.948 13.8782C26.5274 13.9609 26.9448 14.315 27.1317 14.7577C27.3497 15.2653 27.2625 15.8791 26.7828 16.3218L24.2972 18.6119C24.1975 18.7064 24.1103 18.8126 24.048 18.9248C24.0355 18.9425 24.023 18.9661 24.0106 18.9838H24.0293Z" fill="#EDE869"/>
</svg>
