<svg width="36" height="36" viewBox="0 0 36 36" fill="none" xmlns="http://www.w3.org/2000/svg">
<path d="M35.9892 17.3072C35.9892 17.5846 35.9892 17.8621 35.9643 18.1395C35.5095 27.1583 27.6475 34.3414 18.01 34.3414C8.37256 34.3414 0.516803 27.1583 0.0620285 18.1336C0.0433392 17.8561 0.0371094 17.5787 0.0371094 17.3013C0.0371094 14.0314 1.01519 10.974 2.70346 8.37696C5.86819 3.51932 11.5435 0.278931 18.01 0.278931C21.1561 0.278931 24.1215 1.04624 26.6944 2.39197C32.2326 5.29593 35.9892 10.8855 35.9892 17.3072Z" fill="#EEBE97"/>
<path d="M35.9643 18.1335C35.983 18.411 35.9892 18.6884 35.9892 18.9658C35.9892 28.3741 27.9403 36 18.01 36C8.07976 36 0.0371094 28.3741 0.0371094 18.9658C0.0371094 18.6884 0.0371094 18.411 0.0620285 18.1335C0.516803 27.1523 8.37879 34.3355 18.01 34.3355C27.6413 34.3355 35.5095 27.1523 35.9643 18.1335Z" fill="#D27641"/>
<path d="M33.3846 17.3131C33.3846 25.3521 26.5007 31.8742 18.0157 31.8742C9.53077 31.8742 2.64062 25.3521 2.64062 17.3131C2.64062 9.2741 9.52454 2.74609 18.0157 2.74609C26.5069 2.74609 33.3846 9.2682 33.3846 17.3131Z" fill="#F4F1A5"/>
<path d="M18.0163 6.5708C24.2025 6.5708 29.2237 11.3222 29.2237 17.195C29.2237 23.0679 24.2087 27.8193 18.0163 27.8193C11.8239 27.8193 6.80273 23.062 6.80273 17.195C6.80273 11.3281 11.8239 6.5708 18.0163 6.5708Z" fill="#EEBE97"/>
<path d="M0.0617206 18.1336C-0.804219 8.66028 7.56238 0.131377 17.5674 0.0133304C27.5538 -0.376225 36.3564 7.82805 35.9889 17.3013C35.9204 8.09366 27.317 0.131377 17.5799 0.568152C7.84895 0.597664 -0.368134 8.92589 0.0617206 18.1336Z" fill="#F5DCCB"/>
<path d="M23.5293 19.6918C23.3798 19.9633 23.3237 20.2761 23.3798 20.589L23.9654 23.8293C24.09 24.4904 23.7224 25.0629 23.1804 25.3344C22.7692 25.5469 22.2522 25.5764 21.7725 25.3344L19.131 24.0182L18.7012 23.8057C18.2651 23.5814 17.7418 23.5814 17.2995 23.8057L14.2282 25.3344C13.1567 25.8716 11.9107 25.0511 12.0166 23.9474C12.0166 23.9061 12.0291 23.8648 12.0353 23.8293L12.2534 22.6312L12.6209 20.589C12.7081 20.1227 12.5399 19.6505 12.1848 19.3199L9.69915 17.0298C8.80206 16.1976 9.29421 14.7574 10.5339 14.5863L13.9666 14.1082C14.4587 14.0432 14.8823 13.7481 15.1004 13.3291L16.6329 10.3779C17.1936 9.31545 18.7884 9.31545 19.3429 10.3779L20.8754 13.3291C21.0997 13.754 21.5233 14.0432 22.0154 14.1082L22.4764 14.1731L25.0556 14.5272L25.448 14.5863C26.0274 14.6689 26.4448 15.023 26.6317 15.4657C26.8497 15.9733 26.7625 16.5872 26.2828 17.0298L23.7972 19.3199C23.6975 19.4144 23.6103 19.5206 23.548 19.6328C23.5355 19.6505 23.523 19.6741 23.5106 19.6918H23.5293Z" fill="#E48A5D"/>
<path d="M23.5293 18.9835C23.3798 19.255 23.3237 19.5679 23.3798 19.8807L23.9654 23.1211C24.09 23.7822 23.7224 24.3547 23.1804 24.6262C22.7692 24.8387 22.2522 24.8682 21.7725 24.6262L19.131 23.31L18.7012 23.0975C18.2651 22.8732 17.7418 22.8732 17.2995 23.0975L14.2282 24.6262C13.1567 25.1633 11.9107 24.3429 12.0166 23.2391C12.0166 23.1978 12.0291 23.1565 12.0353 23.1211L12.2534 21.9229L12.6209 19.8807C12.7081 19.4144 12.5399 18.9422 12.1848 18.6117L9.69915 16.3216C8.80206 15.4893 9.29421 14.0492 10.5339 13.878L13.9666 13.3999C14.4587 13.335 14.8823 13.0399 15.1004 12.6208L16.6329 9.66962C17.1936 8.6072 18.7884 8.6072 19.3429 9.66962L20.8754 12.6208C21.0997 13.0458 21.5233 13.335 22.0154 13.3999L22.4764 13.4648L25.0556 13.819L25.448 13.878C26.0274 13.9606 26.4448 14.3148 26.6317 14.7575C26.8497 15.2651 26.7625 15.8789 26.2828 16.3216L23.7972 18.6117C23.6975 18.7061 23.6103 18.8124 23.548 18.9245C23.5355 18.9422 23.523 18.9658 23.5106 18.9835H23.5293Z" fill="#EDE869"/>
</svg>
