<svg width="24" height="25" viewBox="0 0 24 25" fill="none" xmlns="http://www.w3.org/2000/svg">
<path fill-rule="evenodd" clip-rule="evenodd" d="M12.0051 17.4691C11.5911 17.4691 11.2511 17.1331 11.2511 16.7191C11.2511 16.3051 11.5821 15.9691 11.9961 15.9691H12.0051C12.4191 15.9691 12.7551 16.3051 12.7551 16.7191C12.7551 17.1331 12.4191 17.4691 12.0051 17.4691ZM11.2501 9.3241C11.2501 8.9101 11.5861 8.5741 12.0001 8.5741C12.4141 8.5741 12.7501 8.9101 12.7501 9.3241V13.2191C12.7501 13.6331 12.4141 13.9691 12.0001 13.9691C11.5861 13.9691 11.2501 13.6331 11.2501 13.2191V9.3241ZM19.0601 10.9821L18.8481 10.6081C15.8621 5.2981 14.0061 3.3241 12.0001 3.3241C9.99408 3.3241 8.13808 5.2981 5.15208 10.6081L4.94108 10.9821C3.86808 12.8641 1.63808 16.7791 2.05208 19.1151C2.54008 21.8781 5.38508 22.3241 12.0001 22.3241C18.6161 22.3241 21.4611 21.8781 21.9481 19.1151C22.3621 16.7791 20.1321 12.8641 19.0601 10.9821Z" fill="#D32D28"/>
</svg>
