<svg width="531" height="300" viewBox="0 0 531 300" fill="none" xmlns="http://www.w3.org/2000/svg">
<mask id="mask0_459_15270" style="mask-type:alpha" maskUnits="userSpaceOnUse" x="0" y="0" width="531" height="300">
<path d="M0 7.99999C0 3.58171 3.58172 0 8 0H523C527.418 0 531 3.58172 531 8V292C531 296.418 527.418 300 523 300H8C3.58172 300 0 296.418 0 292V7.99999Z" fill="#EDEDED"/>
</mask>
<g mask="url(#mask0_459_15270)">
<path d="M0 7.99999C0 3.58171 3.58172 0 8 0H523C527.418 0 531 3.58172 531 8V292C531 296.418 527.418 300 523 300H8C3.58172 300 0 296.418 0 292V7.99999Z" fill="#D4D4D4"/>
<path fill-rule="evenodd" clip-rule="evenodd" d="M250.717 123.529C256.739 123.529 261.645 128.435 261.645 134.457C261.645 140.48 256.739 145.381 250.717 145.381C244.695 145.381 239.789 140.48 239.789 134.457C239.789 128.435 244.695 123.529 250.717 123.529ZM239.301 162.694C245.028 160.006 249.659 161.669 254.139 163.283C257.518 164.501 261.017 165.758 265.855 165.758C269.615 165.758 271.834 162.438 275.038 156.957C278.228 151.509 282.197 144.728 290.21 144.728C301.346 144.728 308.248 151.751 312.927 156.928C313.048 154.714 313.125 152.423 313.125 150.001C313.125 115.206 300.79 102.876 266 102.876C231.21 102.876 218.875 115.206 218.875 150.001C218.875 162.979 220.596 172.829 224.559 180.084C227.053 175.169 232.476 165.898 239.301 162.694Z" fill="#EDEDED"/>
<path fill-rule="evenodd" clip-rule="evenodd" d="M310.619 165.136C309.908 164.407 309.154 163.57 308.347 162.667C304.075 157.906 298.753 151.975 290.208 151.975C286.612 151.975 284.442 155.243 281.3 160.617C278.066 166.142 274.05 173.01 265.853 173.01C259.748 173.01 255.277 171.4 251.681 170.1C247.447 168.573 245.263 167.896 242.387 169.255C236.915 171.826 231.425 182.198 229.772 185.978C229.675 186.21 229.525 186.398 229.385 186.601C236.814 194.04 248.598 197.123 266.002 197.123C294.804 197.123 308.183 188.627 311.948 165.978C311.46 165.794 311.006 165.533 310.619 165.136Z" fill="#EDEDED"/>
</g>
</svg>
