<svg width="24" height="24" viewBox="0 0 24 24" fill="none" xmlns="http://www.w3.org/2000/svg">
<path fill-rule="evenodd" clip-rule="evenodd" d="M19.0988 9.5976C19.0988 9.3216 18.8748 9.0976 18.5988 9.0976H5.4028C5.1258 9.0976 4.9028 9.3216 4.9028 9.5976C4.9028 10.5946 4.8848 11.5236 4.8678 12.3846C4.7938 16.1336 4.7448 18.6106 6.2598 20.1556C7.3358 21.2526 9.1028 21.7426 11.9898 21.7426C14.8798 21.7426 16.6498 21.2516 17.7288 20.1526C19.2508 18.6006 19.2028 16.1116 19.1318 12.3416C19.1158 11.4926 19.0988 10.5776 19.0988 9.5976Z" fill="#262626"/>
<path fill-rule="evenodd" clip-rule="evenodd" d="M20.0748 5.77439H15.9338C15.8928 5.12039 15.7118 4.19839 15.0608 3.45039C14.3728 2.65939 13.3428 2.25739 11.9988 2.25739C10.6558 2.25739 9.6258 2.65939 8.9378 3.45039C8.2868 4.19839 8.1048 5.12039 8.0638 5.77439H3.9248C3.5108 5.77439 3.1748 6.11039 3.1748 6.52439C3.1748 6.93839 3.5108 7.27439 3.9248 7.27439H20.0748C20.4888 7.27439 20.8248 6.93839 20.8248 6.52439C20.8248 6.11039 20.4888 5.77439 20.0748 5.77439Z" fill="#262626"/>
</svg>
