<svg width="116" height="116" viewBox="0 0 116 116" fill="none" xmlns="http://www.w3.org/2000/svg">
<path fill-rule="evenodd" clip-rule="evenodd" d="M42.717 31.5293C48.7393 31.5293 53.6452 36.4351 53.6452 42.4575C53.6452 48.4798 48.7393 53.3808 42.717 53.3808C36.6947 53.3808 31.7888 48.4798 31.7888 42.4575C31.7888 36.4351 36.6947 31.5293 42.717 31.5293ZM31.3007 70.6938C37.0282 68.0065 41.6585 69.6691 46.139 71.2835C49.5175 72.5015 53.0168 73.7581 57.855 73.7581C61.6153 73.7581 63.8338 70.4376 67.0383 64.9566C70.2283 59.5095 74.1965 52.7283 82.2102 52.7283C93.3462 52.7283 100.248 59.7511 104.927 64.9276C105.048 62.714 105.125 60.423 105.125 58.0015C105.125 23.2063 92.7903 10.8765 58 10.8765C23.2097 10.8765 10.875 23.2063 10.875 58.0015C10.875 70.979 12.5957 80.8293 16.559 88.0841C19.053 83.1686 24.476 73.8983 31.3007 70.6938Z" fill="#D2E1DE"/>
<path fill-rule="evenodd" clip-rule="evenodd" d="M102.619 73.1365C101.908 72.4067 101.154 71.5705 100.347 70.6667C96.0746 65.9058 90.7531 59.9753 82.2077 59.9753C78.6117 59.9753 76.4416 63.2427 73.2999 68.6173C70.0664 74.1418 66.0499 81.01 57.8526 81.01C51.7481 81.01 47.2772 79.4005 43.6812 78.1003C39.4472 76.573 37.2626 75.8963 34.3867 77.2545C28.9154 79.8258 23.4247 90.1982 21.7717 93.9778C21.6751 94.2098 21.5252 94.3983 21.3851 94.6013C28.8139 102.04 40.5976 105.123 58.0024 105.123C86.8043 105.123 100.183 96.6265 103.948 73.9775C103.46 73.7938 103.006 73.5328 102.619 73.1365Z" fill="#D2E1DE"/>
</svg>
