<svg width="50" height="51" viewBox="0 0 50 51" fill="none" xmlns="http://www.w3.org/2000/svg">
<path fill-rule="evenodd" clip-rule="evenodd" d="M18.4125 14.0903C21.0083 14.0903 23.1229 16.2049 23.1229 18.8007C23.1229 21.3966 21.0083 23.5091 18.4125 23.5091C15.8167 23.5091 13.7021 21.3966 13.7021 18.8007C13.7021 16.2049 15.8167 14.0903 18.4125 14.0903ZM13.4917 30.9716C15.9604 29.8132 17.9562 30.5299 19.8875 31.2257C21.3438 31.7507 22.8521 32.2924 24.9375 32.2924C26.5583 32.2924 27.5146 30.8611 28.8958 28.4986C30.2708 26.1507 31.9812 23.2278 35.4354 23.2278C40.2354 23.2278 43.2104 26.2549 45.2271 28.4861C45.2792 27.532 45.3125 26.5445 45.3125 25.5007C45.3125 10.5028 39.9958 5.18823 25 5.18823C10.0042 5.18823 4.6875 10.5028 4.6875 25.5007C4.6875 31.0945 5.42917 35.3403 7.1375 38.4674C8.2125 36.3486 10.55 32.3528 13.4917 30.9716Z" fill="#D2E1DE"/>
<path fill-rule="evenodd" clip-rule="evenodd" d="M44.2323 32.0245C43.926 31.7099 43.601 31.3495 43.2531 30.9599C41.4115 28.9078 39.1177 26.3515 35.4344 26.3515C33.8844 26.3515 32.949 27.7599 31.5948 30.0765C30.201 32.4578 28.4698 35.4182 24.9365 35.4182C22.3052 35.4182 20.3781 34.7245 18.8281 34.164C17.0031 33.5057 16.0615 33.214 14.8219 33.7995C12.4635 34.9078 10.0969 39.3786 9.38437 41.0078C9.34271 41.1078 9.27812 41.189 9.21771 41.2765C12.4198 44.4828 17.499 45.812 25.001 45.812C37.4156 45.812 43.1823 42.1495 44.8052 32.387C44.5948 32.3078 44.399 32.1953 44.2323 32.0245Z" fill="#D2E1DE"/>
</svg>
