<svg width="24" height="24" viewBox="0 0 24 24" fill="none" xmlns="http://www.w3.org/2000/svg">
<path fill-rule="evenodd" clip-rule="evenodd" d="M4.9304 4.27249C6.46225 2.58293 8.83812 2 12.0398 2C12.9665 2 13.8213 2.05142 14.5916 2.15694C14.7476 2.17832 14.893 2.24827 15.007 2.3569L20.677 7.7569C20.7922 7.86656 20.8695 8.00998 20.8978 8.16645C21.0982 9.27377 21.1898 10.5511 21.1898 12C21.1898 15.4998 20.6711 18.0653 19.1575 19.7318C17.624 21.42 15.2454 22 12.0398 22C8.83885 22 6.46271 21.4199 4.93062 19.7315C3.4185 18.0651 2.89978 15.4999 2.89978 12C2.89978 8.5048 3.41862 5.93992 4.9304 4.27249ZM6.04166 5.28001C4.93094 6.50508 4.39978 8.5652 4.39978 12C4.39978 15.4401 4.93106 17.4999 6.04144 18.7235C7.13185 19.9251 8.95071 20.5 12.0398 20.5C15.1341 20.5 16.9555 19.925 18.0471 18.7232C19.1585 17.4997 19.6898 15.4402 19.6898 12C19.6898 10.7185 19.6148 9.61383 19.4625 8.67165L14.1507 3.61282C13.5199 3.53823 12.8145 3.5 12.0398 3.5C8.95144 3.5 7.13232 4.07707 6.04166 5.28001Z" fill="#1C6758"/>
<path fill-rule="evenodd" clip-rule="evenodd" d="M13.9342 2.08276C14.3484 2.08276 14.6842 2.41855 14.6842 2.83276V5.49376C14.6842 6.93726 15.8541 8.10676 17.2982 8.10676H20.2492C20.6634 8.10676 20.9992 8.44255 20.9992 8.85676C20.9992 9.27098 20.6634 9.60676 20.2492 9.60676H17.2982C15.0263 9.60676 13.1842 7.76627 13.1842 5.49376V2.83276C13.1842 2.41855 13.52 2.08276 13.9342 2.08276Z" fill="#1C6758"/>
<path fill-rule="evenodd" clip-rule="evenodd" d="M11.6603 9.22632C12.0745 9.22632 12.4103 9.5621 12.4103 9.97632V16.0173C12.4103 16.4315 12.0745 16.7673 11.6603 16.7673C11.2461 16.7673 10.9103 16.4315 10.9103 16.0173V9.97632C10.9103 9.5621 11.2461 9.22632 11.6603 9.22632Z" fill="#1C6758"/>
<path fill-rule="evenodd" clip-rule="evenodd" d="M8.78537 13.1309C9.07889 12.8386 9.55376 12.8396 9.84603 13.1332L11.6596 14.9544L13.4731 13.1332C13.7654 12.8396 14.2403 12.8386 14.5338 13.1309C14.8273 13.4232 14.8283 13.898 14.536 14.1916L12.191 16.5466C12.0503 16.6879 11.859 16.7674 11.6596 16.7674C11.4601 16.7674 11.2689 16.6879 11.1281 16.5466L8.78312 14.1916C8.49085 13.898 8.49186 13.4232 8.78537 13.1309Z" fill="#1C6758"/>
</svg>
