<svg width="24" height="25" viewBox="0 0 24 25" fill="none" xmlns="http://www.w3.org/2000/svg">
<path fill-rule="evenodd" clip-rule="evenodd" d="M12.0023 10.4642C10.6704 10.4642 9.59033 11.5436 9.59033 12.8762C9.59033 14.208 10.6705 15.2882 12.0023 15.2882C13.3341 15.2882 14.4143 14.208 14.4143 12.8762C14.4143 11.5436 13.3343 10.4642 12.0023 10.4642ZM8.09033 12.8762C8.09033 10.7149 9.84227 8.96423 12.0023 8.96423C14.1624 8.96423 15.9143 10.7149 15.9143 12.8762C15.9143 15.0364 14.1625 16.7882 12.0023 16.7882C9.84212 16.7882 8.09033 15.0364 8.09033 12.8762Z" fill="#262626"/>
<path fill-rule="evenodd" clip-rule="evenodd" d="M4.97577 7.42248C6.77017 5.9054 9.25098 4.82422 12.0022 4.82422C14.7529 4.82422 17.2337 5.90455 19.0282 7.42128C20.8033 8.92148 22.0042 10.9383 22.0042 12.8762C22.0042 14.8142 20.8033 16.831 19.0282 18.3312C17.2337 19.8479 14.7529 20.9282 12.0022 20.9282C9.25098 20.9282 6.77017 19.847 4.97577 18.33C3.20099 16.8295 2.00024 14.8127 2.00024 12.8762C2.00024 10.9397 3.20099 8.92298 4.97577 7.42248ZM5.94422 8.56796C4.3705 9.89846 3.50024 11.5327 3.50024 12.8762C3.50024 14.2197 4.3705 15.854 5.94422 17.1845C7.49832 18.4984 9.64351 19.4282 12.0022 19.4282C14.3606 19.4282 16.5058 18.4991 18.06 17.1855C19.6337 15.8555 20.5042 14.2213 20.5042 12.8762C20.5042 11.5312 19.6337 9.89696 18.06 8.56691C16.5058 7.25338 14.3606 6.32422 12.0022 6.32422C9.64351 6.32422 7.49832 7.25404 5.94422 8.56796Z" fill="#262626"/>
</svg>
