<svg width="24" height="25" viewBox="0 0 24 25" fill="none" xmlns="http://www.w3.org/2000/svg">
<path fill-rule="evenodd" clip-rule="evenodd" d="M3.58303 21.2415C3.72903 21.3885 3.92103 21.4615 4.11303 21.4615C4.30503 21.4615 4.49703 21.3885 4.64303 21.2415L6.86954 19.0149C6.92233 18.9749 6.97048 18.9272 7.01226 18.8722L20.417 5.46746C20.71 5.17446 20.71 4.69946 20.417 4.40646C20.124 4.11346 19.65 4.11346 19.357 4.40646L17.4789 6.28469C15.8038 5.2963 13.9204 4.77655 11.9961 4.77655C6.45609 4.77655 1.99609 9.18055 1.99609 12.8266C1.99609 14.7763 3.25202 16.9328 5.25663 18.5078L3.58303 20.1815C3.29003 20.4745 3.29003 20.9485 3.58303 21.2415ZM6.32643 17.4379C4.61323 16.1429 3.49609 14.3461 3.49609 12.8266C3.49609 9.87855 7.41809 6.27655 11.9961 6.27655C13.5227 6.27655 15.0209 6.65793 16.3778 7.38586L14.1845 9.57935C13.5425 9.14706 12.7768 8.90814 11.998 8.90814H11.989C10.944 8.91014 9.96297 9.31914 9.22497 10.0591C8.48797 10.7991 8.08297 11.7821 8.08597 12.8221C8.08294 13.6023 8.32108 14.3687 8.75459 15.0096L6.32643 17.4379ZM9.84756 13.9165L13.091 10.6729C12.7542 10.501 12.3781 10.4081 11.997 10.4081H11.992C11.347 10.4091 10.742 10.6611 10.288 11.1171C9.83397 11.5741 9.58397 12.1791 9.58597 12.8231C9.58416 13.2056 9.67636 13.5811 9.84756 13.9165Z" fill="#262626"/>
<path d="M11.9944 20.8773C11.0474 20.8773 10.0964 20.7473 9.16442 20.4893C8.76542 20.3793 8.53142 19.9663 8.64142 19.5673C8.75142 19.1673 9.16742 18.9343 9.56442 19.0443C10.3654 19.2653 11.1824 19.3773 11.9944 19.3773C16.5774 19.3773 20.5044 15.7753 20.5044 12.8263C20.5044 11.8713 20.0604 10.7823 19.2554 9.76233C18.9994 9.43733 19.0554 8.96533 19.3804 8.70833C19.7054 8.45233 20.1774 8.50733 20.4334 8.83233C21.4464 10.1173 22.0044 11.5353 22.0044 12.8263C22.0044 16.4733 17.5394 20.8773 11.9944 20.8773Z" fill="#262626"/>
<path d="M12.5664 16.6781C12.2114 16.6781 11.8964 16.4251 11.8294 16.0641C11.7544 15.6571 12.0244 15.2651 12.4324 15.1911C13.4114 15.0101 14.1894 14.2321 14.3664 13.2521C14.4404 12.8441 14.8294 12.5761 15.2384 12.6481C15.6454 12.7221 15.9164 13.1121 15.8424 13.5201C15.5544 15.1101 14.2934 16.3731 12.7024 16.6651C12.6574 16.6741 12.6114 16.6781 12.5664 16.6781Z" fill="#262626"/>
</svg>
