<svg width="40" height="40" viewBox="0 0 40 40" fill="none" xmlns="http://www.w3.org/2000/svg">
<path fill-rule="evenodd" clip-rule="evenodd" d="M11.2617 25.2446C11.2617 24.8304 11.5975 24.4946 12.0117 24.4946H18.4842C18.8985 24.4946 19.2342 24.8304 19.2342 25.2446C19.2342 25.6588 18.8985 25.9946 18.4842 25.9946H12.0117C11.5975 25.9946 11.2617 25.6588 11.2617 25.2446Z" fill="#262626"/>
<path fill-rule="evenodd" clip-rule="evenodd" d="M22.6122 22.5885C23.2599 21.9409 24.2067 21.7737 25.2687 21.7737C26.3306 21.7737 27.2774 21.9409 27.9252 22.5885C28.573 23.2361 28.7405 24.183 28.7405 25.2455C28.7405 26.308 28.573 27.2548 27.9252 27.9024C27.2774 28.55 26.3306 28.7173 25.2687 28.7173C24.2067 28.7173 23.2599 28.55 22.6122 27.9024C21.9644 27.2548 21.7969 26.308 21.7969 25.2455C21.7969 24.183 21.9644 23.2361 22.6122 22.5885ZM23.6727 23.6493C23.4698 23.8521 23.2969 24.2662 23.2969 25.2455C23.2969 26.2248 23.4698 26.6388 23.6727 26.8416C23.8756 27.0445 24.2897 27.2173 25.2687 27.2173C26.2476 27.2173 26.6617 27.0445 26.8646 26.8416C27.0675 26.6388 27.2405 26.2248 27.2405 25.2455C27.2405 24.2662 27.0675 23.8521 26.8646 23.6493C26.6617 23.4465 26.2476 23.2737 25.2687 23.2737C24.2897 23.2737 23.8756 23.4465 23.6727 23.6493Z" fill="#262626"/>
<path fill-rule="evenodd" clip-rule="evenodd" d="M20.7676 14.756C20.7676 14.3418 21.1034 14.006 21.5176 14.006H27.9892C28.4034 14.006 28.7392 14.3418 28.7392 14.756C28.7392 15.1702 28.4034 15.506 27.9892 15.506H21.5176C21.1034 15.506 20.7676 15.1702 20.7676 14.756Z" fill="#262626"/>
<path fill-rule="evenodd" clip-rule="evenodd" d="M12.0771 12.098C12.725 11.4503 13.6719 11.2828 14.7344 11.2828C15.7966 11.2828 16.7433 11.4504 17.391 12.0981C18.0387 12.7458 18.2062 13.6925 18.2062 14.7546C18.2062 15.8171 18.0387 16.764 17.3909 17.4116C16.7431 18.0592 15.7963 18.2264 14.7344 18.2264C13.6721 18.2264 12.7251 18.0592 12.0772 17.4117C11.4292 16.764 11.2617 15.8171 11.2617 14.7546C11.2617 13.6925 11.4292 12.7457 12.0771 12.098ZM13.1377 13.1588C12.9346 13.3618 12.7617 13.7759 12.7617 14.7546C12.7617 15.7339 12.9347 16.1479 13.1376 16.3507C13.3406 16.5536 13.7549 16.7264 14.7344 16.7264C15.7134 16.7264 16.1275 16.5536 16.3304 16.3508C16.5332 16.148 16.7062 15.7339 16.7062 14.7546C16.7062 13.7759 16.5333 13.3617 16.3303 13.1587C16.1273 12.9558 15.7132 12.7828 14.7344 12.7828C13.7551 12.7828 13.3407 12.9558 13.1377 13.1588Z" fill="#262626"/>
</svg>
