<svg width="40" height="40" viewBox="0 0 40 40" fill="none" xmlns="http://www.w3.org/2000/svg">
<path fill-rule="evenodd" clip-rule="evenodd" d="M18.4845 24.2441H12.0115C11.4595 24.2441 11.0115 24.6911 11.0115 25.2441C11.0115 25.7971 11.4595 26.2441 12.0115 26.2441H18.4845C19.0365 26.2441 19.4845 25.7971 19.4845 25.2441C19.4845 24.6911 19.0365 24.2441 18.4845 24.2441Z" fill="#262626"/>
<path fill-rule="evenodd" clip-rule="evenodd" d="M25.2672 22.0234C22.9492 22.0234 22.0452 22.9264 22.0452 25.2454C22.0452 27.5644 22.9492 28.4674 25.2672 28.4674C27.5862 28.4674 28.4892 27.5644 28.4892 25.2454C28.4892 22.9264 27.5862 22.0234 25.2672 22.0234Z" fill="#262626"/>
<path fill-rule="evenodd" clip-rule="evenodd" d="M27.9883 13.7549H21.5173C20.9653 13.7549 20.5173 14.2019 20.5173 14.7549C20.5173 15.3079 20.9653 15.7549 21.5173 15.7549H27.9883C28.5403 15.7549 28.9883 15.3079 28.9883 14.7549C28.9883 14.2019 28.5403 13.7549 27.9883 13.7549Z" fill="#262626"/>
<path fill-rule="evenodd" clip-rule="evenodd" d="M14.7335 17.9765C17.0525 17.9765 17.9555 17.0735 17.9555 14.7535C17.9555 12.4355 17.0525 11.5325 14.7335 11.5325C12.4145 11.5325 11.5115 12.4355 11.5115 14.7535C11.5115 17.0735 12.4145 17.9765 14.7335 17.9765Z" fill="#262626"/>
</svg>
