<svg width="70" height="71" viewBox="0 0 70 71" fill="none" xmlns="http://www.w3.org/2000/svg">
<path d="M62.2222 0.753906C64.285 0.753906 66.2633 1.57335 67.7219 3.03196C69.1806 4.49058 70 6.46889 70 8.53168V62.9761C70 65.0389 69.1806 67.0172 67.7219 68.4758C66.2633 69.9345 64.285 70.7539 62.2222 70.7539H7.77778C5.71498 70.7539 3.73667 69.9345 2.27806 68.4758C0.819442 67.0172 0 65.0389 0 62.9761V8.53168C0 6.46889 0.819442 4.49058 2.27806 3.03196C3.73667 1.57335 5.71498 0.753906 7.77778 0.753906H62.2222ZM60.2778 61.0317V40.4206C60.2778 37.0582 58.9421 33.8336 56.5645 31.456C54.187 29.0785 50.9624 27.7428 47.6 27.7428C44.2944 27.7428 40.4444 29.765 38.5778 32.7983V28.4817H27.7278V61.0317H38.5778V41.8595C38.5778 38.865 40.9889 36.415 43.9833 36.415C45.4273 36.415 46.8121 36.9886 47.8331 38.0097C48.8542 39.0307 49.4278 40.4155 49.4278 41.8595V61.0317H60.2778ZM15.0889 22.3761C16.8216 22.3761 18.4834 21.6878 19.7087 20.4626C20.9339 19.2373 21.6222 17.5755 21.6222 15.8428C21.6222 12.2261 18.7056 9.27057 15.0889 9.27057C13.3458 9.27057 11.6742 9.963 10.4416 11.1955C9.2091 12.4281 8.51667 14.0997 8.51667 15.8428C8.51667 19.4595 11.4722 22.3761 15.0889 22.3761ZM20.4944 61.0317V28.4817H9.72222V61.0317H20.4944Z" fill="#FAFAFA"/>
</svg>
