<svg width="24" height="25" viewBox="0 0 24 25" fill="none" xmlns="http://www.w3.org/2000/svg">
<path d="M12.0005 17.8924C11.5865 17.8924 11.2505 17.5564 11.2505 17.1424V14.9214C11.2505 14.5074 11.5865 14.1714 12.0005 14.1714C12.4145 14.1714 12.7505 14.5074 12.7505 14.9214V17.1424C12.7505 17.5564 12.4145 17.8924 12.0005 17.8924Z" fill="#262626"/>
<path fill-rule="evenodd" clip-rule="evenodd" d="M17.3099 9.69033C19.5076 10.6913 20.4103 12.6388 20.4103 15.8606C20.4103 20.9796 18.1313 22.8826 12.0003 22.8826C5.86933 22.8826 3.59033 20.9796 3.59033 15.8606C3.59033 12.6392 4.49286 10.6918 6.68994 9.69069V7.99963C6.73694 5.09563 9.03894 2.80263 11.9299 2.76562C13.3679 2.77263 14.6919 3.28363 15.7069 4.27363C16.7239 5.26562 17.2929 6.59162 17.3099 8.01062V9.69033ZM16.2062 10.8301C16.2687 10.8636 16.3365 10.8885 16.4079 10.9032C18.2742 11.6228 18.9103 13.1169 18.9103 15.8606C18.9103 20.1446 17.3603 21.3826 12.0003 21.3826C6.64033 21.3826 5.09033 20.1446 5.09033 15.8606C5.09033 13.1164 5.72663 11.6223 7.59364 10.9028C7.66395 10.8882 7.73067 10.8637 7.79227 10.8308C8.81976 10.4803 10.1936 10.3396 12.0003 10.3396C13.8058 10.3396 15.179 10.4801 16.2062 10.8301ZM8.18994 9.19556V8.01162C8.22294 5.93762 9.87394 4.29163 11.9499 4.26562C12.9859 4.25863 13.9319 4.63762 14.6609 5.34862C15.3899 6.05962 15.7979 7.01063 15.8099 8.01963V9.19538C14.7525 8.9519 13.4901 8.8396 12.0003 8.8396C10.5102 8.8396 9.24757 8.95196 8.18994 9.19556Z" fill="#262626"/>
</svg>
