<svg width="24" height="25" viewBox="0 0 24 25" fill="none" xmlns="http://www.w3.org/2000/svg">
<path d="M5.84434 10.3575C6.20034 10.7785 9.39134 14.4765 12.0113 14.4765C14.6343 14.4765 17.7933 10.7755 18.1443 10.3535C18.4093 10.0365 18.3663 9.56355 18.0493 9.29855C17.7293 9.03355 17.2583 9.07655 16.9923 9.39355C15.8363 10.7785 13.4613 12.9765 12.0113 12.9765C10.5593 12.9765 8.16234 10.7765 6.99134 9.39055C6.72434 9.07355 6.25134 9.03355 5.93534 9.30055C5.61834 9.56755 5.57834 10.0405 5.84434 10.3575Z" fill="#262626"/>
<path fill-rule="evenodd" clip-rule="evenodd" d="M1.72656 12.8241C1.72656 20.1091 4.41556 22.6911 11.9996 22.6911C19.5846 22.6911 22.2736 20.1091 22.2736 12.8241C22.2736 5.53909 19.5846 2.95709 11.9996 2.95709C4.41556 2.95709 1.72656 5.53909 1.72656 12.8241ZM3.22656 12.8241C3.22656 6.41209 5.27656 4.45709 11.9996 4.45709C18.7236 4.45709 20.7736 6.41209 20.7736 12.8241C20.7736 19.2361 18.7236 21.1911 11.9996 21.1911C5.27656 21.1911 3.22656 19.2361 3.22656 12.8241Z" fill="#262626"/>
</svg>
