<svg width="24" height="24" viewBox="0 0 24 24" fill="none" xmlns="http://www.w3.org/2000/svg">
<path d="M12.4999 3H11.4999C10.9476 3 10.4999 3.44772 10.4999 4V5C10.4999 5.55228 10.9476 6 11.4999 6H12.4999C13.0522 6 13.4999 5.55228 13.4999 5V4C13.4999 3.44772 13.0522 3 12.4999 3Z" fill="#262626" stroke="#262626" stroke-width="0.5" stroke-linecap="round" stroke-linejoin="round"/>
<path d="M12.4999 10.5H11.4999C10.9476 10.5 10.4999 10.9477 10.4999 11.5V12.5C10.4999 13.0523 10.9476 13.5 11.4999 13.5H12.4999C13.0522 13.5 13.4999 13.0523 13.4999 12.5V11.5C13.4999 10.9477 13.0522 10.5 12.4999 10.5Z" fill="#262626" stroke="#262626" stroke-width="0.5" stroke-linecap="round" stroke-linejoin="round"/>
<path d="M12.4999 18H11.4999C10.9476 18 10.4999 18.4477 10.4999 19V20C10.4999 20.5523 10.9476 21 11.4999 21H12.4999C13.0522 21 13.4999 20.5523 13.4999 20V19C13.4999 18.4477 13.0522 18 12.4999 18Z" fill="#262626" stroke="#262626" stroke-width="0.5" stroke-linecap="round" stroke-linejoin="round"/>
</svg>
