<svg width="400" height="298" viewBox="0 0 400 298" fill="none" xmlns="http://www.w3.org/2000/svg">
<g clip-path="url(#clip0_359_32285)">
<path d="M400 254.92H0V255.12H400V254.92Z" fill="#EBEBEB"/>
<path d="M359.92 267.792H333.424V267.992H359.92V267.792Z" fill="#EBEBEB"/>
<path d="M264.976 269.968H258.024V270.168H264.976V269.968Z" fill="#EBEBEB"/>
<path d="M332.624 260.368H317.272V260.568H332.624V260.368Z" fill="#EBEBEB"/>
<path d="M76.52 261.712H41.968V261.912H76.52V261.712Z" fill="#EBEBEB"/>
<path d="M88.712 261.712H83.648V261.912H88.712V261.712Z" fill="#EBEBEB"/>
<path d="M180.12 265.088H105.176V265.288H180.12V265.088Z" fill="#EBEBEB"/>
<path d="M189.6 219.24H35.128C33.9179 219.238 32.758 218.756 31.9031 217.899C31.0482 217.043 30.568 215.882 30.568 214.672V-2.472C30.5785 -3.67518 31.0633 -4.82562 31.9171 -5.67343C32.7709 -6.52123 33.9248 -6.99794 35.128 -7H189.6C190.812 -7 191.973 -6.51873 192.83 -5.66206C193.687 -4.8054 194.168 -3.64351 194.168 -2.432V214.672C194.168 215.884 193.687 217.045 192.83 217.902C191.973 218.759 190.812 219.24 189.6 219.24ZM35.128 -6.84C33.9709 -6.83788 32.862 -6.37675 32.0445 -5.55782C31.2271 -4.73889 30.768 -3.62908 30.768 -2.472V214.672C30.768 215.829 31.2271 216.939 32.0445 217.758C32.862 218.577 33.9709 219.038 35.128 219.04H189.6C190.758 219.038 191.868 218.577 192.686 217.758C193.505 216.94 193.966 215.83 193.968 214.672V-2.472C193.966 -3.62982 193.505 -4.73961 192.686 -5.55831C191.868 -6.37701 190.758 -6.83788 189.6 -6.84H35.128Z" fill="#EBEBEB"/>
<path d="M362.648 219.24H208.168C206.957 219.238 205.797 218.756 204.94 217.9C204.084 217.044 203.602 215.883 203.6 214.672V-2.472C203.613 -3.67591 204.099 -4.82634 204.954 -5.67393C205.809 -6.52151 206.964 -6.99796 208.168 -7H362.648C363.85 -6.99584 365.002 -6.5182 365.854 -5.67062C366.706 -4.82303 367.19 -3.6738 367.2 -2.472V214.672C367.2 215.881 366.721 217.04 365.868 217.896C365.015 218.753 363.857 219.236 362.648 219.24ZM208.168 -6.84C207.01 -6.83788 205.9 -6.37701 205.082 -5.55831C204.263 -4.73961 203.802 -3.62982 203.8 -2.472V214.672C203.802 215.83 204.263 216.94 205.082 217.758C205.9 218.577 207.01 219.038 208.168 219.04H362.648C363.806 219.038 364.916 218.577 365.734 217.758C366.553 216.94 367.014 215.83 367.016 214.672V-2.472C367.014 -3.62982 366.553 -4.73961 365.734 -5.55831C364.916 -6.37701 363.806 -6.83788 362.648 -6.84H208.168Z" fill="#EBEBEB"/>
<path d="M231.752 88.248L341.976 88.248V16.064L231.752 16.064V88.248Z" fill="#E6E6E6"/>
<path d="M228.384 88.248L340.4 88.248V16.064L228.384 16.064V88.248Z" fill="#F0F0F0"/>
<path d="M231.752 102.408L341.976 102.408V88.24L231.752 88.24V102.408Z" fill="#E6E6E6"/>
<path d="M222.792 102.408L334.808 102.408V88.24L222.792 88.24V102.408Z" fill="#F0F0F0"/>
<path d="M335.696 83.5439V20.7759L233.096 20.7759V83.5439H335.696Z" fill="#FAFAFA"/>
<path d="M312.56 83.5359L299.456 20.7759H279.008L292.112 83.5359H312.56Z" fill="white"/>
<path d="M333.52 78.856C333.565 78.856 333.609 78.8471 333.651 78.8297C333.692 78.8123 333.729 78.7868 333.761 78.7548C333.792 78.7227 333.816 78.6847 333.833 78.643C333.849 78.6014 333.857 78.5568 333.856 78.512V23.84C333.856 23.7509 333.821 23.6654 333.758 23.6024C333.695 23.5394 333.609 23.504 333.52 23.504C333.476 23.5029 333.431 23.5108 333.39 23.5273C333.349 23.5438 333.311 23.5686 333.28 23.6C333.249 23.6314 333.224 23.6689 333.207 23.7101C333.191 23.7514 333.183 23.7956 333.184 23.84V78.512C333.183 78.5568 333.191 78.6014 333.207 78.643C333.224 78.6847 333.248 78.7227 333.28 78.7548C333.311 78.7868 333.348 78.8123 333.39 78.8297C333.431 78.8471 333.475 78.856 333.52 78.856Z" fill="#F0F0F0"/>
<path d="M287.72 83.5359L274.616 20.7759H266.64L279.752 83.5359H287.72Z" fill="white"/>
<path d="M233.696 83.5439V20.7759H233.096V83.5439H233.696Z" fill="#E6E6E6"/>
<path opacity="0.6" d="M227.28 27.8721H337.504L337.936 22.6001H227.712L227.28 27.8721Z" fill="#EBEBEB"/>
<path opacity="0.6" d="M227.28 36.512H337.504L337.936 31.248H227.712L227.28 36.512Z" fill="#EBEBEB"/>
<path opacity="0.6" d="M227.28 45.1519H337.504L337.936 39.8879H227.712L227.28 45.1519Z" fill="#EBEBEB"/>
<path opacity="0.6" d="M227.28 53.8001H337.504L337.936 48.5281H227.712L227.28 53.8001Z" fill="#EBEBEB"/>
<path opacity="0.6" d="M227.28 62.44H337.504L337.936 57.168H227.712L227.28 62.44Z" fill="#EBEBEB"/>
<path opacity="0.6" d="M227.28 71.0801H337.504L337.936 65.8081H227.712L227.28 71.0801Z" fill="#EBEBEB"/>
<path d="M326.152 202.424H303.04V206.984H326.152V202.424Z" fill="#E6E6E6"/>
<path d="M259.448 254.92H263.712V150.064H259.448V254.92Z" fill="#E6E6E6"/>
<path d="M244.664 206.984H303.032V202.424H244.664V206.984Z" fill="#F5F5F5"/>
<path d="M326.152 227.36H303.04V231.92H326.152V227.36Z" fill="#E6E6E6"/>
<path d="M244.664 231.912H303.032V227.352H244.664V231.912Z" fill="#F5F5F5"/>
<path d="M326.152 152.56H303.04V157.12H326.152V152.56Z" fill="#E6E6E6"/>
<path d="M244.664 157.112H303.032V152.552H244.664V157.112Z" fill="#F5F5F5"/>
<path d="M326.152 177.488H303.04V182.048H326.152V177.488Z" fill="#E6E6E6"/>
<path d="M244.664 182.048H303.032V177.488H244.664V182.048Z" fill="#F5F5F5"/>
<path d="M317.824 254.92H322.088V150.064H317.824V254.92Z" fill="#E6E6E6"/>
<path d="M298.768 254.92H303.032V150.064H298.768V254.92Z" fill="#F5F5F5"/>
<path d="M244.664 254.92H248.928V150.064H244.664V254.92Z" fill="#F5F5F5"/>
<path d="M52.304 254.92H95.968L95.968 170.208H52.304L52.304 254.92Z" fill="#E6E6E6"/>
<path d="M63.96 254.92H52.296V243.224H76.184L63.96 254.92Z" fill="#FAFAFA"/>
<path d="M171.344 254.92H215.008V170.208H171.344V254.92Z" fill="#E6E6E6"/>
<path d="M52.304 250.888L181.528 250.888V170.2H52.304V250.888Z" fill="#FAFAFA"/>
<path d="M169.864 254.92H181.52V243.224H157.64L169.864 254.92Z" fill="#FAFAFA"/>
<path d="M61.344 220.464H172.48V200.272H61.344V220.464Z" fill="#F0F0F0"/>
<path d="M61.344 244.968H172.48V224.776H61.344V244.968Z" fill="#F0F0F0"/>
<path d="M151.36 202.432H82.472C81.5002 202.432 80.5683 202.046 79.8812 201.359C79.194 200.672 78.808 199.74 78.808 198.768V198.52H155.016V198.768C155.016 199.738 154.631 200.669 153.946 201.356C153.26 202.043 152.33 202.43 151.36 202.432Z" fill="#FAFAFA"/>
<path d="M61.344 195.952H172.48V175.76H61.344V195.952Z" fill="#F0F0F0"/>
<path d="M151.36 177.92H82.472C81.5002 177.92 80.5683 177.534 79.8812 176.847C79.194 176.16 78.808 175.228 78.808 174.256V174.008H155.016V174.256C155.016 175.226 154.631 176.157 153.946 176.844C153.26 177.531 152.33 177.918 151.36 177.92Z" fill="#FAFAFA"/>
<path d="M151.36 226.944H82.472C81.5002 226.944 80.5683 226.558 79.8812 225.871C79.194 225.184 78.808 224.252 78.808 223.28V223.032H155.016V223.28C155.016 224.25 154.631 225.181 153.946 225.868C153.26 226.555 152.33 226.942 151.36 226.944Z" fill="#FAFAFA"/>
<path d="M59.256 88.248L169.48 88.248V16.064L59.256 16.064L59.256 88.248Z" fill="#E6E6E6"/>
<path d="M55.896 88.248L167.912 88.248V16.064L55.896 16.064L55.896 88.248Z" fill="#F0F0F0"/>
<path d="M59.256 102.408L169.48 102.408V88.24L59.256 88.24V102.408Z" fill="#E6E6E6"/>
<path d="M50.288 102.408L162.304 102.408V88.24L50.288 88.24V102.408Z" fill="#F0F0F0"/>
<path d="M163.2 83.5439V20.7759L60.6 20.7759V83.5439H163.2Z" fill="#FAFAFA"/>
<path d="M140.064 83.5359L126.96 20.7759H106.512L119.616 83.5359H140.064Z" fill="white"/>
<path d="M161.016 78.856C161.061 78.856 161.105 78.8471 161.146 78.8297C161.188 78.8123 161.225 78.7868 161.256 78.7548C161.288 78.7227 161.312 78.6847 161.329 78.643C161.345 78.6014 161.353 78.5568 161.352 78.512V23.84C161.353 23.7956 161.345 23.7514 161.329 23.7101C161.312 23.6689 161.287 23.6314 161.256 23.6C161.225 23.5686 161.187 23.5438 161.146 23.5273C161.105 23.5108 161.06 23.5029 161.016 23.504C160.927 23.504 160.841 23.5394 160.778 23.6024C160.715 23.6654 160.68 23.7509 160.68 23.84V78.512C160.679 78.5568 160.687 78.6014 160.703 78.643C160.72 78.6847 160.744 78.7227 160.776 78.7548C160.807 78.7868 160.844 78.8123 160.886 78.8297C160.927 78.8471 160.971 78.856 161.016 78.856Z" fill="#F0F0F0"/>
<path d="M115.224 83.5359L102.12 20.7759H94.144L107.248 83.5359H115.224Z" fill="white"/>
<path d="M61.2 83.5439L61.2 20.7759H60.6L60.6 83.5439H61.2Z" fill="#E6E6E6"/>
<path opacity="0.6" d="M54.776 27.8721H165L165.432 22.6001H55.208L54.776 27.8721Z" fill="#EBEBEB"/>
<path opacity="0.6" d="M54.776 30.8479H165L165.432 25.5759H55.208L54.776 30.8479Z" fill="#EBEBEB"/>
<path opacity="0.6" d="M54.776 33.816H165L165.432 28.552H55.208L54.776 33.816Z" fill="#EBEBEB"/>
<path opacity="0.6" d="M54.776 36.792H165L165.432 31.52H55.208L54.776 36.792Z" fill="#EBEBEB"/>
<path opacity="0.6" d="M54.776 39.7601H165L165.432 34.4961H55.208L54.776 39.7601Z" fill="#EBEBEB"/>
<path opacity="0.6" d="M54.776 42.7361H165L165.432 37.4641H55.208L54.776 42.7361Z" fill="#EBEBEB"/>
<path d="M76.816 167.616H80.624V125.144H76.816V167.616Z" fill="#F5F5F5"/>
<path d="M77.296 167.592H78.376V125.12H77.296V167.592Z" fill="#FAFAFA"/>
<path d="M78.824 167.592H79.248V125.12H78.824V167.592Z" fill="#FAFAFA"/>
<path d="M92.824 170.208H64.632C64.632 169.266 65.0062 168.362 65.6724 167.696C66.3385 167.03 67.242 166.656 68.184 166.656H89.264C90.2061 166.656 91.1095 167.03 91.7757 167.696C92.4418 168.362 92.816 169.266 92.816 170.208H92.824Z" fill="#F0F0F0"/>
<path d="M71.872 151.512C72.162 151.51 72.4396 151.394 72.6447 151.189C72.8498 150.984 72.9659 150.706 72.968 150.416V122.6C72.968 122.309 72.8525 122.03 72.647 121.825C72.4415 121.619 72.1627 121.504 71.872 121.504C71.7274 121.503 71.584 121.53 71.4501 121.585C71.3162 121.64 71.1945 121.72 71.0918 121.822C70.9892 121.924 70.9078 122.045 70.8522 122.179C70.7966 122.312 70.768 122.455 70.768 122.6V150.448C70.7784 150.734 70.8992 151.004 71.1052 151.203C71.3111 151.401 71.586 151.512 71.872 151.512Z" fill="#F0F0F0"/>
<path d="M61.656 135.24H95.776L91.848 111.4H65.584L61.656 135.24Z" fill="#E0E0E0"/>
<path d="M200 291.048C285.666 291.048 355.112 286.994 355.112 281.992C355.112 276.991 285.666 272.936 200 272.936C114.334 272.936 44.888 276.991 44.888 281.992C44.888 286.994 114.334 291.048 200 291.048Z" fill="#F5F5F5"/>
<path d="M83.2949 110.887L82.4969 110.945L83.5597 125.699L84.3576 125.641L83.2949 110.887Z" fill="#1C6758"/>
<path d="M84.8995 133.257L84.1016 133.315L84.5016 138.869L85.2995 138.811L84.8995 133.257Z" fill="#1C6758"/>
<path d="M270.168 201.128H98.84C96.9329 201.094 95.106 200.355 93.7115 199.053C92.317 197.752 91.4537 195.98 91.288 194.08L82.872 77.176C82.7937 76.2744 82.9051 75.3664 83.1991 74.5105C83.4931 73.6546 83.9631 72.8698 84.5788 72.2066C85.1945 71.5434 85.9424 71.0165 86.7741 70.6599C87.6058 70.3032 88.5031 70.1248 89.408 70.136H260.736C262.642 70.1701 264.468 70.9081 265.862 72.2078C267.256 73.5076 268.12 75.2772 268.288 77.176L276.704 194.08C276.782 194.982 276.671 195.89 276.377 196.747C276.083 197.603 275.613 198.388 274.997 199.052C274.382 199.716 273.634 200.244 272.802 200.601C271.971 200.959 271.073 201.138 270.168 201.128Z" fill="#1C6758"/>
<path d="M270.824 201.128H99.4958C97.5887 201.094 95.7618 200.355 94.3673 199.053C92.9728 197.752 92.1095 195.98 91.9438 194.08L83.5278 77.176C83.4495 76.2744 83.561 75.3664 83.8549 74.5105C84.1489 73.6546 84.6189 72.8698 85.2346 72.2066C85.8504 71.5434 86.5982 71.0165 87.4299 70.6599C88.2617 70.3032 89.1589 70.1248 90.0638 70.136H261.392C263.298 70.1701 265.124 70.9081 266.518 72.2078C267.912 73.5076 268.776 75.2772 268.944 77.176L277.36 194.08C277.439 194.982 277.329 195.891 277.035 196.748C276.742 197.605 276.272 198.391 275.656 199.055C275.04 199.719 274.292 200.246 273.46 200.604C272.627 200.961 271.729 201.139 270.824 201.128Z" fill="#1C6758"/>
<path opacity="0.5" d="M270.824 201.128H99.4958C97.5887 201.094 95.7618 200.355 94.3673 199.053C92.9728 197.752 92.1095 195.98 91.9438 194.08L83.5278 77.176C83.4495 76.2744 83.561 75.3664 83.8549 74.5105C84.1489 73.6546 84.6189 72.8698 85.2346 72.2066C85.8504 71.5434 86.5982 71.0165 87.4299 70.6599C88.2617 70.3032 89.1589 70.1248 90.0638 70.136H261.392C263.298 70.1701 265.124 70.9081 266.518 72.2078C267.912 73.5076 268.776 75.2772 268.944 77.176L277.36 194.08C277.439 194.982 277.329 195.891 277.035 196.748C276.742 197.605 276.272 198.391 275.656 199.055C275.04 199.719 274.292 200.246 273.46 200.604C272.627 200.961 271.729 201.139 270.824 201.128Z" fill="white"/>
<path d="M261.648 73.656H90.32H89.744C85.368 74.016 86.264 80.68 90.68 80.68H262.296C266.72 80.68 266.656 74.016 262.224 73.656H261.648Z" fill="#1C6758"/>
<path d="M94.7838 77.1761C94.8006 77.3823 94.774 77.5898 94.7056 77.7851C94.6373 77.9804 94.5287 78.1592 94.387 78.31C94.2453 78.4608 94.0735 78.5802 93.8828 78.6605C93.6921 78.7407 93.4866 78.7801 93.2798 78.7761C92.845 78.77 92.4278 78.6031 92.1087 78.3077C91.7897 78.0122 91.5912 77.6091 91.5518 77.1761C91.535 76.9705 91.5614 76.7637 91.6293 76.569C91.6971 76.3742 91.805 76.1958 91.9458 76.0451C92.0867 75.8945 92.2575 75.7749 92.4472 75.6942C92.637 75.6134 92.8415 75.5732 93.0478 75.5761C93.4839 75.5802 93.9031 75.7462 94.2238 76.0418C94.5446 76.3375 94.7441 76.7417 94.7838 77.1761Z" fill="#FAFAFA"/>
<path d="M100.28 77.1761C100.297 77.3823 100.27 77.5898 100.202 77.7851C100.134 77.9804 100.025 78.1592 99.8832 78.31C99.7415 78.4608 99.5697 78.5802 99.379 78.6605C99.1883 78.7407 98.9829 78.7801 98.776 78.7761C98.3412 78.77 97.924 78.6031 97.6049 78.3077C97.2859 78.0122 97.0875 77.6091 97.048 77.1761C97.0312 76.9705 97.0576 76.7637 97.1255 76.569C97.1934 76.3742 97.3012 76.1958 97.442 76.0451C97.5829 75.8945 97.7537 75.7749 97.9434 75.6942C98.1332 75.6134 98.3378 75.5732 98.544 75.5761C98.9802 75.5802 99.3993 75.7462 99.72 76.0418C100.041 76.3375 100.24 76.7417 100.28 77.1761Z" fill="#FAFAFA"/>
<path d="M105.768 77.176C105.785 77.3815 105.758 77.5883 105.69 77.7831C105.623 77.9778 105.515 78.1563 105.374 78.3069C105.233 78.4576 105.062 78.5771 104.873 78.6579C104.683 78.7387 104.478 78.7789 104.272 78.776C103.837 78.7717 103.419 78.6054 103.099 78.3096C102.78 78.0138 102.582 77.6097 102.544 77.176C102.526 76.9702 102.552 76.7628 102.619 76.5675C102.686 76.3722 102.794 76.1933 102.935 76.0424C103.076 75.8914 103.248 75.7719 103.438 75.6916C103.628 75.6112 103.833 75.5718 104.04 75.576C104.475 75.5821 104.892 75.749 105.211 76.0444C105.53 76.3398 105.729 76.7429 105.768 77.176Z" fill="#FAFAFA"/>
<path d="M266.28 189.464H102.4C101.708 189.452 101.044 189.184 100.539 188.711C100.033 188.238 99.7214 187.594 99.664 186.904L92.744 90.768C92.7132 90.4381 92.7529 90.1055 92.8605 89.7921C92.9682 89.4787 93.1412 89.1919 93.3682 88.9505C93.5952 88.7091 93.8709 88.5188 94.1771 88.3922C94.4832 88.2656 94.8128 88.2055 95.144 88.216H259.064C259.756 88.2255 260.419 88.4921 260.925 88.9639C261.43 89.4357 261.742 90.0788 261.8 90.768L268.728 186.904C268.758 187.238 268.716 187.575 268.605 187.891C268.494 188.208 268.317 188.497 268.085 188.74C267.853 188.982 267.572 189.172 267.261 189.297C266.95 189.422 266.615 189.479 266.28 189.464Z" fill="white"/>
<path d="M197.224 152.84L194.552 115.784L186.472 110.92H164.224L167.248 152.84H197.224Z" fill="white"/>
<path d="M197.224 153.224H167.248C167.149 153.226 167.053 153.19 166.98 153.123C166.906 153.056 166.862 152.963 166.856 152.864L163.84 110.944C163.836 110.891 163.843 110.839 163.861 110.789C163.879 110.739 163.907 110.694 163.944 110.656C163.979 110.617 164.022 110.585 164.071 110.563C164.119 110.541 164.171 110.529 164.224 110.528H186.472C186.542 110.531 186.611 110.55 186.672 110.584L194.752 115.448C194.806 115.479 194.852 115.523 194.886 115.576C194.919 115.629 194.939 115.69 194.944 115.752L197.6 152.808C197.606 152.862 197.599 152.917 197.581 152.968C197.563 153.019 197.534 153.065 197.496 153.104C197.461 153.142 197.419 153.171 197.372 153.192C197.326 153.213 197.275 153.224 197.224 153.224ZM167.624 152.424H196.8L194.176 115.984L186.4 111.304H164.64L167.624 152.424Z" fill="#1C6758"/>
<path d="M194.552 115.784L186.472 110.92L189.44 117.368L194.552 115.784Z" fill="#EBEBEB"/>
<path d="M189.44 117.752C189.366 117.752 189.294 117.73 189.231 117.691C189.169 117.651 189.119 117.595 189.088 117.528L186.12 111.08C186.085 111.004 186.075 110.92 186.091 110.838C186.107 110.756 186.147 110.681 186.208 110.624C186.271 110.57 186.35 110.537 186.433 110.53C186.517 110.522 186.6 110.541 186.672 110.584L194.752 115.448C194.817 115.487 194.87 115.544 194.904 115.612C194.938 115.68 194.952 115.756 194.944 115.832C194.933 115.906 194.902 115.975 194.854 116.032C194.806 116.088 194.743 116.13 194.672 116.152L189.552 117.752H189.44ZM187.352 111.896L189.648 116.896L193.648 115.672L187.352 111.896Z" fill="#1C6758"/>
<path d="M176.8 129.8C176.812 130.017 176.779 130.235 176.704 130.439C176.629 130.644 176.513 130.831 176.364 130.989C176.214 131.147 176.033 131.272 175.833 131.358C175.633 131.444 175.418 131.488 175.2 131.488C174.743 131.48 174.306 131.303 173.972 130.991C173.638 130.679 173.431 130.255 173.392 129.8C173.371 129.58 173.398 129.359 173.47 129.15C173.541 128.941 173.657 128.751 173.808 128.59C173.96 128.43 174.144 128.303 174.348 128.219C174.552 128.136 174.771 128.096 174.992 128.104C175.449 128.114 175.887 128.293 176.221 128.606C176.554 128.919 176.761 129.344 176.8 129.8Z" fill="#1C6758"/>
<path d="M187.76 129.8C187.779 130.019 187.752 130.24 187.68 130.447C187.607 130.655 187.492 130.845 187.34 131.005C187.189 131.164 187.006 131.29 186.802 131.373C186.599 131.457 186.38 131.496 186.16 131.488C185.702 131.48 185.264 131.303 184.929 130.992C184.594 130.68 184.385 130.256 184.344 129.8C184.331 129.582 184.363 129.364 184.437 129.158C184.512 128.953 184.627 128.765 184.777 128.606C184.927 128.447 185.108 128.321 185.309 128.234C185.509 128.148 185.726 128.104 185.944 128.104C186.403 128.11 186.844 128.288 187.18 128.601C187.515 128.915 187.722 129.342 187.76 129.8Z" fill="#1C6758"/>
<path d="M190.864 140.792C190.767 140.79 190.674 140.752 190.603 140.686C190.532 140.619 190.488 140.529 190.48 140.432C190.28 137.704 186.008 135.488 180.96 135.488C177.608 135.488 174.6 136.488 173.112 138.088C172.806 138.383 172.567 138.739 172.41 139.134C172.252 139.528 172.181 139.952 172.2 140.376C172.204 140.428 172.197 140.481 172.18 140.531C172.164 140.581 172.137 140.627 172.103 140.667C172.033 140.747 171.934 140.796 171.828 140.804C171.722 140.811 171.617 140.776 171.537 140.707C171.457 140.637 171.407 140.538 171.4 140.432C171.376 139.902 171.464 139.372 171.656 138.878C171.849 138.383 172.143 137.934 172.52 137.56C174.12 135.808 177.376 134.712 180.936 134.712C186.48 134.712 191 137.2 191.224 140.376C191.227 140.426 191.22 140.477 191.204 140.525C191.188 140.573 191.162 140.617 191.129 140.655C191.095 140.693 191.055 140.724 191.009 140.746C190.964 140.768 190.914 140.781 190.864 140.784V140.792Z" fill="#1C6758"/>
<path d="M170.536 126.376C170.438 126.374 170.345 126.337 170.272 126.272C170.199 126.199 170.158 126.099 170.158 125.996C170.158 125.893 170.199 125.793 170.272 125.72L171.976 123.888C172.049 123.818 172.147 123.778 172.248 123.778C172.349 123.778 172.447 123.818 172.52 123.888C172.556 123.924 172.584 123.966 172.604 124.013C172.623 124.059 172.633 124.11 172.633 124.16C172.633 124.211 172.623 124.261 172.604 124.307C172.584 124.354 172.556 124.396 172.52 124.432L170.816 126.264C170.779 126.301 170.736 126.329 170.687 126.349C170.639 126.368 170.588 126.377 170.536 126.376Z" fill="#1C6758"/>
<path d="M190.064 126.376C189.967 126.371 189.874 126.335 189.8 126.272L187.84 124.44C187.803 124.404 187.774 124.361 187.753 124.314C187.733 124.267 187.723 124.216 187.723 124.164C187.723 124.113 187.733 124.062 187.753 124.014C187.774 123.967 187.803 123.924 187.84 123.888C187.913 123.818 188.011 123.778 188.112 123.778C188.213 123.778 188.311 123.818 188.384 123.888L190.344 125.72C190.38 125.756 190.408 125.798 190.428 125.845C190.447 125.891 190.457 125.942 190.457 125.992C190.457 126.043 190.447 126.093 190.428 126.139C190.408 126.186 190.38 126.228 190.344 126.264C190.268 126.335 190.168 126.375 190.064 126.376Z" fill="#1C6758"/>
<path d="M161.808 161.12H163.616L166.224 164.592L165.976 161.12H167.8L168.248 167.392H166.4L163.808 163.944L164.056 167.392H162.232L161.808 161.12Z" fill="#1C6758"/>
<path d="M169.064 164.256C169.002 163.83 169.032 163.396 169.15 162.982C169.269 162.568 169.474 162.185 169.752 161.856C170.056 161.557 170.42 161.326 170.82 161.179C171.22 161.031 171.647 160.97 172.072 161C172.973 160.951 173.859 161.252 174.544 161.84C175.171 162.465 175.535 163.307 175.56 164.192C175.626 164.803 175.544 165.42 175.32 165.992C175.113 166.453 174.766 166.836 174.328 167.088C173.803 167.37 173.211 167.505 172.616 167.48C172.004 167.499 171.395 167.385 170.832 167.144C170.339 166.907 169.923 166.536 169.632 166.072C169.289 165.526 169.093 164.9 169.064 164.256ZM171.008 164.256C171 164.747 171.158 165.226 171.456 165.616C171.581 165.754 171.734 165.862 171.906 165.934C172.077 166.006 172.262 166.039 172.448 166.032C172.625 166.044 172.803 166.014 172.966 165.943C173.129 165.872 173.272 165.762 173.384 165.624C173.614 165.187 173.69 164.686 173.6 164.2C173.603 163.73 173.445 163.272 173.152 162.904C173.024 162.769 172.868 162.663 172.696 162.592C172.523 162.522 172.338 162.489 172.152 162.496C171.978 162.489 171.805 162.522 171.646 162.595C171.488 162.667 171.348 162.776 171.24 162.912C171.006 163.324 170.924 163.806 171.008 164.272V164.256Z" fill="#1C6758"/>
<path d="M179.32 161.12H182.2C182.675 161.105 183.148 161.184 183.592 161.352C183.944 161.499 184.256 161.727 184.504 162.016C184.756 162.31 184.949 162.649 185.072 163.016C185.202 163.41 185.282 163.818 185.312 164.232C185.373 164.755 185.333 165.285 185.192 165.792C185.082 166.143 184.887 166.462 184.624 166.72C184.405 166.952 184.129 167.123 183.824 167.216C183.452 167.324 183.067 167.383 182.68 167.392H179.808L179.32 161.12ZM181.36 162.544L181.608 165.968H182.08C182.372 165.987 182.664 165.941 182.936 165.832C183.115 165.728 183.247 165.559 183.304 165.36C183.396 165.005 183.417 164.635 183.368 164.272C183.383 163.784 183.234 163.305 182.944 162.912C182.795 162.778 182.621 162.676 182.431 162.612C182.241 162.549 182.039 162.526 181.84 162.544H181.36Z" fill="#1C6758"/>
<path d="M189.96 166.352H187.76L187.528 167.392H185.552L187.456 161.12H189.6L192.408 167.392H190.376L189.96 166.352ZM189.456 165L188.608 162.744L188.08 165H189.456Z" fill="#1C6758"/>
<path d="M191.496 161.12H197.384L197.496 162.672H195.52L195.856 167.392H193.92L193.584 162.672H191.608L191.496 161.12Z" fill="#1C6758"/>
<path d="M201.896 166.352H199.696L199.464 167.392H197.488L199.392 161.12H201.504L204.304 167.392H202.28L201.896 166.352ZM201.392 165L200.536 162.744L200 165H201.392Z" fill="#1C6758"/>
<path d="M282.952 87.464C283.664 87.104 284.552 86.664 285.304 86.208C286.056 85.752 286.904 85.312 287.704 84.832C289.264 83.864 290.848 82.912 292.344 81.856C295.349 79.8001 298.165 77.4817 300.76 74.928C301.088 74.624 301.376 74.288 301.688 73.96L302.144 73.472L302.368 73.232L302.48 73.104C302.368 73.32 302.48 73.256 302.48 73.048C302.55 72.7623 302.59 72.4701 302.6 72.176C302.581 70.475 302.386 68.7805 302.016 67.12C301.304 63.536 300.224 59.84 299.16 56.224L302.264 54.864C304.223 58.3333 305.859 61.9753 307.152 65.744C307.878 67.7807 308.341 69.9019 308.528 72.056C308.577 72.7257 308.555 73.3988 308.464 74.064C308.345 75.0047 308.011 75.9054 307.488 76.696L307.352 76.88L307.248 77.008L307.128 77.16L306.88 77.464L306.384 78.064C306.056 78.456 305.736 78.864 305.384 79.24C302.648 82.2759 299.596 85.0114 296.28 87.4C294.68 88.584 292.984 89.72 291.248 90.752C290.392 91.272 289.52 91.768 288.632 92.256C287.744 92.744 286.88 93.192 285.856 93.672L282.952 87.464Z" fill="#FFB573"/>
<path d="M275.832 275.544C276.431 275.529 277.027 275.448 277.608 275.304C277.637 275.295 277.664 275.278 277.685 275.256C277.706 275.234 277.721 275.206 277.728 275.176C277.732 275.145 277.727 275.114 277.715 275.086C277.702 275.058 277.682 275.033 277.656 275.016C277.424 274.864 275.392 273.552 274.608 273.904C274.521 273.945 274.447 274.007 274.392 274.086C274.337 274.165 274.304 274.256 274.296 274.352C274.265 274.503 274.273 274.659 274.319 274.806C274.365 274.953 274.448 275.086 274.56 275.192C274.928 275.459 275.379 275.584 275.832 275.544ZM277.152 275.08C275.992 275.312 275.112 275.272 274.752 274.96C274.68 274.886 274.628 274.796 274.6 274.696C274.572 274.597 274.569 274.492 274.592 274.392C274.595 274.35 274.609 274.309 274.633 274.274C274.657 274.238 274.69 274.21 274.728 274.192C275.152 274.008 276.328 274.6 277.152 275.08Z" fill="#1C6758"/>
<path d="M277.6 275.304H277.68C277.703 275.29 277.723 275.27 277.737 275.246C277.751 275.222 277.759 275.196 277.76 275.168C277.76 275.08 277.76 273.152 277.024 272.512C276.936 272.427 276.829 272.363 276.713 272.326C276.596 272.289 276.473 272.278 276.352 272.296C276.226 272.297 276.104 272.341 276.006 272.421C275.909 272.501 275.841 272.613 275.816 272.736C275.664 273.536 276.88 274.936 277.52 275.304C277.546 275.312 277.574 275.312 277.6 275.304ZM276.456 272.592C276.586 272.593 276.711 272.641 276.808 272.728C277.23 273.35 277.448 274.088 277.432 274.84C276.792 274.328 276.032 273.24 276.128 272.784C276.128 272.712 276.184 272.616 276.384 272.592H276.456Z" fill="#1C6758"/>
<path d="M276.976 67.4561C276.176 71.4561 274.576 79.456 277.336 82.136C277.336 82.136 276.248 86.136 268.864 86.136C260.736 86.136 264.984 82.136 264.984 82.136C269.416 81.08 269.296 77.792 268.528 74.696L276.976 67.4561Z" fill="#FFB573"/>
<path d="M263.424 83.736C262.152 83.912 263.24 80.608 263.752 80.264C264.952 79.464 280.44 78.352 280.336 80.264C280.272 81.064 279.888 82.664 279.216 83.192C278.544 83.72 274.56 82.072 263.424 83.736Z" fill="#263238"/>
<path d="M265.952 82.6001C264.936 82.9441 265.032 79.6161 265.376 79.2161C266.176 78.2881 278.712 75.0721 279.08 76.8881C279.224 77.6881 279.296 79.2881 278.864 79.8561C278.432 80.4241 274.752 79.4881 265.952 82.6001Z" fill="#263238"/>
<path d="M261.288 60.288C261.238 60.2902 261.187 60.2804 261.142 60.2596C261.096 60.2387 261.055 60.2074 261.024 60.168C260.78 59.8532 260.465 59.6001 260.105 59.4292C259.745 59.2583 259.35 59.1743 258.952 59.184C258.91 59.1895 258.868 59.1867 258.828 59.1755C258.787 59.1643 258.749 59.145 258.716 59.1189C258.684 59.0928 258.656 59.0602 258.636 59.0233C258.616 58.9864 258.604 58.9458 258.6 58.904C258.593 58.8216 258.618 58.7397 258.671 58.6756C258.723 58.6115 258.798 58.57 258.88 58.56C259.384 58.5343 259.886 58.6307 260.344 58.841C260.802 59.0514 261.203 59.3694 261.512 59.768C261.566 59.8329 261.591 59.9163 261.584 60.0002C261.576 60.084 261.536 60.1616 261.472 60.216C261.418 60.255 261.354 60.2797 261.288 60.288Z" fill="#263238"/>
<path d="M259.736 64.2C259.373 65.4762 258.835 66.6959 258.136 67.8239C258.429 67.9926 258.756 68.0951 259.093 68.1241C259.431 68.1531 259.77 68.108 260.088 67.992L259.736 64.2Z" fill="#FF5652"/>
<path d="M260.128 63.2319C260.184 63.7679 259.936 64.2319 259.584 64.2639C259.232 64.2959 258.904 63.8959 258.856 63.3519C258.808 62.8079 259.048 62.3519 259.392 62.3199C259.736 62.2879 260.072 62.6879 260.128 63.2319Z" fill="#263238"/>
<path d="M259.552 62.3359L258.224 62.0879C258.224 62.0879 258.984 63.0319 259.552 62.3359Z" fill="#263238"/>
<path d="M285.36 275.152H278.656L279.184 259.632H285.888L285.36 275.152Z" fill="#FFB573"/>
<path d="M278.128 274.376H285.656C285.786 274.373 285.912 274.418 286.011 274.502C286.11 274.586 286.174 274.704 286.192 274.832L287.048 280.784C287.065 280.935 287.05 281.087 287.003 281.231C286.957 281.376 286.881 281.508 286.78 281.621C286.678 281.734 286.554 281.823 286.416 281.885C286.277 281.946 286.127 281.977 285.976 281.976C283.352 281.936 282.088 281.776 278.776 281.776C276.736 281.776 273.76 281.992 270.952 281.992C268.144 281.992 267.984 279.208 269.16 278.96C274.408 277.824 275.24 276.272 277.008 274.784C277.323 274.523 277.718 274.378 278.128 274.376Z" fill="#263238"/>
<g opacity="0.2">
<path d="M285.888 259.632H279.184L278.912 267.632H285.616L285.888 259.632Z" fill="black"/>
</g>
<path d="M258.696 91.4C254.594 89.805 250.575 88.0027 246.656 86C242.608 84.0219 238.751 81.6732 235.136 78.984C234.17 78.2274 233.256 77.4069 232.4 76.528C232.176 76.288 231.952 76.064 231.736 75.784C231.482 75.4978 231.247 75.1959 231.032 74.88C230.442 74.0205 230.074 73.0283 229.96 71.992C229.872 71.0095 230.006 70.0197 230.352 69.096C230.629 68.3535 231.009 67.6534 231.48 67.016C232.253 65.9592 233.165 65.012 234.192 64.2C236.005 62.7566 237.962 61.5046 240.032 60.464C241.024 59.936 242.032 59.464 243.056 59.024C244.08 58.584 245.088 58.168 246.184 57.792L247.6 60.872C244.112 63.072 240.496 65.496 237.84 68.2C237.246 68.8023 236.722 69.4706 236.28 70.192C235.896 70.824 235.904 71.296 235.968 71.256C236.032 71.216 235.968 71.256 236.08 71.336L236.4 71.68C236.52 71.824 236.688 71.968 236.84 72.12C237.518 72.7437 238.237 73.321 238.992 73.848C240.643 75.0172 242.364 76.0858 244.144 77.048C245.944 78.056 247.8 79.008 249.688 79.92C253.464 81.728 257.368 83.464 261.2 85.048L258.696 91.4Z" fill="#FFB573"/>
<path d="M249.6 58.7201L250.704 56.3201L245.648 54.6001C245.648 54.6001 244.048 59.3281 245.944 61.5041C246.736 61.3793 247.485 61.0596 248.123 60.5737C248.762 60.0877 249.269 59.4508 249.6 58.7201Z" fill="#FFB573"/>
<path d="M250.68 51.128L246.656 49.96L245.648 54.568L250.68 56.32V51.128Z" fill="#FFB573"/>
<path d="M302.68 56.5519L303.264 50.9519L298.08 52.1999C298.08 52.1999 298 57.4639 300.744 58.2959L302.68 56.5519Z" fill="#FFB573"/>
<path d="M300.768 47.0081L297.384 48.5841L298.08 52.1601L303.264 50.9361L300.768 47.0081Z" fill="#FFB573"/>
<path d="M278.032 59.6001C278.28 66.2481 278.52 69.0561 275.52 72.7761C271 78.3761 262.784 77.2161 260.56 70.7761C258.56 64.9841 258.496 55.0881 264.704 51.8241C266.069 51.0984 267.597 50.7335 269.142 50.764C270.687 50.7945 272.2 51.2194 273.535 51.9983C274.87 52.7773 275.984 53.8845 276.771 55.215C277.558 56.5454 277.992 58.0548 278.032 59.6001Z" fill="#FFB573"/>
<path d="M275.136 72.7681C281.664 69.9441 285.952 63.9681 284.144 54.7041C282.408 45.8161 276.408 44.9361 273.928 46.7761C271.448 48.6161 265.264 45.8721 261.552 48.9921C255.152 54.4081 261.2 60.1921 264.368 63.6881C266.256 67.5761 268.736 75.5281 275.136 72.7681Z" fill="#263238"/>
<path d="M272.424 53.112C273.22 54.1335 274.298 54.8995 275.525 55.3154C276.752 55.7313 278.073 55.7789 279.327 55.4523C280.58 55.1257 281.711 54.4392 282.578 53.4776C283.446 52.5159 284.013 51.3212 284.21 50.041C284.406 48.7607 284.224 47.4509 283.684 46.2732C283.145 45.0956 282.273 44.1016 281.175 43.4141C280.077 42.7265 278.802 42.3755 277.507 42.4042C276.212 42.433 274.954 42.8403 273.888 43.576C272.43 44.6467 271.456 46.2527 271.182 48.0409C270.907 49.8291 271.354 51.6531 272.424 53.112Z" fill="#1C6758"/>
<path d="M274.12 47.4C273.184 42.04 278.248 37.912 285.032 39.904C291.816 41.896 288.232 47.904 286.832 52.704C285.432 57.504 289.096 62.08 290.616 58.424C292.136 54.768 289.576 53.624 289.576 53.624C289.576 53.624 296.776 55.488 290.088 63.608C283.4 71.728 277.344 62.76 278.984 57.472C280.312 53.224 275.008 52.464 274.12 47.4Z" fill="#263238"/>
<path d="M267.344 49.424C264.248 47.824 259.008 46.504 256.024 51.528C254.616 53.928 255.16 57.128 255.16 57.128L264.272 57.728L267.344 49.424Z" fill="#263238"/>
<path d="M254.088 55.544C254.034 55.5399 253.984 55.5151 253.948 55.4748C253.913 55.4345 253.894 55.3818 253.896 55.328C253.896 55.192 254.128 51.976 256.072 49.96C260.768 45.08 266.272 49.16 267.84 50.48C267.874 50.5157 267.893 50.5625 267.895 50.6116C267.896 50.6607 267.879 50.7086 267.848 50.7462C267.816 50.7838 267.772 50.8084 267.723 50.8154C267.674 50.8223 267.625 50.8112 267.584 50.784C266.072 49.488 260.808 45.608 256.384 50.232C254.544 52.144 254.32 55.32 254.32 55.352C254.319 55.3805 254.312 55.4085 254.3 55.4341C254.287 55.4598 254.27 55.4825 254.248 55.5006C254.226 55.5188 254.2 55.5321 254.172 55.5396C254.145 55.547 254.116 55.5485 254.088 55.544Z" fill="#263238"/>
<path d="M265.48 63.4C265.444 64.6586 264.978 65.867 264.16 66.824C263.056 68.12 261.76 67.48 261.496 66.024C261.232 64.736 261.496 62.504 262.888 61.728C264.28 60.952 265.496 61.944 265.48 63.4Z" fill="#FFB573"/>
<path d="M264.04 124.296C264.04 124.296 264.472 170.816 268.504 196.736C271.768 217.672 277.792 266.088 277.792 266.088H286.936C286.936 266.088 287.824 219.344 286.136 198.64C281.952 146.24 292.76 136.44 284.04 124.296H264.04Z" fill="#263238"/>
<path opacity="0.1" d="M264.04 124.296C264.04 124.296 264.472 170.816 268.504 196.736C271.768 217.672 277.792 266.088 277.792 266.088H286.936C286.936 266.088 287.824 219.344 286.136 198.64C281.952 146.24 292.76 136.44 284.04 124.296H264.04Z" fill="white"/>
<path opacity="0.3" d="M268.848 145.4C272.048 159.44 269.496 181.552 267.744 191.288C265.888 176.504 264.952 157.344 264.488 143.288C266.144 140.616 267.712 140.44 268.848 145.4Z" fill="black"/>
<path d="M276.544 266.264H288.184L288.792 262.184L276.48 261.768L276.544 266.264Z" fill="#1C6758"/>
<path d="M279.864 84.9999C280.96 82.8239 286.848 81.4559 290.064 81.4639L292.464 92.1519C292.464 92.1519 286.064 101.664 283.392 100.656C280.248 99.4959 277.52 89.6959 279.864 84.9999Z" fill="#1C6758"/>
<path opacity="0.4" d="M279.864 84.9999C280.96 82.8239 286.848 81.4559 290.064 81.4639L292.464 92.1519C292.464 92.1519 286.064 101.664 283.392 100.656C280.248 99.4959 277.52 89.6959 279.864 84.9999Z" fill="black"/>
<path d="M273.08 263.648C273.093 263.625 273.1 263.599 273.1 263.572C273.1 263.545 273.093 263.519 273.08 263.496C273.065 263.465 273.041 263.44 273.01 263.425C272.98 263.409 272.946 263.403 272.912 263.408C272.576 263.464 269.616 263.928 269.216 264.776C269.173 264.853 269.151 264.94 269.151 265.028C269.151 265.116 269.173 265.203 269.216 265.28C269.285 265.407 269.383 265.514 269.503 265.594C269.623 265.673 269.761 265.722 269.904 265.736C270.872 265.832 272.304 264.488 273.024 263.672L273.08 263.648ZM269.528 264.88C269.8 264.432 271.336 264.016 272.504 263.8C271.448 264.872 270.52 265.472 269.976 265.4C269.882 265.391 269.792 265.358 269.713 265.305C269.635 265.252 269.571 265.18 269.528 265.096C269.51 265.066 269.501 265.031 269.501 264.996C269.501 264.961 269.51 264.926 269.528 264.896C269.528 264.896 269.52 264.888 269.528 264.88Z" fill="#1C6758"/>
<path d="M273.08 263.648C273.093 263.625 273.1 263.599 273.1 263.572C273.1 263.545 273.093 263.519 273.08 263.496C273.032 263.44 271.848 262.072 270.752 262C270.594 261.987 270.435 262.006 270.285 262.057C270.135 262.108 269.997 262.189 269.88 262.296C269.552 262.592 269.584 262.848 269.664 263.008C270.008 263.696 272.136 263.936 272.992 263.752C273.014 263.743 273.034 263.729 273.049 263.711C273.064 263.693 273.075 263.671 273.08 263.648ZM269.952 262.64C269.987 262.586 270.03 262.537 270.08 262.496C270.164 262.416 270.263 262.356 270.372 262.319C270.481 262.282 270.597 262.268 270.712 262.28C271.456 262.463 272.125 262.874 272.624 263.456C271.672 263.536 270.136 263.248 269.928 262.832C269.915 262.801 269.91 262.766 269.914 262.733C269.918 262.699 269.931 262.667 269.952 262.64Z" fill="#1C6758"/>
<path d="M280.064 260.808L273.936 263.536L271.208 257.848L267.64 250.408L267.216 249.544L273.344 246.816L273.816 247.792L277.272 255L280.064 260.808Z" fill="#FFB573"/>
<path opacity="0.2" d="M277.272 255L271.208 257.848L267.64 250.408L273.816 247.792L277.272 255Z" fill="black"/>
<path d="M256.856 124.296C256.856 124.296 237.28 173 242.584 195.88C247.384 216.592 268.584 255.816 268.584 255.816L276.8 251.704C276.8 251.704 263.688 204.352 262.272 194.064C259.504 174.064 277.288 145.8 277.288 124.296H256.856Z" fill="#263238"/>
<path opacity="0.1" d="M256.856 124.296C256.856 124.296 237.28 173 242.584 195.88C247.384 216.592 268.584 255.816 268.584 255.816L276.8 251.704C276.8 251.704 263.688 204.352 262.272 194.064C259.504 174.064 277.288 145.8 277.288 124.296H256.856Z" fill="white"/>
<path d="M272.848 262.68L278.928 258.256C279.031 258.176 279.159 258.136 279.289 258.145C279.419 258.154 279.541 258.21 279.632 258.304L283.832 262.616C283.934 262.728 284.011 262.861 284.058 263.006C284.105 263.15 284.121 263.302 284.105 263.453C284.09 263.604 284.042 263.75 283.966 263.882C283.89 264.013 283.787 264.127 283.664 264.216C281.512 265.72 280.4 266.344 277.728 268.288C276.08 269.488 272.8 272.136 270.528 273.792C268.256 275.448 266.528 273.288 267.328 272.4C270.912 268.4 271.664 265.92 272.224 263.672C272.311 263.279 272.531 262.928 272.848 262.68Z" fill="#263238"/>
<path d="M268.056 257.552L278.64 252.712L277.288 248.4L265.952 253.568L268.056 257.552Z" fill="#1C6758"/>
<path d="M262.048 84.4879C261.176 82.2159 253.528 79.6879 249.688 78.8879L248 91.4639C248 91.4639 254.272 100.472 257.016 99.7279C260.264 98.8479 263.936 89.3599 262.048 84.4879Z" fill="#1C6758"/>
<path opacity="0.4" d="M262.048 84.4879C261.176 82.2159 253.528 79.6879 249.688 78.8879L248 91.4639C248 91.4639 254.272 100.472 257.016 99.7279C260.264 98.8479 263.936 89.3599 262.048 84.4879Z" fill="black"/>
<path d="M253.656 83.8561C253.656 83.8561 250.456 84.9761 256.856 124.296H284.056C283.6 113.224 283.584 106.392 288.856 83.6561C285.045 82.8697 281.181 82.3617 277.296 82.1361C273.184 81.8397 269.056 81.8397 264.944 82.1361C259.672 82.6001 253.656 83.8561 253.656 83.8561Z" fill="#1C6758"/>
<path opacity="0.4" d="M253.656 83.8561C253.656 83.8561 250.456 84.9761 256.856 124.296H284.056C283.6 113.224 283.584 106.392 288.856 83.6561C285.045 82.8697 281.181 82.3617 277.296 82.1361C273.184 81.8397 269.056 81.8397 264.944 82.1361C259.672 82.6001 253.656 83.8561 253.656 83.8561Z" fill="black"/>
<path d="M284.48 122.704L285.704 125.104C285.8 125.296 285.576 125.488 285.264 125.488H256.72C256.472 125.488 256.272 125.368 256.256 125.208L256.008 122.808C256.008 122.64 256.208 122.496 256.472 122.496H284C284.091 122.482 284.185 122.493 284.27 122.53C284.355 122.567 284.428 122.627 284.48 122.704Z" fill="#1C6758"/>
<path opacity="0.3" d="M284.48 122.704L285.704 125.104C285.8 125.296 285.576 125.488 285.264 125.488H256.72C256.472 125.488 256.272 125.368 256.256 125.208L256.008 122.808C256.008 122.64 256.208 122.496 256.472 122.496H284C284.091 122.482 284.185 122.493 284.27 122.53C284.355 122.567 284.428 122.627 284.48 122.704Z" fill="white"/>
<path d="M280.8 125.8H281.536C281.688 125.8 281.8 125.72 281.784 125.632L281.44 122.432C281.44 122.336 281.304 122.264 281.16 122.264H280.416C280.272 122.264 280.16 122.336 280.168 122.432L280.512 125.632C280.504 125.704 280.632 125.8 280.8 125.8Z" fill="#263238"/>
<path d="M262.888 125.8H263.624C263.768 125.8 263.88 125.72 263.872 125.632L263.528 122.432C263.528 122.336 263.392 122.264 263.24 122.264H262.504C262.352 122.264 262.248 122.336 262.256 122.432L262.6 125.632C262.608 125.704 262.736 125.8 262.888 125.8Z" fill="#263238"/>
</g>
<defs>
<clipPath id="clip0_359_32285">
<rect width="400" height="298" fill="white"/>
</clipPath>
</defs>
</svg>
