<svg width="400" height="298" viewBox="0 0 400 298" fill="none" xmlns="http://www.w3.org/2000/svg">
<g clip-path="url(#clip0_843_59454)">
<path d="M400 254.92H0V255.12H400V254.92Z" fill="#EBEBEB"/>
<path d="M359.92 267.792H333.424V267.992H359.92V267.792Z" fill="#EBEBEB"/>
<path d="M264.975 269.968H258.023V270.168H264.975V269.968Z" fill="#EBEBEB"/>
<path d="M332.623 260.368H317.271V260.568H332.623V260.368Z" fill="#EBEBEB"/>
<path d="M76.5208 261.712H41.9688V261.912H76.5208V261.712Z" fill="#EBEBEB"/>
<path d="M88.7124 261.712H83.6484V261.912H88.7124V261.712Z" fill="#EBEBEB"/>
<path d="M180.12 265.088H105.176V265.288H180.12V265.088Z" fill="#EBEBEB"/>
<path d="M189.6 219.24H35.1284C33.9182 219.238 32.7584 218.756 31.9035 217.899C31.0485 217.043 30.5684 215.882 30.5684 214.672V-2.472C30.5789 -3.67518 31.0637 -4.82562 31.9175 -5.67343C32.7713 -6.52123 33.9251 -6.99794 35.1284 -7H189.6C190.812 -7 191.974 -6.51873 192.83 -5.66206C193.687 -4.8054 194.168 -3.64351 194.168 -2.432V214.672C194.168 215.884 193.687 217.045 192.83 217.902C191.974 218.759 190.812 219.24 189.6 219.24ZM35.1284 -6.84C33.9713 -6.83788 32.8623 -6.37675 32.0449 -5.55782C31.2275 -4.73889 30.7684 -3.62908 30.7684 -2.472V214.672C30.7684 215.829 31.2275 216.939 32.0449 217.758C32.8623 218.577 33.9713 219.038 35.1284 219.04H189.6C190.758 219.038 191.868 218.577 192.687 217.758C193.505 216.94 193.966 215.83 193.968 214.672V-2.472C193.966 -3.62982 193.505 -4.73961 192.687 -5.55831C191.868 -6.37701 190.758 -6.83788 189.6 -6.84H35.1284Z" fill="#EBEBEB"/>
<path d="M362.648 219.24H208.168C206.957 219.238 205.796 218.756 204.94 217.9C204.084 217.044 203.602 215.883 203.6 214.672V-2.472C203.612 -3.67591 204.099 -4.82634 204.954 -5.67393C205.809 -6.52151 206.964 -6.99796 208.168 -7H362.648C363.849 -6.99584 365.001 -6.5182 365.853 -5.67062C366.705 -4.82303 367.189 -3.6738 367.2 -2.472V214.672C367.2 215.881 366.721 217.04 365.867 217.896C365.014 218.753 363.856 219.236 362.648 219.24ZM208.168 -6.84C207.01 -6.83788 205.9 -6.37701 205.081 -5.55831C204.263 -4.73961 203.802 -3.62982 203.8 -2.472V214.672C203.802 215.83 204.263 216.94 205.081 217.758C205.9 218.577 207.01 219.038 208.168 219.04H362.648C363.805 219.038 364.915 218.577 365.734 217.758C366.553 216.94 367.014 215.83 367.016 214.672V-2.472C367.014 -3.62982 366.553 -4.73961 365.734 -5.55831C364.915 -6.37701 363.805 -6.83788 362.648 -6.84H208.168Z" fill="#EBEBEB"/>
<path d="M231.753 88.248L341.977 88.248V16.064L231.753 16.064V88.248Z" fill="#E6E6E6"/>
<path d="M228.384 88.248L340.4 88.248V16.064L228.384 16.064V88.248Z" fill="#F0F0F0"/>
<path d="M231.753 102.408L341.977 102.408V88.2402L231.753 88.2402V102.408Z" fill="#E6E6E6"/>
<path d="M222.793 102.408L334.809 102.408V88.2402L222.793 88.2402V102.408Z" fill="#F0F0F0"/>
<path d="M335.695 83.5439V20.7759L233.095 20.7759V83.5439H335.695Z" fill="#FAFAFA"/>
<path d="M312.56 83.5359L299.456 20.7759H279.008L292.112 83.5359H312.56Z" fill="white"/>
<path d="M333.52 78.856C333.564 78.856 333.609 78.8471 333.65 78.8297C333.691 78.8123 333.729 78.7868 333.76 78.7548C333.791 78.7227 333.816 78.6847 333.832 78.643C333.849 78.6014 333.857 78.5568 333.856 78.512V23.84C333.856 23.7509 333.82 23.6654 333.757 23.6024C333.694 23.5394 333.609 23.504 333.52 23.504C333.475 23.5029 333.431 23.5108 333.39 23.5273C333.349 23.5438 333.311 23.5686 333.28 23.6C333.248 23.6314 333.224 23.6689 333.207 23.7101C333.191 23.7514 333.183 23.7956 333.184 23.84V78.512C333.183 78.5568 333.191 78.6014 333.207 78.643C333.223 78.6847 333.248 78.7227 333.279 78.7548C333.311 78.7868 333.348 78.8123 333.389 78.8297C333.431 78.8471 333.475 78.856 333.52 78.856Z" fill="#F0F0F0"/>
<path d="M287.721 83.5359L274.617 20.7759H266.641L279.753 83.5359H287.721Z" fill="white"/>
<path d="M233.695 83.5439V20.7759H233.095V83.5439H233.695Z" fill="#E6E6E6"/>
<path opacity="0.6" d="M227.279 27.8721H337.503L337.935 22.6001H227.711L227.279 27.8721Z" fill="#EBEBEB"/>
<path opacity="0.6" d="M227.279 36.512H337.503L337.935 31.248H227.711L227.279 36.512Z" fill="#EBEBEB"/>
<path opacity="0.6" d="M227.279 45.1522H337.503L337.935 39.8882H227.711L227.279 45.1522Z" fill="#EBEBEB"/>
<path opacity="0.6" d="M227.279 53.7998H337.503L337.935 48.5278H227.711L227.279 53.7998Z" fill="#EBEBEB"/>
<path opacity="0.6" d="M227.279 62.44H337.503L337.935 57.168H227.711L227.279 62.44Z" fill="#EBEBEB"/>
<path opacity="0.6" d="M227.279 71.0801H337.503L337.935 65.8081H227.711L227.279 71.0801Z" fill="#EBEBEB"/>
<path d="M326.151 202.424H303.039V206.984H326.151V202.424Z" fill="#E6E6E6"/>
<path d="M259.449 254.92H263.713V150.064H259.449V254.92Z" fill="#E6E6E6"/>
<path d="M244.663 206.984H303.031V202.424H244.663V206.984Z" fill="#F5F5F5"/>
<path d="M326.151 227.36H303.039V231.92H326.151V227.36Z" fill="#E6E6E6"/>
<path d="M244.663 231.912H303.031V227.352H244.663V231.912Z" fill="#F5F5F5"/>
<path d="M326.151 152.56H303.039V157.12H326.151V152.56Z" fill="#E6E6E6"/>
<path d="M244.663 157.112H303.031V152.552H244.663V157.112Z" fill="#F5F5F5"/>
<path d="M326.151 177.488H303.039V182.048H326.151V177.488Z" fill="#E6E6E6"/>
<path d="M244.663 182.048H303.031V177.488H244.663V182.048Z" fill="#F5F5F5"/>
<path d="M317.824 254.92H322.088V150.064H317.824V254.92Z" fill="#E6E6E6"/>
<path d="M298.767 254.92H303.031V150.064H298.767V254.92Z" fill="#F5F5F5"/>
<path d="M244.664 254.92H248.928V150.064H244.664V254.92Z" fill="#F5F5F5"/>
<path d="M52.3048 254.92H95.9688L95.9687 170.208H52.3048L52.3048 254.92Z" fill="#E6E6E6"/>
<path d="M63.9609 254.92H52.2969V243.224H76.1849L63.9609 254.92Z" fill="#FAFAFA"/>
<path d="M171.344 254.92H215.008V170.208H171.344V254.92Z" fill="#E6E6E6"/>
<path d="M52.3033 250.888L181.527 250.888V170.2H52.3033V250.888Z" fill="#FAFAFA"/>
<path d="M169.865 254.92H181.521V243.224H157.641L169.865 254.92Z" fill="#FAFAFA"/>
<path d="M61.3445 220.464H172.48V200.272H61.3445V220.464Z" fill="#F0F0F0"/>
<path d="M61.3445 244.968H172.48V224.776H61.3445V244.968Z" fill="#F0F0F0"/>
<path d="M151.36 202.432H82.4716C81.4999 202.432 80.5679 202.046 79.8808 201.359C79.1937 200.672 78.8076 199.74 78.8076 198.768V198.52H155.016V198.768C155.016 199.738 154.631 200.669 153.945 201.356C153.26 202.043 152.33 202.43 151.36 202.432Z" fill="#FAFAFA"/>
<path d="M61.3445 195.952H172.48V175.76H61.3445V195.952Z" fill="#F0F0F0"/>
<path d="M151.36 177.92H82.4716C81.4999 177.92 80.5679 177.534 79.8808 176.847C79.1937 176.16 78.8076 175.228 78.8076 174.256V174.008H155.016V174.256C155.016 175.226 154.631 176.157 153.945 176.844C153.26 177.531 152.33 177.918 151.36 177.92Z" fill="#FAFAFA"/>
<path d="M151.36 226.944H82.4716C81.4999 226.944 80.5679 226.558 79.8808 225.871C79.1937 225.184 78.8076 224.252 78.8076 223.28V223.032H155.016V223.28C155.016 224.25 154.631 225.181 153.945 225.868C153.26 226.555 152.33 226.942 151.36 226.944Z" fill="#FAFAFA"/>
<path d="M59.2565 88.248L169.48 88.248V16.064L59.2565 16.064L59.2565 88.248Z" fill="#E6E6E6"/>
<path d="M55.8961 88.248L167.912 88.248V16.064L55.8961 16.064L55.8961 88.248Z" fill="#F0F0F0"/>
<path d="M59.2565 102.408L169.48 102.408V88.2402L59.2565 88.2402V102.408Z" fill="#E6E6E6"/>
<path d="M50.2887 102.408L162.305 102.408V88.2402L50.2887 88.2402V102.408Z" fill="#F0F0F0"/>
<path d="M163.199 83.5439V20.7759L60.5992 20.7759V83.5439H163.199Z" fill="#FAFAFA"/>
<path d="M140.064 83.5359L126.96 20.7759H106.512L119.616 83.5359H140.064Z" fill="white"/>
<path d="M161.016 78.856C161.061 78.856 161.105 78.8471 161.146 78.8297C161.188 78.8123 161.225 78.7868 161.256 78.7548C161.288 78.7227 161.312 78.6847 161.329 78.643C161.345 78.6014 161.353 78.5568 161.352 78.512V23.84C161.353 23.7956 161.345 23.7514 161.328 23.7101C161.312 23.6689 161.287 23.6314 161.256 23.6C161.224 23.5686 161.187 23.5438 161.146 23.5273C161.104 23.5108 161.06 23.5029 161.016 23.504C160.927 23.504 160.841 23.5394 160.778 23.6024C160.715 23.6654 160.68 23.7509 160.68 23.84V78.512C160.679 78.5568 160.687 78.6014 160.703 78.643C160.719 78.6847 160.744 78.7227 160.775 78.7548C160.807 78.7868 160.844 78.8123 160.885 78.8297C160.927 78.8471 160.971 78.856 161.016 78.856Z" fill="#F0F0F0"/>
<path d="M115.225 83.5359L102.121 20.7759H94.1445L107.249 83.5359H115.225Z" fill="white"/>
<path d="M61.1992 83.5439L61.1992 20.7759H60.5992L60.5992 83.5439H61.1992Z" fill="#E6E6E6"/>
<path opacity="0.6" d="M54.7754 27.8721H164.999L165.431 22.6001H55.2074L54.7754 27.8721Z" fill="#EBEBEB"/>
<path opacity="0.6" d="M54.7754 30.8482H164.999L165.431 25.5762H55.2074L54.7754 30.8482Z" fill="#EBEBEB"/>
<path opacity="0.6" d="M54.7754 33.8162H164.999L165.431 28.5522H55.2074L54.7754 33.8162Z" fill="#EBEBEB"/>
<path opacity="0.6" d="M54.7754 36.792H164.999L165.431 31.52H55.2074L54.7754 36.792Z" fill="#EBEBEB"/>
<path opacity="0.6" d="M54.7754 39.7601H164.999L165.431 34.4961H55.2074L54.7754 39.7601Z" fill="#EBEBEB"/>
<path opacity="0.6" d="M54.7754 42.7359H164.999L165.431 37.4639H55.2074L54.7754 42.7359Z" fill="#EBEBEB"/>
<path d="M76.8151 167.616H80.623V125.144H76.8151V167.616Z" fill="#F5F5F5"/>
<path d="M77.2969 167.592H78.377V125.12H77.2969V167.592Z" fill="#FAFAFA"/>
<path d="M78.824 167.592H79.248V125.12H78.824V167.592Z" fill="#FAFAFA"/>
<path d="M92.8242 170.208H64.6322C64.6322 169.266 65.0064 168.362 65.6726 167.696C66.3387 167.03 67.2422 166.656 68.1842 166.656H89.2642C90.2063 166.656 91.1097 167.03 91.7759 167.696C92.442 168.362 92.8162 169.266 92.8162 170.208H92.8242Z" fill="#F0F0F0"/>
<path d="M71.8716 151.512C72.1616 151.51 72.4392 151.394 72.6443 151.189C72.8493 150.984 72.9655 150.706 72.9676 150.416V122.6C72.9676 122.309 72.8521 122.03 72.6466 121.825C72.441 121.619 72.1623 121.504 71.8716 121.504C71.727 121.503 71.5836 121.53 71.4497 121.585C71.3158 121.64 71.194 121.72 71.0914 121.822C70.9888 121.924 70.9073 122.045 70.8518 122.179C70.7962 122.312 70.7676 122.455 70.7676 122.6V150.448C70.7779 150.734 70.8988 151.004 71.1047 151.203C71.3107 151.401 71.5856 151.512 71.8716 151.512Z" fill="#F0F0F0"/>
<path d="M61.6562 135.24H95.7762L91.8482 111.4H65.5843L61.6562 135.24Z" fill="#E0E0E0"/>
<path d="M200.001 291.048C285.667 291.048 355.113 286.994 355.113 281.992C355.113 276.991 285.667 272.936 200.001 272.936C114.335 272.936 44.8887 276.991 44.8887 281.992C44.8887 286.994 114.335 291.048 200.001 291.048Z" fill="#F5F5F5"/>
<path d="M83.294 110.887L82.4961 110.945L83.5588 125.699L84.3568 125.641L83.294 110.887Z" fill="#1C6758"/>
<path d="M84.8995 133.258L84.1016 133.315L84.5016 138.869L85.2995 138.812L84.8995 133.258Z" fill="#1C6758"/>
<path d="M270.168 201.128H98.8399C96.9328 201.094 95.1059 200.355 93.7115 199.053C92.317 197.752 91.4537 195.98 91.2879 194.08L82.8719 77.1762C82.7937 76.2747 82.9051 75.3667 83.1991 74.5108C83.4931 73.6549 83.963 72.87 84.5788 72.2068C85.1945 71.5436 85.9423 71.0167 86.7741 70.6601C87.6058 70.3035 88.503 70.125 89.4079 70.1362H260.736C262.642 70.1703 264.468 70.9083 265.862 72.2081C267.256 73.5078 268.12 75.2775 268.288 77.1762L276.704 194.08C276.782 194.982 276.671 195.891 276.377 196.747C276.083 197.603 275.613 198.388 274.997 199.052C274.382 199.716 273.634 200.244 272.802 200.601C271.971 200.959 271.073 201.138 270.168 201.128Z" fill="#1C6758"/>
<path d="M270.822 201.128H99.4942C97.5871 201.094 95.7602 200.355 94.3658 199.053C92.9713 197.752 92.108 195.98 91.9422 194.08L83.5262 77.1762C83.448 76.2747 83.5594 75.3667 83.8534 74.5108C84.1473 73.6549 84.6173 72.87 85.2331 72.2068C85.8488 71.5436 86.5966 71.0167 87.4284 70.6601C88.2601 70.3035 89.1573 70.125 90.0622 70.1362H261.39C263.296 70.1703 265.122 70.9083 266.516 72.2081C267.911 73.5078 268.775 75.2775 268.942 77.1762L277.358 194.08C277.438 194.982 277.327 195.891 277.034 196.748C276.74 197.605 276.27 198.391 275.655 199.055C275.039 199.719 274.291 200.247 273.458 200.604C272.626 200.961 271.728 201.14 270.822 201.128Z" fill="#1C6758"/>
<path opacity="0.5" d="M270.822 201.128H99.4942C97.5871 201.094 95.7602 200.355 94.3658 199.053C92.9713 197.752 92.108 195.98 91.9422 194.08L83.5262 77.1762C83.448 76.2747 83.5594 75.3667 83.8534 74.5108C84.1473 73.6549 84.6173 72.87 85.2331 72.2068C85.8488 71.5436 86.5966 71.0167 87.4284 70.6601C88.2601 70.3035 89.1573 70.125 90.0622 70.1362H261.39C263.296 70.1703 265.122 70.9083 266.516 72.2081C267.911 73.5078 268.775 75.2775 268.942 77.1762L277.358 194.08C277.438 194.982 277.327 195.891 277.034 196.748C276.74 197.605 276.27 198.391 275.655 199.055C275.039 199.719 274.291 200.247 273.458 200.604C272.626 200.961 271.728 201.14 270.822 201.128Z" fill="white"/>
<path d="M261.647 73.6562H90.3195H89.7435C85.3675 74.0162 86.2634 80.6802 90.6794 80.6802H262.295C266.719 80.6802 266.655 74.0162 262.223 73.6562H261.647Z" fill="#1C6758"/>
<path d="M94.7838 77.1763C94.8006 77.3826 94.774 77.59 94.7056 77.7854C94.6373 77.9807 94.5287 78.1595 94.387 78.3103C94.2453 78.461 94.0735 78.5804 93.8828 78.6607C93.6921 78.741 93.4866 78.7804 93.2798 78.7763C92.845 78.7702 92.4278 78.6034 92.1087 78.3079C91.7897 78.0125 91.5912 77.6094 91.5518 77.1763C91.535 76.9708 91.5614 76.764 91.6293 76.5692C91.6971 76.3745 91.805 76.196 91.9458 76.0454C92.0867 75.8947 92.2575 75.7752 92.4472 75.6944C92.637 75.6136 92.8415 75.5734 93.0478 75.5763C93.4839 75.5805 93.9031 75.7464 94.2238 76.0421C94.5446 76.3377 94.7441 76.7419 94.7838 77.1763Z" fill="#FAFAFA"/>
<path d="M100.28 77.1763C100.297 77.3826 100.27 77.59 100.202 77.7854C100.133 77.9807 100.025 78.1595 99.8831 78.3103C99.7414 78.461 99.5696 78.5804 99.3789 78.6607C99.1882 78.741 98.9827 78.7804 98.7759 78.7763C98.3411 78.7702 97.9239 78.6034 97.6048 78.3079C97.2857 78.0125 97.0873 77.6094 97.0479 77.1763C97.0311 76.9708 97.0575 76.764 97.1254 76.5692C97.1932 76.3745 97.3011 76.196 97.4419 76.0454C97.5828 75.8947 97.7536 75.7752 97.9433 75.6944C98.1331 75.6136 98.3376 75.5734 98.5439 75.5763C98.98 75.5805 99.3992 75.7464 99.7199 76.0421C100.041 76.3377 100.24 76.7419 100.28 77.1763Z" fill="#FAFAFA"/>
<path d="M105.767 77.1765C105.783 77.382 105.757 77.5888 105.689 77.7836C105.621 77.9783 105.514 78.1568 105.373 78.3074C105.232 78.4581 105.061 78.5776 104.871 78.6584C104.681 78.7392 104.477 78.7794 104.271 78.7765C103.835 78.7721 103.417 78.6059 103.098 78.3101C102.778 78.0143 102.58 77.6102 102.543 77.1765C102.525 76.9706 102.55 76.7633 102.618 76.568C102.685 76.3727 102.793 76.1938 102.934 76.0428C103.075 75.8919 103.246 75.7724 103.437 75.692C103.627 75.6117 103.832 75.5723 104.039 75.5765C104.474 75.5826 104.891 75.7494 105.21 76.0449C105.529 76.3403 105.727 76.7434 105.767 77.1765Z" fill="#FAFAFA"/>
<path d="M266.279 189.464H102.399C101.706 189.452 101.043 189.184 100.537 188.711C100.032 188.238 99.72 187.594 99.6625 186.904L92.7425 90.768C92.7117 90.4381 92.7515 90.1055 92.8591 89.7921C92.9667 89.4787 93.1397 89.1919 93.3667 88.9505C93.5937 88.7091 93.8694 88.5188 94.1756 88.3922C94.4818 88.2656 94.8114 88.2055 95.1425 88.216H259.063C259.754 88.2255 260.417 88.4921 260.923 88.9639C261.429 89.4357 261.741 90.0788 261.799 90.768L268.727 186.904C268.757 187.238 268.715 187.575 268.604 187.891C268.493 188.208 268.316 188.497 268.084 188.74C267.852 188.982 267.571 189.172 267.26 189.297C266.948 189.422 266.614 189.479 266.279 189.464Z" fill="white"/>
<path d="M197.223 152.84L194.551 115.784L186.471 110.92H164.223L167.247 152.84H197.223Z" fill="white"/>
<path d="M197.223 153.224H167.247C167.148 153.227 167.051 153.19 166.978 153.123C166.905 153.056 166.861 152.963 166.855 152.864L163.839 110.944C163.835 110.892 163.842 110.839 163.86 110.789C163.878 110.74 163.906 110.694 163.943 110.656C163.978 110.617 164.021 110.585 164.069 110.563C164.118 110.541 164.17 110.529 164.223 110.528H186.471C186.541 110.531 186.61 110.55 186.671 110.584L194.751 115.448C194.805 115.479 194.851 115.523 194.885 115.576C194.918 115.629 194.938 115.69 194.943 115.752L197.599 152.808C197.604 152.862 197.598 152.917 197.58 152.968C197.562 153.019 197.533 153.066 197.495 153.104C197.46 153.142 197.418 153.172 197.371 153.192C197.324 153.213 197.274 153.224 197.223 153.224ZM167.623 152.424H196.799L194.175 115.984L186.399 111.304H164.639L167.623 152.424Z" fill="#1C6758"/>
<path d="M194.551 115.784L186.471 110.92L189.439 117.368L194.551 115.784Z" fill="#EBEBEB"/>
<path d="M189.438 117.752C189.364 117.752 189.292 117.731 189.23 117.691C189.168 117.651 189.118 117.595 189.086 117.528L186.118 111.08C186.084 111.005 186.074 110.92 186.089 110.838C186.105 110.756 186.146 110.682 186.206 110.624C186.27 110.57 186.349 110.537 186.432 110.53C186.515 110.523 186.598 110.542 186.67 110.584L194.75 115.448C194.815 115.487 194.868 115.544 194.902 115.612C194.936 115.68 194.95 115.757 194.942 115.832C194.932 115.906 194.901 115.975 194.853 116.032C194.805 116.088 194.741 116.13 194.67 116.152L189.55 117.752H189.438ZM187.35 111.896L189.646 116.896L193.646 115.672L187.35 111.896Z" fill="#1C6758"/>
<path d="M176.8 129.8C176.812 130.018 176.779 130.235 176.704 130.44C176.629 130.644 176.513 130.831 176.363 130.989C176.213 131.147 176.033 131.273 175.833 131.359C175.633 131.445 175.417 131.489 175.2 131.488C174.743 131.48 174.305 131.303 173.971 130.992C173.638 130.68 173.431 130.256 173.392 129.8C173.371 129.581 173.397 129.359 173.469 129.151C173.541 128.942 173.656 128.751 173.808 128.59C173.959 128.43 174.143 128.304 174.347 128.22C174.551 128.136 174.771 128.097 174.992 128.104C175.449 128.115 175.887 128.293 176.22 128.606C176.554 128.919 176.76 129.345 176.8 129.8Z" fill="#1C6758"/>
<path d="M187.759 129.8C187.778 130.02 187.751 130.24 187.678 130.448C187.606 130.656 187.49 130.846 187.339 131.005C187.188 131.165 187.004 131.29 186.801 131.374C186.597 131.457 186.379 131.496 186.159 131.488C185.701 131.481 185.263 131.304 184.928 130.992C184.592 130.681 184.384 130.256 184.343 129.8C184.33 129.582 184.361 129.364 184.436 129.159C184.51 128.953 184.626 128.765 184.776 128.607C184.926 128.448 185.107 128.321 185.307 128.235C185.508 128.148 185.724 128.104 185.943 128.104C186.402 128.111 186.843 128.288 187.178 128.602C187.514 128.915 187.721 129.343 187.759 129.8Z" fill="#1C6758"/>
<path d="M190.862 140.792C190.765 140.791 190.672 140.753 190.601 140.686C190.53 140.62 190.486 140.529 190.478 140.432C190.278 137.704 186.006 135.488 180.958 135.488C177.606 135.488 174.598 136.488 173.11 138.088C172.805 138.383 172.565 138.74 172.408 139.134C172.251 139.529 172.179 139.952 172.198 140.376C172.202 140.429 172.195 140.482 172.179 140.532C172.162 140.582 172.136 140.628 172.101 140.667C172.031 140.748 171.932 140.797 171.826 140.804C171.72 140.812 171.616 140.777 171.535 140.707C171.455 140.637 171.406 140.538 171.398 140.432C171.375 139.902 171.462 139.373 171.655 138.878C171.848 138.383 172.142 137.935 172.518 137.56C174.118 135.808 177.374 134.712 180.934 134.712C186.478 134.712 190.998 137.2 191.222 140.376C191.226 140.427 191.219 140.477 191.203 140.525C191.186 140.573 191.161 140.617 191.127 140.655C191.094 140.693 191.053 140.724 191.008 140.746C190.962 140.768 190.913 140.781 190.862 140.784V140.792Z" fill="#1C6758"/>
<path d="M170.536 126.376C170.438 126.374 170.345 126.337 170.272 126.272C170.199 126.199 170.158 126.099 170.158 125.996C170.158 125.893 170.199 125.793 170.272 125.72L171.976 123.888C172.049 123.818 172.146 123.778 172.248 123.778C172.349 123.778 172.447 123.818 172.52 123.888C172.556 123.924 172.584 123.966 172.603 124.013C172.623 124.059 172.633 124.11 172.633 124.16C172.633 124.211 172.623 124.261 172.603 124.307C172.584 124.354 172.556 124.396 172.52 124.432L170.816 126.264C170.779 126.301 170.735 126.329 170.687 126.349C170.639 126.368 170.588 126.377 170.536 126.376Z" fill="#1C6758"/>
<path d="M190.064 126.376C189.967 126.371 189.874 126.335 189.8 126.272L187.84 124.44C187.803 124.404 187.773 124.361 187.753 124.314C187.733 124.267 187.723 124.216 187.723 124.164C187.723 124.113 187.733 124.062 187.753 124.014C187.773 123.967 187.803 123.924 187.84 123.888C187.913 123.818 188.01 123.778 188.112 123.778C188.213 123.778 188.311 123.818 188.384 123.888L190.344 125.72C190.379 125.756 190.408 125.798 190.427 125.845C190.447 125.891 190.457 125.942 190.457 125.992C190.457 126.043 190.447 126.093 190.427 126.139C190.408 126.186 190.379 126.228 190.344 126.264C190.268 126.335 190.168 126.375 190.064 126.376Z" fill="#1C6758"/>
<path d="M161.807 161.12H163.615L166.223 164.592L165.975 161.12H167.799L168.247 167.392H166.399L163.807 163.944L164.055 167.392H162.231L161.807 161.12Z" fill="#1C6758"/>
<path d="M169.063 164.256C169.001 163.83 169.03 163.396 169.149 162.982C169.268 162.568 169.473 162.185 169.751 161.856C170.055 161.557 170.419 161.326 170.819 161.179C171.219 161.031 171.645 160.97 172.071 161C172.972 160.951 173.858 161.252 174.543 161.84C175.17 162.465 175.534 163.307 175.559 164.192C175.625 164.803 175.542 165.42 175.319 165.992C175.112 166.453 174.764 166.836 174.327 167.088C173.801 167.37 173.21 167.505 172.615 167.48C172.003 167.499 171.394 167.385 170.831 167.144C170.337 166.907 169.921 166.536 169.631 166.072C169.287 165.526 169.092 164.9 169.063 164.256ZM171.007 164.256C170.999 164.747 171.157 165.226 171.455 165.616C171.58 165.754 171.733 165.862 171.905 165.934C172.076 166.006 172.261 166.039 172.447 166.032C172.624 166.044 172.802 166.014 172.965 165.943C173.128 165.872 173.271 165.762 173.383 165.624C173.612 165.187 173.689 164.686 173.599 164.2C173.602 163.73 173.444 163.272 173.151 162.904C173.023 162.769 172.867 162.663 172.695 162.592C172.522 162.522 172.337 162.489 172.151 162.496C171.977 162.489 171.803 162.522 171.645 162.595C171.486 162.667 171.347 162.776 171.239 162.912C171.004 163.324 170.922 163.806 171.007 164.272V164.256Z" fill="#1C6758"/>
<path d="M179.318 161.12H182.198C182.673 161.105 183.146 161.184 183.59 161.352C183.942 161.5 184.254 161.727 184.502 162.016C184.754 162.31 184.947 162.65 185.07 163.016C185.2 163.41 185.281 163.819 185.31 164.232C185.372 164.755 185.331 165.285 185.19 165.792C185.08 166.144 184.885 166.463 184.622 166.72C184.403 166.952 184.128 167.123 183.822 167.216C183.45 167.324 183.066 167.384 182.678 167.392H179.806L179.318 161.12ZM181.358 162.544L181.606 165.968H182.078C182.37 165.988 182.663 165.941 182.934 165.832C183.113 165.729 183.245 165.559 183.302 165.36C183.394 165.005 183.416 164.636 183.366 164.272C183.382 163.784 183.232 163.305 182.942 162.912C182.794 162.778 182.619 162.676 182.429 162.613C182.239 162.549 182.038 162.526 181.838 162.544H181.358Z" fill="#1C6758"/>
<path d="M189.959 166.352H187.759L187.527 167.392H185.551L187.455 161.12H189.599L192.407 167.392H190.375L189.959 166.352ZM189.455 165L188.607 162.744L188.079 165H189.455Z" fill="#1C6758"/>
<path d="M191.496 161.12H197.384L197.496 162.672H195.52L195.856 167.392H193.92L193.584 162.672H191.608L191.496 161.12Z" fill="#1C6758"/>
<path d="M201.894 166.352H199.694L199.462 167.392H197.486L199.39 161.12H201.502L204.302 167.392H202.278L201.894 166.352ZM201.39 165L200.534 162.744L199.998 165H201.39Z" fill="#1C6758"/>
<path d="M282.951 87.4643C283.663 87.1043 284.551 86.6643 285.303 86.2083C286.055 85.7523 286.903 85.3123 287.703 84.8323C289.263 83.8643 290.847 82.9123 292.343 81.8563C295.348 79.8004 298.164 77.4819 300.759 74.9283C301.087 74.6243 301.375 74.2883 301.687 73.9603L302.143 73.4723L302.367 73.2323L302.479 73.1043C302.367 73.3203 302.479 73.2563 302.479 73.0483C302.549 72.7626 302.59 72.4703 302.599 72.1763C302.581 70.4752 302.385 68.7807 302.015 67.1203C301.303 63.5363 300.223 59.8403 299.159 56.2243L302.263 54.8643C304.222 58.3336 305.858 61.9755 307.151 65.7443C307.877 67.7809 308.34 69.9022 308.527 72.0563C308.576 72.726 308.555 73.399 308.463 74.0643C308.344 75.0049 308.01 75.9056 307.487 76.6963L307.351 76.8803L307.247 77.0083L307.127 77.1603L306.879 77.4643L306.383 78.0643C306.055 78.4563 305.735 78.8643 305.383 79.2403C302.647 82.2762 299.595 85.0116 296.279 87.4003C294.679 88.5843 292.983 89.7203 291.247 90.7523C290.391 91.2723 289.519 91.7683 288.631 92.2563C287.743 92.7443 286.879 93.1923 285.855 93.6723L282.951 87.4643Z" fill="#FFB573"/>
<path d="M275.832 275.544C276.431 275.529 277.027 275.449 277.608 275.304C277.638 275.295 277.664 275.279 277.685 275.256C277.706 275.234 277.721 275.206 277.728 275.176C277.732 275.146 277.727 275.114 277.715 275.086C277.702 275.058 277.682 275.034 277.656 275.016C277.424 274.864 275.392 273.552 274.608 273.904C274.521 273.945 274.447 274.008 274.392 274.086C274.337 274.165 274.304 274.257 274.296 274.352C274.265 274.503 274.273 274.66 274.319 274.807C274.365 274.954 274.448 275.086 274.56 275.192C274.928 275.459 275.38 275.584 275.832 275.544ZM277.152 275.08C275.992 275.312 275.112 275.272 274.752 274.96C274.68 274.887 274.628 274.796 274.6 274.697C274.572 274.597 274.569 274.493 274.592 274.392C274.595 274.35 274.609 274.309 274.633 274.274C274.657 274.239 274.69 274.211 274.728 274.192C275.152 274.008 276.328 274.6 277.152 275.08Z" fill="#1C6758"/>
<path d="M277.6 275.304H277.68C277.703 275.29 277.723 275.27 277.737 275.246C277.751 275.222 277.759 275.196 277.76 275.168C277.76 275.08 277.76 273.152 277.024 272.512C276.936 272.427 276.829 272.363 276.713 272.326C276.596 272.289 276.473 272.278 276.352 272.296C276.226 272.297 276.104 272.341 276.006 272.421C275.909 272.501 275.841 272.613 275.816 272.736C275.664 273.536 276.88 274.936 277.52 275.304C277.546 275.312 277.574 275.312 277.6 275.304ZM276.456 272.592C276.586 272.593 276.711 272.641 276.808 272.728C277.23 273.35 277.448 274.088 277.432 274.84C276.792 274.328 276.032 273.24 276.128 272.784C276.128 272.712 276.184 272.616 276.384 272.592H276.456Z" fill="#1C6758"/>
<path d="M276.977 67.4565C276.177 71.4565 274.577 79.4565 277.337 82.1365C277.337 82.1365 276.249 86.1365 268.865 86.1365C260.737 86.1365 264.985 82.1365 264.985 82.1365C269.417 81.0805 269.297 77.7925 268.529 74.6965L276.977 67.4565Z" fill="#FFB573"/>
<path d="M263.424 83.7362C262.152 83.9122 263.24 80.6082 263.752 80.2642C264.952 79.4642 280.441 78.3522 280.337 80.2642C280.273 81.0642 279.888 82.6642 279.216 83.1922C278.544 83.7202 274.56 82.0722 263.424 83.7362Z" fill="#263238"/>
<path d="M265.951 82.6001C264.935 82.9441 265.031 79.6161 265.375 79.2161C266.175 78.2881 278.711 75.0721 279.079 76.8881C279.223 77.6881 279.295 79.2881 278.863 79.8561C278.431 80.4241 274.751 79.4881 265.951 82.6001Z" fill="#263238"/>
<path d="M261.289 60.2882C261.238 60.2904 261.188 60.2807 261.142 60.2598C261.096 60.239 261.056 60.2076 261.025 60.1682C260.781 59.8534 260.466 59.6004 260.106 59.4294C259.746 59.2585 259.351 59.1745 258.953 59.1842C258.911 59.1898 258.869 59.1869 258.828 59.1757C258.788 59.1645 258.75 59.1453 258.717 59.1191C258.684 59.093 258.657 59.0605 258.637 59.0236C258.617 58.9866 258.605 58.946 258.601 58.9042C258.594 58.8218 258.619 58.74 258.671 58.6758C258.724 58.6117 258.799 58.5703 258.881 58.5602C259.384 58.5345 259.887 58.6309 260.345 58.8413C260.803 59.0516 261.204 59.3696 261.513 59.7682C261.566 59.8331 261.592 59.9166 261.585 60.0004C261.577 60.0843 261.537 60.1618 261.473 60.2162C261.418 60.2552 261.355 60.28 261.289 60.2882Z" fill="#263238"/>
<path d="M259.737 64.2002C259.374 65.4765 258.835 66.6961 258.137 67.8242C258.43 67.9929 258.757 68.0953 259.094 68.1244C259.431 68.1534 259.771 68.1083 260.089 67.9922L259.737 64.2002Z" fill="#FF5652"/>
<path d="M260.128 63.2322C260.184 63.7682 259.936 64.2322 259.584 64.2642C259.232 64.2962 258.904 63.8962 258.856 63.3522C258.808 62.8082 259.048 62.3522 259.392 62.3202C259.736 62.2882 260.072 62.6882 260.128 63.2322Z" fill="#263238"/>
<path d="M259.553 62.3364L258.225 62.0884C258.225 62.0884 258.985 63.0324 259.553 62.3364Z" fill="#263238"/>
<path d="M285.36 275.152H278.656L279.184 259.632H285.888L285.36 275.152Z" fill="#FFB573"/>
<path d="M278.127 274.376H285.655C285.785 274.373 285.911 274.418 286.01 274.502C286.109 274.586 286.173 274.704 286.191 274.832L287.047 280.784C287.064 280.935 287.049 281.087 287.003 281.232C286.956 281.376 286.88 281.509 286.779 281.621C286.677 281.734 286.553 281.824 286.415 281.885C286.276 281.946 286.126 281.977 285.975 281.976C283.351 281.936 282.087 281.776 278.775 281.776C276.735 281.776 273.759 281.992 270.951 281.992C268.143 281.992 267.983 279.208 269.159 278.96C274.407 277.824 275.239 276.272 277.007 274.784C277.322 274.523 277.718 274.379 278.127 274.376Z" fill="#263238"/>
<g opacity="0.2">
<path d="M285.888 259.632H279.184L278.912 267.632H285.616L285.888 259.632Z" fill="black"/>
</g>
<path d="M258.696 91.4005C254.594 89.8055 250.575 88.0032 246.656 86.0005C242.608 84.0224 238.751 81.6737 235.136 78.9845C234.17 78.2279 233.256 77.4074 232.4 76.5285C232.176 76.2885 231.952 76.0645 231.736 75.7845C231.482 75.4983 231.247 75.1964 231.032 74.8805C230.442 74.021 230.074 73.0288 229.96 71.9925C229.872 71.01 230.006 70.0202 230.352 69.0965C230.629 68.354 231.009 67.6539 231.48 67.0165C232.253 65.9597 233.165 65.0124 234.192 64.2005C236.005 62.7571 237.962 61.5051 240.032 60.4645C241.024 59.9365 242.032 59.4645 243.056 59.0245C244.08 58.5845 245.088 58.1685 246.184 57.7925L247.6 60.8725C244.112 63.0725 240.496 65.4965 237.84 68.2005C237.246 68.8028 236.722 69.4711 236.28 70.1925C235.896 70.8245 235.904 71.2965 235.968 71.2565C236.032 71.2165 235.968 71.2565 236.08 71.3365L236.4 71.6805C236.52 71.8245 236.688 71.9685 236.84 72.1205C237.518 72.7442 238.237 73.3215 238.992 73.8485C240.643 75.0177 242.364 76.0863 244.144 77.0485C245.944 78.0565 247.8 79.0085 249.688 79.9205C253.464 81.7285 257.368 83.4645 261.2 85.0485L258.696 91.4005Z" fill="#FFB573"/>
<path d="M249.6 58.7201L250.704 56.3201L245.648 54.6001C245.648 54.6001 244.048 59.3281 245.944 61.5041C246.737 61.3793 247.486 61.0596 248.124 60.5737C248.762 60.0877 249.27 59.4508 249.6 58.7201Z" fill="#FFB573"/>
<path d="M250.68 51.1285L246.656 49.9604L245.648 54.5685L250.68 56.3204V51.1285Z" fill="#FFB573"/>
<path d="M302.68 56.5521L303.264 50.9521L298.08 52.2001C298.08 52.2001 298 57.4641 300.744 58.2961L302.68 56.5521Z" fill="#FFB573"/>
<path d="M300.769 47.0083L297.385 48.5843L298.081 52.1603L303.265 50.9363L300.769 47.0083Z" fill="#FFB573"/>
<path d="M278.033 59.6001C278.281 66.2481 278.521 69.0561 275.521 72.7761C271.001 78.3761 262.785 77.2161 260.561 70.7761C258.561 64.9841 258.497 55.0881 264.705 51.8241C266.07 51.0984 267.597 50.7335 269.143 50.764C270.688 50.7945 272.2 51.2194 273.536 51.9983C274.871 52.7773 275.985 53.8845 276.772 55.215C277.559 56.5454 277.993 58.0548 278.033 59.6001Z" fill="#FFB573"/>
<path d="M275.137 72.7684C281.665 69.9444 285.953 63.9684 284.145 54.7044C282.409 45.8164 276.409 44.9364 273.929 46.7764C271.449 48.6164 265.265 45.8723 261.553 48.9923C255.153 54.4083 261.201 60.1924 264.369 63.6884C266.257 67.5764 268.737 75.5284 275.137 72.7684Z" fill="#263238"/>
<path d="M272.425 53.1122C273.221 54.1338 274.299 54.8998 275.526 55.3157C276.752 55.7316 278.074 55.7791 279.327 55.4525C280.581 55.1259 281.711 54.4395 282.579 53.4778C283.447 52.5162 284.014 51.3215 284.21 50.0412C284.407 48.7609 284.224 47.4511 283.685 46.2735C283.146 45.0958 282.273 44.1019 281.176 43.4143C280.078 42.7268 278.803 42.3757 277.508 42.4045C276.213 42.4332 274.955 42.8406 273.889 43.5762C272.43 44.647 271.457 46.2529 271.183 48.0411C270.908 49.8293 271.355 51.6533 272.425 53.1122Z" fill="#1C6758"/>
<path d="M274.119 47.4003C273.183 42.0403 278.247 37.9123 285.031 39.9043C291.815 41.8963 288.231 47.9043 286.831 52.7043C285.431 57.5043 289.095 62.0803 290.615 58.4243C292.135 54.7683 289.575 53.6243 289.575 53.6243C289.575 53.6243 296.775 55.4883 290.087 63.6083C283.399 71.7283 277.343 62.7603 278.983 57.4723C280.311 53.2243 275.007 52.4643 274.119 47.4003Z" fill="#263238"/>
<path d="M267.344 49.4243C264.248 47.8243 259.008 46.5043 256.024 51.5283C254.616 53.9283 255.16 57.1283 255.16 57.1283L264.272 57.7283L267.344 49.4243Z" fill="#263238"/>
<path d="M254.089 55.5445C254.035 55.5404 253.985 55.5155 253.949 55.4753C253.913 55.435 253.894 55.3823 253.897 55.3285C253.897 55.1925 254.129 51.9765 256.073 49.9605C260.769 45.0805 266.273 49.1605 267.841 50.4805C267.874 50.5161 267.894 50.563 267.895 50.6121C267.897 50.6612 267.88 50.7091 267.848 50.7467C267.817 50.7843 267.772 50.8089 267.724 50.8159C267.675 50.8228 267.626 50.8116 267.585 50.7845C266.073 49.4885 260.809 45.6085 256.385 50.2325C254.545 52.1445 254.321 55.3205 254.321 55.3525C254.32 55.381 254.313 55.409 254.301 55.4346C254.288 55.4603 254.27 55.4829 254.248 55.5011C254.226 55.5193 254.201 55.5326 254.173 55.5401C254.146 55.5475 254.117 55.549 254.089 55.5445Z" fill="#263238"/>
<path d="M265.479 63.4003C265.443 64.6589 264.978 65.8672 264.16 66.8243C263.056 68.1203 261.759 67.4803 261.495 66.0243C261.231 64.7363 261.495 62.5043 262.887 61.7283C264.279 60.9523 265.495 61.9443 265.479 63.4003Z" fill="#FFB573"/>
<path d="M264.039 124.296C264.039 124.296 264.471 170.816 268.503 196.736C271.767 217.672 277.791 266.088 277.791 266.088H286.935C286.935 266.088 287.823 219.344 286.135 198.64C281.951 146.24 292.759 136.44 284.039 124.296H264.039Z" fill="#263238"/>
<path opacity="0.1" d="M264.039 124.296C264.039 124.296 264.471 170.816 268.503 196.736C271.767 217.672 277.791 266.088 277.791 266.088H286.935C286.935 266.088 287.823 219.344 286.135 198.64C281.951 146.24 292.759 136.44 284.039 124.296H264.039Z" fill="white"/>
<path opacity="0.3" d="M268.848 145.4C272.048 159.44 269.496 181.552 267.744 191.288C265.888 176.504 264.952 157.344 264.488 143.288C266.144 140.616 267.712 140.44 268.848 145.4Z" fill="black"/>
<path d="M276.544 266.264H288.184L288.792 262.184L276.48 261.768L276.544 266.264Z" fill="#1C6758"/>
<path d="M279.864 85.0004C280.96 82.8244 286.848 81.4564 290.064 81.4644L292.464 92.1524C292.464 92.1524 286.064 101.664 283.392 100.656C280.248 99.4964 277.52 89.6964 279.864 85.0004Z" fill="#1C6758"/>
<path opacity="0.4" d="M279.864 85.0004C280.96 82.8244 286.848 81.4564 290.064 81.4644L292.464 92.1524C292.464 92.1524 286.064 101.664 283.392 100.656C280.248 99.4964 277.52 89.6964 279.864 85.0004Z" fill="black"/>
<path d="M273.08 263.648C273.093 263.625 273.1 263.599 273.1 263.572C273.1 263.546 273.093 263.519 273.08 263.496C273.065 263.466 273.04 263.441 273.01 263.425C272.98 263.409 272.945 263.403 272.912 263.408C272.576 263.464 269.616 263.928 269.216 264.776C269.173 264.853 269.15 264.94 269.15 265.028C269.15 265.116 269.173 265.203 269.216 265.28C269.284 265.407 269.383 265.515 269.503 265.594C269.623 265.674 269.76 265.722 269.904 265.736C270.872 265.832 272.304 264.488 273.024 263.672L273.08 263.648ZM269.528 264.88C269.8 264.432 271.336 264.016 272.504 263.8C271.448 264.872 270.52 265.472 269.976 265.4C269.881 265.391 269.791 265.358 269.713 265.305C269.635 265.252 269.571 265.18 269.528 265.096C269.51 265.066 269.501 265.031 269.501 264.996C269.501 264.961 269.51 264.927 269.528 264.896C269.528 264.896 269.52 264.888 269.528 264.88Z" fill="#1C6758"/>
<path d="M273.081 263.648C273.094 263.625 273.101 263.599 273.101 263.572C273.101 263.545 273.094 263.519 273.081 263.496C273.033 263.44 271.849 262.072 270.753 262C270.595 261.987 270.436 262.006 270.286 262.057C270.136 262.108 269.998 262.189 269.881 262.296C269.553 262.592 269.585 262.848 269.665 263.008C270.009 263.696 272.137 263.936 272.993 263.752C273.015 263.743 273.034 263.729 273.05 263.711C273.065 263.693 273.076 263.671 273.081 263.648ZM269.953 262.64C269.988 262.586 270.031 262.537 270.081 262.496C270.164 262.417 270.264 262.356 270.373 262.319C270.482 262.282 270.598 262.268 270.713 262.28C271.457 262.463 272.125 262.875 272.625 263.456C271.673 263.536 270.137 263.248 269.929 262.832C269.915 262.801 269.91 262.767 269.915 262.733C269.919 262.699 269.932 262.667 269.953 262.64Z" fill="#1C6758"/>
<path d="M280.065 260.808L273.937 263.536L271.209 257.848L267.641 250.408L267.217 249.544L273.345 246.816L273.817 247.792L277.273 255L280.065 260.808Z" fill="#FFB573"/>
<path opacity="0.2" d="M277.273 255L271.209 257.848L267.641 250.408L273.817 247.792L277.273 255Z" fill="black"/>
<path d="M256.855 124.296C256.855 124.296 237.279 173 242.583 195.88C247.383 216.592 268.583 255.816 268.583 255.816L276.799 251.704C276.799 251.704 263.687 204.352 262.271 194.064C259.503 174.064 277.287 145.8 277.287 124.296H256.855Z" fill="#263238"/>
<path opacity="0.1" d="M256.855 124.296C256.855 124.296 237.279 173 242.583 195.88C247.383 216.592 268.583 255.816 268.583 255.816L276.799 251.704C276.799 251.704 263.687 204.352 262.271 194.064C259.503 174.064 277.287 145.8 277.287 124.296H256.855Z" fill="white"/>
<path d="M272.847 262.68L278.927 258.256C279.03 258.176 279.159 258.136 279.289 258.145C279.419 258.154 279.541 258.211 279.631 258.304L283.831 262.616C283.933 262.729 284.01 262.861 284.057 263.006C284.105 263.15 284.121 263.303 284.105 263.454C284.089 263.605 284.041 263.751 283.965 263.882C283.889 264.013 283.786 264.127 283.663 264.216C281.511 265.72 280.399 266.344 277.727 268.288C276.079 269.488 272.799 272.136 270.527 273.792C268.255 275.448 266.527 273.288 267.327 272.4C270.911 268.4 271.663 265.92 272.223 263.672C272.31 263.279 272.531 262.928 272.847 262.68Z" fill="#263238"/>
<path d="M268.055 257.552L278.639 252.712L277.287 248.4L265.951 253.568L268.055 257.552Z" fill="#1C6758"/>
<path d="M262.048 84.4882C261.176 82.2162 253.528 79.6882 249.688 78.8882L248 91.4642C248 91.4642 254.272 100.472 257.016 99.7282C260.264 98.8482 263.936 89.3602 262.048 84.4882Z" fill="#1C6758"/>
<path opacity="0.4" d="M262.048 84.4882C261.176 82.2162 253.528 79.6882 249.688 78.8882L248 91.4642C248 91.4642 254.272 100.472 257.016 99.7282C260.264 98.8482 263.936 89.3602 262.048 84.4882Z" fill="black"/>
<path d="M253.655 83.8563C253.655 83.8563 250.455 84.9763 256.855 124.296H284.055C283.599 113.224 283.583 106.392 288.855 83.6563C285.044 82.8699 281.181 82.3619 277.295 82.1363C273.183 81.84 269.055 81.84 264.943 82.1363C259.671 82.6003 253.655 83.8563 253.655 83.8563Z" fill="#1C6758"/>
<path opacity="0.4" d="M253.655 83.8563C253.655 83.8563 250.455 84.9763 256.855 124.296H284.055C283.599 113.224 283.583 106.392 288.855 83.6563C285.044 82.8699 281.181 82.3619 277.295 82.1363C273.183 81.84 269.055 81.84 264.943 82.1363C259.671 82.6003 253.655 83.8563 253.655 83.8563Z" fill="black"/>
<path d="M284.48 122.704L285.704 125.104C285.8 125.296 285.576 125.488 285.264 125.488H256.72C256.472 125.488 256.272 125.368 256.256 125.208L256.008 122.808C256.008 122.64 256.208 122.496 256.472 122.496H284C284.091 122.482 284.185 122.494 284.27 122.53C284.355 122.567 284.428 122.628 284.48 122.704Z" fill="#1C6758"/>
<path opacity="0.3" d="M284.48 122.704L285.704 125.104C285.8 125.296 285.576 125.488 285.264 125.488H256.72C256.472 125.488 256.272 125.368 256.256 125.208L256.008 122.808C256.008 122.64 256.208 122.496 256.472 122.496H284C284.091 122.482 284.185 122.494 284.27 122.53C284.355 122.567 284.428 122.628 284.48 122.704Z" fill="white"/>
<path d="M280.8 125.8H281.536C281.688 125.8 281.8 125.72 281.784 125.632L281.44 122.432C281.44 122.336 281.304 122.264 281.16 122.264H280.416C280.272 122.264 280.16 122.336 280.168 122.432L280.512 125.632C280.504 125.704 280.632 125.8 280.8 125.8Z" fill="#263238"/>
<path d="M262.888 125.8H263.624C263.768 125.8 263.88 125.72 263.872 125.632L263.528 122.432C263.528 122.336 263.392 122.264 263.24 122.264H262.504C262.352 122.264 262.248 122.336 262.256 122.432L262.6 125.632C262.608 125.704 262.736 125.8 262.888 125.8Z" fill="#263238"/>
</g>
<defs>
<clipPath id="clip0_843_59454">
<rect width="400" height="298" fill="white"/>
</clipPath>
</defs>
</svg>
