<svg width="36" height="36" viewBox="0 0 36 36" fill="none" xmlns="http://www.w3.org/2000/svg">
<path fill-rule="evenodd" clip-rule="evenodd" d="M9.84037 6.59084C11.5825 4.34476 14.2823 2.64624 17.9943 2.64624C21.7057 2.64624 24.4054 4.34481 26.1477 6.5908C27.8625 8.80141 28.6607 11.548 28.6607 13.7755C28.6607 14.4149 28.6413 14.8895 28.6266 15.2497C28.6235 15.3238 28.6207 15.393 28.6183 15.4578C28.6038 15.8452 28.6067 16.0313 28.6365 16.2157C28.7043 16.6351 28.9188 17.1517 29.7759 19.0407C29.7845 19.0596 29.7925 19.0787 29.8001 19.0981C30.4193 20.6917 30.2808 22.1578 29.5443 23.4001C28.8415 24.5856 27.6602 25.4586 26.3833 26.0956C23.8298 27.3694 20.4543 27.9177 17.9943 27.9177C15.5336 27.9177 12.1577 27.3694 9.60425 26.0956C8.32735 25.4586 7.14609 24.5856 6.44346 23.4C5.70713 22.1575 5.56898 20.6914 6.18864 19.0978C6.19613 19.0786 6.20415 19.0595 6.2127 19.0407C7.06981 17.1517 7.28435 16.6351 7.3521 16.2157C7.38189 16.0313 7.38484 15.8452 7.37034 15.4578C7.36791 15.393 7.36508 15.3238 7.36205 15.2497C7.34731 14.8896 7.32788 14.4149 7.32788 13.7755C7.32788 11.5481 8.12566 8.80153 9.84037 6.59084ZM11.6182 7.96985C10.2251 9.76596 9.57788 12.0215 9.57788 13.7755C9.57788 14.3652 9.59525 14.7911 9.60987 15.1497C9.61303 15.2272 9.61606 15.3015 9.61876 15.3737C9.63369 15.7724 9.64154 16.1522 9.5733 16.5746C9.44654 17.3592 9.06116 18.2085 8.2902 19.9074L8.27516 19.9406C7.90184 20.9196 8.02159 21.6497 8.37908 22.2529C8.77359 22.9186 9.52983 23.5441 10.6086 24.0822C12.7666 25.1588 15.775 25.6677 17.9943 25.6677C20.2129 25.6677 23.2209 25.1588 25.3789 24.0822C26.4577 23.544 27.2141 22.9185 27.6088 22.2527C27.9665 21.6494 28.0864 20.9194 27.7134 19.9405L27.6984 19.9074C26.9275 18.2084 26.5421 17.3592 26.4153 16.5746C26.3471 16.1522 26.3549 15.7724 26.3699 15.3737C26.3725 15.3015 26.3756 15.2272 26.3787 15.1497C26.3934 14.7912 26.4107 14.3652 26.4107 13.7755C26.4107 12.0216 25.7632 9.76607 24.3699 7.9699C23.004 6.2091 20.9329 4.89624 17.9943 4.89624C15.0549 4.89624 12.9839 6.20915 11.6182 7.96985Z" fill="#171717"/>
<path fill-rule="evenodd" clip-rule="evenodd" d="M13.7796 29.9293C14.2429 29.5154 14.9541 29.5555 15.368 30.0189C16.8764 31.7075 19.1222 31.6919 20.6208 30.0179C21.0352 29.555 21.7465 29.5157 22.2094 29.9301C22.6723 30.3446 22.7116 31.0558 22.2972 31.5187C19.913 34.1819 16.1016 34.2177 13.69 31.5178C13.2761 31.0544 13.3162 30.3432 13.7796 29.9293Z" fill="#171717"/>
</svg>
