<svg width="32" height="33" viewBox="0 0 32 33" fill="none" xmlns="http://www.w3.org/2000/svg">
<path d="M4.84929 4.96704L16.5026 16.395L4.93596 27.9284C4.7472 27.6816 4.60035 27.4055 4.50129 27.111C4.44928 26.7775 4.44928 26.4379 4.50129 26.1044V6.4777C4.46662 5.95104 4.58796 5.42437 4.84796 4.96704M21.5226 11.411L17.7186 15.179L6.20396 3.85504C6.57729 3.7257 6.97729 3.6897 7.36796 3.75104C7.98129 3.91904 8.56662 4.1777 9.10396 4.51504L19.5253 10.2817C20.2026 10.6457 20.8626 11.0284 21.5226 11.411ZM17.72 17.6284L21.5053 21.3457L18.7613 22.8737L10.3893 27.527C9.69596 27.9097 8.99996 28.275 8.32262 28.6924C8.03286 28.873 7.70786 28.9896 7.36938 29.0344C7.0309 29.0793 6.68675 29.0513 6.35996 28.9524L17.72 17.6284ZM27.5333 16.395C27.5438 16.8614 27.4262 17.3217 27.1935 17.726C26.9608 18.1303 26.6218 18.4632 26.2133 18.6884L23.0853 20.4244L18.9693 16.395L23.1026 12.2964C24.1626 12.887 25.2053 13.4777 26.2466 14.0337C26.6621 14.2656 27.0034 14.6105 27.2309 15.0284C27.4584 15.4463 27.5641 15.9202 27.5333 16.395Z" fill="#FAFAFA"/>
</svg>
