<svg width="17" height="17" viewBox="0 0 17 17" fill="none" xmlns="http://www.w3.org/2000/svg">
<path fill-rule="evenodd" clip-rule="evenodd" d="M11.2467 9.23586H9.31667V11.1632C9.31667 11.4457 9.08736 11.675 8.80482 11.675C8.52227 11.675 8.29296 11.4457 8.29296 11.1632V9.23586H6.36293C6.08039 9.23586 5.85108 9.00655 5.85108 8.72401C5.85108 8.44146 6.08039 8.21215 6.36293 8.21215H8.29296V6.28485C8.29296 6.00231 8.52227 5.773 8.80482 5.773C9.08736 5.773 9.31667 6.00231 9.31667 6.28485V8.21215H11.2467C11.5292 8.21215 11.7586 8.44146 11.7586 8.72401C11.7586 9.00655 11.5292 9.23586 11.2467 9.23586ZM8.80482 1.73755C3.64602 1.73755 1.81836 3.56521 1.81836 8.72401C1.81836 13.8828 3.64602 15.7105 8.80482 15.7105C13.9629 15.7105 15.7913 13.8828 15.7913 8.72401C15.7913 3.56521 13.9629 1.73755 8.80482 1.73755Z" fill="#1C6758"/>
</svg>
