<svg width="38" height="38" viewBox="0 0 38 38" fill="none" xmlns="http://www.w3.org/2000/svg">
<path fill-rule="evenodd" clip-rule="evenodd" d="M24.6648 20.1876H20.1871V24.6589C20.1871 25.3144 19.6551 25.8464 18.9996 25.8464C18.3441 25.8464 17.8121 25.3144 17.8121 24.6589V20.1876H13.3344C12.6789 20.1876 12.1469 19.6556 12.1469 19.0001C12.1469 18.3446 12.6789 17.8126 13.3344 17.8126H17.8121V13.3413C17.8121 12.6858 18.3441 12.1538 18.9996 12.1538C19.6551 12.1538 20.1871 12.6858 20.1871 13.3413V17.8126H24.6648C25.3203 17.8126 25.8523 18.3446 25.8523 19.0001C25.8523 19.6556 25.3203 20.1876 24.6648 20.1876ZM18.9996 2.7915C7.03118 2.7915 2.79102 7.03167 2.79102 19.0001C2.79102 30.9685 7.03118 35.2087 18.9996 35.2087C30.9664 35.2087 35.2082 30.9685 35.2082 19.0001C35.2082 7.03167 30.9664 2.7915 18.9996 2.7915Z" fill="#1C6758"/>
</svg>
