<svg width="29" height="34" viewBox="0 0 29 34" fill="none" xmlns="http://www.w3.org/2000/svg">
<g clip-path="url(#clip0_2206_4629)">
<path d="M27.7828 20.6858C26.9297 25.064 24.1031 29.0625 20.1514 31.1438C16.1998 33.2204 11.1935 33.2532 7.32155 31.036C3.44961 28.8094 0.913629 24.3515 1.20426 19.8936C1.2277 19.5139 1.26989 19.1436 1.33082 18.7733C1.79958 15.8529 3.34179 13.1435 5.23557 10.8419C7.37311 8.24966 9.95596 6.06994 12.3654 3.73084C13.181 2.93863 14.0107 2.03862 14.5545 1.04485C15.2107 -0.155166 16.8748 -0.28173 17.6717 0.833913C18.253 1.63549 18.6561 2.56363 18.8295 3.53865C19.2045 5.62462 18.5811 7.73871 18.4358 9.85281C18.2998 11.8638 18.8108 14.1888 20.4889 15.2388C20.5686 15.2904 20.6483 15.3373 20.7327 15.3795C21.9796 16.0217 23.6249 15.7826 24.6421 14.8123L24.6703 14.7841C25.739 13.7388 27.5156 14.2357 27.8016 15.6982C28.125 17.3295 28.0922 19.0592 27.7781 20.6858H27.7828Z" fill="#D3478F"/>
<path d="M20.3015 28.0032C17.6389 30.5251 13.4295 31.2845 10.0685 29.8173C6.70283 28.3548 4.38717 24.7313 4.51373 21.0609C4.57936 19.1062 5.27312 17.2077 6.2997 15.5389C7.32159 13.8702 8.66224 12.417 10.0826 11.0717C11.0435 10.1717 12.0373 9.31852 13.0498 8.47945C13.5608 8.05756 14.1655 7.28412 14.6483 6.6091C15.0139 6.09347 15.8108 6.35129 15.8342 6.97942C15.9045 9.03258 15.0233 11.2217 15.2998 13.317C15.5202 14.9764 16.5233 16.5093 17.953 17.3858C18.8577 17.939 19.9124 18.2155 20.9718 18.2062C22.1812 18.1968 23.1937 19.139 23.264 20.3437C23.4281 23.1656 22.3593 26.0672 20.3015 28.0079V28.0032Z" fill="#DF66A1"/>
<path d="M18.1221 20.8727C19.2143 22.2134 19.4018 24.215 18.6377 25.7666C17.8783 27.3228 16.233 28.3869 14.508 28.5275C12.7829 28.6635 11.0204 27.9041 9.88132 26.6056C8.61567 25.1666 8.11879 23.1696 8.18441 21.2524C8.25941 19.1477 8.99068 17.0711 10.2329 15.3648C10.5001 14.9945 11.0766 15.0742 11.2266 15.5055C11.3954 16.007 11.6907 16.4805 12.047 16.8649C12.8767 17.7602 14.0158 18.2899 15.1173 18.8196C16.2189 19.3493 17.3439 19.9258 18.1174 20.868L18.1221 20.8727Z" fill="#EEBE97"/>
<g style="mix-blend-mode:soft-light" opacity="0.5">
<path d="M27.7828 20.6853C26.9297 25.0635 24.1031 29.062 20.1514 31.1433C16.1998 33.2199 11.1935 33.2527 7.32155 31.0355C3.44961 28.8089 0.913629 24.351 1.20426 19.8931C1.2277 19.5134 1.26989 19.1431 1.33082 18.7728C1.72927 19.8228 2.30115 20.8025 3.02304 21.6744C6.00434 25.2604 11.2169 26.1979 15.3279 24.0182C18.553 22.3072 20.4749 18.8009 20.4936 15.2336C20.5733 15.2852 20.653 15.3321 20.7374 15.3743C21.9843 16.0165 23.6296 15.7774 24.6468 14.8071L24.675 14.779C25.7437 13.7336 27.5203 14.2305 27.8063 15.693C28.1297 17.3243 28.0969 19.054 27.7828 20.6806V20.6853Z" fill="#322256"/>
</g>
<g style="mix-blend-mode:soft-light" opacity="0.5">
<path d="M3.10329 19.3221C2.90172 14.7892 5.91583 10.1625 10.1534 8.53125C7.18617 11.7751 4.87519 15.2954 3.10329 19.3221Z" fill="white"/>
</g>
<path d="M14.5502 1.04883C15.0049 0.0972566 16.2799 -0.301187 17.2033 0.251947C18.0612 0.842581 18.5065 1.87854 18.8534 2.82543C19.4862 4.7989 19.0643 6.90362 18.8768 8.89115C18.6705 10.7381 18.7924 12.8568 20.0581 14.2631C21.0846 15.435 22.955 15.5334 24.1222 14.5444C24.9285 13.6069 26.5035 13.3303 27.5301 14.1694C28.6973 15.1397 28.5613 16.8132 28.6504 18.1772C28.6363 22.3914 26.78 26.4977 23.7378 29.3946C17.4986 35.5775 6.17346 34.5322 2.07183 26.4321C0.00461096 22.7242 0.281178 18.0132 2.32496 14.3803C4.25156 10.7427 7.35473 8.0052 10.3829 5.34265C11.8501 3.99263 13.4908 2.76449 14.5502 1.04415C13.622 2.84418 12.0423 4.1942 10.6407 5.61453C6.53909 9.63179 1.84683 14.2819 1.7437 20.371C1.77651 28.6821 10.2563 34.0166 17.9299 31.3118C23.3956 29.5493 27.2957 23.882 27.4129 18.1726C27.4222 17.3569 27.3613 16.171 27.1082 15.4772C26.8035 14.8303 25.941 14.6053 25.3316 14.9709C25.0081 15.1772 24.5066 15.6881 24.0659 15.8475C21.0706 17.235 18.4315 14.8866 18.1268 11.9193C17.644 8.88177 19.2659 5.92391 18.4924 2.93324C18.2252 2.03791 17.8362 1.01133 17.0908 0.434762C16.2705 -0.132435 15.047 0.172258 14.5502 1.04883Z" fill="#BB2E80"/>
</g>
<defs>
<clipPath id="clip0_2206_4629">
<rect width="29" height="34" fill="white"/>
</clipPath>
</defs>
</svg>
