<svg width="200" height="200" viewBox="0 0 200 200" fill="none" xmlns="http://www.w3.org/2000/svg">
<path d="M32.5523 178.876C-4.69972 157.368 -4.69972 122.5 32.5523 100.992C69.8043 79.4841 130.204 79.4841 167.452 100.992C204.7 122.5 204.704 157.368 167.452 178.876C130.2 200.384 69.8043 200.4 32.5523 178.876Z" fill="#FAFAFA"/>
<path d="M23.5715 153.776C24.9595 147.176 26.3075 141.972 24.7955 131.908C23.5315 123.46 18.8275 115 11.4555 113.74C5.35947 112.7 5.30747 118.792 9.29947 124.052C13.2915 129.312 20.4995 138.832 19.6995 145.804L19.1995 156.312L23.5715 153.776Z" fill="#1C6758"/>
<path opacity="0.4" d="M23.5715 153.776C24.9595 147.176 26.3075 141.972 24.7955 131.908C23.5315 123.46 18.8275 115 11.4555 113.74C5.35947 112.7 5.30747 118.792 9.29947 124.052C13.2915 129.312 20.4995 138.832 19.6995 145.804L19.1995 156.312L23.5715 153.776Z" fill="white"/>
<path d="M23.4916 153.824C26.3996 134.4 17.4796 121.728 11.9436 117.096C11.8849 117.049 11.8102 117.027 11.7355 117.035C11.6607 117.042 11.5919 117.078 11.5436 117.136C11.5181 117.166 11.4988 117.2 11.4868 117.238C11.4748 117.275 11.4704 117.314 11.4737 117.353C11.4771 117.393 11.4882 117.431 11.5063 117.465C11.5245 117.5 11.5494 117.531 11.5796 117.556C17.0516 122.132 25.6716 134.932 22.8396 154.208L23.4916 153.824Z" fill="white"/>
<path d="M17.1305 157.496C16.6545 155.204 15.8745 149.952 12.7065 145.456C9.19849 140.484 3.79849 136.8 3.35849 133.776C2.82649 130.14 6.15849 128.32 10.9225 130.36C16.6505 132.8 22.0585 141.396 20.4265 155.6L17.1305 157.496Z" fill="#1C6758"/>
<g opacity="0.25">
<path d="M17.1305 157.496C16.6545 155.204 15.8745 149.952 12.7065 145.456C9.19849 140.484 3.79849 136.8 3.35849 133.776C2.82649 130.14 6.15849 128.32 10.9225 130.36C16.6505 132.8 22.0585 141.396 20.4265 155.6L17.1305 157.496Z" fill="white"/>
</g>
<path d="M18.7994 154.932C18.7481 154.907 18.7048 154.869 18.6744 154.821C18.644 154.773 18.6277 154.717 18.6274 154.66C18.7394 141.996 11.6474 134.928 7.88336 132.96C7.81461 132.923 7.76318 132.86 7.74002 132.785C7.71685 132.71 7.72379 132.63 7.75936 132.56C7.77706 132.525 7.80156 132.494 7.83142 132.469C7.86127 132.444 7.89586 132.425 7.93316 132.413C7.97045 132.402 8.00969 132.398 8.04854 132.402C8.08739 132.406 8.12507 132.417 8.15936 132.436C12.3234 134.612 19.3594 141.744 19.2234 154.668C19.2223 154.747 19.1902 154.822 19.1341 154.878C19.0779 154.933 19.0022 154.964 18.9234 154.964C18.8803 154.962 18.8382 154.951 18.7994 154.932Z" fill="white"/>
<path d="M115.829 146.788L149.301 127.452L107.701 103.428L74.2246 122.764L115.829 146.788Z" fill="#E0E0E0"/>
<path d="M156.866 173.024C176.664 173.024 192.714 163.758 192.714 152.328C192.714 140.898 176.664 131.632 156.866 131.632C137.067 131.632 121.018 140.898 121.018 152.328C121.018 163.758 137.067 173.024 156.866 173.024Z" fill="#E0E0E0"/>
<path d="M108.121 148.116L116.245 143.424L78.9488 121.804L17.1328 157.496L56.1288 180.008L64.2528 175.32L85.3728 187.516L130.869 161.248L108.121 148.116Z" fill="#E0E0E0"/>
<path d="M115.402 143.672V121.26L144.518 104.448V126.86L115.402 143.672Z" fill="#1C6758"/>
<path opacity="0.3" d="M115.402 143.672V121.26L144.518 104.448V126.86L115.402 143.672Z" fill="black"/>
<path d="M115.402 121.26L79.0059 100.244V122.66L115.402 143.672V121.26Z" fill="#1C6758"/>
<path opacity="0.55" d="M115.402 121.26L79.0059 100.244V122.66L115.402 143.672V121.26Z" fill="black"/>
<path d="M115.403 121.26L145.379 103.944L108.123 82.4241L78.1426 99.7441L115.403 121.26Z" fill="#1C6758"/>
<path opacity="0.15" d="M115.403 121.26L145.379 103.944L108.123 82.4241L78.1426 99.7441L115.403 121.26Z" fill="black"/>
<path d="M115.402 121.26V126.86L145.378 109.552V103.944L115.402 121.26Z" fill="#1C6758"/>
<path opacity="0.3" d="M115.402 121.26V126.86L145.378 109.552V103.944L115.402 121.26Z" fill="black"/>
<path opacity="0.2" d="M115.402 126.86L144.518 110.052V111.284L115.402 128.096V126.86Z" fill="black"/>
<path d="M78.1426 99.7441L115.403 121.26V126.86L78.1426 105.352V99.7441Z" fill="#1C6758"/>
<path opacity="0.55" d="M78.1426 99.7441L115.403 121.26V126.86L78.1426 105.352V99.7441Z" fill="black"/>
<path opacity="0.2" d="M115.402 126.86L79.0059 105.848V107.08L115.402 128.096V126.86Z" fill="black"/>
<path d="M124.987 124.664L134.935 118.924C135.363 118.676 135.711 118.876 135.711 119.372V125.252C135.696 125.521 135.618 125.783 135.484 126.017C135.349 126.25 135.161 126.449 134.935 126.596L124.987 132.336C124.559 132.584 124.211 132.384 124.211 131.888V126C124.227 125.732 124.305 125.472 124.44 125.24C124.575 125.008 124.762 124.811 124.987 124.664Z" fill="#37474F"/>
<path d="M125.623 125.332L134.295 120.324C134.583 120.16 134.815 120.296 134.815 120.624V125.024C134.806 125.204 134.754 125.379 134.664 125.535C134.573 125.691 134.447 125.823 134.295 125.92L125.623 130.928C125.339 131.092 125.107 130.96 125.107 130.628V126.228C125.117 126.049 125.168 125.874 125.258 125.718C125.348 125.562 125.473 125.43 125.623 125.332Z" fill="#F5F5F5"/>
<g opacity="0.5">
<path d="M125.868 126.496C125.845 126.496 125.823 126.49 125.804 126.479C125.784 126.467 125.768 126.451 125.756 126.432C125.74 126.403 125.736 126.368 125.745 126.336C125.754 126.304 125.775 126.277 125.804 126.26L134 121.532C134.029 121.516 134.064 121.512 134.096 121.521C134.128 121.53 134.155 121.551 134.172 121.58C134.18 121.594 134.186 121.61 134.189 121.626C134.191 121.643 134.19 121.659 134.186 121.675C134.182 121.691 134.175 121.706 134.165 121.72C134.155 121.733 134.142 121.744 134.128 121.752L125.932 126.48C125.912 126.491 125.89 126.496 125.868 126.496Z" fill="#455A64"/>
<path d="M125.868 127.6C125.845 127.6 125.823 127.594 125.804 127.583C125.784 127.571 125.768 127.555 125.756 127.536C125.74 127.507 125.736 127.472 125.745 127.44C125.754 127.408 125.775 127.381 125.804 127.364L134 122.616C134.014 122.608 134.03 122.602 134.047 122.6C134.063 122.598 134.08 122.599 134.096 122.603C134.112 122.608 134.127 122.616 134.14 122.626C134.153 122.636 134.164 122.649 134.172 122.664C134.18 122.678 134.186 122.694 134.189 122.71C134.191 122.727 134.19 122.743 134.186 122.759C134.182 122.775 134.175 122.79 134.165 122.804C134.155 122.817 134.142 122.828 134.128 122.836L125.932 127.56C125.915 127.579 125.893 127.593 125.868 127.6Z" fill="#455A64"/>
<path d="M125.868 128.66C125.845 128.661 125.823 128.655 125.803 128.644C125.783 128.632 125.767 128.616 125.756 128.596C125.74 128.567 125.736 128.532 125.745 128.5C125.754 128.468 125.775 128.441 125.804 128.424L134 123.7C134.014 123.692 134.03 123.686 134.046 123.684C134.062 123.681 134.079 123.682 134.095 123.686C134.111 123.69 134.126 123.698 134.139 123.707C134.152 123.717 134.163 123.73 134.172 123.744C134.18 123.758 134.186 123.774 134.188 123.79C134.19 123.806 134.19 123.823 134.186 123.839C134.181 123.855 134.174 123.87 134.164 123.883C134.154 123.896 134.142 123.908 134.128 123.916L125.94 128.644C125.918 128.656 125.893 128.662 125.868 128.66Z" fill="#455A64"/>
<path d="M125.868 129.744C125.845 129.744 125.823 129.738 125.804 129.727C125.784 129.715 125.768 129.699 125.756 129.68C125.74 129.651 125.736 129.616 125.745 129.584C125.754 129.552 125.775 129.525 125.804 129.508L134 124.8C134.029 124.784 134.064 124.78 134.096 124.789C134.128 124.798 134.155 124.819 134.172 124.848C134.18 124.862 134.186 124.878 134.189 124.894C134.191 124.911 134.19 124.927 134.186 124.943C134.182 124.959 134.175 124.974 134.165 124.988C134.155 125.001 134.142 125.012 134.128 125.02L125.94 129.748C125.916 129.754 125.891 129.752 125.868 129.744Z" fill="#455A64"/>
</g>
<path opacity="0.3" d="M78.9473 99.2801L115.491 120.38L144.667 103.528L108.123 82.4241L78.9473 99.2801Z" fill="black"/>
<path d="M115.49 119.524V97.112L144.606 80.3V102.716L115.49 119.524Z" fill="#1C6758"/>
<path d="M115.49 97.1121L79.0938 76.1001V98.5121L115.49 119.524V97.1121Z" fill="#1C6758"/>
<path opacity="0.15" d="M115.49 97.1121L79.0938 76.1001V98.5121L115.49 119.524V97.1121Z" fill="black"/>
<path d="M115.49 97.112L145.47 79.796L108.21 58.28L78.2305 75.596L115.49 97.112Z" fill="#1C6758"/>
<path opacity="0.2" d="M115.49 97.112L145.47 79.796L108.21 58.28L78.2305 75.596L115.49 97.112Z" fill="white"/>
<path d="M115.49 97.1121V102.716L145.47 85.4081V79.7961L115.49 97.1121Z" fill="#1C6758"/>
<path opacity="0.2" d="M115.49 102.716L144.606 85.9041V87.1361L115.49 103.948V102.716Z" fill="black"/>
<path d="M78.2305 75.5959L115.49 97.1119V102.716L78.2305 81.2039V75.5959Z" fill="#1C6758"/>
<path opacity="0.2" d="M78.2305 75.5959L115.49 97.1119V102.716L78.2305 81.2039V75.5959Z" fill="black"/>
<path opacity="0.2" d="M115.49 102.716L79.0938 81.7V82.9359L115.49 103.948V102.716Z" fill="black"/>
<path d="M125.075 100.52L135.023 94.7761C135.451 94.5281 135.799 94.7281 135.799 95.2241V101.104C135.784 101.373 135.706 101.635 135.571 101.869C135.437 102.102 135.249 102.301 135.023 102.448L125.075 108.192C124.647 108.44 124.299 108.236 124.299 107.744V101.864C124.313 101.595 124.39 101.332 124.525 101.099C124.66 100.865 124.849 100.667 125.075 100.52Z" fill="#455A64"/>
<path d="M125.711 101.2L134.399 96.1801C134.687 96.0121 134.919 96.1481 134.919 96.4761V100.876C134.91 101.056 134.858 101.231 134.767 101.387C134.677 101.543 134.551 101.675 134.399 101.772L125.711 106.8C125.427 106.964 125.195 106.832 125.195 106.5V102.1C125.205 101.92 125.256 101.745 125.346 101.588C125.435 101.432 125.561 101.299 125.711 101.2Z" fill="#F5F5F5"/>
<g opacity="0.5">
<path d="M125.955 102.348C125.933 102.348 125.911 102.343 125.893 102.333C125.874 102.322 125.858 102.307 125.847 102.288C125.838 102.274 125.832 102.258 125.83 102.241C125.827 102.224 125.828 102.207 125.832 102.191C125.836 102.175 125.843 102.159 125.853 102.146C125.863 102.132 125.876 102.121 125.891 102.112L134.079 97.3881C134.107 97.3712 134.141 97.3663 134.174 97.3745C134.206 97.3828 134.234 97.4035 134.251 97.4321C134.267 97.4608 134.272 97.495 134.264 97.5273C134.256 97.5595 134.235 97.5872 134.207 97.6041L126.019 102.332C125.999 102.343 125.977 102.348 125.955 102.348Z" fill="#455A64"/>
<path d="M125.954 103.432C125.932 103.432 125.911 103.425 125.892 103.414C125.873 103.403 125.857 103.387 125.846 103.368C125.838 103.354 125.832 103.338 125.829 103.322C125.827 103.305 125.828 103.289 125.832 103.273C125.836 103.257 125.843 103.242 125.853 103.229C125.863 103.215 125.876 103.204 125.89 103.196L134.078 98.4681C134.108 98.4521 134.142 98.4481 134.174 98.4571C134.206 98.4661 134.233 98.4872 134.25 98.5161C134.259 98.5302 134.265 98.5459 134.267 98.5622C134.269 98.5786 134.269 98.5953 134.264 98.6113C134.26 98.6274 134.253 98.6424 134.243 98.6556C134.233 98.6688 134.221 98.6798 134.206 98.6881L126.018 103.416C125.999 103.427 125.977 103.432 125.954 103.432Z" fill="#455A64"/>
<path d="M125.954 104.516C125.932 104.516 125.911 104.509 125.892 104.498C125.873 104.487 125.857 104.471 125.846 104.452C125.838 104.438 125.832 104.422 125.829 104.406C125.827 104.389 125.828 104.373 125.832 104.357C125.836 104.341 125.843 104.326 125.853 104.313C125.863 104.299 125.876 104.288 125.89 104.28L134.078 99.552C134.093 99.5436 134.109 99.5381 134.125 99.536C134.142 99.5338 134.158 99.535 134.174 99.5395C134.191 99.544 134.205 99.5516 134.219 99.562C134.232 99.5724 134.242 99.5854 134.25 99.6C134.259 99.6142 134.265 99.6299 134.267 99.6462C134.269 99.6626 134.269 99.6793 134.264 99.6953C134.26 99.7113 134.253 99.7264 134.243 99.7396C134.233 99.7527 134.221 99.7638 134.206 99.772L126.018 104.496C125.999 104.508 125.977 104.515 125.954 104.516Z" fill="#455A64"/>
<path d="M125.954 105.6C125.932 105.6 125.91 105.595 125.891 105.583C125.872 105.572 125.857 105.556 125.846 105.536C125.838 105.522 125.832 105.506 125.829 105.49C125.827 105.474 125.828 105.457 125.832 105.441C125.836 105.425 125.843 105.41 125.853 105.397C125.863 105.383 125.876 105.372 125.89 105.364L134.078 100.64C134.092 100.632 134.108 100.626 134.124 100.624C134.141 100.621 134.157 100.622 134.173 100.626C134.189 100.631 134.204 100.638 134.218 100.648C134.231 100.658 134.242 100.67 134.25 100.684C134.259 100.698 134.264 100.714 134.267 100.73C134.269 100.747 134.268 100.763 134.264 100.779C134.26 100.795 134.253 100.81 134.243 100.823C134.233 100.837 134.22 100.848 134.206 100.856L126.018 105.6C125.997 105.606 125.975 105.606 125.954 105.6Z" fill="#455A64"/>
</g>
<path d="M58.0528 175.64L22.8008 155.288V53.6919L58.0528 74.0439V175.64Z" fill="#263238"/>
<path d="M58.0527 74.044L106.265 46.208V147.804L58.0527 175.64V74.044Z" fill="#37474F"/>
<path d="M106.265 46.208L58.0528 74.044L22.8008 53.692L71.0128 25.856L106.265 46.208Z" fill="#455A64"/>
<path d="M62.3086 143.828L102.005 120.908V144.58L62.3086 167.5V143.828Z" fill="#263238"/>
<path d="M119.037 134.404L100.137 123.5V144.356L119.037 155.264V134.404Z" fill="#37474F"/>
<g opacity="0.1">
<path d="M119.037 134.404L100.137 123.5V144.356L119.037 155.264V134.404Z" fill="black"/>
</g>
<path d="M101.457 122.732L100.137 123.496L119.037 134.404L120.361 133.644L101.457 122.732Z" fill="#455A64"/>
<path d="M102.184 127.468C102.192 127.383 102.179 127.298 102.144 127.22C102.11 127.143 102.056 127.075 101.988 127.024C101.974 127.011 101.958 127 101.94 126.992L100.92 126.4C100.84 126.364 100.752 126.35 100.665 126.359C100.578 126.368 100.495 126.4 100.424 126.452L81.3763 137.424L81.0683 136.376C81.023 136.21 80.9174 136.068 80.7723 135.976L79.7083 135.36C79.6105 135.301 79.4985 135.27 79.3843 135.27C79.2701 135.27 79.1581 135.301 79.0603 135.36L70.4003 140.4C70.1955 140.531 70.0239 140.707 69.899 140.915C69.774 141.123 69.6992 141.358 69.6803 141.6V166.8C69.6717 166.884 69.6849 166.969 69.7185 167.047C69.7521 167.125 69.805 167.193 69.8723 167.244L70.9643 167.88C71.0429 167.911 71.1281 167.922 71.2119 167.911C71.2958 167.901 71.3757 167.869 71.4443 167.82L101.492 150.484C101.698 150.35 101.868 150.169 101.991 149.956C102.113 149.744 102.183 149.505 102.196 149.26L102.184 127.468Z" fill="#1C6758"/>
<path d="M102.185 127.468V149.296C102.172 149.541 102.101 149.779 101.978 149.991C101.855 150.203 101.683 150.383 101.477 150.516L71.3614 167.9C71.2992 167.942 71.2264 167.966 71.1512 167.969C71.076 167.972 71.0016 167.953 70.9364 167.916C70.8713 167.878 70.8181 167.823 70.7828 167.757C70.7476 167.69 70.7319 167.615 70.7374 167.54V142.232C70.7463 141.986 70.8179 141.746 70.9454 141.536C71.0654 141.323 71.2357 141.143 71.4414 141.012L80.1214 136C80.2153 135.941 80.3229 135.907 80.4337 135.902C80.5445 135.898 80.6547 135.921 80.7534 135.972H80.7734C80.8461 136.016 80.9093 136.074 80.9594 136.143C81.0095 136.211 81.0455 136.289 81.0654 136.372L81.3774 137.424L81.4734 137.68C81.6014 138.112 82.3054 138.112 82.6974 137.888L101.497 127.064C101.563 127.017 101.639 126.987 101.719 126.975C101.799 126.963 101.881 126.97 101.957 126.996H101.989C102.062 127.049 102.118 127.122 102.153 127.205C102.187 127.288 102.199 127.379 102.185 127.468Z" fill="#1C6758"/>
<path opacity="0.15" d="M102.185 127.468V149.296C102.172 149.541 102.101 149.779 101.978 149.991C101.855 150.203 101.683 150.383 101.477 150.516L71.3614 167.9C71.2992 167.942 71.2264 167.966 71.1512 167.969C71.076 167.972 71.0016 167.953 70.9364 167.916C70.8713 167.878 70.8181 167.823 70.7828 167.757C70.7476 167.69 70.7319 167.615 70.7374 167.54V142.232C70.7463 141.986 70.8179 141.746 70.9454 141.536C71.0654 141.323 71.2357 141.143 71.4414 141.012L80.1214 136C80.2153 135.941 80.3229 135.907 80.4337 135.902C80.5445 135.898 80.6547 135.921 80.7534 135.972H80.7734C80.8461 136.016 80.9093 136.074 80.9594 136.143C81.0095 136.211 81.0455 136.289 81.0654 136.372L81.3774 137.424L81.4734 137.68C81.6014 138.112 82.3054 138.112 82.6974 137.888L101.497 127.064C101.563 127.017 101.639 126.987 101.719 126.975C101.799 126.963 101.881 126.97 101.957 126.996H101.989C102.062 127.049 102.118 127.122 102.153 127.205C102.187 127.288 102.199 127.379 102.185 127.468Z" fill="black"/>
<path opacity="0.35" d="M70.9922 167.924H70.9642L69.8722 167.292C69.8049 167.239 69.752 167.17 69.7185 167.091C69.6849 167.012 69.6718 166.925 69.6802 166.84V141.6C69.6891 141.354 69.7607 141.115 69.8882 140.904L70.9442 141.52C70.8178 141.729 70.7475 141.968 70.7402 142.212V167.52C70.7334 167.605 70.7542 167.691 70.7996 167.764C70.8449 167.836 70.9125 167.893 70.9922 167.924Z" fill="black"/>
<path d="M105.601 129.452C105.609 129.367 105.595 129.281 105.561 129.202C105.527 129.124 105.473 129.056 105.405 129.004C105.391 128.992 105.374 128.982 105.357 128.976L104.321 128.4C104.241 128.364 104.153 128.35 104.066 128.359C103.979 128.368 103.895 128.4 103.825 128.452L84.7806 139.428L84.4686 138.376C84.4255 138.209 84.3194 138.066 84.1726 137.976L83.1126 137.36C83.0129 137.305 82.9 137.277 82.7859 137.281C82.6718 137.284 82.5608 137.318 82.4646 137.38L73.7846 142.388C73.5809 142.521 73.4111 142.7 73.2889 142.911C73.1666 143.121 73.0953 143.357 73.0806 143.6V168.8C73.0721 168.885 73.0853 168.97 73.1189 169.049C73.1525 169.127 73.2054 169.196 73.2726 169.248L74.3646 169.88C74.4429 169.912 74.5279 169.924 74.6118 169.914C74.6958 169.904 74.7759 169.873 74.8446 169.824L104.893 152.484C105.097 152.35 105.268 152.17 105.39 151.958C105.512 151.746 105.583 151.508 105.597 151.264L105.601 129.452Z" fill="#1C6758"/>
<path opacity="0.15" d="M84.1531 137.952C84.0543 137.902 83.9442 137.878 83.8334 137.883C83.7226 137.887 83.615 137.921 83.5211 137.98L74.8451 142.992C74.6372 143.124 74.4654 143.305 74.3451 143.52L73.2891 142.904C73.4055 142.688 73.5765 142.506 73.7851 142.376L82.4651 137.364C82.5626 137.306 82.6738 137.276 82.7871 137.276C82.9004 137.276 83.0116 137.306 83.1091 137.364L84.1531 137.952Z" fill="white"/>
<path opacity="0.15" d="M105.34 128.976C105.262 128.951 105.18 128.944 105.1 128.956C105.019 128.968 104.943 128.998 104.876 129.044L86.0758 139.868C85.6758 140.096 84.9838 140.096 84.8518 139.66L84.7598 139.404L103.804 128.428C103.898 128.37 104.005 128.337 104.116 128.332C104.18 128.331 104.244 128.347 104.3 128.38L105.34 128.976Z" fill="white"/>
<path d="M105.6 129.452V151.276C105.587 151.521 105.516 151.76 105.393 151.973C105.27 152.186 105.098 152.366 104.892 152.5L74.7598 169.884C74.6977 169.926 74.6248 169.95 74.5496 169.953C74.4745 169.956 74.4 169.937 74.3349 169.9C74.2697 169.862 74.2165 169.807 74.1813 169.74C74.1461 169.674 74.1303 169.599 74.1358 169.524V144.212C74.1447 143.967 74.2163 143.729 74.3438 143.52C74.4638 143.306 74.6341 143.125 74.8398 142.992L83.5198 138C83.6131 137.94 83.7206 137.905 83.8316 137.899C83.9425 137.894 84.053 137.917 84.1518 137.968H84.1718C84.318 138.058 84.4229 138.201 84.4638 138.368L84.7798 139.416L84.8718 139.676C85.0038 140.108 85.7038 140.108 86.0958 139.884L104.896 129.056C104.962 129.01 105.038 128.98 105.118 128.969C105.198 128.957 105.279 128.963 105.356 128.988H105.388C105.461 129.04 105.519 129.11 105.556 129.192C105.593 129.273 105.608 129.363 105.6 129.452Z" fill="#1C6758"/>
<path opacity="0.2" d="M74.4005 169.904C74.4005 169.904 74.3765 169.904 74.3685 169.904L73.2765 169.272C73.2093 169.22 73.1564 169.151 73.1228 169.073C73.0892 168.994 73.076 168.909 73.0845 168.824V143.6C73.0929 143.355 73.1645 143.117 73.2925 142.908L74.3485 143.524C74.2221 143.735 74.1519 143.974 74.1445 144.22V169.52C74.1423 169.603 74.1657 169.684 74.2116 169.753C74.2574 169.821 74.3234 169.874 74.4005 169.904Z" fill="black"/>
<path d="M108.985 131.432C108.992 131.347 108.979 131.262 108.945 131.184C108.912 131.106 108.859 131.037 108.793 130.984L108.741 130.956L107.721 130.36C107.641 130.324 107.553 130.31 107.466 130.319C107.379 130.328 107.296 130.36 107.225 130.412L88.1811 141.384L87.8691 140.336C87.8238 140.17 87.7182 140.028 87.5731 139.936L86.5131 139.32C86.4152 139.261 86.3032 139.23 86.1891 139.23C86.0749 139.23 85.9629 139.261 85.8651 139.32L77.2011 144.356C76.9901 144.49 76.8146 144.674 76.6892 144.89C76.5639 145.107 76.4925 145.35 76.4811 145.6V170.8C76.4725 170.884 76.4856 170.969 76.5193 171.047C76.5529 171.125 76.6058 171.193 76.6731 171.244L77.7651 171.88C77.8437 171.911 77.9288 171.922 78.0127 171.911C78.0966 171.901 78.1765 171.869 78.2451 171.82L108.293 154.484C108.498 154.35 108.669 154.169 108.791 153.956C108.914 153.744 108.984 153.505 108.997 153.26L108.985 131.432Z" fill="#1C6758"/>
<path opacity="0.3" d="M87.5535 139.936C87.4553 139.884 87.3448 139.858 87.2336 139.863C87.1224 139.868 87.0146 139.903 86.9215 139.964L78.2455 144.972C78.0393 145.106 77.868 145.287 77.7455 145.5L76.6895 144.884C76.8085 144.668 76.9806 144.487 77.1895 144.356L85.8655 139.348C85.9627 139.289 86.074 139.259 86.1875 139.259C86.3009 139.259 86.4123 139.289 86.5095 139.348L87.5535 139.936Z" fill="white"/>
<path opacity="0.3" d="M108.74 130.956C108.663 130.931 108.581 130.924 108.5 130.936C108.42 130.948 108.343 130.978 108.276 131.024L89.4762 141.852C89.0762 142.076 88.3842 142.076 88.2522 141.644L88.1602 141.384L107.22 130.4C107.314 130.343 107.422 130.311 107.532 130.308C107.596 130.308 107.659 130.323 107.716 130.352L108.74 130.956Z" fill="white"/>
<path d="M108.984 131.432V153.26C108.971 153.505 108.9 153.743 108.777 153.955C108.654 154.167 108.482 154.347 108.276 154.48L78.1602 171.864C78.098 171.906 78.0252 171.93 77.95 171.933C77.8749 171.936 77.8004 171.917 77.7353 171.88C77.6701 171.842 77.6169 171.787 77.5817 171.72C77.5465 171.654 77.5307 171.579 77.5362 171.504V146.196C77.5451 145.95 77.6167 145.71 77.7442 145.5C77.8654 145.288 78.0354 145.108 78.2402 144.976L86.9202 139.964C87.0149 139.905 87.1231 139.871 87.2346 139.866C87.346 139.861 87.4568 139.885 87.5562 139.936C87.6289 139.98 87.6921 140.038 87.7422 140.107C87.7923 140.175 87.8284 140.253 87.8482 140.336L88.1642 141.388L88.2562 141.644C88.3882 142.076 89.0882 142.076 89.4802 141.852L108.28 131.028C108.347 130.981 108.424 130.95 108.504 130.939C108.585 130.927 108.667 130.934 108.744 130.96H108.772C108.847 131.012 108.906 131.083 108.943 131.167C108.981 131.25 108.995 131.341 108.984 131.432Z" fill="#1C6758"/>
<path opacity="0.15" d="M108.984 131.432V153.26C108.971 153.505 108.9 153.743 108.777 153.955C108.654 154.167 108.482 154.347 108.276 154.48L78.1602 171.864C78.098 171.906 78.0252 171.93 77.95 171.933C77.8749 171.936 77.8004 171.917 77.7353 171.88C77.6701 171.842 77.6169 171.787 77.5817 171.72C77.5465 171.654 77.5307 171.579 77.5362 171.504V146.196C77.5451 145.95 77.6167 145.71 77.7442 145.5C77.8654 145.288 78.0354 145.108 78.2402 144.976L86.9202 139.964C87.0149 139.905 87.1231 139.871 87.2346 139.866C87.346 139.861 87.4568 139.885 87.5562 139.936C87.6289 139.98 87.6921 140.038 87.7422 140.107C87.7923 140.175 87.8284 140.253 87.8482 140.336L88.1642 141.388L88.2562 141.644C88.3882 142.076 89.0882 142.076 89.4802 141.852L108.28 131.028C108.347 130.981 108.424 130.95 108.504 130.939C108.585 130.927 108.667 130.934 108.744 130.96H108.772C108.847 131.012 108.906 131.083 108.943 131.167C108.981 131.25 108.995 131.341 108.984 131.432Z" fill="white"/>
<path opacity="0.05" d="M77.797 171.888H77.765L76.673 171.256C76.6057 171.203 76.5528 171.134 76.5193 171.055C76.4857 170.976 76.4726 170.889 76.481 170.804V145.6C76.4899 145.354 76.5615 145.115 76.689 144.904L77.745 145.52C77.6181 145.729 77.5477 145.968 77.541 146.212V171.52C77.542 171.6 77.567 171.678 77.6126 171.743C77.6582 171.809 77.7225 171.859 77.797 171.888Z" fill="black"/>
<path d="M112.401 133.416C112.409 133.331 112.396 133.246 112.362 133.167C112.329 133.089 112.276 133.02 112.209 132.968C112.193 132.956 112.176 132.947 112.157 132.94L111.137 132.344C111.057 132.308 110.969 132.294 110.882 132.303C110.795 132.312 110.712 132.344 110.641 132.396L91.597 143.372L91.285 142.32C91.242 142.153 91.1358 142.01 90.989 141.92L89.929 141.304C89.8293 141.248 89.7164 141.221 89.6023 141.224C89.4882 141.228 89.3772 141.262 89.281 141.324L80.605 146.332C80.4017 146.463 80.2317 146.64 80.1088 146.848C79.9859 147.056 79.9134 147.291 79.897 147.532V172.732C79.8885 172.817 79.9017 172.902 79.9353 172.981C79.9689 173.059 80.0218 173.128 80.089 173.18L81.181 173.812C81.2594 173.843 81.3443 173.854 81.4281 173.845C81.5119 173.835 81.592 173.804 81.661 173.756L111.709 156.416C111.911 156.284 112.08 156.107 112.202 155.899C112.324 155.69 112.397 155.457 112.413 155.216L112.401 133.416Z" fill="#1C6758"/>
<path opacity="0.5" d="M90.9559 141.916C90.8571 141.866 90.747 141.842 90.6362 141.847C90.5254 141.851 90.4178 141.885 90.3239 141.944L81.6439 146.956C81.436 147.088 81.2642 147.269 81.1439 147.484L80.0879 146.868C80.2047 146.651 80.3773 146.469 80.5879 146.34L89.2639 141.328C89.3621 141.27 89.474 141.24 89.5879 141.24C89.7018 141.24 89.8137 141.27 89.9119 141.328L90.9559 141.916Z" fill="white"/>
<path opacity="0.5" d="M112.141 132.94C112.063 132.915 111.981 132.908 111.901 132.92C111.82 132.932 111.744 132.962 111.677 133.008L92.8766 143.832C92.4766 144.056 91.7846 144.06 91.6526 143.624L91.5605 143.368L110.621 132.4C110.715 132.342 110.822 132.309 110.933 132.304C110.997 132.303 111.061 132.319 111.117 132.352L112.141 132.94Z" fill="white"/>
<path d="M112.401 133.416V155.24C112.388 155.485 112.317 155.724 112.194 155.937C112.071 156.15 111.899 156.33 111.693 156.464L81.5688 173.848C81.5063 173.891 81.433 173.915 81.3575 173.917C81.2819 173.92 81.2071 173.901 81.1418 173.863C81.0765 173.825 81.0233 173.769 80.9884 173.702C80.9536 173.635 80.9384 173.559 80.9448 173.484V148.176C80.9521 147.932 81.0223 147.693 81.1488 147.484C81.2701 147.27 81.4417 147.089 81.6488 146.956L90.3248 141.948C90.4188 141.888 90.5269 141.853 90.6385 141.847C90.7501 141.842 90.8612 141.865 90.9608 141.916C91.107 142.006 91.2129 142.15 91.2568 142.316L91.5688 143.364L91.6608 143.624C91.7928 144.056 92.4928 144.056 92.8848 143.832L111.685 133.004C111.752 132.958 111.828 132.928 111.909 132.916C111.989 132.904 112.071 132.911 112.149 132.936H112.177C112.254 132.988 112.316 133.06 112.356 133.145C112.395 133.229 112.411 133.323 112.401 133.416Z" fill="#1C6758"/>
<path opacity="0.3" d="M112.401 133.416V155.24C112.388 155.485 112.317 155.724 112.194 155.937C112.071 156.15 111.899 156.33 111.693 156.464L81.5688 173.848C81.5063 173.891 81.433 173.915 81.3575 173.917C81.2819 173.92 81.2071 173.901 81.1418 173.863C81.0765 173.825 81.0233 173.769 80.9884 173.702C80.9536 173.635 80.9384 173.559 80.9448 173.484V148.176C80.9521 147.932 81.0223 147.693 81.1488 147.484C81.2701 147.27 81.4417 147.089 81.6488 146.956L90.3248 141.948C90.4188 141.888 90.5269 141.853 90.6385 141.847C90.7501 141.842 90.8612 141.865 90.9608 141.916C91.107 142.006 91.2129 142.15 91.2568 142.316L91.5688 143.364L91.6608 143.624C91.7928 144.056 92.4928 144.056 92.8848 143.832L111.685 133.004C111.752 132.958 111.828 132.928 111.909 132.916C111.989 132.904 112.071 132.911 112.149 132.936H112.177C112.254 132.988 112.316 133.06 112.356 133.145C112.395 133.229 112.411 133.323 112.401 133.416Z" fill="white"/>
<path d="M81.9919 155.792L63.0879 144.888V165.744L81.9879 176.652L81.9919 155.792Z" fill="#37474F"/>
<path d="M64.4119 144.124L63.0879 144.884L81.9919 155.792L83.3119 155.032L64.4119 144.124Z" fill="#455A64"/>
<path d="M82.6172 154.752L122.313 131.832V155.508L82.6172 178.424V154.752Z" fill="#455A64"/>
<path d="M82.6173 154.752L80.6133 153.592V177.268L82.6173 178.424V154.752Z" fill="#263238"/>
<path d="M80.6133 153.592L120.309 130.672L122.313 131.832L82.6173 154.752L80.6133 153.592Z" fill="#37474F"/>
<path d="M109.393 145.392L107.997 144.592C107.931 144.558 107.856 144.544 107.782 144.55C107.708 144.556 107.637 144.583 107.577 144.628C107.406 144.738 107.263 144.888 107.162 145.065C107.06 145.242 107.002 145.44 106.993 145.644C106.98 145.72 106.989 145.798 107.02 145.869C107.05 145.94 107.101 146.001 107.165 146.044L108.565 146.844C108.761 146.956 108.813 147.056 108.817 147.072C108.821 147.088 108.745 147.248 108.453 147.416L101.945 151.176C101.537 151.386 101.087 151.501 100.628 151.512C100.17 151.523 99.7145 151.43 99.297 151.24L97.905 150.44C97.8404 150.411 97.7693 150.4 97.699 150.408C97.6288 150.416 97.5618 150.442 97.505 150.484C97.3344 150.595 97.1923 150.746 97.0902 150.922C96.9881 151.098 96.9287 151.296 96.917 151.5C96.9082 151.572 96.9193 151.645 96.9489 151.711C96.9785 151.777 97.0255 151.834 97.085 151.876L98.481 152.676C99.1119 153.012 99.8185 153.18 100.533 153.164C101.318 153.175 102.094 152.985 102.785 152.612L109.297 148.852C109.638 148.69 109.929 148.439 110.14 148.126C110.351 147.813 110.474 147.449 110.497 147.072C110.482 146.718 110.372 146.375 110.177 146.079C109.983 145.783 109.712 145.546 109.393 145.392Z" fill="#263238"/>
<path d="M85.2918 155.028L92.8478 150.664C93.0998 150.52 93.2998 150.636 93.2998 150.924V154.768C93.2918 154.924 93.2466 155.077 93.168 155.212C93.0894 155.348 92.9797 155.463 92.8478 155.548L85.2918 159.912C85.0438 160.056 84.8398 159.94 84.8398 159.652V155.808C84.8489 155.652 84.8945 155.5 84.973 155.364C85.0515 155.229 85.1607 155.113 85.2918 155.028Z" fill="#FAFAFA"/>
<path d="M85.3203 159.344V155.808C85.3285 155.735 85.3515 155.665 85.388 155.602C85.4245 155.539 85.4736 155.483 85.5323 155.44L92.8243 151.232V154.768C92.8152 154.84 92.7918 154.91 92.7554 154.973C92.719 155.037 92.6704 155.092 92.6123 155.136L85.3203 159.344ZM92.7363 151.38L85.5763 155.516C85.4842 155.588 85.4228 155.692 85.4043 155.808V159.2L92.5683 155.064C92.6595 154.992 92.7196 154.887 92.7363 154.772V151.38Z" fill="#1C6758"/>
<path d="M86.2514 156.624C86.2206 156.624 86.1903 156.616 86.1637 156.6C86.137 156.585 86.1148 156.563 86.0994 156.536C86.088 156.516 86.0806 156.494 86.0776 156.472C86.0747 156.449 86.0762 156.426 86.0822 156.405C86.0881 156.383 86.0984 156.362 86.1123 156.344C86.1263 156.326 86.1436 156.311 86.1634 156.3L91.8034 153.044C91.8432 153.021 91.8904 153.015 91.9347 153.027C91.9789 153.039 92.0166 153.068 92.0394 153.108C92.0622 153.148 92.0683 153.195 92.0563 153.239C92.0443 153.283 92.0152 153.321 91.9754 153.344L86.3354 156.6C86.3103 156.616 86.2811 156.624 86.2514 156.624Z" fill="#E0E0E0"/>
<path d="M86.2517 157.556C86.2212 157.557 86.191 157.549 86.1643 157.534C86.1376 157.52 86.1153 157.498 86.0997 157.472C86.0764 157.431 86.0701 157.384 86.0821 157.339C86.0941 157.294 86.1234 157.255 86.1637 157.232L91.8037 153.976C91.8435 153.953 91.8907 153.947 91.9349 153.959C91.9792 153.971 92.0169 154 92.0397 154.04C92.0625 154.08 92.0686 154.127 92.0566 154.171C92.0446 154.215 92.0155 154.253 91.9757 154.276L86.3357 157.532C86.3105 157.548 86.2814 157.556 86.2517 157.556Z" fill="#E0E0E0"/>
<path d="M64.2852 114.86L103.985 91.9399L103.981 115.616L64.2852 138.536V114.86Z" fill="#455A64"/>
<path d="M64.2853 114.86L62.2812 113.704V137.38L64.2853 138.536V114.86Z" fill="#263238"/>
<path d="M62.2812 113.704L101.977 90.7839L103.985 91.9399L64.2853 114.86L62.2812 113.704Z" fill="#37474F"/>
<path d="M62.2812 113.704L67.2013 110.772L72.1372 107.864C75.4292 105.924 78.7413 104.02 82.0413 102.096L92.0013 96.3999C95.3253 94.5159 98.6413 92.6199 102.001 90.7639L104.001 91.9639L101.961 90.7999H102.001C98.7253 92.7639 95.4253 94.6879 92.1333 96.6239L82.2172 102.4C78.9012 104.296 75.5973 106.212 72.2693 108.092L67.2853 110.916L62.2812 113.704Z" fill="#263238"/>
<path d="M91.0651 105.504L89.6691 104.704C89.6022 104.669 89.5269 104.654 89.4519 104.661C89.3769 104.667 89.3052 104.695 89.2451 104.74C89.0746 104.85 88.9328 105 88.8313 105.176C88.7298 105.352 88.6714 105.549 88.6611 105.752C88.6485 105.828 88.6584 105.907 88.6896 105.978C88.7209 106.049 88.7721 106.11 88.8371 106.152L90.2371 106.952C90.4331 107.064 90.4851 107.16 90.4891 107.18C90.4931 107.2 90.4171 107.356 90.1251 107.524L83.6011 111.268C83.1938 111.479 82.7437 111.595 82.2849 111.607C81.8261 111.619 81.3707 111.526 80.9531 111.336L79.5571 110.536C79.4925 110.507 79.4214 110.496 79.3512 110.504C79.2809 110.512 79.2139 110.538 79.1571 110.58C78.9859 110.691 78.8436 110.84 78.742 111.017C78.6404 111.194 78.5825 111.392 78.5731 111.596C78.5647 111.667 78.5755 111.739 78.6043 111.804C78.6331 111.87 78.679 111.926 78.7371 111.968L80.1291 112.768C80.7611 113.105 81.469 113.274 82.1851 113.26C82.9711 113.271 83.7467 113.08 84.4371 112.704L90.9451 108.948C91.2852 108.785 91.5756 108.534 91.7865 108.221C91.9974 107.908 92.1212 107.544 92.1451 107.168C92.1298 106.819 92.0216 106.481 91.8317 106.189C91.6418 105.896 91.3771 105.66 91.0651 105.504Z" fill="#263238"/>
<path d="M66.9617 115.14L74.5217 110.776C74.7697 110.632 74.9737 110.748 74.9737 111.036V114.88C74.9647 115.036 74.9191 115.188 74.8406 115.324C74.762 115.459 74.6528 115.574 74.5217 115.66L66.9617 120.024C66.7137 120.168 66.5137 120.052 66.5137 119.764V115.92C66.5219 115.764 66.5668 115.612 66.6446 115.476C66.7224 115.341 66.831 115.226 66.9617 115.14Z" fill="#FAFAFA"/>
<path d="M66.9902 119.456V115.92C66.9993 115.847 67.0227 115.778 67.0591 115.714C67.0955 115.651 67.1442 115.596 67.2022 115.552L74.4942 111.34V114.88C74.4852 114.952 74.4617 115.022 74.4253 115.085C74.3889 115.148 74.3403 115.204 74.2822 115.248L66.9902 119.456ZM74.4022 111.492L67.2382 115.628C67.147 115.7 67.0869 115.805 67.0702 115.92V119.308L74.2302 115.172C74.3223 115.1 74.3838 114.995 74.4022 114.88V111.492Z" fill="#1C6758"/>
<path d="M67.9209 116.732C67.8904 116.732 67.8604 116.725 67.8338 116.71C67.8071 116.695 67.7848 116.674 67.7689 116.648C67.7476 116.607 67.7424 116.56 67.7543 116.515C67.7661 116.471 67.7941 116.433 67.8329 116.408L73.4729 113.152C73.5129 113.132 73.5591 113.128 73.6019 113.141C73.6447 113.154 73.681 113.183 73.7034 113.221C73.7258 113.26 73.7326 113.306 73.7225 113.349C73.7124 113.393 73.686 113.431 73.6489 113.456L68.0009 116.712C67.9762 116.725 67.9487 116.732 67.9209 116.732Z" fill="#E0E0E0"/>
<path d="M67.922 117.668C67.883 117.67 67.8445 117.658 67.8129 117.635C67.7813 117.612 67.7585 117.579 67.7482 117.541C67.738 117.503 67.7409 117.463 67.7565 117.428C67.7721 117.392 67.7994 117.362 67.834 117.344L73.474 114.088C73.5144 114.065 73.5623 114.058 73.6072 114.07C73.6522 114.082 73.6906 114.112 73.714 114.152C73.736 114.192 73.7416 114.239 73.7297 114.283C73.7178 114.327 73.6892 114.365 73.65 114.388L68.002 117.644C67.9776 117.658 67.9502 117.666 67.922 117.668Z" fill="#E0E0E0"/>
<path d="M64.2852 84.568L103.985 61.6479L103.981 85.3239L64.2852 108.244V84.568Z" fill="#455A64"/>
<path d="M64.2853 84.5679L62.2812 83.4119V107.088L64.2853 108.244V84.5679Z" fill="#263238"/>
<path d="M62.2812 83.4119L101.977 60.4919L103.985 61.6479L64.2853 84.5679L62.2812 83.4119Z" fill="#37474F"/>
<path d="M62.2812 83.412L67.2013 80.48L72.1372 77.572C75.4292 75.632 78.7413 73.728 82.0413 71.804L92.0013 66.096C95.3253 64.212 98.6413 62.316 102.001 60.46L104.001 61.66L101.977 60.536H102.001C98.7253 62.504 95.4253 64.424 92.1333 66.364L82.2213 72.112C78.9053 74.008 75.6012 75.924 72.2732 77.804L67.2893 80.628L62.2812 83.412Z" fill="#263238"/>
<path d="M91.0651 75.2L89.6691 74.4C89.6022 74.3655 89.5269 74.3505 89.4519 74.3569C89.3769 74.3633 89.3052 74.3907 89.2451 74.436C89.0746 74.5464 88.9328 74.6958 88.8313 74.8717C88.7298 75.0476 88.6714 75.2451 88.6611 75.448C88.6485 75.5245 88.6584 75.6031 88.6896 75.6741C88.7209 75.7451 88.7721 75.8055 88.8371 75.848L90.2371 76.648C90.4331 76.76 90.4851 76.856 90.4891 76.876C90.4931 76.896 90.4171 77.052 90.1251 77.22L83.6011 80.976C83.1938 81.1875 82.7437 81.3035 82.2849 81.3153C81.8261 81.3271 81.3707 81.2343 80.9531 81.044L79.5571 80.244C79.4925 80.2153 79.4214 80.2043 79.3512 80.212C79.2809 80.2197 79.2139 80.2459 79.1571 80.288C78.9859 80.3986 78.8436 80.5485 78.742 80.7252C78.6404 80.9019 78.5825 81.1003 78.5731 81.304C78.5647 81.375 78.5755 81.4469 78.6043 81.5124C78.6331 81.5778 78.679 81.6343 78.7371 81.676L80.1291 82.476C80.7611 82.8129 81.469 82.9823 82.1851 82.968C82.9711 82.9793 83.7467 82.7878 84.4371 82.412L90.9451 78.656C91.2852 78.4926 91.5756 78.2416 91.7865 77.9287C91.9974 77.6159 92.1212 77.2525 92.1451 76.876C92.1319 76.5254 92.0247 76.1849 91.8347 75.89C91.6447 75.5952 91.3789 75.3568 91.0651 75.2Z" fill="#263238"/>
<path d="M66.9617 84.688L74.5217 80.324C74.7697 80.18 74.9737 80.296 74.9737 80.584V84.428C74.9678 84.5878 74.9236 84.7438 74.845 84.883C74.7664 85.0222 74.6555 85.1405 74.5217 85.228L66.9617 89.592C66.7137 89.736 66.5137 89.62 66.5137 89.332V85.488C66.5188 85.3286 66.5622 85.1726 66.6401 85.0334C66.7181 84.8942 66.8284 84.7757 66.9617 84.688Z" fill="#FAFAFA"/>
<path d="M66.9902 89.0039V85.4679C66.9993 85.3956 67.0227 85.3258 67.0591 85.2626C67.0955 85.1994 67.1442 85.1441 67.2022 85.0999L74.4942 80.8879V84.4279C74.4852 84.5003 74.4617 84.5701 74.4253 84.6333C74.3889 84.6965 74.3403 84.7518 74.2822 84.7959L66.9902 89.0039ZM74.4022 81.0399L67.2382 85.1759C67.147 85.2483 67.0869 85.3527 67.0702 85.4679V88.8559L74.2302 84.7199C74.3223 84.6478 74.3838 84.5435 74.4022 84.4279V81.0399Z" fill="#1C6758"/>
<path d="M67.9225 86.2841C67.8918 86.2836 67.8616 86.2753 67.835 86.2599C67.8084 86.2445 67.7862 86.2225 67.7705 86.1961C67.7495 86.1559 67.7444 86.1093 67.7563 86.0655C67.7681 86.0218 67.7961 85.9841 67.8345 85.9601L73.4745 82.7001C73.4945 82.6867 73.517 82.6776 73.5407 82.6733C73.5644 82.6689 73.5887 82.6695 73.6121 82.675C73.6356 82.6804 73.6577 82.6906 73.677 82.7049C73.6963 82.7193 73.7125 82.7374 73.7246 82.7582C73.7367 82.7791 73.7443 82.8021 73.7471 82.826C73.7499 82.8499 73.7477 82.8742 73.7408 82.8972C73.7339 82.9202 73.7223 82.9416 73.7067 82.96C73.6912 82.9784 73.6721 82.9934 73.6505 83.0041L68.0025 86.2601C67.978 86.2741 67.9507 86.2823 67.9225 86.2841Z" fill="#E0E0E0"/>
<path d="M67.9225 87.1999C67.8918 87.1995 67.8616 87.1911 67.835 87.1757C67.8084 87.1603 67.7862 87.1384 67.7705 87.1119C67.7495 87.0718 67.7444 87.0252 67.7563 86.9814C67.7681 86.9377 67.7961 86.9 67.8345 86.8759L73.4745 83.6199C73.5148 83.5967 73.5627 83.5904 73.6077 83.6024C73.6527 83.6144 73.6911 83.6437 73.7145 83.6839C73.7365 83.7239 73.7421 83.7708 73.7302 83.8149C73.7182 83.8589 73.6897 83.8966 73.6505 83.9199L68.0025 87.1999C67.9762 87.2058 67.9488 87.2058 67.9225 87.1999Z" fill="#E0E0E0"/>
<path d="M62.7313 74.4479L78.2473 65.4959C78.4953 65.3519 78.6953 65.4719 78.6953 65.7559V71.2279C78.6902 71.3874 78.6468 71.5433 78.5688 71.6825C78.4909 71.8218 78.3806 71.9402 78.2473 72.0279L62.7313 80.9599C62.4793 81.1039 62.2793 80.9879 62.2793 80.6999V75.2279C62.2874 75.0714 62.3326 74.919 62.4112 74.7834C62.4897 74.6477 62.5995 74.5328 62.7313 74.4479Z" fill="#FAFAFA"/>
<path d="M62.7559 80.3998V75.2278C62.7649 75.1555 62.7884 75.0856 62.8248 75.0224C62.8612 74.9593 62.9098 74.904 62.9679 74.8598L78.2199 66.0598V71.2238C78.2108 71.2962 78.1874 71.366 78.151 71.4292C78.1146 71.4924 78.0659 71.5477 78.0079 71.5918L62.7559 80.3998ZM78.1319 66.2238L63.0119 74.9438C62.9221 75.0174 62.8624 75.1213 62.8439 75.2358V80.2518L77.9639 71.5278C78.0551 71.4555 78.1152 71.351 78.1319 71.2358V66.2238Z" fill="#1C6758"/>
<path d="M64.8992 76.5078L65.4912 74.5798C65.4912 74.5558 65.5152 74.5238 65.5352 74.4758C65.5545 74.4326 65.5866 74.3963 65.6272 74.3718L65.8392 74.2478C65.8477 74.241 65.8583 74.2373 65.8692 74.2373C65.8801 74.2373 65.8907 74.241 65.8992 74.2478C65.9166 74.2692 65.9251 74.2964 65.9232 74.3238V77.4318C65.9229 77.4691 65.9147 77.5059 65.8992 77.5398C65.887 77.5694 65.8661 77.5946 65.8392 77.6118L65.5872 77.7558C65.579 77.7634 65.5683 77.7676 65.5572 77.7676C65.546 77.7676 65.5353 77.7634 65.5272 77.7558C65.5182 77.7455 65.5114 77.7334 65.5073 77.7203C65.5031 77.7073 65.5017 77.6935 65.5032 77.6798V75.7998L65.1032 77.1158C65.0929 77.1522 65.0782 77.1872 65.0592 77.2198C65.0466 77.2559 65.0209 77.2859 64.9872 77.3038L64.8272 77.3958C64.7952 77.4145 64.7712 77.4145 64.7552 77.3958C64.7362 77.3827 64.721 77.3647 64.7112 77.3438L64.3112 76.4958V78.3758C64.3109 78.4131 64.3027 78.4499 64.2872 78.4838C64.275 78.5134 64.2541 78.5386 64.2272 78.5558L63.9752 78.6998C63.967 78.7074 63.9563 78.7116 63.9452 78.7116C63.934 78.7116 63.9233 78.7074 63.9152 78.6998C63.9062 78.6895 63.8994 78.6774 63.8953 78.6643C63.8911 78.6513 63.8897 78.6375 63.8912 78.6238V75.5158C63.8915 75.4798 63.8997 75.4443 63.9152 75.4118C63.9263 75.3817 63.9475 75.3562 63.9752 75.3398L64.1872 75.2158C64.2312 75.1918 64.2592 75.1918 64.2792 75.2158L64.3232 75.2678L64.8992 76.5078Z" fill="#455A64"/>
<path d="M68.0714 72.9598C68.0796 72.9522 68.0903 72.948 68.1014 72.948C68.1126 72.948 68.1233 72.9522 68.1314 72.9598C68.1419 72.9693 68.1498 72.9812 68.1547 72.9944C68.1596 73.0076 68.1612 73.0218 68.1594 73.0358C68.1614 73.0518 68.1614 73.0679 68.1594 73.0838L67.4194 75.5158V76.5758C67.4187 76.6118 67.4105 76.6472 67.3954 76.6798C67.3843 76.71 67.3631 76.7354 67.3354 76.7518L67.0834 76.8958C67.076 76.9031 67.0659 76.9072 67.0554 76.9072C67.045 76.9072 67.0349 76.9031 67.0274 76.8958C67.017 76.8863 67.009 76.8745 67.0042 76.8612C66.9993 76.848 66.9977 76.8338 66.9994 76.8198V75.7598L66.2594 74.1838C66.2573 74.1706 66.2573 74.1571 66.2594 74.1438C66.2592 74.1078 66.2675 74.0721 66.2834 74.0398C66.2955 74.0091 66.3164 73.9827 66.3434 73.9638L66.5754 73.8318C66.6194 73.8078 66.6514 73.8038 66.6714 73.8318C66.6877 73.8457 66.7001 73.8637 66.7074 73.8838L67.2154 74.9518L67.7194 73.2998C67.7283 73.2661 67.7417 73.2338 67.7594 73.2038C67.7778 73.1609 67.8102 73.1256 67.8514 73.1038L68.0714 72.9598Z" fill="#455A64"/>
<path d="M70.772 71.3999C70.7805 71.3931 70.7911 71.3894 70.802 71.3894C70.8129 71.3894 70.8235 71.3931 70.832 71.3999C70.8494 71.4213 70.858 71.4485 70.856 71.4759V71.8199C70.8557 71.8559 70.8475 71.8914 70.832 71.9239C70.8209 71.9541 70.7997 71.9795 70.772 71.9959L69.776 72.5719V73.5079L70.712 72.9679C70.7202 72.9603 70.7309 72.9561 70.742 72.9561C70.7531 72.9561 70.7639 72.9603 70.772 72.9679C70.781 72.9783 70.7878 72.9904 70.7919 73.0034C70.796 73.0165 70.7974 73.0303 70.796 73.0439V73.3839C70.7957 73.4212 70.7875 73.458 70.772 73.4919C70.7584 73.5206 70.7378 73.5454 70.712 73.5639L69.776 74.1039V75.1999C69.7757 75.2372 69.7675 75.274 69.752 75.3079C69.7409 75.3381 69.7197 75.3635 69.692 75.3799L69.44 75.5239C69.4319 75.5315 69.4211 75.5357 69.41 75.5357C69.3989 75.5357 69.3882 75.5315 69.38 75.5239C69.371 75.5136 69.3642 75.5015 69.3601 75.4884C69.356 75.4754 69.3546 75.4616 69.356 75.4479V72.3399C69.3567 72.304 69.3649 72.2686 69.38 72.2359C69.3911 72.2058 69.4123 72.1803 69.44 72.1639L70.772 71.3999Z" fill="#455A64"/>
<path d="M71.3033 74.4599C71.2951 74.4675 71.2844 74.4718 71.2733 74.4718C71.2622 74.4718 71.2514 74.4675 71.2433 74.4599C71.2343 74.4496 71.2275 74.4375 71.2234 74.4244C71.2193 74.4114 71.2179 74.3976 71.2193 74.3839V71.2759C71.2196 71.2399 71.2278 71.2044 71.2433 71.1719C71.2544 71.1418 71.2756 71.1163 71.3033 71.0999L71.5553 70.9519C71.5638 70.9451 71.5744 70.9414 71.5853 70.9414C71.5962 70.9414 71.6068 70.9451 71.6153 70.9519C71.6243 70.9623 71.6311 70.9744 71.6352 70.9874C71.6393 71.0005 71.6407 71.0143 71.6393 71.0279V74.1359C71.6395 74.172 71.6313 74.2076 71.6153 74.2399C71.6032 74.2706 71.5823 74.297 71.5553 74.3159L71.3033 74.4599Z" fill="#455A64"/>
<path d="M73.599 72.5439C73.6075 72.5371 73.6181 72.5334 73.629 72.5334C73.6399 72.5334 73.6505 72.5371 73.659 72.5439C73.6779 72.5646 73.6879 72.5919 73.687 72.6199V72.9639C73.6858 73.0002 73.6762 73.0358 73.659 73.0679C73.6469 73.0986 73.6261 73.125 73.599 73.1439L72.231 73.9439C72.2225 73.9507 72.2119 73.9544 72.201 73.9544C72.1901 73.9544 72.1795 73.9507 72.171 73.9439C72.162 73.9335 72.1553 73.9215 72.1511 73.9084C72.147 73.8953 72.1456 73.8815 72.147 73.8679V70.7599C72.1473 70.7226 72.1555 70.6858 72.171 70.6519C72.1869 70.6247 72.2072 70.6004 72.231 70.5799L72.487 70.4359C72.4952 70.4283 72.5059 70.4241 72.517 70.4241C72.5282 70.4241 72.5389 70.4283 72.547 70.4359C72.556 70.4462 72.5628 70.4583 72.5669 70.4714C72.5711 70.4845 72.5724 70.4982 72.571 70.5119V73.1479L73.599 72.5439Z" fill="#455A64"/>
<path d="M75.4189 71.484C75.4271 71.4764 75.4378 71.4722 75.4489 71.4722C75.4601 71.4722 75.4708 71.4764 75.4789 71.484C75.4879 71.4943 75.4947 71.5064 75.4988 71.5195C75.503 71.5326 75.5044 71.5463 75.5029 71.56V71.9C75.5027 71.9373 75.4945 71.9741 75.4789 72.008C75.4678 72.0382 75.4466 72.0636 75.4189 72.08L74.0509 72.88C74.0424 72.8868 74.0318 72.8905 74.0209 72.8905C74.01 72.8905 73.9995 72.8868 73.9909 72.88C73.9721 72.8592 73.9621 72.832 73.9629 72.804V69.696C73.9687 69.662 73.981 69.6294 73.9989 69.6C74.0122 69.5711 74.0329 69.5463 74.0589 69.528L75.4029 68.752C75.4115 68.7452 75.422 68.7415 75.4329 68.7415C75.4439 68.7415 75.4544 68.7452 75.4629 68.752C75.4719 68.7623 75.4787 68.7744 75.4828 68.7875C75.487 68.8006 75.4884 68.8144 75.4869 68.828V69.168C75.4867 69.2053 75.4785 69.2421 75.4629 69.276C75.4518 69.3062 75.4306 69.3316 75.4029 69.348L74.3989 69.916V70.68L75.3389 70.136C75.3475 70.1292 75.358 70.1255 75.3689 70.1255C75.3798 70.1255 75.3904 70.1292 75.3989 70.136C75.4163 70.1573 75.4249 70.1845 75.4229 70.212V70.556C75.4231 70.592 75.4149 70.6277 75.3989 70.66C75.3868 70.6907 75.366 70.7171 75.3389 70.736L74.3989 71.28V72.08L75.4189 71.484Z" fill="#455A64"/>
<path d="M76.6446 67.9639C76.7553 67.8926 76.8815 67.8487 77.0126 67.8359C77.105 67.8299 77.1971 67.8523 77.2766 67.8999C77.3473 67.9471 77.4029 68.0138 77.4366 68.0919C77.4755 68.1747 77.4973 68.2645 77.5006 68.3559C77.5007 68.392 77.4925 68.4276 77.4766 68.4599C77.4642 68.4894 77.4433 68.5144 77.4166 68.5319L77.1966 68.6599C77.1606 68.6599 77.1366 68.6839 77.1166 68.6599C77.0958 68.6459 77.0793 68.6265 77.0686 68.6039C77.0399 68.5459 76.9896 68.5014 76.9286 68.4799C76.8788 68.4716 76.8279 68.4737 76.779 68.4861C76.7301 68.4985 76.6843 68.5209 76.6446 68.5519C76.5884 68.5847 76.5361 68.6236 76.4886 68.6679C76.4405 68.7138 76.3976 68.7648 76.3606 68.8199C76.3254 68.8735 76.2972 68.9313 76.2766 68.9919C76.2544 69.0493 76.2435 69.1104 76.2446 69.1719C76.2403 69.228 76.2499 69.2844 76.2726 69.3359C76.2833 69.3534 76.2979 69.3683 76.3152 69.3794C76.3325 69.3905 76.3521 69.3975 76.3726 69.3999C76.4349 69.4086 76.4982 69.4086 76.5606 69.3999L76.8486 69.3359C76.9531 69.309 77.0606 69.2955 77.1686 69.2959C77.2497 69.2953 77.3286 69.3221 77.3926 69.3719C77.4538 69.423 77.4984 69.4913 77.5206 69.5679C77.5504 69.6746 77.5639 69.7852 77.5606 69.8959C77.56 70.0433 77.5398 70.1899 77.5006 70.3319C77.4589 70.4791 77.3984 70.6203 77.3206 70.7519C77.2416 70.8883 77.1462 71.0146 77.0366 71.1279C76.925 71.2418 76.7985 71.3401 76.6606 71.4199C76.5577 71.4836 76.4437 71.5271 76.3246 71.5479C76.2296 71.5689 76.1306 71.5605 76.0406 71.5239C75.9566 71.488 75.8874 71.4245 75.8446 71.3439C75.7887 71.2408 75.7598 71.1252 75.7606 71.0079C75.757 70.9703 75.7654 70.9325 75.7846 70.8999C75.7979 70.871 75.8186 70.8462 75.8446 70.8279L76.0646 70.7039C76.0756 70.6948 76.0885 70.6883 76.1023 70.6849C76.1161 70.6814 76.1306 70.6811 76.1446 70.6839C76.1663 70.6985 76.1831 70.7195 76.1926 70.7439C76.2067 70.7775 76.2242 70.8097 76.2446 70.8399C76.2654 70.8684 76.2948 70.8895 76.3286 70.8999C76.3719 70.9103 76.4172 70.9103 76.4606 70.8999C76.5312 70.8826 76.5987 70.8543 76.6606 70.8159C76.7233 70.7787 76.7835 70.7373 76.8406 70.6919C76.8983 70.6443 76.9494 70.5891 76.9926 70.5279C77.0361 70.4714 77.0724 70.4095 77.1006 70.3439C77.1276 70.2779 77.1412 70.2072 77.1406 70.1359C77.1459 70.0827 77.1301 70.0296 77.0966 69.9879C77.0788 69.9721 77.0578 69.9603 77.035 69.9534C77.0122 69.9465 76.9881 69.9446 76.9646 69.9479C76.8904 69.9543 76.8169 69.9663 76.7446 69.9839C76.6566 69.9839 76.5566 70.0279 76.4406 70.0479C76.3504 70.0609 76.2588 70.0609 76.1686 70.0479C76.0956 70.0428 76.0265 70.0132 75.9726 69.9639C75.9158 69.9085 75.8768 69.8375 75.8606 69.7599C75.8299 69.6452 75.8164 69.5266 75.8206 69.4079C75.8225 69.2604 75.844 69.1138 75.8846 68.9719C75.9285 68.8332 75.9861 68.6992 76.0566 68.5719C76.1291 68.4448 76.2163 68.3266 76.3166 68.2199C76.4129 68.1192 76.5234 68.0329 76.6446 67.9639Z" fill="#455A64"/>
<path opacity="0.15" d="M76.2743 38.8679C73.6143 40.4079 73.6143 42.8999 76.2743 44.4359C78.9343 45.9719 83.2543 45.9719 85.9183 44.4359C88.5823 42.8999 88.5783 40.4079 85.9183 38.8679C83.2583 37.3279 78.9383 37.3319 76.2743 38.8679Z" fill="black"/>
<path d="M85.4897 42.0559C87.8417 39.6559 89.2217 33.6559 86.9297 31.7639H75.2617C72.9697 33.6639 74.3497 39.6519 76.6977 42.0519L76.7617 42.1199L76.8417 42.1999C76.9097 42.2639 76.9817 42.3279 77.0577 42.3879L77.1137 42.4319C77.1699 42.4791 77.2287 42.5232 77.2897 42.5639C77.3867 42.6357 77.4883 42.7012 77.5937 42.7599C79.5297 43.8759 82.6617 43.8759 84.5977 42.7599C84.704 42.7003 84.8068 42.6349 84.9057 42.5639L85.0697 42.4399L85.1377 42.3839L85.3417 42.2039L85.4377 42.1119L85.4897 42.0559Z" fill="#EBEBEB"/>
<path d="M76.2743 30.9958C73.6143 32.5358 73.6143 35.0278 76.2743 36.5638C78.9343 38.0998 83.2543 38.0998 85.9183 36.5638C88.5823 35.0278 88.5783 32.5358 85.9183 30.9958C83.2583 29.4558 78.9383 29.4598 76.2743 30.9958Z" fill="#FAFAFA"/>
<path d="M78.1623 32.0878C76.5423 33.0238 76.5423 34.5398 78.1623 35.4718C79.0715 35.9331 80.0767 36.1736 81.0963 36.1736C82.1158 36.1736 83.1211 35.9331 84.0303 35.4718C85.6503 34.5398 85.6503 33.0238 84.0303 32.0878C83.1211 31.6264 82.1158 31.386 81.0963 31.386C80.0767 31.386 79.0715 31.6264 78.1623 32.0878Z" fill="#EBEBEB"/>
<path d="M84.0292 33.6959C83.12 33.2346 82.1147 32.9941 81.0952 32.9941C80.0756 32.9941 79.0704 33.2346 78.1612 33.6959C77.7725 33.9077 77.4426 34.2129 77.2012 34.5839C77.4458 34.9551 77.7783 35.2601 78.1692 35.4719C79.0784 35.9333 80.0836 36.1737 81.1032 36.1737C82.1227 36.1737 83.1279 35.9333 84.0372 35.4719C84.428 35.2601 84.7605 34.9551 85.0052 34.5839C84.7593 34.2109 84.4237 33.9055 84.0292 33.6959Z" fill="#E0E0E0"/>
<path d="M80.6665 35.0959C80.0085 35.0318 79.3714 34.8299 78.7966 34.5032C78.2218 34.1765 77.7223 33.7324 77.3305 33.1999C76.991 32.7414 76.6811 32.2618 76.4025 31.7639C75.4225 30.0319 75.2425 27.7079 75.7505 27.4239C76.2585 27.1399 78.3185 29.4519 78.3185 29.4519C78.1294 28.4786 78.0555 27.4864 78.0985 26.4959C78.1865 24.9519 78.5625 23.5479 79.0065 23.2679C79.4505 22.9879 80.4345 24.9319 80.8585 26.3399C81.2825 27.7479 81.5385 28.9119 81.5385 28.9119C81.708 27.8113 81.9621 26.7254 82.2985 25.6639C82.8105 24.1999 83.2785 23.8679 83.6385 24.0159C83.9985 24.1639 84.2385 24.8439 84.3465 26.7919C84.384 27.7261 84.3546 28.6619 84.2585 29.5919C84.2585 29.5919 84.9865 28.7919 85.7905 28.0159C86.6785 27.1679 87.0585 27.0479 87.3105 27.2159C87.5625 27.3839 87.6345 28.7039 86.2625 31.1839C85.8448 31.9388 85.3644 32.6573 84.8265 33.3319C84.3451 33.9412 83.721 34.4227 83.0095 34.7338C82.298 35.0449 81.5208 35.1762 80.7465 35.1159L80.6665 35.0959Z" fill="#1C6758"/>
<path opacity="0.15" d="M80.6665 35.0959C80.0085 35.0318 79.3714 34.8299 78.7966 34.5032C78.2218 34.1765 77.7223 33.7324 77.3305 33.1999C76.991 32.7414 76.6811 32.2618 76.4025 31.7639C75.4225 30.0319 75.2425 27.7079 75.7505 27.4239C76.2585 27.1399 78.3185 29.4519 78.3185 29.4519C78.1294 28.4786 78.0555 27.4864 78.0985 26.4959C78.1865 24.9519 78.5625 23.5479 79.0065 23.2679C79.4505 22.9879 80.4345 24.9319 80.8585 26.3399C81.2825 27.7479 81.5385 28.9119 81.5385 28.9119C81.708 27.8113 81.9621 26.7254 82.2985 25.6639C82.8105 24.1999 83.2785 23.8679 83.6385 24.0159C83.9985 24.1639 84.2385 24.8439 84.3465 26.7919C84.384 27.7261 84.3546 28.6619 84.2585 29.5919C84.2585 29.5919 84.9865 28.7919 85.7905 28.0159C86.6785 27.1679 87.0585 27.0479 87.3105 27.2159C87.5625 27.3839 87.6345 28.7039 86.2625 31.1839C85.8448 31.9388 85.3644 32.6573 84.8265 33.3319C84.3451 33.9412 83.721 34.4227 83.0095 34.7338C82.298 35.0449 81.5208 35.1762 80.7465 35.1159L80.6665 35.0959Z" fill="black"/>
<path opacity="0.15" d="M78.4014 24.5398C78.2434 25.1811 78.1469 25.8361 78.1134 26.4958C78.0704 27.4863 78.1443 28.4785 78.3334 29.4518L79.3574 30.5158C79.3574 30.5158 78.3134 27.1158 78.4014 24.5398Z" fill="black"/>
<path opacity="0.15" d="M86.8014 27.22C86.4272 27.4364 86.0864 27.7059 85.7894 28.02C84.9894 28.796 84.2574 29.596 84.2574 29.596C84.2158 30.089 84.1383 30.5783 84.0254 31.06C85.5254 30.18 86.8014 27.22 86.8014 27.22Z" fill="black"/>
<path opacity="0.15" d="M82.1054 27.7879C82.2662 26.5674 82.5738 25.3707 83.0214 24.2239C82.6856 24.6505 82.4356 25.1381 82.2854 25.6599C81.9489 26.7214 81.6948 27.8073 81.5254 28.9079L81.7974 30.2319C81.7974 30.2319 81.9054 29.0639 82.1054 27.7879Z" fill="black"/>
<path opacity="0.15" d="M86.6479 55.5599C86.7356 55.5323 86.8121 55.4774 86.8664 55.4034C86.9207 55.3293 86.95 55.2398 86.95 55.1479C86.95 55.056 86.9207 54.9666 86.8664 54.8925C86.8121 54.8184 86.7356 54.7635 86.6479 54.7359L55.7879 37.2719C55.5624 37.1596 55.3139 37.1011 55.0619 37.1011C54.81 37.1011 54.5615 37.1596 54.3359 37.2719L26.3359 53.1239L58.6599 71.4039L86.6479 55.5599Z" fill="black"/>
<path d="M84.0514 55.7118C84.1254 55.6792 84.1895 55.6277 84.2373 55.5623C84.2851 55.497 84.3147 55.4203 84.3234 55.3398V54.7638L56.6914 39.1398C56.4859 39.0392 56.2601 38.9868 56.0314 38.9868C55.8026 38.9868 55.5768 39.0392 55.3714 39.1398L29.9434 53.5398L58.6314 70.1038L84.0514 55.7118Z" fill="#1C6758"/>
<path d="M84.0514 55.1518C84.4154 54.9438 84.4154 54.6118 84.0514 54.4038L56.6914 38.5798C56.4859 38.4791 56.2601 38.4268 56.0314 38.4268C55.8026 38.4268 55.5768 38.4791 55.3714 38.5798L29.9434 52.9798L58.6314 69.5438L84.0514 55.1518Z" fill="#1C6758"/>
<path opacity="0.5" d="M84.0514 55.1518C84.4154 54.9438 84.4154 54.6118 84.0514 54.4038L56.6914 38.5798C56.4859 38.4791 56.2601 38.4268 56.0314 38.4268C55.8026 38.4268 55.5768 38.4791 55.3714 38.5798L29.9434 52.9798L58.6314 69.5438L84.0514 55.1518Z" fill="black"/>
<path d="M35.7948 49.1998L54.6228 38.5478C54.8269 38.4451 55.0523 38.3916 55.2808 38.3916C55.5093 38.3916 55.7346 38.4451 55.9388 38.5478L81.1388 53.1398L83.5868 51.7398V54.5838L83.5388 54.6118C83.6228 54.7838 83.5388 54.9798 83.3148 55.1158L61.7508 67.3158L33.0508 50.7678V47.6598L35.7948 49.1998Z" fill="#EBEBEB"/>
<path d="M83.3028 52.0279C83.3787 51.9991 83.444 51.9479 83.4901 51.8811C83.5362 51.8143 83.5609 51.7351 83.5609 51.6539C83.5609 51.5727 83.5362 51.4935 83.4901 51.4267C83.444 51.3599 83.3787 51.3087 83.3028 51.2799L55.9388 35.4559C55.734 35.3553 55.5089 35.303 55.2808 35.303C55.0526 35.303 54.8275 35.3553 54.6228 35.4559L33.0508 47.6599L61.7388 64.2239L83.3028 52.0279Z" fill="#FAFAFA"/>
<path d="M61.7388 64.2238V67.3318L33.0508 50.7678V47.6638L61.7388 64.2238Z" fill="#E6E6E6"/>
<path d="M61.3918 63.0119C61.5868 63.1113 61.8107 63.1382 62.0238 63.0879C62.0659 63.0798 62.1064 63.0649 62.1438 63.0439C62.3438 62.9399 62.3198 62.7439 62.0918 62.6159C61.9849 62.5607 61.8678 62.5281 61.7478 62.5199C61.6107 62.5046 61.4721 62.5282 61.3478 62.5879C61.3324 62.5939 61.3187 62.6035 61.3078 62.6159C61.1478 62.7279 61.1998 62.8919 61.3918 63.0119Z" fill="#263238"/>
<path d="M58.0679 65.4438C58.0513 65.8294 58.1702 66.2087 58.4039 66.5158C58.5181 66.6554 58.6623 66.7674 58.8257 66.8436C58.9892 66.9198 59.1677 66.9581 59.3479 66.9558C59.6702 66.9479 59.9847 66.8555 60.2599 66.6878C60.3163 66.6588 60.3711 66.6268 60.4239 66.5918L60.052 66.3838C59.156 66.8758 58.452 66.4558 58.452 65.4438C58.4853 64.8866 58.6502 64.3453 58.9332 63.8641C59.2162 63.383 59.6092 62.9757 60.0799 62.6758C60.2554 62.5465 60.4652 62.4719 60.6829 62.4612C60.9006 62.4505 61.1166 62.5043 61.3039 62.6158C61.4682 62.7321 61.587 62.9017 61.64 63.0958C61.7711 63.1297 61.9088 63.1297 62.04 63.0958C61.9942 62.8873 61.8996 62.6926 61.764 62.5278C61.6494 62.3903 61.5055 62.2801 61.3429 62.2053C61.1802 62.1306 61.0029 62.0932 60.8239 62.0958C60.4993 62.1046 60.1825 62.1969 59.9039 62.3638C59.3723 62.6912 58.9276 63.1422 58.6079 63.6785C58.2882 64.2148 58.103 64.8205 58.0679 65.4438Z" fill="#455A64"/>
<path d="M59.0117 62.5079L84.3237 50.3999V50.7999C84.3177 50.9126 84.2847 51.0223 84.2277 51.1197C84.1706 51.2171 84.0911 51.2995 83.9957 51.3599L59.0117 63.0879V62.5079Z" fill="#1C6758"/>
<path d="M84.0514 50.7519C84.4154 50.5439 84.4154 50.2119 84.0514 50.0039L56.6914 34.1799C56.4859 34.0792 56.2601 34.0269 56.0314 34.0269C55.8026 34.0269 55.5768 34.0792 55.3714 34.1799L29.9434 46.1519L58.6314 62.7159L84.0514 50.7519Z" fill="#1C6758"/>
<path opacity="0.4" d="M84.0514 50.7519C84.4154 50.5439 84.4154 50.2119 84.0514 50.0039L56.6914 34.1799C56.4859 34.0792 56.2601 34.0269 56.0314 34.0269C55.8026 34.0269 55.5768 34.0792 55.3714 34.1799L29.9434 46.1519L58.6314 62.7159L84.0514 50.7519Z" fill="white"/>
<path d="M58.6314 70.0999L29.9434 53.5359V46.1399L58.6314 62.7199V70.0999Z" fill="#1C6758"/>
<path opacity="0.2" d="M58.6314 70.0999L29.9434 53.5359V46.1399L58.6314 62.7199V70.0999Z" fill="white"/>
<path d="M52.8435 65.3559C53.0245 65.3588 53.2038 65.3207 53.3679 65.2445C53.5321 65.1683 53.6769 65.056 53.7915 64.9159C54.0218 64.6072 54.139 64.2287 54.1235 63.8439C54.0911 63.2201 53.9088 62.6134 53.5919 62.0751C53.2751 61.5369 52.8331 61.083 52.3035 60.7519C52.0248 60.5854 51.708 60.4932 51.3835 60.4839C50.6155 60.4839 50.1035 61.0919 50.1035 61.9999C50.1355 62.6232 50.3178 63.2295 50.6347 63.7672C50.9516 64.3048 51.3937 64.758 51.9235 65.0879C52.2003 65.2555 52.516 65.3479 52.8395 65.3559H52.8435Z" fill="#455A64"/>
<path d="M53.7424 63.8439C53.7424 64.8639 53.0144 65.2759 52.1104 64.7679C51.639 64.4687 51.2455 64.0616 50.9624 63.5803C50.6793 63.099 50.5148 62.5573 50.4824 61.9999C50.4824 60.9799 51.2104 60.5679 52.1104 61.0759C52.5826 61.3746 52.9769 61.7814 53.2607 62.2628C53.5445 62.7441 53.7096 63.2861 53.7424 63.8439Z" fill="#F5F5F5"/>
<path d="M47.827 60.1319V60.6919C47.827 61.8119 47.027 62.2639 46.035 61.7039L33.999 54.5439C33.4811 54.2151 33.0485 53.7681 32.737 53.2396C32.4255 52.7111 32.2438 52.1163 32.207 51.5039V50.9439C32.207 49.8239 33.007 49.3719 33.999 49.9279L46.055 57.0919C46.5702 57.4219 46.9995 57.8697 47.3076 58.3982C47.6157 58.9268 47.7937 59.521 47.827 60.1319Z" fill="#F5F5F5"/>
<path d="M59.0229 69.88V62.532L58.6309 62.72V70.1L59.0229 69.88Z" fill="#1C6758"/>
<path d="M55.1353 40.684L44.4513 45.716C44.1833 45.84 44.1753 46.06 44.4273 46.208L57.1993 53.6C57.3441 53.6734 57.5028 53.715 57.665 53.7219C57.8271 53.7288 57.9889 53.7008 58.1393 53.64L68.8233 48.608C69.0913 48.484 69.0993 48.264 68.8473 48.116L56.0713 40.736C55.928 40.6612 55.7704 40.6179 55.6089 40.6089C55.4475 40.6 55.2861 40.6255 55.1353 40.684Z" fill="#FAFAFA"/>
<path d="M68.9464 48.18C69.0944 48.316 69.0504 48.492 68.8264 48.58L65.8344 50L62.2344 47.6C63.9224 47.004 64.4424 47.104 66.2824 47.532C67.0344 47.708 67.9984 47.936 68.9464 48.18Z" fill="#E6E6E6"/>
<path d="M66.3188 48.7039C66.6588 48.9279 66.9628 49.1439 67.2388 49.3439L58.1428 53.6279C57.9926 53.6912 57.8306 53.7215 57.6677 53.7167C57.5049 53.7118 57.3449 53.672 57.1988 53.5999L56.1708 53.0079C55.6668 52.4759 55.2708 51.8679 55.4468 51.2599C55.4468 51.2599 57.3868 49.8159 56.6708 49.3439L59.8908 47.9439C60.2908 48.2079 61.5548 47.6799 62.7948 47.5079C63.9468 47.3319 65.6468 48.2519 66.3188 48.7039Z" fill="#F5F5F5"/>
<path d="M57.2908 46.112C57.1671 46.4018 56.9648 46.6512 56.7068 46.832C56.4388 47.004 56.3068 47.232 56.0548 47.412C55.5308 47.812 56.4548 48.484 55.6108 48.612C54.8108 48.32 52.5348 48.44 50.7668 47.456C49.8708 46.96 49.5668 46.284 50.0668 45.652C49.5628 45.216 49.7868 44.9 49.8868 44.732C50.1548 44.3329 50.5159 44.0048 50.9388 43.776C51.4062 43.4854 51.9005 43.2403 52.4148 43.044C52.9988 42.828 53.5748 42.644 53.8428 42.244C53.9588 42.08 54.2148 42.16 54.3708 42.244C54.483 42.314 54.5852 42.3988 54.6748 42.496C54.7322 42.5682 54.7843 42.6444 54.8308 42.724C54.9192 42.6226 54.9638 42.4903 54.9548 42.356C54.9548 42.248 54.8908 42.008 55.1148 42.028C55.3388 42.0667 55.5478 42.1663 55.7188 42.316C55.8921 42.4511 56.0136 42.6418 56.0628 42.856C56.3395 42.7568 56.6421 42.7568 56.9188 42.856C57.0799 42.8966 57.2268 42.9807 57.3432 43.0993C57.4597 43.2178 57.5412 43.3662 57.5788 43.528C57.5711 43.6493 57.5379 43.7675 57.4813 43.875C57.4248 43.9825 57.3463 44.0769 57.2508 44.152C57.2035 44.2004 57.1715 44.2616 57.1588 44.328C57.1588 44.404 57.2428 44.5 57.2748 44.576C57.3833 44.8171 57.4407 45.078 57.4435 45.3424C57.4462 45.6067 57.3942 45.8688 57.2908 46.112Z" fill="#37474F"/>
<path d="M52.0227 45.2319C52.7827 45.3319 54.9307 46.3519 56.2627 47.2319C56.199 47.2994 56.1294 47.3609 56.0547 47.4159C55.5307 47.8159 56.5027 48.5199 55.6547 48.6159C54.8547 48.3199 52.6347 48.5359 50.8547 47.5519C49.9587 47.0559 49.3427 46.2119 50.0547 45.6239C50.6828 45.3791 51.3489 45.2464 52.0227 45.2319Z" fill="#455A64"/>
<path d="M52.0232 45.2322C52.9552 45.5882 53.3672 46.4082 52.9592 46.7802C53.3052 46.8969 53.6276 47.0743 53.9112 47.3042C53.9849 47.3582 54.044 47.4297 54.0832 47.5122C54.0973 47.5518 54.0969 47.5952 54.0823 47.6346C54.0677 47.6741 54.0397 47.7072 54.0032 47.7282C53.9466 47.7622 53.8828 47.7828 53.817 47.7884C53.7511 47.7939 53.6848 47.7843 53.6232 47.7602C53.4432 47.7202 53.2512 47.6962 53.0592 47.6682C52.9754 47.6602 52.8911 47.6602 52.8072 47.6682C52.4392 47.6682 51.6592 47.8922 52.0072 48.3882C52.3552 48.8842 53.6832 49.0482 54.2912 48.8802C55.1152 48.6562 54.9112 48.1402 54.9112 48.1402L56.9112 49.5242C57.27 49.7588 57.6834 49.8966 58.1112 49.9242C59.2712 50.0402 60.7792 49.8242 62.3352 50.0602C61.9237 49.2705 61.2466 48.6514 60.4232 48.3122L59.3632 47.6002C59.7027 47.4479 60.0279 47.2658 60.3352 47.0562C60.9272 46.5802 60.5952 46.0122 60.0992 45.5682C58.9912 44.5802 56.0032 43.0562 55.0872 43.2722C54.7792 43.4482 54.9952 44.0482 54.6872 44.2682C53.9592 44.8002 52.5672 44.5922 52.0232 45.2322Z" fill="#FFA8A7"/>
<path d="M55.0942 46.0001C55.1726 46.0466 55.2609 46.0741 55.3519 46.0803C55.4429 46.0866 55.5341 46.0714 55.6182 46.0361C55.7782 45.9601 55.8062 45.8281 55.6782 45.7321C55.5997 45.6853 55.5112 45.658 55.4201 45.6524C55.3289 45.6469 55.2377 45.6632 55.1542 45.7001C54.9942 45.7561 54.9662 45.8921 55.0942 46.0001Z" fill="#263238"/>
<path d="M57.1304 44.8281C57.2113 44.8705 57.3012 44.8926 57.3924 44.8926C57.4837 44.8926 57.5736 44.8705 57.6544 44.8281C57.8024 44.7481 57.8104 44.6081 57.6544 44.5241C57.5723 44.4835 57.482 44.4624 57.3904 44.4624C57.2989 44.4624 57.2085 44.4835 57.1264 44.5241C56.9904 44.6081 56.9864 44.7441 57.1304 44.8281Z" fill="#263238"/>
<path d="M59.3635 47.6001C58.7535 47.8632 58.1235 48.0773 57.4795 48.2401C56.9146 48.3404 56.3364 48.3404 55.7715 48.2401C56.2153 48.4489 56.7072 48.5346 57.1955 48.4881C58.0539 48.3992 58.8896 48.1581 59.6635 47.7761L59.3635 47.6001Z" fill="#F28F8F"/>
<path d="M55.6992 45.1201L57.7432 45.9961L58.2152 45.2881L55.6992 45.1201Z" fill="#F28F8F"/>
<path d="M54.7343 45.3321L54.3343 45.8201C54.0943 45.7521 53.9944 45.5841 54.1064 45.4481C54.1913 45.3747 54.2942 45.3253 54.4046 45.3049C54.515 45.2846 54.6288 45.2939 54.7343 45.3321Z" fill="#263238"/>
<path d="M57.3157 44.116L56.3877 44.232C56.3237 44.088 56.4757 43.94 56.7317 43.908C56.8387 43.8844 56.9503 43.8914 57.0535 43.9281C57.1568 43.9649 57.2476 44.03 57.3157 44.116Z" fill="#263238"/>
<path d="M57.123 46.756L58.175 46.52C58.303 46.684 58.175 46.872 57.879 46.92C57.7494 46.9588 57.6121 46.9642 57.4799 46.9355C57.3477 46.9068 57.2249 46.845 57.123 46.756Z" fill="#B16668"/>
<path d="M57.3554 46.8321C57.3266 46.8406 57.2995 46.8541 57.2754 46.8721C57.4633 46.9623 57.6761 46.9862 57.8794 46.9401H57.9114C57.8359 46.8757 57.745 46.832 57.6476 46.8131C57.5502 46.7941 57.4495 46.8007 57.3554 46.8321Z" fill="#F28F8F"/>
<path d="M61.7299 49.9999C60.8779 49.9279 59.1339 49.7879 58.2819 49.7119C57.7363 49.6553 57.1992 49.5345 56.6819 49.3519L56.3579 49.1279C56.3579 49.1279 56.1979 49.1279 56.3579 49.5279C56.4319 49.8757 56.3956 50.2378 56.2539 50.5639C56.2539 50.5639 58.6539 51.2559 60.6539 51.0599C60.5699 50.0679 61.2659 49.9999 61.7299 49.9999Z" fill="#E6E6E6"/>
<path d="M62.1662 49.672C61.69 49.1106 61.1101 48.6461 60.4582 48.304L59.6582 47.776C59.7977 47.7586 59.9387 47.7586 60.0782 47.776C60.5151 47.8644 60.9653 47.8644 61.4022 47.776C62.4862 48.124 63.4502 48.784 63.6742 49.288C62.9702 49.2 61.9982 49.048 62.1662 49.672Z" fill="#E6E6E6"/>
<path d="M58.8965 52.7641C59.0125 52.8561 59.1404 52.9721 59.2724 53.0961L58.1445 53.6281C57.9943 53.6914 57.8323 53.7217 57.6694 53.7169C57.5065 53.712 57.3466 53.6722 57.2005 53.6001L54.5645 52.0801C54.84 51.7931 55.1354 51.5257 55.4484 51.2801C56.1884 51.2481 57.6925 51.8041 58.8965 52.7641Z" fill="#E6E6E6"/>
<path d="M71.7872 48.7999L56.4832 55.9359C56.0512 56.1399 56.0352 56.4959 56.4472 56.7359L58.9552 58.1919C59.1922 58.3124 59.4523 58.3808 59.7179 58.3925C59.9835 58.4043 60.2485 58.359 60.4952 58.2599L75.7952 51.1239C76.2312 50.9199 76.2472 50.5639 75.8312 50.3239L73.3232 48.8679C73.0869 48.7475 72.8276 48.6791 72.5626 48.6673C72.2977 48.6556 72.0333 48.7008 71.7872 48.7999Z" fill="#FAFAFA"/>
<path d="M73.8153 51.0359C73.4195 50.9788 73.0341 50.8643 72.6713 50.6959C72.4286 50.4734 72.1427 50.3032 71.8313 50.1959C71.7233 50.1519 71.7353 50.3639 71.7873 50.4079C72.0352 50.6063 72.3034 50.778 72.5873 50.9199C72.6433 51.0759 72.6353 51.2719 72.4273 51.2639C72.2801 51.2343 72.1426 51.1683 72.0273 51.0719C71.9833 51.0439 71.9553 51.1479 71.9873 51.1759L72.0913 51.3359C71.8147 51.2922 71.5526 51.1824 71.3273 51.0159L71.2073 50.9279C71.1593 50.8959 71.1273 51.0119 71.1593 51.0399L71.2153 51.0839C71.2549 51.1181 71.2963 51.1502 71.3393 51.1799C71.492 51.2925 71.6268 51.4273 71.7393 51.5799L71.8233 51.6879C71.8913 51.8319 71.8873 51.8839 71.8033 51.8399C71.7593 51.8839 71.3673 51.6399 71.2513 51.5759C70.8059 51.334 70.3864 51.0472 69.9993 50.7199C69.9153 50.6479 69.8713 50.8439 69.9353 50.8959C70.2109 51.1208 70.4604 51.3757 70.6793 51.6559C70.8233 51.8359 70.9393 52.1399 70.5713 52.0559C70.4009 52.0023 70.2392 51.9242 70.0913 51.8239C70.0273 51.7839 70.0073 51.9239 70.0233 51.9559C70.0821 52.0921 70.1094 52.2397 70.1033 52.3879C69.8877 52.3346 69.691 52.2224 69.5353 52.0639C69.4473 51.9719 69.3913 52.1159 69.4153 52.1919C69.4873 52.4439 69.6233 52.9919 69.1873 52.6799C69.0882 52.61 68.9993 52.5265 68.9233 52.4319C68.9224 52.3155 68.8909 52.2013 68.8319 52.1009C68.7729 52.0006 68.6886 51.9174 68.5873 51.8599C68.4833 51.7919 68.4593 51.9759 68.4793 52.0359C68.5382 52.1868 68.6119 52.3315 68.6993 52.4679C68.6263 52.7625 68.4709 53.0303 68.2513 53.2399C68.0842 53.4041 67.8909 53.5392 67.6793 53.6399C67.4673 53.7519 67.0353 53.9519 67.1873 53.5079C67.2243 53.4017 67.2798 53.3028 67.3513 53.2159C67.4971 53.1135 67.6312 52.9954 67.7513 52.8639C67.8273 52.7879 67.7513 52.5559 67.6193 52.6239C67.4862 52.6989 67.366 52.7948 67.2633 52.9079C66.9553 53.1039 66.5713 53.2199 66.5313 52.6719C66.5313 52.6719 66.5313 52.6399 66.5313 52.6239C66.9246 52.5017 67.2673 52.2546 67.5073 51.9199C67.5245 51.8975 67.5338 51.8701 67.5338 51.8419C67.5338 51.8137 67.5245 51.7863 67.5073 51.7639C66.9953 51.4079 66.4113 52.0519 66.3553 52.5839C66.2312 52.6213 66.104 52.6481 65.9753 52.6639C65.9753 52.6639 65.9473 52.7079 65.9753 52.7079C66.1095 52.7094 66.2435 52.6973 66.3753 52.6719C66.3733 52.6999 66.3733 52.728 66.3753 52.7559C66.3885 52.8891 66.4419 53.0151 66.5283 53.1173C66.6147 53.2194 66.7302 53.2929 66.8593 53.3279C66.9164 53.3358 66.9743 53.3358 67.0313 53.3279C66.9819 53.4554 66.9574 53.5912 66.9593 53.7279C66.9593 54.2159 67.3913 54.0839 67.7153 53.9359C68.2465 53.6659 68.6698 53.2229 68.9153 52.6799C68.9801 52.7776 69.0664 52.859 69.1677 52.918C69.269 52.977 69.3824 53.0118 69.4993 53.0199C69.7633 52.9959 69.7433 52.6519 69.6833 52.3719C69.8413 52.4851 70.0211 52.5641 70.2113 52.6039C70.2633 52.6039 70.2993 52.5639 70.2993 52.5159C70.3046 52.3577 70.2844 52.1997 70.2393 52.0479C70.5433 52.2079 71.0673 52.4479 71.0393 51.9599C71.0147 51.7976 70.9407 51.6467 70.8273 51.5279C70.9033 51.5799 70.9753 51.6319 71.0513 51.6759C71.2433 51.7919 71.7353 52.1759 71.9833 52.0999C72.3033 51.9999 72.1073 51.6999 71.8393 51.4159C71.9812 51.4701 72.1288 51.5077 72.2793 51.5279C72.3353 51.5279 72.3473 51.4319 72.3313 51.3959C72.3218 51.3708 72.3097 51.3466 72.2953 51.3239C72.5513 51.4399 72.8513 51.4719 72.8993 51.1119C72.9035 51.0868 72.9035 51.0611 72.8993 51.0359C73.2224 51.1741 73.5608 51.2735 73.9073 51.3319C73.9993 51.3679 73.9553 51.0559 73.8153 51.0359ZM67.3073 51.9079C67.1052 52.1703 66.8395 52.3768 66.5353 52.5079C66.5858 52.3402 66.6873 52.1923 66.8256 52.0847C66.9639 51.9772 67.1323 51.9154 67.3073 51.9079Z" fill="#455A64"/>
<path d="M66.7991 54.5759C66.5409 54.3973 66.2739 54.2318 65.9991 54.0799C65.7693 53.7515 65.4558 53.4905 65.0911 53.3239C64.9871 53.2759 64.9951 53.4959 65.0391 53.5439C65.0831 53.5919 65.2391 53.7439 65.3471 53.8359C65.3933 53.8789 65.4443 53.9165 65.4991 53.9479C65.5551 53.9839 65.5991 54.0319 65.6551 54.0719C65.7111 54.1119 65.7711 54.1679 65.8271 54.2159C65.8564 54.2385 65.882 54.2655 65.9031 54.2959C65.9419 54.3509 65.9716 54.4116 65.9911 54.4759C66.0036 54.5236 66.0054 54.5734 65.9965 54.6218C65.9875 54.6702 65.9681 54.7161 65.9394 54.7562C65.9108 54.7962 65.8737 54.8295 65.8308 54.8537C65.7879 54.8778 65.7402 54.8923 65.6911 54.8959C65.5562 54.9069 65.4204 54.8919 65.2911 54.8519C65.182 54.8259 65.0874 54.7585 65.0271 54.6639C64.9991 54.6159 64.9431 54.6359 64.9271 54.6839C64.9111 54.7319 64.8911 54.8239 64.8951 54.8199C64.7791 54.9159 64.6311 54.7279 64.5631 54.6639C64.4951 54.5999 64.4511 54.7839 64.4711 54.8319V54.9599C64.3895 54.9299 64.3127 54.8881 64.2431 54.8359C64.1777 54.7526 64.1025 54.6773 64.0191 54.6119C63.9191 54.5359 63.8991 54.7479 63.9431 54.8039C63.9912 54.8659 64.0447 54.9235 64.1031 54.9759C64.3071 55.2639 64.1991 55.6119 63.7831 55.5479C63.6592 55.5263 63.54 55.483 63.4311 55.4199C63.4311 55.4199 63.4311 55.3839 63.4311 55.3679C63.4025 55.119 63.3005 54.8841 63.1381 54.6933C62.9757 54.5024 62.7603 54.3641 62.5191 54.2959C62.4871 54.2959 62.4671 54.2959 62.4511 54.3279C62.2711 54.6079 62.5511 54.8879 62.7271 55.0879C62.89 55.2745 63.077 55.4386 63.2831 55.5759C63.268 55.6297 63.2382 55.6782 63.197 55.716C63.1559 55.7537 63.105 55.7792 63.0501 55.7896C62.9952 55.8 62.9385 55.7949 62.8864 55.7748C62.8343 55.7547 62.7888 55.7205 62.7551 55.6759C62.7496 55.6718 62.7432 55.6689 62.7364 55.6677C62.7297 55.6664 62.7227 55.6668 62.7161 55.6687C62.7094 55.6707 62.7034 55.6742 62.6983 55.6789C62.6933 55.6836 62.6895 55.6895 62.6871 55.6959C62.6871 55.6959 62.6551 55.8799 62.6551 55.8839C62.5351 56.0479 62.2311 55.7279 62.1271 55.6359C62.0231 55.5439 62.0151 55.7479 62.0631 55.7999L62.1391 56.1599C62.0053 56.0947 61.8878 56.0004 61.7951 55.8839L61.7751 55.8559C61.7502 55.8256 61.7275 55.7935 61.7071 55.7599L61.6871 55.7359C61.5831 55.6119 61.5271 55.8439 61.5751 55.9239C61.5844 55.9395 61.5951 55.9543 61.6071 55.9679C61.6729 56.0536 61.7141 56.1556 61.7261 56.263C61.738 56.3704 61.7204 56.479 61.6751 56.577C61.6298 56.6751 61.5585 56.7589 61.4689 56.8193C61.3794 56.8798 61.275 56.9146 61.1671 56.9199C60.998 56.9119 60.8337 56.8611 60.6895 56.7723C60.5454 56.6834 60.4262 56.5595 60.3431 56.4119C60.1431 56.1519 59.6071 55.3039 60.2631 55.2119C60.6391 55.1599 61.0231 55.5879 61.2311 55.8199C61.2311 55.8199 61.2671 55.7919 61.2591 55.7759C61.0471 55.4239 60.4151 54.7079 59.9591 55.1359C59.5031 55.5639 59.9591 56.2519 60.2431 56.6079C60.5751 57.0399 61.1151 57.4079 61.6351 57.0079C61.7423 56.9227 61.8258 56.8114 61.8776 56.6846C61.9295 56.5578 61.9479 56.4199 61.9311 56.2839C62.0252 56.3503 62.1292 56.4016 62.2391 56.4359C62.2831 56.4359 62.3151 56.4039 62.3271 56.3679C62.3551 56.2482 62.3551 56.1237 62.3271 56.0039C62.4511 56.0839 62.5831 56.1479 62.6711 56.1039C62.7591 56.0599 62.7471 55.9359 62.7431 55.8359C62.7952 55.8756 62.8561 55.9019 62.9207 55.9125C62.9852 55.923 63.0514 55.9176 63.1134 55.8967C63.1754 55.8758 63.2313 55.84 63.2762 55.7924C63.3212 55.7449 63.3537 55.687 63.3711 55.6239C63.4733 55.6781 63.5823 55.7184 63.6951 55.7439C63.7659 55.7712 63.8419 55.7821 63.9175 55.7758C63.993 55.7696 64.0662 55.7464 64.1316 55.708C64.1969 55.6695 64.2528 55.6168 64.295 55.5538C64.3371 55.4908 64.3645 55.419 64.3751 55.3439C64.3871 55.2751 64.3871 55.2048 64.3751 55.1359C64.4227 55.16 64.4722 55.1801 64.5231 55.1959C64.5631 55.1959 64.5951 55.1679 64.6071 55.1319C64.6187 55.0846 64.6267 55.0365 64.6311 54.9879C64.7271 55.0719 64.8431 55.1479 64.9391 55.0919C64.9733 55.0635 64.9973 55.0247 65.0074 54.9814C65.0176 54.938 65.0132 54.8926 64.9951 54.8519C65.064 54.918 65.1498 54.9637 65.2431 54.9839C65.3406 55.0135 65.4414 55.031 65.5431 55.0359C65.6362 55.0399 65.729 55.0236 65.8151 54.9879C65.9751 54.9199 66.1431 54.8639 66.1591 54.6599C66.169 54.5829 66.169 54.505 66.1591 54.4279C66.3424 54.5588 66.553 54.6463 66.7751 54.6839C66.8391 54.7199 66.8391 54.6039 66.7991 54.5759ZM62.7231 54.7999L62.6231 54.6799C62.5471 54.5399 62.5671 54.5039 62.6791 54.5759C62.8403 54.6441 62.979 54.7564 63.0791 54.8999C63.1856 55.0306 63.2571 55.1861 63.2871 55.3519C63.0748 55.1959 62.8862 55.01 62.7271 54.7999H62.7231Z" fill="#455A64"/>
<path d="M161.002 153.276C160.999 153.615 161.08 153.949 161.237 154.249C161.394 154.549 161.622 154.805 161.902 154.996C163.87 156.096 166.722 156.316 169.074 155.588C171.774 154.752 173.002 153.344 173.526 151.496C174.05 149.648 173.926 147.588 173.158 145.124C172.666 143.524 173.002 141.352 173.206 139.728C173.546 136.964 173.282 135.3 172.406 134.032C171.926 133.336 171.233 132.814 170.43 132.546C169.628 132.277 168.761 132.277 167.958 132.544L168.49 151.532L161.002 153.276Z" fill="black"/>
<path d="M164.331 144.848C164.351 147.34 163.779 148.236 162.687 149.716C161.731 151.012 159.239 153.06 162.427 154.628C164.915 155.848 171.087 155.716 172.735 151.604C174.015 148.404 172.087 145.42 172.563 141.236C172.883 138.436 172.635 133.52 169.363 132.768C167.579 132.368 166.999 132.392 164.207 133.824C162.263 134.816 162.103 135.264 162.179 135.524L162.655 135.308C163.362 135.168 164.096 135.246 164.758 135.532C165.42 135.817 165.98 136.297 166.363 136.908C167.491 138.668 167.627 141.272 166.419 142.988L164.331 144.848Z" fill="#263238"/>
<path d="M143.814 117.756L158.482 114.06C159.194 117.02 159.642 122.86 158.41 127.32C157.178 131.78 153.042 139.228 153.042 139.228L163.218 134.048C163.218 134.048 165.322 133.856 166.878 136.668C169.338 141.108 167.018 145.568 167.018 145.568C167.018 145.568 154.934 152.7 147.266 157.316C139.686 161.876 134.898 163.296 130.758 159.992C128.314 158.04 127.79 154.424 128.758 149.244C130.358 140.444 143.834 117.756 143.834 117.756" fill="#455A64"/>
<path d="M147.266 157.316C154.934 152.7 167.018 145.568 167.018 145.568C167.018 145.568 169.338 141.108 166.878 136.668C165.334 133.868 163.278 134.044 163.222 134.044L153.046 139.224C153.046 139.224 154.922 135.84 156.526 132.268C156.59 132.124 156.658 131.98 156.722 131.832V131.812L156.906 131.392V131.372C157.19 130.708 157.458 130.048 157.706 129.412V129.372L157.93 128.76L145.198 124.62C145.998 129.192 149.714 133.484 149.714 133.484C149.714 133.484 144.602 146.848 142.086 153.392C140.114 158.532 135.566 160.052 132.286 159.256C129.366 158.548 128.59 156.312 128.498 156.012C128.577 156.42 128.687 156.821 128.826 157.212C128.89 157.4 128.966 157.584 129.042 157.76V157.788C129.118 157.952 129.202 158.116 129.286 158.272L129.33 158.34C129.41 158.48 129.494 158.62 129.586 158.74C129.614 158.78 129.646 158.816 129.674 158.86C129.754 158.968 129.834 159.08 129.922 159.184C130.01 159.288 130.042 159.312 130.098 159.376C130.154 159.44 130.23 159.524 130.302 159.596C130.438 159.728 130.582 159.852 130.73 159.972C131.225 160.369 131.761 160.711 132.33 160.992C132.729 161.191 133.145 161.353 133.574 161.476C133.856 161.559 134.144 161.625 134.434 161.672C134.881 161.745 135.333 161.781 135.786 161.78C136.084 161.78 136.382 161.764 136.678 161.732C137.367 161.656 138.048 161.522 138.714 161.332C139.234 161.192 139.77 161.016 140.314 160.808C140.686 160.668 141.062 160.516 141.45 160.348C143.442 159.454 145.372 158.431 147.23 157.284L147.266 157.316Z" fill="#37474F"/>
<path opacity="0.15" d="M152.567 145.508C155.579 141.648 163.911 136.368 165.743 135.164C164.479 133.964 163.251 134.044 163.223 134.044L158.135 136.632L153.047 139.224C153.047 139.224 148.127 149.868 144.123 151.488C147.438 150.316 150.361 148.246 152.567 145.508Z" fill="black"/>
<path d="M174.109 161.244C174.106 161.583 174.187 161.918 174.344 162.219C174.501 162.52 174.729 162.777 175.009 162.968C176.977 164.068 179.829 164.284 182.181 163.56C184.881 162.724 186.109 161.312 186.633 159.468C187.157 157.624 187.033 155.56 186.265 153.092C185.773 151.492 186.113 149.324 186.313 147.7C186.653 144.932 186.389 143.272 185.513 142C185.032 141.304 184.338 140.783 183.535 140.515C182.733 140.247 181.865 140.246 181.061 140.512L181.597 159.5L174.109 161.244Z" fill="#263238"/>
<path d="M177.437 152.8C177.437 155.292 176.885 156.192 175.793 157.668C174.837 158.968 172.345 161.012 175.537 162.58C178.021 163.804 184.193 163.672 185.841 159.56C187.121 156.36 185.193 153.376 185.669 149.188C185.989 146.388 185.741 141.476 182.469 140.724C180.685 140.324 180.105 140.348 177.313 141.776C175.369 142.772 175.209 143.216 175.285 143.48L175.761 143.26C176.469 143.121 177.203 143.199 177.866 143.485C178.528 143.77 179.089 144.25 179.473 144.86C180.597 146.62 180.733 149.224 179.525 150.936L177.437 152.8Z" fill="#37474F"/>
<path d="M180.358 144.52C178.602 141.168 175.246 142.304 175.246 142.304L167.598 146.512C167.598 146.512 172.042 139.232 173.73 134.912C175.73 129.808 176.462 126.784 175.578 119.404L154.934 119.044L143.806 117.744C144.17 128.144 151.538 133.012 151.538 133.012C151.538 133.012 144.634 150.052 143.25 155.812C141.95 161.232 142.87 165.316 145.314 167.268C149.454 170.572 154.822 170.068 162.402 165.492C170.07 160.88 180.802 153.276 180.802 153.276C180.802 153.276 182.878 149.324 180.358 144.52Z" fill="#455A64"/>
<path d="M167.134 152.8C171.798 146.4 175.982 143.728 178.138 142.4C177.211 142.053 176.196 142.017 175.246 142.296L167.598 146.512C167.598 146.512 162.678 157.156 158.674 158.776C162.041 157.701 164.995 155.614 167.134 152.8Z" fill="#37474F"/>
<path d="M145.531 81.624C139.931 83.752 139.651 85.352 138.055 90.024C136.231 95.38 133.199 103.756 131.631 108.228C131.943 110.472 138.055 115.076 140.431 114.528L147.679 98.26L145.531 81.624Z" fill="#E6E6E6"/>
<path d="M173.938 90.8C177.674 107.256 176.042 122.604 176.042 122.604C171.674 126.508 149.098 127.96 143.122 118.092C146.086 107.74 143.122 104.744 142.182 91.948C141.99 89.392 142.182 83.616 144.682 82.1C147.394 80.452 151.202 79.84 151.102 78.32L161.01 76.928C161.194 79.62 169.01 80.608 169.01 80.608C172.234 82.92 173.198 87.456 173.938 90.8Z" fill="#F5F5F5"/>
<path d="M149.716 69.804C150.692 70.276 151.908 70.736 153.008 70.712C154 70.692 154.956 71.06 155.96 71.112C158.108 71.236 158.804 74.864 160.54 73.576C160.88 71.236 164.94 67.3 164.588 61.22C164.404 58.136 162.684 55.692 159.824 54.848C159.672 54.1657 159.34 53.5363 158.863 53.0251C158.387 52.5138 157.782 52.1392 157.112 51.94C155.581 51.3638 153.943 51.129 152.312 51.252C150.688 51.2971 149.076 51.5402 147.512 51.976C145.868 52.476 144.284 53.012 142.584 52.428C141.86 52.184 141.716 52.892 141.784 53.456C141.836 53.8949 141.949 54.3244 142.12 54.732C142.262 55.0509 142.424 55.3608 142.604 55.66C142.078 55.5195 141.598 55.2437 141.212 54.86C140.856 54.544 140.172 53.76 139.876 54.244C139.616 54.668 139.648 55.632 139.84 56.18C140.058 56.988 140.47 57.7307 141.04 58.344C140.16 58.54 139.784 59.432 139.696 59.988C139.628 60.5589 139.694 61.1378 139.887 61.6791C140.081 62.2205 140.397 62.7096 140.812 63.108C141.516 63.784 142.452 64.032 143.384 64.228C143.646 64.2895 143.893 64.4024 144.112 64.56C144.353 64.8347 144.561 65.1367 144.732 65.46C146.017 67.2897 147.728 68.7803 149.716 69.804Z" fill="#37474F"/>
<path d="M155.339 57.412C154.451 59.128 154.307 66.032 155.019 70.992C155.33 71.0531 155.643 71.0958 155.959 71.12C158.107 71.244 158.791 75.04 160.531 73.752C160.871 71.412 165.195 67.844 164.831 61.752C164.647 58.668 162.899 55.148 159.823 54.844C159.823 54.856 156.731 55.64 155.339 57.412Z" fill="#455A64"/>
<path d="M155.339 57.4121C154.999 60.1681 157.015 63.2321 158.883 63.5041C158.763 65.0361 158.775 65.7681 159.063 66.7721C159.14 67.093 159.276 67.3968 159.463 67.6681C159.56 67.8024 159.685 67.9136 159.829 67.9938C159.974 68.0741 160.134 68.1213 160.299 68.1321C160.743 68.1321 160.907 67.8601 161.023 67.5041C161.195 67.0511 161.394 66.6089 161.619 66.1801C161.718 65.9918 161.84 65.817 161.983 65.6601C162.619 65.0001 164.563 64.1241 165.611 66.1881C166.695 68.3241 165.055 71.1921 163.531 71.8721C161.467 72.8001 160.103 70.9641 160.103 70.9641L161.063 77.2361C161.272 78.4167 161.051 79.6329 160.439 80.6641C158.935 83.1721 155.811 85.4161 154.063 89.0121C152.015 86.2121 151.219 82.3841 151.435 80.5161L151.159 77.8241C149.878 78.0653 148.568 78.1151 147.271 77.9721C144.779 77.5721 143.671 75.4441 143.079 73.2601C141.927 69.1121 141.743 58.7761 143.931 57.6601C144.999 57.5761 146.615 59.6601 147.811 59.7121C150.763 59.8161 152.375 56.6561 155.339 57.4121Z" fill="#FFA8A7"/>
<path d="M153.119 65.4839C153.155 65.6694 153.135 65.8614 153.062 66.0356C152.989 66.2098 152.866 66.3584 152.709 66.4628C152.551 66.5671 152.366 66.6224 152.177 66.6218C151.988 66.6211 151.804 66.5645 151.647 66.459C151.49 66.3536 151.368 66.2041 151.296 66.0293C151.225 65.8546 151.206 65.6625 151.243 65.4773C151.281 65.2921 151.372 65.1221 151.506 64.9887C151.64 64.8553 151.81 64.7646 151.995 64.7279C152.244 64.6797 152.503 64.7322 152.713 64.8739C152.924 65.0155 153.07 65.2349 153.119 65.4839Z" fill="#263238"/>
<path d="M145.851 65.92C145.869 66.108 145.831 66.2972 145.742 66.4635C145.652 66.6299 145.516 66.7661 145.349 66.8549C145.182 66.9437 144.993 66.9811 144.805 66.9625C144.617 66.9439 144.439 66.87 144.293 66.7502C144.147 66.6304 144.04 66.47 143.985 66.2894C143.93 66.1087 143.93 65.9158 143.984 65.735C144.039 65.5542 144.146 65.3936 144.291 65.2735C144.437 65.1533 144.615 65.0791 144.803 65.06C144.928 65.0473 145.055 65.0595 145.176 65.096C145.296 65.1324 145.408 65.1922 145.506 65.2722C145.603 65.3521 145.684 65.4505 145.743 65.5616C145.802 65.6728 145.839 65.7946 145.851 65.92Z" fill="#263238"/>
<path d="M151.158 77.8241C151.158 77.8241 154.758 76.9881 156.294 76.0561C157.54 75.3188 158.527 74.2134 159.118 72.8921C159.121 73.5275 158.989 74.1562 158.732 74.7373C158.475 75.3184 158.098 75.8386 157.626 76.2641C155.09 78.4761 151.274 78.9321 151.274 78.9321L151.158 77.8241Z" fill="#F28F8F"/>
<path d="M149.399 63.6599L148.979 70.2759L145.711 69.8759C145.999 68.1399 147.663 65.0759 149.399 63.6599Z" fill="#F28F8F"/>
<path d="M151.49 63.232L153.818 63.872C153.897 63.5551 153.851 63.2198 153.688 62.9364C153.526 62.653 153.26 62.4436 152.946 62.352C152.793 62.3138 152.633 62.3062 152.477 62.3298C152.321 62.3534 152.171 62.4076 152.035 62.4894C151.9 62.5712 151.782 62.6789 151.689 62.8063C151.595 62.9338 151.528 63.0784 151.49 63.232Z" fill="#263238"/>
<path d="M143.348 64.2081L145.596 63.2721C145.542 63.1226 145.459 62.9856 145.351 62.8694C145.243 62.7532 145.112 62.6603 144.967 62.5963C144.822 62.5323 144.665 62.4985 144.506 62.4971C144.348 62.4957 144.19 62.5267 144.044 62.5881C143.743 62.7183 143.503 62.9586 143.374 63.2598C143.244 63.561 143.235 63.9003 143.348 64.2081Z" fill="#263238"/>
<path d="M152.763 71.156L149.199 72.22C149.257 72.4557 149.362 72.6773 149.508 72.871C149.654 73.0648 149.838 73.2267 150.049 73.3469C150.26 73.4671 150.493 73.543 150.734 73.57C150.975 73.597 151.219 73.5746 151.451 73.504C151.929 73.3555 152.332 73.029 152.576 72.592C152.82 72.1551 152.887 71.641 152.763 71.156Z" fill="#B16668"/>
<path d="M151.452 73.5041C151.777 73.4044 152.07 73.2206 152.301 72.9712C152.532 72.7218 152.693 72.4158 152.768 72.0841C152.712 72.0633 152.655 72.0486 152.596 72.0401C152.126 71.9875 151.653 72.1091 151.267 72.3819C150.881 72.6546 150.608 73.0596 150.5 73.5201C150.813 73.6027 151.142 73.5972 151.452 73.5041Z" fill="#F28F8F"/>
<path d="M154.752 87.768C155.624 85.96 158.028 82.568 159.288 80.844C160.102 79.655 160.687 78.3241 161.012 76.92L160.808 75.568C160.808 75.568 161.184 75.4 162.136 76.92C163.088 78.44 165.472 79.884 165.472 79.884C165.472 79.884 163.336 86.228 159.264 89.116C156.4 86 155.636 87.016 154.752 87.768Z" fill="#E6E6E6"/>
<path d="M153.111 87.484C152.071 84.86 151.435 83.184 151.435 80.444L151.159 77.824C150.834 77.9496 150.555 78.1715 150.359 78.46C149.725 79.3048 148.926 80.0123 148.011 80.54C147.163 83.492 148.319 87.28 149.447 89.196C149.851 87.496 151.507 85.304 153.111 87.484Z" fill="#E6E6E6"/>
<path d="M153.891 115.052C154.083 114.76 154.763 115.292 156.155 115.5C157.927 115.764 158.599 115.656 160.487 116.008C161.338 116.23 162.216 116.33 163.095 116.304L156.451 118.16C155.746 117.921 155.082 117.577 154.479 117.14C153.495 116.376 153.647 115.424 153.891 115.052Z" fill="#FFA8A7"/>
<path d="M123.008 98.8001C122.516 98.6321 122.208 98.8481 122.288 99.2841L127.028 121.6L159.608 132.8L154.808 110.468C154.727 110.217 154.589 109.988 154.407 109.798C154.224 109.608 154 109.463 153.752 109.372L135.144 102.972L133.696 100.772C133.598 100.629 133.458 100.52 133.296 100.46L125.58 97.8041C125.392 97.7308 125.183 97.7313 124.996 97.8055C124.808 97.8797 124.655 98.0221 124.568 98.2041L124.268 99.2361L123.008 98.8001Z" fill="#1C6758"/>
<path opacity="0.6" d="M123.008 98.8001C122.516 98.6321 122.208 98.8481 122.288 99.2841L127.028 121.6L159.608 132.8L154.808 110.468C154.727 110.217 154.589 109.988 154.407 109.798C154.224 109.608 154 109.463 153.752 109.372L135.144 102.972L133.696 100.772C133.598 100.629 133.458 100.52 133.296 100.46L125.58 97.8041C125.392 97.7308 125.183 97.7313 124.996 97.8055C124.808 97.8797 124.655 98.0221 124.568 98.2041L124.268 99.2361L123.008 98.8001Z" fill="white"/>
<path d="M127.026 121.58L158.502 132.4L153.73 110.252L121.234 99.084L127.026 121.58Z" fill="#F0F0F0"/>
<path d="M159.599 132.776L152.799 111.816C152.692 111.568 152.535 111.345 152.34 111.159C152.144 110.974 151.912 110.83 151.659 110.736L120.935 100.176C120.447 100.008 120.159 100.22 120.299 100.648L127.027 121.6L159.599 132.776Z" fill="#1C6758"/>
<path opacity="0.4" d="M159.599 132.776L152.799 111.816C152.692 111.568 152.535 111.345 152.34 111.159C152.144 110.974 151.912 110.83 151.659 110.736L120.935 100.176C120.447 100.008 120.159 100.22 120.299 100.648L127.027 121.6L159.599 132.776Z" fill="white"/>
<path d="M122.668 108C121.424 109.744 121.504 111.048 122.156 113.2C122.808 115.352 124.408 117.82 125.248 118.468C126.088 119.116 127.648 120 129.296 119.548C130.944 119.096 130.84 116.952 131.528 116.008C132.624 114.496 130.936 113.556 129.368 113.452C125.668 113.204 123.768 111.48 123.768 111.48L122.668 108Z" fill="#FFA8A7"/>
<path d="M151.682 118.54C153.281 118.556 154.877 118.422 156.45 118.14L163.094 116.284C166.126 116.42 174.294 109.8 174.294 109.8L169.774 97.2081C167.166 91.3481 167.082 83.2481 169.014 80.5801C175.342 82.1801 176.682 82.6641 178.386 88.1441C179.77 92.5841 183.262 104.376 184.766 108.904C185.626 111.496 186.054 113.812 183.29 115.66C180.798 117.324 174.398 120.636 168.838 122.648C165.862 123.724 164.238 124.688 161.066 125.384C159.539 125.751 157.984 125.997 156.418 126.12C155.298 126.184 153.93 126.292 153.13 125.288C152.954 125.064 152.786 124.62 152.558 124.488C152.39 124.384 152.054 124.404 151.858 124.332C151.649 124.256 151.456 124.141 151.29 123.992C150.979 123.707 150.762 123.335 150.666 122.924C150.574 122.504 150.506 122.56 150.082 122.416C149.704 122.323 149.37 122.102 149.134 121.792C148.966 121.54 148.974 120.992 148.794 120.824C148.614 120.656 147.994 120.648 147.73 120.552C147.33 120.42 146.554 120.04 146.646 119.536C146.722 119.136 147.266 118.904 147.602 118.776C148.87 118.28 150.358 118.528 151.682 118.54Z" fill="#FFA8A7"/>
<path d="M168.999 80.6001C167.703 81.8961 166.747 86.2241 167.555 91.2601C168.363 96.2961 173.895 109.792 173.895 109.792L168.371 114.06C168.371 114.06 170.539 115.26 171.595 117.3C172.226 118.548 172.426 119.97 172.163 121.344C174.85 120.31 177.481 119.139 180.047 117.836C183.379 116.124 185.327 115.036 185.763 113.624C186.199 112.212 185.267 109.124 184.271 106.024C183.275 102.924 178.567 87.2001 177.235 84.4801C176.199 82.3601 173.511 81.3961 168.999 80.6001Z" fill="#E6E6E6"/>
<path d="M168.372 114.06L165.756 115.528C165.756 115.528 168.136 116.868 168.74 119.044C169.093 120.172 169.229 121.357 169.14 122.536L172.152 121.336C172.152 121.336 172.952 119.56 171.872 117.18C171.154 115.726 169.899 114.607 168.372 114.06Z" fill="#E0E0E0"/>
</svg>
