<svg width="24" height="25" viewBox="0 0 24 25" fill="none" xmlns="http://www.w3.org/2000/svg">
<path fill-rule="evenodd" clip-rule="evenodd" d="M12.0023 10.0283C10.6704 10.0283 9.59033 11.1077 9.59033 12.4403C9.59033 13.7721 10.6705 14.8523 12.0023 14.8523C13.3341 14.8523 14.4143 13.7721 14.4143 12.4403C14.4143 11.1077 13.3343 10.0283 12.0023 10.0283ZM8.09033 12.4403C8.09033 10.279 9.84227 8.52832 12.0023 8.52832C14.1624 8.52832 15.9143 10.279 15.9143 12.4403C15.9143 14.6005 14.1625 16.3523 12.0023 16.3523C9.84212 16.3523 8.09033 14.6005 8.09033 12.4403Z" fill="#262626"/>
<path fill-rule="evenodd" clip-rule="evenodd" d="M4.97577 6.98669C6.77017 5.46961 9.25098 4.38843 12.0022 4.38843C14.7529 4.38843 17.2337 5.46876 19.0282 6.98548C20.8033 8.48569 22.0042 10.5025 22.0042 12.4404C22.0042 14.3784 20.8033 16.3952 19.0282 17.8954C17.2337 19.4121 14.7529 20.4924 12.0022 20.4924C9.25098 20.4924 6.77017 19.4112 4.97577 17.8942C3.20099 16.3937 2.00024 14.3769 2.00024 12.4404C2.00024 10.5039 3.20099 8.48719 4.97577 6.98669ZM5.94422 8.13217C4.3705 9.46267 3.50024 11.0969 3.50024 12.4404C3.50024 13.7839 4.3705 15.4182 5.94422 16.7487C7.49832 18.0626 9.64351 18.9924 12.0022 18.9924C14.3606 18.9924 16.5058 18.0633 18.06 16.7497C19.6337 15.4197 20.5042 13.7855 20.5042 12.4404C20.5042 11.0954 19.6337 9.46117 18.06 8.13112C16.5058 6.81759 14.3606 5.88843 12.0022 5.88843C9.64351 5.88843 7.49832 6.81825 5.94422 8.13217Z" fill="#262626"/>
</svg>
