<svg width="200" height="200" viewBox="0 0 200 200" fill="none" xmlns="http://www.w3.org/2000/svg">
<path d="M32.5523 178.876C-4.69972 157.368 -4.69972 122.5 32.5523 100.992C69.8043 79.4843 130.204 79.4843 167.452 100.992C204.7 122.5 204.704 157.368 167.452 178.876C130.2 200.384 69.8043 200.4 32.5523 178.876Z" fill="#FAFAFA"/>
<path d="M23.5715 153.776C24.9595 147.176 26.3075 141.972 24.7955 131.908C23.5315 123.46 18.8275 115 11.4555 113.74C5.35947 112.7 5.30747 118.792 9.29947 124.052C13.2915 129.312 20.4995 138.832 19.6995 145.804L19.1995 156.312L23.5715 153.776Z" fill="#1C6758"/>
<path opacity="0.4" d="M23.5715 153.776C24.9595 147.176 26.3075 141.972 24.7955 131.908C23.5315 123.46 18.8275 115 11.4555 113.74C5.35947 112.7 5.30747 118.792 9.29947 124.052C13.2915 129.312 20.4995 138.832 19.6995 145.804L19.1995 156.312L23.5715 153.776Z" fill="white"/>
<path d="M23.4916 153.824C26.3996 134.4 17.4796 121.728 11.9436 117.096C11.8849 117.049 11.8102 117.027 11.7355 117.035C11.6607 117.042 11.5919 117.078 11.5436 117.136C11.5181 117.166 11.4988 117.2 11.4868 117.238C11.4748 117.275 11.4704 117.314 11.4737 117.353C11.4771 117.393 11.4882 117.431 11.5063 117.465C11.5245 117.5 11.5494 117.531 11.5796 117.556C17.0516 122.132 25.6716 134.932 22.8396 154.208L23.4916 153.824Z" fill="white"/>
<path d="M17.1305 157.497C16.6545 155.205 15.8745 149.953 12.7065 145.457C9.19849 140.485 3.79849 136.801 3.35849 133.777C2.82649 130.141 6.15849 128.321 10.9225 130.361C16.6505 132.801 22.0585 141.397 20.4265 155.601L17.1305 157.497Z" fill="#1C6758"/>
<g opacity="0.25">
<path d="M17.1305 157.497C16.6545 155.205 15.8745 149.953 12.7065 145.457C9.19849 140.485 3.79849 136.801 3.35849 133.777C2.82649 130.141 6.15849 128.321 10.9225 130.361C16.6505 132.801 22.0585 141.397 20.4265 155.601L17.1305 157.497Z" fill="white"/>
</g>
<path d="M18.7994 154.932C18.7481 154.907 18.7048 154.869 18.6744 154.821C18.644 154.773 18.6277 154.717 18.6274 154.66C18.7394 141.996 11.6474 134.928 7.88336 132.96C7.81461 132.923 7.76318 132.86 7.74002 132.785C7.71685 132.71 7.72379 132.63 7.75936 132.56C7.77706 132.525 7.80156 132.494 7.83142 132.469C7.86127 132.444 7.89586 132.425 7.93316 132.413C7.97045 132.402 8.00969 132.398 8.04854 132.402C8.08739 132.406 8.12507 132.417 8.15936 132.436C12.3234 134.612 19.3594 141.744 19.2234 154.668C19.2223 154.747 19.1902 154.822 19.1341 154.878C19.0779 154.933 19.0022 154.964 18.9234 154.964C18.8803 154.962 18.8382 154.951 18.7994 154.932Z" fill="white"/>
<path d="M115.829 146.788L149.301 127.452L107.701 103.428L74.2246 122.764L115.829 146.788Z" fill="#E0E0E0"/>
<path d="M156.866 173.023C176.664 173.023 192.714 163.757 192.714 152.327C192.714 140.897 176.664 131.631 156.866 131.631C137.067 131.631 121.018 140.897 121.018 152.327C121.018 163.757 137.067 173.023 156.866 173.023Z" fill="#E0E0E0"/>
<path d="M108.121 148.117L116.245 143.425L78.9488 121.805L17.1328 157.497L56.1288 180.009L64.2528 175.321L85.3728 187.517L130.869 161.249L108.121 148.117Z" fill="#E0E0E0"/>
<path d="M115.402 143.671V121.259L144.518 104.447V126.859L115.402 143.671Z" fill="#1C6758"/>
<path opacity="0.3" d="M115.402 143.671V121.259L144.518 104.447V126.859L115.402 143.671Z" fill="black"/>
<path d="M115.402 121.26L79.0059 100.244V122.66L115.402 143.672V121.26Z" fill="#1C6758"/>
<path opacity="0.55" d="M115.402 121.26L79.0059 100.244V122.66L115.402 143.672V121.26Z" fill="black"/>
<path d="M115.403 121.26L145.379 103.944L108.123 82.4238L78.1426 99.7438L115.403 121.26Z" fill="#1C6758"/>
<path opacity="0.15" d="M115.403 121.26L145.379 103.944L108.123 82.4238L78.1426 99.7438L115.403 121.26Z" fill="black"/>
<path d="M115.402 121.259V126.859L145.378 109.551V103.943L115.402 121.259Z" fill="#1C6758"/>
<path opacity="0.3" d="M115.402 121.259V126.859L145.378 109.551V103.943L115.402 121.259Z" fill="black"/>
<path opacity="0.2" d="M115.402 126.861L144.518 110.053V111.285L115.402 128.097V126.861Z" fill="black"/>
<path d="M78.1426 99.7441L115.403 121.26V126.86L78.1426 105.352V99.7441Z" fill="#1C6758"/>
<path opacity="0.55" d="M78.1426 99.7441L115.403 121.26V126.86L78.1426 105.352V99.7441Z" fill="black"/>
<path opacity="0.2" d="M115.402 126.86L79.0059 105.848V107.08L115.402 128.096V126.86Z" fill="black"/>
<path d="M124.987 124.665L134.935 118.925C135.363 118.677 135.711 118.877 135.711 119.373V125.253C135.696 125.522 135.618 125.784 135.484 126.018C135.349 126.251 135.161 126.449 134.935 126.597L124.987 132.337C124.559 132.585 124.211 132.385 124.211 131.889V126.001C124.227 125.733 124.305 125.473 124.44 125.241C124.575 125.008 124.762 124.811 124.987 124.665Z" fill="#37474F"/>
<path d="M125.623 125.332L134.295 120.324C134.583 120.16 134.815 120.296 134.815 120.624V125.024C134.806 125.203 134.754 125.378 134.664 125.534C134.573 125.69 134.447 125.822 134.295 125.92L125.623 130.928C125.339 131.092 125.107 130.96 125.107 130.628V126.228C125.117 126.048 125.168 125.873 125.258 125.718C125.348 125.562 125.473 125.43 125.623 125.332Z" fill="#F5F5F5"/>
<g opacity="0.5">
<path d="M125.868 126.495C125.845 126.495 125.823 126.489 125.804 126.478C125.784 126.467 125.768 126.451 125.756 126.431C125.74 126.402 125.736 126.368 125.745 126.336C125.754 126.303 125.775 126.276 125.804 126.259L134 121.531C134.029 121.515 134.064 121.511 134.096 121.52C134.128 121.529 134.155 121.55 134.172 121.579C134.18 121.593 134.186 121.609 134.189 121.625C134.191 121.642 134.19 121.659 134.186 121.675C134.182 121.691 134.175 121.706 134.165 121.719C134.155 121.732 134.142 121.743 134.128 121.751L125.932 126.479C125.912 126.49 125.89 126.496 125.868 126.495Z" fill="#455A64"/>
<path d="M125.868 127.599C125.845 127.599 125.823 127.593 125.804 127.581C125.784 127.57 125.768 127.554 125.756 127.535C125.74 127.505 125.736 127.471 125.745 127.439C125.754 127.407 125.775 127.38 125.804 127.363L134 122.615C134.014 122.606 134.03 122.601 134.047 122.599C134.063 122.597 134.08 122.598 134.096 122.602C134.112 122.607 134.127 122.614 134.14 122.625C134.153 122.635 134.164 122.648 134.172 122.663C134.18 122.677 134.186 122.693 134.189 122.709C134.191 122.725 134.19 122.742 134.186 122.758C134.182 122.774 134.175 122.789 134.165 122.802C134.155 122.815 134.142 122.827 134.128 122.835L125.932 127.559C125.915 127.578 125.893 127.592 125.868 127.599Z" fill="#455A64"/>
<path d="M125.868 128.659C125.845 128.66 125.823 128.654 125.803 128.643C125.783 128.632 125.767 128.615 125.756 128.595C125.74 128.566 125.736 128.532 125.745 128.499C125.754 128.467 125.775 128.44 125.804 128.423L134 123.699C134.014 123.691 134.03 123.685 134.046 123.683C134.062 123.681 134.079 123.681 134.095 123.686C134.111 123.69 134.126 123.697 134.139 123.707C134.152 123.717 134.163 123.729 134.172 123.743C134.18 123.757 134.186 123.773 134.188 123.789C134.19 123.806 134.19 123.822 134.186 123.838C134.181 123.854 134.174 123.869 134.164 123.882C134.154 123.896 134.142 123.907 134.128 123.915L125.94 128.643C125.918 128.655 125.893 128.661 125.868 128.659Z" fill="#455A64"/>
<path d="M125.868 129.743C125.845 129.743 125.823 129.737 125.804 129.725C125.784 129.714 125.768 129.698 125.756 129.679C125.74 129.65 125.736 129.615 125.745 129.583C125.754 129.551 125.775 129.524 125.804 129.507L134 124.799C134.029 124.783 134.064 124.779 134.096 124.788C134.128 124.797 134.155 124.818 134.172 124.847C134.18 124.861 134.186 124.877 134.189 124.893C134.191 124.909 134.19 124.926 134.186 124.942C134.182 124.958 134.175 124.973 134.165 124.986C134.155 125 134.142 125.011 134.128 125.019L125.94 129.747C125.916 129.752 125.891 129.751 125.868 129.743Z" fill="#455A64"/>
</g>
<path opacity="0.3" d="M78.9473 99.2798L115.491 120.38L144.667 103.528L108.123 82.4238L78.9473 99.2798Z" fill="black"/>
<path d="M115.49 119.523V97.1108L144.606 80.2988V102.715L115.49 119.523Z" fill="#1C6758"/>
<path d="M115.49 97.1116L79.0938 76.0996V98.5116L115.49 119.524V97.1116Z" fill="#1C6758"/>
<path opacity="0.15" d="M115.49 97.1116L79.0938 76.0996V98.5116L115.49 119.524V97.1116Z" fill="black"/>
<path d="M115.49 97.1113L145.47 79.7953L108.21 58.2793L78.2305 75.5953L115.49 97.1113Z" fill="#1C6758"/>
<path opacity="0.2" d="M115.49 97.1113L145.47 79.7953L108.21 58.2793L78.2305 75.5953L115.49 97.1113Z" fill="white"/>
<path d="M115.49 97.1109V102.715L145.47 85.4069V79.7949L115.49 97.1109Z" fill="#1C6758"/>
<path opacity="0.2" d="M115.49 102.714L144.606 85.9023V87.1343L115.49 103.946V102.714Z" fill="black"/>
<path d="M78.2305 75.5957L115.49 97.1117V102.716L78.2305 81.2037V75.5957Z" fill="#1C6758"/>
<path opacity="0.2" d="M78.2305 75.5957L115.49 97.1117V102.716L78.2305 81.2037V75.5957Z" fill="black"/>
<path opacity="0.2" d="M115.49 102.715L79.0938 81.6992V82.9352L115.49 103.947V102.715Z" fill="black"/>
<path d="M125.075 100.518L135.023 94.7744C135.451 94.5264 135.799 94.7264 135.799 95.2224V101.102C135.784 101.372 135.706 101.634 135.571 101.867C135.437 102.101 135.249 102.299 135.023 102.446L125.075 108.19C124.647 108.438 124.299 108.234 124.299 107.742V101.862C124.313 101.593 124.39 101.331 124.525 101.097C124.66 100.864 124.849 100.665 125.075 100.518Z" fill="#455A64"/>
<path d="M125.711 101.2L134.399 96.1796C134.687 96.0116 134.919 96.1476 134.919 96.4756V100.876C134.91 101.055 134.858 101.231 134.767 101.386C134.677 101.542 134.551 101.674 134.399 101.772L125.711 106.8C125.427 106.964 125.195 106.832 125.195 106.5V102.1C125.205 101.92 125.256 101.744 125.346 101.588C125.435 101.432 125.561 101.299 125.711 101.2Z" fill="#F5F5F5"/>
<g opacity="0.5">
<path d="M125.955 102.347C125.933 102.347 125.911 102.342 125.893 102.331C125.874 102.321 125.858 102.305 125.847 102.287C125.838 102.272 125.832 102.256 125.83 102.24C125.827 102.223 125.828 102.206 125.832 102.19C125.836 102.173 125.843 102.158 125.853 102.144C125.863 102.131 125.876 102.119 125.891 102.111L134.079 97.3867C134.107 97.3697 134.141 97.3648 134.174 97.3731C134.206 97.3813 134.234 97.402 134.251 97.4307C134.267 97.4593 134.272 97.4935 134.264 97.5258C134.256 97.558 134.235 97.5857 134.207 97.6027L126.019 102.331C125.999 102.342 125.977 102.347 125.955 102.347Z" fill="#455A64"/>
<path d="M125.954 103.431C125.932 103.43 125.911 103.424 125.892 103.413C125.873 103.402 125.857 103.386 125.846 103.367C125.838 103.353 125.832 103.337 125.829 103.321C125.827 103.304 125.828 103.288 125.832 103.272C125.836 103.256 125.843 103.24 125.853 103.227C125.863 103.214 125.876 103.203 125.89 103.195L134.078 98.4668C134.108 98.4508 134.142 98.4469 134.174 98.4559C134.206 98.4648 134.233 98.486 134.25 98.5148C134.259 98.529 134.265 98.5447 134.267 98.561C134.269 98.5774 134.269 98.5941 134.264 98.6101C134.26 98.6261 134.253 98.6412 134.243 98.6544C134.233 98.6675 134.221 98.6786 134.206 98.6868L126.018 103.415C125.999 103.426 125.977 103.431 125.954 103.431Z" fill="#455A64"/>
<path d="M125.954 104.514C125.932 104.514 125.911 104.508 125.892 104.496C125.873 104.485 125.857 104.469 125.846 104.45C125.838 104.436 125.832 104.42 125.829 104.404C125.827 104.388 125.828 104.371 125.832 104.355C125.836 104.339 125.843 104.324 125.853 104.311C125.863 104.298 125.876 104.287 125.89 104.278L134.078 99.5503C134.093 99.5419 134.109 99.5364 134.125 99.5342C134.142 99.5321 134.158 99.5333 134.174 99.5378C134.191 99.5422 134.205 99.5499 134.219 99.5603C134.232 99.5707 134.242 99.5837 134.25 99.5983C134.259 99.6124 134.265 99.6282 134.267 99.6445C134.269 99.6609 134.269 99.6776 134.264 99.6936C134.26 99.7096 134.253 99.7247 134.243 99.7378C134.233 99.751 134.221 99.7621 134.206 99.7703L126.018 104.494C125.999 104.506 125.977 104.513 125.954 104.514Z" fill="#455A64"/>
<path d="M125.954 105.599C125.932 105.599 125.91 105.593 125.891 105.582C125.872 105.571 125.857 105.554 125.846 105.535C125.838 105.521 125.832 105.505 125.829 105.488C125.827 105.472 125.828 105.455 125.832 105.439C125.836 105.423 125.843 105.408 125.853 105.395C125.863 105.382 125.876 105.371 125.89 105.363L134.078 100.639C134.092 100.63 134.108 100.625 134.124 100.622C134.141 100.62 134.157 100.621 134.173 100.625C134.189 100.629 134.204 100.636 134.218 100.646C134.231 100.656 134.242 100.668 134.25 100.683C134.259 100.697 134.264 100.713 134.267 100.729C134.269 100.745 134.268 100.762 134.264 100.778C134.26 100.794 134.253 100.809 134.243 100.822C134.233 100.835 134.22 100.846 134.206 100.855L126.018 105.599C125.997 105.604 125.975 105.604 125.954 105.599Z" fill="#455A64"/>
</g>
<path d="M58.0528 175.639L22.8008 155.287V53.6914L58.0528 74.0434V175.639Z" fill="#263238"/>
<path d="M58.0527 74.043L106.265 46.207V147.803L58.0527 175.639V74.043Z" fill="#37474F"/>
<path d="M106.265 46.2075L58.0528 74.0435L22.8008 53.6915L71.0128 25.8555L106.265 46.2075Z" fill="#455A64"/>
<path d="M62.3086 143.828L102.005 120.908V144.58L62.3086 167.5V143.828Z" fill="#263238"/>
<path d="M119.037 134.404L100.137 123.5V144.356L119.037 155.264V134.404Z" fill="#37474F"/>
<g opacity="0.1">
<path d="M119.037 134.404L100.137 123.5V144.356L119.037 155.264V134.404Z" fill="black"/>
</g>
<path d="M101.457 122.732L100.137 123.496L119.037 134.404L120.361 133.644L101.457 122.732Z" fill="#455A64"/>
<path d="M102.184 127.469C102.192 127.384 102.179 127.299 102.144 127.221C102.11 127.144 102.056 127.076 101.988 127.025C101.974 127.012 101.958 127.001 101.94 126.993L100.92 126.401C100.84 126.365 100.752 126.351 100.665 126.36C100.578 126.369 100.495 126.401 100.424 126.453L81.3763 137.425L81.0683 136.377C81.023 136.211 80.9174 136.069 80.7723 135.977L79.7083 135.361C79.6105 135.302 79.4985 135.271 79.3843 135.271C79.2701 135.271 79.1581 135.302 79.0603 135.361L70.4003 140.401C70.1955 140.532 70.0239 140.708 69.899 140.916C69.774 141.124 69.6992 141.359 69.6803 141.601V166.801C69.6717 166.885 69.6849 166.97 69.7185 167.048C69.7521 167.126 69.805 167.194 69.8723 167.245L70.9643 167.881C71.0429 167.912 71.1281 167.923 71.2119 167.912C71.2958 167.902 71.3757 167.87 71.4443 167.821L101.492 150.485C101.698 150.351 101.868 150.17 101.991 149.957C102.113 149.745 102.183 149.506 102.196 149.261L102.184 127.469Z" fill="#1C6758"/>
<path d="M102.185 127.467V149.295C102.172 149.54 102.101 149.779 101.978 149.991C101.855 150.203 101.683 150.383 101.477 150.515L71.3614 167.899C71.2992 167.942 71.2264 167.966 71.1512 167.969C71.076 167.971 71.0016 167.953 70.9364 167.915C70.8713 167.878 70.8181 167.823 70.7828 167.756C70.7476 167.69 70.7319 167.615 70.7374 167.539V142.231C70.7463 141.986 70.8179 141.746 70.9454 141.535C71.0654 141.323 71.2357 141.143 71.4414 141.011L80.1214 135.999C80.2153 135.94 80.3229 135.907 80.4337 135.902C80.5445 135.897 80.6547 135.921 80.7534 135.971H80.7734C80.8461 136.016 80.9093 136.074 80.9594 136.142C81.0095 136.211 81.0455 136.289 81.0654 136.371L81.3774 137.423L81.4734 137.679C81.6014 138.111 82.3054 138.111 82.6974 137.887L101.497 127.063C101.563 127.017 101.639 126.986 101.719 126.974C101.799 126.962 101.881 126.97 101.957 126.995H101.989C102.062 127.049 102.118 127.121 102.153 127.204C102.187 127.287 102.199 127.378 102.185 127.467Z" fill="#1C6758"/>
<path opacity="0.15" d="M102.185 127.467V149.295C102.172 149.54 102.101 149.779 101.978 149.991C101.855 150.203 101.683 150.383 101.477 150.515L71.3614 167.899C71.2992 167.942 71.2264 167.966 71.1512 167.969C71.076 167.971 71.0016 167.953 70.9364 167.915C70.8713 167.878 70.8181 167.823 70.7828 167.756C70.7476 167.69 70.7319 167.615 70.7374 167.539V142.231C70.7463 141.986 70.8179 141.746 70.9454 141.535C71.0654 141.323 71.2357 141.143 71.4414 141.011L80.1214 135.999C80.2153 135.94 80.3229 135.907 80.4337 135.902C80.5445 135.897 80.6547 135.921 80.7534 135.971H80.7734C80.8461 136.016 80.9093 136.074 80.9594 136.142C81.0095 136.211 81.0455 136.289 81.0654 136.371L81.3774 137.423L81.4734 137.679C81.6014 138.111 82.3054 138.111 82.6974 137.887L101.497 127.063C101.563 127.017 101.639 126.986 101.719 126.974C101.799 126.962 101.881 126.97 101.957 126.995H101.989C102.062 127.049 102.118 127.121 102.153 127.204C102.187 127.287 102.199 127.378 102.185 127.467Z" fill="black"/>
<path opacity="0.35" d="M70.9922 167.924H70.9642L69.8722 167.292C69.8049 167.239 69.752 167.17 69.7185 167.091C69.6849 167.012 69.6718 166.926 69.6802 166.84V141.6C69.6891 141.354 69.7607 141.115 69.8882 140.904L70.9442 141.52C70.8178 141.73 70.7475 141.968 70.7402 142.212V167.52C70.7334 167.606 70.7542 167.691 70.7996 167.764C70.8449 167.837 70.9125 167.893 70.9922 167.924Z" fill="black"/>
<path d="M105.601 129.453C105.609 129.368 105.595 129.282 105.561 129.203C105.527 129.125 105.473 129.057 105.405 129.005C105.391 128.993 105.374 128.983 105.357 128.977L104.321 128.401C104.241 128.365 104.153 128.351 104.066 128.36C103.979 128.369 103.895 128.401 103.825 128.453L84.7806 139.429L84.4686 138.377C84.4255 138.21 84.3194 138.067 84.1726 137.977L83.1126 137.361C83.0129 137.305 82.9 137.278 82.7859 137.282C82.6718 137.285 82.5608 137.319 82.4646 137.381L73.7846 142.389C73.5809 142.522 73.4111 142.701 73.2889 142.911C73.1666 143.122 73.0953 143.358 73.0806 143.601V168.801C73.0721 168.886 73.0853 168.971 73.1189 169.05C73.1525 169.128 73.2054 169.197 73.2726 169.249L74.3646 169.881C74.4429 169.913 74.5279 169.925 74.6118 169.915C74.6958 169.905 74.7759 169.874 74.8446 169.825L104.893 152.485C105.097 152.351 105.268 152.171 105.39 151.959C105.512 151.747 105.583 151.509 105.597 151.265L105.601 129.453Z" fill="#1C6758"/>
<path opacity="0.15" d="M84.1531 137.952C84.0543 137.901 83.9442 137.877 83.8334 137.882C83.7226 137.887 83.615 137.921 83.5211 137.98L74.8451 142.992C74.6372 143.123 74.4654 143.305 74.3451 143.52L73.2891 142.904C73.4055 142.687 73.5765 142.505 73.7851 142.376L82.4651 137.364C82.5626 137.306 82.6738 137.275 82.7871 137.275C82.9004 137.275 83.0116 137.306 83.1091 137.364L84.1531 137.952Z" fill="white"/>
<path opacity="0.15" d="M105.34 128.976C105.262 128.951 105.18 128.944 105.1 128.956C105.019 128.968 104.943 128.998 104.876 129.044L86.0758 139.868C85.6758 140.096 84.9838 140.096 84.8518 139.66L84.7598 139.404L103.804 128.428C103.898 128.37 104.005 128.337 104.116 128.332C104.18 128.331 104.244 128.348 104.3 128.38L105.34 128.976Z" fill="white"/>
<path d="M105.6 129.452V151.276C105.587 151.521 105.516 151.76 105.393 151.973C105.27 152.186 105.098 152.366 104.892 152.5L74.7598 169.884C74.6977 169.926 74.6248 169.95 74.5496 169.953C74.4745 169.956 74.4 169.937 74.3349 169.9C74.2697 169.862 74.2165 169.807 74.1813 169.74C74.1461 169.674 74.1303 169.599 74.1358 169.524V144.212C74.1447 143.967 74.2163 143.729 74.3438 143.52C74.4638 143.306 74.6341 143.125 74.8398 142.992L83.5198 138C83.6131 137.94 83.7206 137.905 83.8316 137.899C83.9425 137.894 84.053 137.917 84.1518 137.968H84.1718C84.318 138.058 84.4229 138.201 84.4638 138.368L84.7798 139.416L84.8718 139.676C85.0038 140.108 85.7038 140.108 86.0958 139.884L104.896 129.056C104.962 129.01 105.038 128.98 105.118 128.969C105.198 128.957 105.279 128.963 105.356 128.988H105.388C105.461 129.04 105.519 129.11 105.556 129.192C105.593 129.273 105.608 129.363 105.6 129.452Z" fill="#1C6758"/>
<path opacity="0.2" d="M74.4005 169.904C74.4005 169.904 74.3765 169.904 74.3685 169.904L73.2765 169.272C73.2093 169.22 73.1564 169.151 73.1228 169.073C73.0892 168.995 73.076 168.909 73.0845 168.824V143.6C73.0929 143.355 73.1645 143.117 73.2925 142.908L74.3485 143.524C74.2221 143.735 74.1519 143.975 74.1445 144.22V169.52C74.1423 169.603 74.1657 169.684 74.2116 169.753C74.2574 169.822 74.3234 169.874 74.4005 169.904Z" fill="black"/>
<path d="M108.985 131.432C108.992 131.347 108.979 131.262 108.945 131.184C108.912 131.106 108.859 131.037 108.793 130.984L108.741 130.956L107.721 130.36C107.641 130.324 107.553 130.31 107.466 130.319C107.379 130.328 107.296 130.36 107.225 130.412L88.1811 141.384L87.8691 140.336C87.8238 140.17 87.7182 140.028 87.5731 139.936L86.5131 139.32C86.4152 139.261 86.3032 139.23 86.1891 139.23C86.0749 139.23 85.9629 139.261 85.8651 139.32L77.2011 144.356C76.9901 144.49 76.8146 144.674 76.6892 144.89C76.5639 145.107 76.4925 145.35 76.4811 145.6V170.8C76.4725 170.884 76.4856 170.969 76.5193 171.047C76.5529 171.125 76.6058 171.193 76.6731 171.244L77.7651 171.88C77.8437 171.911 77.9288 171.922 78.0127 171.911C78.0966 171.901 78.1765 171.869 78.2451 171.82L108.293 154.484C108.498 154.35 108.669 154.169 108.791 153.956C108.914 153.744 108.984 153.505 108.997 153.26L108.985 131.432Z" fill="#1C6758"/>
<path opacity="0.3" d="M87.5535 139.935C87.4553 139.883 87.3448 139.858 87.2336 139.863C87.1224 139.868 87.0146 139.902 86.9215 139.963L78.2455 144.971C78.0393 145.105 77.868 145.286 77.7455 145.499L76.6895 144.883C76.8085 144.668 76.9806 144.486 77.1895 144.355L85.8655 139.347C85.9627 139.289 86.074 139.258 86.1875 139.258C86.3009 139.258 86.4123 139.289 86.5095 139.347L87.5535 139.935Z" fill="white"/>
<path opacity="0.3" d="M108.74 130.957C108.663 130.932 108.581 130.925 108.5 130.937C108.42 130.949 108.343 130.979 108.276 131.025L89.4762 141.853C89.0762 142.077 88.3842 142.077 88.2522 141.645L88.1602 141.385L107.22 130.401C107.314 130.344 107.422 130.312 107.532 130.309C107.596 130.308 107.659 130.323 107.716 130.353L108.74 130.957Z" fill="white"/>
<path d="M108.984 131.432V153.26C108.971 153.505 108.9 153.743 108.777 153.955C108.654 154.168 108.482 154.347 108.276 154.48L78.1602 171.864C78.098 171.907 78.0252 171.931 77.95 171.933C77.8749 171.936 77.8004 171.918 77.7353 171.88C77.6701 171.843 77.6169 171.787 77.5817 171.721C77.5465 171.654 77.5307 171.579 77.5362 171.504V146.196C77.5451 145.95 77.6167 145.711 77.7442 145.5C77.8654 145.289 78.0354 145.109 78.2402 144.976L86.9202 139.964C87.0149 139.905 87.1231 139.872 87.2346 139.867C87.346 139.862 87.4568 139.886 87.5562 139.936C87.6289 139.98 87.6921 140.039 87.7422 140.107C87.7923 140.176 87.8284 140.254 87.8482 140.336L88.1642 141.388L88.2562 141.644C88.3882 142.076 89.0882 142.076 89.4802 141.852L108.28 131.028C108.347 130.981 108.424 130.951 108.504 130.939C108.585 130.927 108.667 130.935 108.744 130.96H108.772C108.847 131.013 108.906 131.084 108.943 131.167C108.981 131.25 108.995 131.342 108.984 131.432Z" fill="#1C6758"/>
<path opacity="0.15" d="M108.984 131.432V153.26C108.971 153.505 108.9 153.743 108.777 153.955C108.654 154.168 108.482 154.347 108.276 154.48L78.1602 171.864C78.098 171.907 78.0252 171.931 77.95 171.933C77.8749 171.936 77.8004 171.918 77.7353 171.88C77.6701 171.843 77.6169 171.787 77.5817 171.721C77.5465 171.654 77.5307 171.579 77.5362 171.504V146.196C77.5451 145.95 77.6167 145.711 77.7442 145.5C77.8654 145.289 78.0354 145.109 78.2402 144.976L86.9202 139.964C87.0149 139.905 87.1231 139.872 87.2346 139.867C87.346 139.862 87.4568 139.886 87.5562 139.936C87.6289 139.98 87.6921 140.039 87.7422 140.107C87.7923 140.176 87.8284 140.254 87.8482 140.336L88.1642 141.388L88.2562 141.644C88.3882 142.076 89.0882 142.076 89.4802 141.852L108.28 131.028C108.347 130.981 108.424 130.951 108.504 130.939C108.585 130.927 108.667 130.935 108.744 130.96H108.772C108.847 131.013 108.906 131.084 108.943 131.167C108.981 131.25 108.995 131.342 108.984 131.432Z" fill="white"/>
<path opacity="0.05" d="M77.797 171.888H77.765L76.673 171.256C76.6057 171.203 76.5528 171.134 76.5193 171.055C76.4857 170.976 76.4726 170.89 76.481 170.804V145.6C76.4899 145.354 76.5615 145.115 76.689 144.904L77.745 145.52C77.6181 145.729 77.5477 145.968 77.541 146.212V171.52C77.542 171.6 77.567 171.678 77.6126 171.744C77.6582 171.809 77.7225 171.86 77.797 171.888Z" fill="black"/>
<path d="M112.401 133.416C112.409 133.332 112.396 133.246 112.362 133.168C112.329 133.09 112.276 133.021 112.209 132.968C112.193 132.957 112.176 132.947 112.157 132.94L111.137 132.344C111.057 132.308 110.969 132.294 110.882 132.303C110.795 132.313 110.712 132.345 110.641 132.396L91.597 143.372L91.285 142.32C91.242 142.154 91.1358 142.01 90.989 141.92L89.929 141.304C89.8293 141.249 89.7164 141.221 89.6023 141.225C89.4882 141.228 89.3772 141.263 89.281 141.324L80.605 146.332C80.4017 146.463 80.2317 146.64 80.1088 146.848C79.9859 147.057 79.9134 147.291 79.897 147.532V172.732C79.8885 172.817 79.9017 172.903 79.9353 172.981C79.9689 173.059 80.0218 173.128 80.089 173.18L81.181 173.812C81.2594 173.844 81.3443 173.855 81.4281 173.845C81.5119 173.835 81.592 173.805 81.661 173.756L111.709 156.416C111.911 156.284 112.08 156.107 112.202 155.899C112.324 155.691 112.397 155.457 112.413 155.216L112.401 133.416Z" fill="#1C6758"/>
<path opacity="0.5" d="M90.9559 141.916C90.8571 141.866 90.747 141.842 90.6362 141.847C90.5254 141.852 90.4178 141.885 90.3239 141.944L81.6439 146.956C81.436 147.088 81.2642 147.27 81.1439 147.484L80.0879 146.868C80.2047 146.651 80.3773 146.469 80.5879 146.34L89.2639 141.328C89.3621 141.271 89.474 141.24 89.5879 141.24C89.7018 141.24 89.8137 141.271 89.9119 141.328L90.9559 141.916Z" fill="white"/>
<path opacity="0.5" d="M112.141 132.941C112.063 132.916 111.981 132.909 111.901 132.921C111.82 132.933 111.744 132.963 111.677 133.009L92.8766 143.833C92.4766 144.057 91.7846 144.061 91.6526 143.625L91.5605 143.369L110.621 132.401C110.715 132.343 110.822 132.31 110.933 132.305C110.997 132.304 111.061 132.32 111.117 132.353L112.141 132.941Z" fill="white"/>
<path d="M112.401 133.416V155.24C112.388 155.485 112.317 155.724 112.194 155.937C112.071 156.149 111.899 156.33 111.693 156.464L81.5688 173.848C81.5063 173.89 81.433 173.914 81.3575 173.917C81.2819 173.92 81.2071 173.901 81.1418 173.863C81.0765 173.825 81.0233 173.769 80.9884 173.702C80.9536 173.635 80.9384 173.559 80.9448 173.484V148.176C80.9521 147.931 81.0223 147.693 81.1488 147.484C81.2701 147.27 81.4417 147.089 81.6488 146.956L90.3248 141.948C90.4188 141.887 90.5269 141.853 90.6385 141.847C90.7501 141.841 90.8612 141.865 90.9608 141.916C91.107 142.006 91.2129 142.149 91.2568 142.316L91.5688 143.364L91.6608 143.624C91.7928 144.056 92.4928 144.056 92.8848 143.832L111.685 133.004C111.752 132.958 111.828 132.928 111.909 132.916C111.989 132.904 112.071 132.911 112.149 132.936H112.177C112.254 132.988 112.316 133.06 112.356 133.144C112.395 133.229 112.411 133.323 112.401 133.416Z" fill="#1C6758"/>
<path opacity="0.3" d="M112.401 133.416V155.24C112.388 155.485 112.317 155.724 112.194 155.937C112.071 156.149 111.899 156.33 111.693 156.464L81.5688 173.848C81.5063 173.89 81.433 173.914 81.3575 173.917C81.2819 173.92 81.2071 173.901 81.1418 173.863C81.0765 173.825 81.0233 173.769 80.9884 173.702C80.9536 173.635 80.9384 173.559 80.9448 173.484V148.176C80.9521 147.931 81.0223 147.693 81.1488 147.484C81.2701 147.27 81.4417 147.089 81.6488 146.956L90.3248 141.948C90.4188 141.887 90.5269 141.853 90.6385 141.847C90.7501 141.841 90.8612 141.865 90.9608 141.916C91.107 142.006 91.2129 142.149 91.2568 142.316L91.5688 143.364L91.6608 143.624C91.7928 144.056 92.4928 144.056 92.8848 143.832L111.685 133.004C111.752 132.958 111.828 132.928 111.909 132.916C111.989 132.904 112.071 132.911 112.149 132.936H112.177C112.254 132.988 112.316 133.06 112.356 133.144C112.395 133.229 112.411 133.323 112.401 133.416Z" fill="white"/>
<path d="M81.9919 155.793L63.0879 144.889V165.745L81.9879 176.653L81.9919 155.793Z" fill="#37474F"/>
<path d="M64.4119 144.125L63.0879 144.885L81.9919 155.793L83.3119 155.033L64.4119 144.125Z" fill="#455A64"/>
<path d="M82.6172 154.752L122.313 131.832V155.508L82.6172 178.424V154.752Z" fill="#455A64"/>
<path d="M82.6173 154.752L80.6133 153.592V177.268L82.6173 178.424V154.752Z" fill="#263238"/>
<path d="M80.6133 153.592L120.309 130.672L122.313 131.832L82.6173 154.752L80.6133 153.592Z" fill="#37474F"/>
<path d="M109.393 145.392L107.997 144.592C107.931 144.558 107.856 144.544 107.782 144.55C107.708 144.557 107.637 144.584 107.577 144.628C107.406 144.739 107.263 144.889 107.162 145.065C107.06 145.242 107.002 145.44 106.993 145.644C106.98 145.72 106.989 145.799 107.02 145.87C107.05 145.941 107.101 146.001 107.165 146.044L108.565 146.844C108.761 146.956 108.813 147.056 108.817 147.072C108.821 147.088 108.745 147.248 108.453 147.416L101.945 151.176C101.537 151.386 101.087 151.501 100.628 151.512C100.17 151.523 99.7145 151.43 99.297 151.24L97.905 150.44C97.8404 150.411 97.7693 150.4 97.699 150.408C97.6288 150.416 97.5618 150.442 97.505 150.484C97.3344 150.596 97.1923 150.746 97.0902 150.922C96.9881 151.099 96.9287 151.297 96.917 151.5C96.9082 151.572 96.9193 151.645 96.9489 151.711C96.9785 151.778 97.0255 151.835 97.085 151.876L98.481 152.676C99.1119 153.012 99.8185 153.18 100.533 153.164C101.318 153.175 102.094 152.985 102.785 152.612L109.297 148.852C109.638 148.69 109.929 148.439 110.14 148.126C110.351 147.813 110.474 147.449 110.497 147.072C110.482 146.718 110.372 146.375 110.177 146.079C109.983 145.784 109.712 145.546 109.393 145.392Z" fill="#263238"/>
<path d="M85.2918 155.027L92.8478 150.663C93.0998 150.519 93.2998 150.635 93.2998 150.923V154.767C93.2918 154.924 93.2466 155.076 93.168 155.212C93.0894 155.348 92.9797 155.463 92.8478 155.547L85.2918 159.911C85.0438 160.055 84.8398 159.939 84.8398 159.651V155.807C84.8489 155.651 84.8945 155.499 84.973 155.364C85.0515 155.228 85.1607 155.113 85.2918 155.027Z" fill="#FAFAFA"/>
<path d="M85.3203 159.342V155.806C85.3285 155.734 85.3515 155.664 85.388 155.6C85.4245 155.537 85.4736 155.482 85.5323 155.438L92.8243 151.23V154.766C92.8152 154.839 92.7918 154.909 92.7554 154.972C92.719 155.035 92.6704 155.09 92.6123 155.134L85.3203 159.342ZM92.7363 151.378L85.5763 155.514C85.4842 155.587 85.4228 155.691 85.4043 155.806V159.198L92.5683 155.062C92.6595 154.99 92.7196 154.886 92.7363 154.77V151.378Z" fill="#1C6758"/>
<path d="M86.2514 156.622C86.2206 156.622 86.1903 156.614 86.1637 156.599C86.137 156.583 86.1148 156.561 86.0994 156.534C86.088 156.515 86.0806 156.493 86.0776 156.47C86.0747 156.448 86.0762 156.425 86.0822 156.403C86.0881 156.381 86.0984 156.361 86.1123 156.343C86.1263 156.325 86.1436 156.31 86.1634 156.298L91.8034 153.042C91.8432 153.02 91.8904 153.014 91.9347 153.026C91.9789 153.038 92.0166 153.067 92.0394 153.106C92.0622 153.146 92.0683 153.193 92.0563 153.238C92.0443 153.282 92.0152 153.32 91.9754 153.342L86.3354 156.598C86.3103 156.614 86.2811 156.623 86.2514 156.622Z" fill="#E0E0E0"/>
<path d="M86.2517 157.556C86.2212 157.557 86.191 157.549 86.1643 157.535C86.1376 157.52 86.1153 157.498 86.0997 157.472C86.0764 157.432 86.0701 157.384 86.0821 157.339C86.0941 157.294 86.1234 157.255 86.1637 157.232L91.8037 153.976C91.8435 153.953 91.8907 153.947 91.9349 153.959C91.9792 153.971 92.0169 154 92.0397 154.04C92.0625 154.08 92.0686 154.127 92.0566 154.171C92.0446 154.216 92.0155 154.253 91.9757 154.276L86.3357 157.532C86.3105 157.548 86.2814 157.556 86.2517 157.556Z" fill="#E0E0E0"/>
<path d="M64.2852 114.859L103.985 91.9395L103.981 115.615L64.2852 138.535V114.859Z" fill="#455A64"/>
<path d="M64.2853 114.859L62.2812 113.703V137.379L64.2853 138.535V114.859Z" fill="#263238"/>
<path d="M62.2812 113.703L101.977 90.7832L103.985 91.9392L64.2853 114.859L62.2812 113.703Z" fill="#37474F"/>
<path d="M62.2812 113.704L67.2013 110.772L72.1372 107.864C75.4292 105.924 78.7413 104.02 82.0413 102.096L92.0013 96.3997C95.3253 94.5157 98.6413 92.6197 102.001 90.7637L104.001 91.9637L101.961 90.7997H102.001C98.7253 92.7637 95.4253 94.6877 92.1333 96.6237L82.2172 102.4C78.9012 104.296 75.5973 106.212 72.2693 108.092L67.2853 110.916L62.2812 113.704Z" fill="#263238"/>
<path d="M91.0651 105.503L89.6691 104.703C89.6022 104.668 89.5269 104.653 89.4519 104.66C89.3769 104.666 89.3052 104.693 89.2451 104.739C89.0746 104.849 88.9328 104.998 88.8313 105.174C88.7298 105.35 88.6714 105.548 88.6611 105.751C88.6485 105.827 88.6584 105.906 88.6896 105.977C88.7209 106.048 88.7721 106.108 88.8371 106.151L90.2371 106.951C90.4331 107.063 90.4851 107.159 90.4891 107.179C90.4931 107.199 90.4171 107.355 90.1251 107.523L83.6011 111.267C83.1938 111.478 82.7437 111.594 82.2849 111.606C81.8261 111.618 81.3707 111.525 80.9531 111.335L79.5571 110.535C79.4925 110.506 79.4214 110.495 79.3512 110.503C79.2809 110.51 79.2139 110.537 79.1571 110.579C78.9859 110.689 78.8436 110.839 78.742 111.016C78.6404 111.193 78.5825 111.391 78.5731 111.595C78.5647 111.666 78.5755 111.738 78.6043 111.803C78.6331 111.869 78.679 111.925 78.7371 111.967L80.1291 112.767C80.7611 113.104 81.469 113.273 82.1851 113.259C82.9711 113.27 83.7467 113.079 84.4371 112.703L90.9451 108.947C91.2852 108.783 91.5756 108.532 91.7865 108.219C91.9974 107.907 92.1212 107.543 92.1451 107.167C92.1298 106.818 92.0216 106.48 91.8317 106.188C91.6418 105.895 91.3771 105.659 91.0651 105.503Z" fill="#263238"/>
<path d="M66.9617 115.139L74.5217 110.775C74.7697 110.631 74.9737 110.747 74.9737 111.035V114.879C74.9647 115.035 74.9191 115.187 74.8406 115.323C74.762 115.458 74.6528 115.573 74.5217 115.659L66.9617 120.023C66.7137 120.167 66.5137 120.051 66.5137 119.763V115.919C66.5219 115.763 66.5668 115.611 66.6446 115.475C66.7224 115.34 66.831 115.224 66.9617 115.139Z" fill="#FAFAFA"/>
<path d="M66.9902 119.454V115.918C66.9993 115.846 67.0227 115.776 67.0591 115.713C67.0955 115.649 67.1442 115.594 67.2022 115.55L74.4942 111.338V114.878C74.4852 114.95 74.4617 115.02 74.4253 115.083C74.3889 115.146 74.3403 115.202 74.2822 115.246L66.9902 119.454ZM74.4022 111.49L67.2382 115.626C67.147 115.698 67.0869 115.803 67.0702 115.918V119.306L74.2302 115.17C74.3223 115.098 74.3838 114.993 74.4022 114.878V111.49Z" fill="#1C6758"/>
<path d="M67.9209 116.731C67.8904 116.731 67.8604 116.724 67.8338 116.709C67.8071 116.694 67.7848 116.673 67.7689 116.647C67.7476 116.606 67.7424 116.559 67.7543 116.515C67.7661 116.47 67.7941 116.432 67.8329 116.407L73.4729 113.151C73.5129 113.131 73.5591 113.127 73.6019 113.14C73.6447 113.153 73.681 113.182 73.7034 113.221C73.7258 113.259 73.7326 113.305 73.7225 113.349C73.7124 113.392 73.686 113.43 73.6489 113.455L68.0009 116.711C67.9762 116.724 67.9487 116.731 67.9209 116.731Z" fill="#E0E0E0"/>
<path d="M67.922 117.666C67.883 117.668 67.8445 117.656 67.8129 117.633C67.7813 117.61 67.7585 117.577 67.7482 117.539C67.738 117.502 67.7409 117.461 67.7565 117.426C67.7721 117.39 67.7994 117.36 67.834 117.342L73.474 114.086C73.5144 114.063 73.5623 114.056 73.6072 114.068C73.6522 114.08 73.6906 114.11 73.714 114.15C73.736 114.19 73.7416 114.237 73.7297 114.281C73.7178 114.325 73.6892 114.363 73.65 114.386L68.002 117.642C67.9776 117.656 67.9502 117.664 67.922 117.666Z" fill="#E0E0E0"/>
<path d="M64.2852 84.5684L103.985 61.6484L103.981 85.3244L64.2852 108.244V84.5684Z" fill="#455A64"/>
<path d="M64.2853 84.5681L62.2812 83.4121V107.088L64.2853 108.244V84.5681Z" fill="#263238"/>
<path d="M62.2812 83.4122L101.977 60.4922L103.985 61.6482L64.2853 84.5682L62.2812 83.4122Z" fill="#37474F"/>
<path d="M62.2812 83.411L67.2013 80.479L72.1372 77.571C75.4292 75.631 78.7413 73.727 82.0413 71.803L92.0013 66.095C95.3253 64.211 98.6413 62.315 102.001 60.459L104.001 61.659L101.977 60.535H102.001C98.7253 62.503 95.4253 64.423 92.1333 66.363L82.2213 72.111C78.9053 74.007 75.6012 75.923 72.2732 77.803L67.2893 80.627L62.2812 83.411Z" fill="#263238"/>
<path d="M91.0651 75.2L89.6691 74.4C89.6022 74.3655 89.5269 74.3505 89.4519 74.3569C89.3769 74.3633 89.3052 74.3907 89.2451 74.436C89.0746 74.5464 88.9328 74.6958 88.8313 74.8717C88.7298 75.0476 88.6714 75.2451 88.6611 75.448C88.6485 75.5245 88.6584 75.6031 88.6896 75.6741C88.7209 75.7451 88.7721 75.8055 88.8371 75.848L90.2371 76.648C90.4331 76.76 90.4851 76.856 90.4891 76.876C90.4931 76.896 90.4171 77.052 90.1251 77.22L83.6011 80.976C83.1938 81.1875 82.7437 81.3035 82.2849 81.3153C81.8261 81.3271 81.3707 81.2343 80.9531 81.044L79.5571 80.244C79.4925 80.2153 79.4214 80.2043 79.3512 80.212C79.2809 80.2197 79.2139 80.2459 79.1571 80.288C78.9859 80.3986 78.8436 80.5485 78.742 80.7252C78.6404 80.9019 78.5825 81.1003 78.5731 81.304C78.5647 81.375 78.5755 81.4469 78.6043 81.5124C78.6331 81.5778 78.679 81.6343 78.7371 81.676L80.1291 82.476C80.7611 82.8129 81.469 82.9823 82.1851 82.968C82.9711 82.9793 83.7467 82.7878 84.4371 82.412L90.9451 78.656C91.2852 78.4926 91.5756 78.2416 91.7865 77.9287C91.9974 77.6159 92.1212 77.2525 92.1451 76.876C92.1319 76.5254 92.0247 76.1849 91.8347 75.89C91.6447 75.5952 91.3789 75.3568 91.0651 75.2Z" fill="#263238"/>
<path d="M66.9617 84.6875L74.5217 80.3235C74.7697 80.1795 74.9737 80.2956 74.9737 80.5836V84.4276C74.9678 84.5873 74.9236 84.7433 74.845 84.8825C74.7664 85.0217 74.6555 85.14 74.5217 85.2276L66.9617 89.5915C66.7137 89.7355 66.5137 89.6195 66.5137 89.3315V85.4875C66.5188 85.3281 66.5622 85.1721 66.6401 85.0329C66.7181 84.8937 66.8284 84.7753 66.9617 84.6875Z" fill="#FAFAFA"/>
<path d="M66.9902 89.0027V85.4667C66.9993 85.3944 67.0227 85.3245 67.0591 85.2613C67.0955 85.1982 67.1442 85.1429 67.2022 85.0987L74.4942 80.8867V84.4267C74.4852 84.4991 74.4617 84.5689 74.4253 84.6321C74.3889 84.6953 74.3403 84.7506 74.2822 84.7947L66.9902 89.0027ZM74.4022 81.0387L67.2382 85.1747C67.147 85.247 67.0869 85.3515 67.0702 85.4667V88.8547L74.2302 84.7187C74.3223 84.6466 74.3838 84.5423 74.4022 84.4267V81.0387Z" fill="#1C6758"/>
<path d="M67.9225 86.2836C67.8918 86.2831 67.8616 86.2748 67.835 86.2594C67.8084 86.244 67.7862 86.222 67.7705 86.1956C67.7495 86.1554 67.7444 86.1088 67.7563 86.0651C67.7681 86.0213 67.7961 85.9836 67.8345 85.9596L73.4745 82.6996C73.4945 82.6862 73.517 82.6771 73.5407 82.6728C73.5644 82.6685 73.5887 82.669 73.6121 82.6745C73.6356 82.6799 73.6577 82.6901 73.677 82.7045C73.6963 82.7188 73.7125 82.7369 73.7246 82.7577C73.7367 82.7786 73.7443 82.8016 73.7471 82.8255C73.7499 82.8495 73.7477 82.8737 73.7408 82.8967C73.7339 82.9198 73.7223 82.9411 73.7067 82.9595C73.6912 82.9779 73.6721 82.9929 73.6505 83.0036L68.0025 86.2596C67.978 86.2736 67.9507 86.2818 67.9225 86.2836Z" fill="#E0E0E0"/>
<path d="M67.9225 87.1992C67.8918 87.1987 67.8616 87.1904 67.835 87.175C67.8084 87.1596 67.7862 87.1376 67.7705 87.1112C67.7495 87.071 67.7444 87.0244 67.7563 86.9807C67.7681 86.9369 67.7961 86.8993 67.8345 86.8752L73.4745 83.6192C73.5148 83.596 73.5627 83.5897 73.6077 83.6016C73.6527 83.6136 73.6911 83.643 73.7145 83.6832C73.7365 83.7232 73.7421 83.7701 73.7302 83.8141C73.7182 83.8582 73.6897 83.8958 73.6505 83.9192L68.0025 87.1992C67.9762 87.2051 67.9488 87.2051 67.9225 87.1992Z" fill="#E0E0E0"/>
<path d="M62.7313 74.4467L78.2473 65.4947C78.4953 65.3507 78.6953 65.4707 78.6953 65.7547V71.2267C78.6902 71.3862 78.6468 71.5421 78.5688 71.6813C78.4909 71.8205 78.3806 71.939 78.2473 72.0267L62.7313 80.9587C62.4793 81.1027 62.2793 80.9867 62.2793 80.6987V75.2267C62.2874 75.0702 62.3326 74.9178 62.4112 74.7821C62.4897 74.6465 62.5995 74.5315 62.7313 74.4467Z" fill="#FAFAFA"/>
<path d="M62.7559 80.3986V75.2266C62.7649 75.1542 62.7884 75.0844 62.8248 75.0212C62.8612 74.958 62.9098 74.9027 62.9679 74.8586L78.2199 66.0586V71.2226C78.2108 71.295 78.1874 71.3648 78.151 71.428C78.1146 71.4912 78.0659 71.5464 78.0079 71.5906L62.7559 80.3986ZM78.1319 66.2226L63.0119 74.9426C62.9221 75.0162 62.8624 75.12 62.8439 75.2346V80.2506L77.9639 71.5266C78.0551 71.4543 78.1152 71.3498 78.1319 71.2346V66.2226Z" fill="#1C6758"/>
<path d="M64.8992 76.5069L65.4912 74.5789C65.4912 74.5549 65.5152 74.5229 65.5352 74.4749C65.5545 74.4316 65.5866 74.3953 65.6272 74.3709L65.8392 74.2469C65.8477 74.24 65.8583 74.2363 65.8692 74.2363C65.8801 74.2363 65.8907 74.24 65.8992 74.2469C65.9166 74.2682 65.9251 74.2954 65.9232 74.3229V77.4309C65.9229 77.4682 65.9147 77.505 65.8992 77.5389C65.887 77.5684 65.8661 77.5936 65.8392 77.6109L65.5872 77.7549C65.579 77.7625 65.5683 77.7667 65.5572 77.7667C65.546 77.7667 65.5353 77.7625 65.5272 77.7549C65.5182 77.7445 65.5114 77.7324 65.5073 77.7194C65.5031 77.7063 65.5017 77.6925 65.5032 77.6789V75.7989L65.1032 77.1149C65.0929 77.1512 65.0782 77.1862 65.0592 77.2189C65.0466 77.2549 65.0209 77.2849 64.9872 77.3029L64.8272 77.3949C64.7952 77.4135 64.7712 77.4135 64.7552 77.3949C64.7362 77.3817 64.721 77.3637 64.7112 77.3429L64.3112 76.4949V78.3749C64.3109 78.4122 64.3027 78.449 64.2872 78.4829C64.275 78.5124 64.2541 78.5376 64.2272 78.5549L63.9752 78.6989C63.967 78.7065 63.9563 78.7107 63.9452 78.7107C63.934 78.7107 63.9233 78.7065 63.9152 78.6989C63.9062 78.6885 63.8994 78.6764 63.8953 78.6634C63.8911 78.6503 63.8897 78.6365 63.8912 78.6229V75.5149C63.8915 75.4789 63.8997 75.4434 63.9152 75.4109C63.9263 75.3807 63.9475 75.3553 63.9752 75.3389L64.1872 75.2149C64.2312 75.1909 64.2592 75.1909 64.2792 75.2149L64.3232 75.2669L64.8992 76.5069Z" fill="#455A64"/>
<path d="M68.0714 72.9591C68.0796 72.9515 68.0903 72.9473 68.1014 72.9473C68.1126 72.9473 68.1233 72.9515 68.1314 72.9591C68.1419 72.9686 68.1498 72.9804 68.1547 72.9937C68.1596 73.0069 68.1612 73.0211 68.1594 73.0351C68.1614 73.051 68.1614 73.0671 68.1594 73.0831L67.4194 75.5151V76.5751C67.4187 76.611 67.4105 76.6464 67.3954 76.6791C67.3843 76.7093 67.3631 76.7347 67.3354 76.7511L67.0834 76.8951C67.076 76.9024 67.0659 76.9065 67.0554 76.9065C67.045 76.9065 67.0349 76.9024 67.0274 76.8951C67.017 76.8856 67.009 76.8737 67.0042 76.8605C66.9993 76.8473 66.9977 76.8331 66.9994 76.8191V75.7591L66.2594 74.1831C66.2573 74.1698 66.2573 74.1563 66.2594 74.1431C66.2592 74.107 66.2675 74.0714 66.2834 74.0391C66.2955 74.0084 66.3164 73.982 66.3434 73.9631L66.5754 73.8311C66.6194 73.8071 66.6514 73.8031 66.6714 73.8311C66.6877 73.845 66.7001 73.8629 66.7074 73.8831L67.2154 74.9511L67.7194 73.2991C67.7283 73.2654 67.7417 73.2331 67.7594 73.2031C67.7778 73.1602 67.8102 73.1249 67.8514 73.1031L68.0714 72.9591Z" fill="#455A64"/>
<path d="M70.772 71.3992C70.7805 71.3924 70.7911 71.3887 70.802 71.3887C70.8129 71.3887 70.8235 71.3924 70.832 71.3992C70.8494 71.4205 70.858 71.4477 70.856 71.4752V71.8192C70.8557 71.8552 70.8475 71.8907 70.832 71.9232C70.8209 71.9534 70.7997 71.9788 70.772 71.9952L69.776 72.5712V73.5072L70.712 72.9672C70.7202 72.9596 70.7309 72.9554 70.742 72.9554C70.7531 72.9554 70.7639 72.9596 70.772 72.9672C70.781 72.9775 70.7878 72.9896 70.7919 73.0027C70.796 73.0158 70.7974 73.0296 70.796 73.0432V73.3832C70.7957 73.4205 70.7875 73.4573 70.772 73.4912C70.7584 73.5199 70.7378 73.5447 70.712 73.5632L69.776 74.1032V75.1992C69.7757 75.2365 69.7675 75.2733 69.752 75.3072C69.7409 75.3374 69.7197 75.3628 69.692 75.3792L69.44 75.5232C69.4319 75.5308 69.4211 75.535 69.41 75.535C69.3989 75.535 69.3882 75.5308 69.38 75.5232C69.371 75.5129 69.3642 75.5008 69.3601 75.4877C69.356 75.4746 69.3546 75.4608 69.356 75.4472V72.3392C69.3567 72.3032 69.3649 72.2678 69.38 72.2352C69.3911 72.205 69.4123 72.1796 69.44 72.1632L70.772 71.3992Z" fill="#455A64"/>
<path d="M71.3033 74.458C71.2951 74.4656 71.2844 74.4698 71.2733 74.4698C71.2622 74.4698 71.2514 74.4656 71.2433 74.458C71.2343 74.4476 71.2275 74.4356 71.2234 74.4225C71.2193 74.4094 71.2179 74.3956 71.2193 74.382V71.274C71.2196 71.238 71.2278 71.2025 71.2433 71.17C71.2544 71.1398 71.2756 71.1144 71.3033 71.098L71.5553 70.95C71.5638 70.9432 71.5744 70.9395 71.5853 70.9395C71.5962 70.9395 71.6068 70.9432 71.6153 70.95C71.6243 70.9603 71.6311 70.9724 71.6352 70.9855C71.6393 70.9986 71.6407 71.0124 71.6393 71.026V74.134C71.6395 74.17 71.6313 74.2057 71.6153 74.238C71.6032 74.2687 71.5823 74.2951 71.5553 74.314L71.3033 74.458Z" fill="#455A64"/>
<path d="M73.599 72.5436C73.6075 72.5368 73.6181 72.5331 73.629 72.5331C73.6399 72.5331 73.6505 72.5368 73.659 72.5436C73.6779 72.5644 73.6879 72.5916 73.687 72.6196V72.9636C73.6858 73 73.6762 73.0356 73.659 73.0676C73.6469 73.0983 73.6261 73.1247 73.599 73.1436L72.231 73.9436C72.2225 73.9505 72.2119 73.9542 72.201 73.9542C72.1901 73.9542 72.1795 73.9505 72.171 73.9436C72.162 73.9333 72.1553 73.9212 72.1511 73.9081C72.147 73.8951 72.1456 73.8813 72.147 73.8676V70.7596C72.1473 70.7223 72.1555 70.6855 72.171 70.6516C72.1869 70.6245 72.2072 70.6002 72.231 70.5796L72.487 70.4356C72.4952 70.428 72.5059 70.4238 72.517 70.4238C72.5282 70.4238 72.5389 70.428 72.547 70.4356C72.556 70.446 72.5628 70.4581 72.5669 70.4711C72.5711 70.4842 72.5724 70.498 72.571 70.5116V73.1476L73.599 72.5436Z" fill="#455A64"/>
<path d="M75.4189 71.4828C75.4271 71.4752 75.4378 71.471 75.4489 71.471C75.4601 71.471 75.4708 71.4752 75.4789 71.4828C75.4879 71.4931 75.4947 71.5052 75.4988 71.5183C75.503 71.5313 75.5044 71.5451 75.5029 71.5588V71.8988C75.5027 71.9361 75.4945 71.9729 75.4789 72.0068C75.4678 72.0369 75.4466 72.0624 75.4189 72.0788L74.0509 72.8788C74.0424 72.8856 74.0318 72.8893 74.0209 72.8893C74.01 72.8893 73.9995 72.8856 73.9909 72.8788C73.9721 72.858 73.9621 72.8308 73.9629 72.8028V69.6948C73.9687 69.6608 73.981 69.6282 73.9989 69.5988C74.0122 69.5699 74.0329 69.5451 74.0589 69.5268L75.4029 68.7508C75.4115 68.744 75.422 68.7402 75.4329 68.7402C75.4439 68.7402 75.4544 68.744 75.4629 68.7508C75.4719 68.7611 75.4787 68.7732 75.4828 68.7863C75.487 68.7993 75.4884 68.8131 75.4869 68.8268V69.1668C75.4867 69.2041 75.4785 69.2409 75.4629 69.2748C75.4518 69.3049 75.4306 69.3304 75.4029 69.3468L74.3989 69.9148V70.6788L75.3389 70.1348C75.3475 70.1279 75.358 70.1242 75.3689 70.1242C75.3798 70.1242 75.3904 70.1279 75.3989 70.1348C75.4163 70.1561 75.4249 70.1833 75.4229 70.2108V70.5548C75.4231 70.5908 75.4149 70.6264 75.3989 70.6588C75.3868 70.6894 75.366 70.7159 75.3389 70.7348L74.3989 71.2788V72.0788L75.4189 71.4828Z" fill="#455A64"/>
<path d="M76.6446 67.9629C76.7553 67.8916 76.8815 67.8477 77.0126 67.8349C77.105 67.829 77.1971 67.8513 77.2766 67.8989C77.3473 67.9461 77.4029 68.0128 77.4366 68.0909C77.4755 68.1737 77.4973 68.2635 77.5006 68.3549C77.5007 68.391 77.4925 68.4266 77.4766 68.4589C77.4642 68.4884 77.4433 68.5135 77.4166 68.5309L77.1966 68.6589C77.1606 68.6589 77.1366 68.6829 77.1166 68.6589C77.0958 68.6449 77.0793 68.6256 77.0686 68.6029C77.0399 68.5449 76.9896 68.5004 76.9286 68.4789C76.8788 68.4706 76.8279 68.4727 76.779 68.4851C76.7301 68.4975 76.6843 68.5199 76.6446 68.5509C76.5884 68.5837 76.5361 68.6226 76.4886 68.6669C76.4405 68.7128 76.3976 68.7638 76.3606 68.8189C76.3254 68.8725 76.2972 68.9303 76.2766 68.9909C76.2544 69.0483 76.2435 69.1094 76.2446 69.1709C76.2403 69.2271 76.2499 69.2834 76.2726 69.3349C76.2833 69.3525 76.2979 69.3673 76.3152 69.3784C76.3325 69.3895 76.3521 69.3965 76.3726 69.3989C76.4349 69.4076 76.4982 69.4076 76.5606 69.3989L76.8486 69.3349C76.9531 69.308 77.0606 69.2946 77.1686 69.2949C77.2497 69.2943 77.3286 69.3211 77.3926 69.3709C77.4538 69.422 77.4984 69.4903 77.5206 69.5669C77.5504 69.6736 77.5639 69.7842 77.5606 69.8949C77.56 70.0423 77.5398 70.1889 77.5006 70.3309C77.4589 70.4781 77.3984 70.6193 77.3206 70.7509C77.2416 70.8874 77.1462 71.0136 77.0366 71.1269C76.925 71.2409 76.7985 71.3391 76.6606 71.4189C76.5577 71.4826 76.4437 71.5261 76.3246 71.5469C76.2296 71.5679 76.1306 71.5595 76.0406 71.5229C75.9566 71.4871 75.8874 71.4235 75.8446 71.3429C75.7887 71.2398 75.7598 71.1242 75.7606 71.0069C75.757 70.9693 75.7654 70.9315 75.7846 70.8989C75.7979 70.8701 75.8186 70.8452 75.8446 70.8269L76.0646 70.7029C76.0756 70.6939 76.0885 70.6874 76.1023 70.6839C76.1161 70.6805 76.1306 70.6801 76.1446 70.6829C76.1663 70.6976 76.1831 70.7185 76.1926 70.7429C76.2067 70.7765 76.2242 70.8087 76.2446 70.8389C76.2654 70.8675 76.2948 70.8885 76.3286 70.8989C76.3719 70.9093 76.4172 70.9093 76.4606 70.8989C76.5312 70.8816 76.5987 70.8533 76.6606 70.8149C76.7233 70.7778 76.7835 70.7363 76.8406 70.6909C76.8983 70.6433 76.9494 70.5881 76.9926 70.5269C77.0361 70.4704 77.0724 70.4086 77.1006 70.3429C77.1276 70.277 77.1412 70.2062 77.1406 70.1349C77.1459 70.0817 77.1301 70.0286 77.0966 69.9869C77.0788 69.9711 77.0578 69.9593 77.035 69.9524C77.0122 69.9455 76.9881 69.9436 76.9646 69.9469C76.8904 69.9533 76.8169 69.9653 76.7446 69.9829C76.6566 69.9829 76.5566 70.0269 76.4406 70.0469C76.3504 70.0599 76.2588 70.0599 76.1686 70.0469C76.0956 70.0419 76.0265 70.0123 75.9726 69.9629C75.9158 69.9075 75.8768 69.8365 75.8606 69.7589C75.8299 69.6442 75.8164 69.5256 75.8206 69.4069C75.8225 69.2594 75.844 69.1128 75.8846 68.9709C75.9285 68.8322 75.9861 68.6982 76.0566 68.5709C76.1291 68.4438 76.2163 68.3256 76.3166 68.2189C76.4129 68.1182 76.5234 68.0319 76.6446 67.9629Z" fill="#455A64"/>
<path opacity="0.15" d="M76.2743 38.8683C73.6143 40.4083 73.6143 42.9003 76.2743 44.4363C78.9343 45.9723 83.2543 45.9723 85.9183 44.4363C88.5823 42.9003 88.5783 40.4083 85.9183 38.8683C83.2583 37.3283 78.9383 37.3323 76.2743 38.8683Z" fill="black"/>
<path d="M85.4897 42.0557C87.8417 39.6557 89.2217 33.6557 86.9297 31.7637H75.2617C72.9697 33.6637 74.3497 39.6517 76.6977 42.0517L76.7617 42.1197L76.8417 42.1997C76.9097 42.2637 76.9817 42.3277 77.0577 42.3877L77.1137 42.4317C77.1699 42.4789 77.2287 42.5229 77.2897 42.5637C77.3867 42.6355 77.4883 42.701 77.5937 42.7597C79.5297 43.8757 82.6617 43.8757 84.5977 42.7597C84.704 42.7001 84.8068 42.6347 84.9057 42.5637L85.0697 42.4397L85.1377 42.3837L85.3417 42.2037L85.4377 42.1117L85.4897 42.0557Z" fill="#EBEBEB"/>
<path d="M76.2743 30.9953C73.6143 32.5353 73.6143 35.0273 76.2743 36.5633C78.9343 38.0993 83.2543 38.0993 85.9183 36.5633C88.5823 35.0273 88.5783 32.5353 85.9183 30.9953C83.2583 29.4553 78.9383 29.4593 76.2743 30.9953Z" fill="#FAFAFA"/>
<path d="M78.1623 32.0866C76.5423 33.0226 76.5423 34.5386 78.1623 35.4706C79.0715 35.9319 80.0767 36.1724 81.0963 36.1724C82.1158 36.1724 83.1211 35.9319 84.0303 35.4706C85.6503 34.5386 85.6503 33.0226 84.0303 32.0866C83.1211 31.6252 82.1158 31.3848 81.0963 31.3848C80.0767 31.3848 79.0715 31.6252 78.1623 32.0866Z" fill="#EBEBEB"/>
<path d="M84.0292 33.6959C83.12 33.2346 82.1147 32.9941 81.0952 32.9941C80.0756 32.9941 79.0704 33.2346 78.1612 33.6959C77.7725 33.9077 77.4426 34.2129 77.2012 34.5839C77.4458 34.9551 77.7783 35.2601 78.1692 35.4719C79.0784 35.9333 80.0836 36.1737 81.1032 36.1737C82.1227 36.1737 83.1279 35.9333 84.0372 35.4719C84.428 35.2601 84.7605 34.9551 85.0052 34.5839C84.7593 34.2109 84.4237 33.9055 84.0292 33.6959Z" fill="#E0E0E0"/>
<path d="M80.6665 35.0954C80.0085 35.0313 79.3714 34.8294 78.7966 34.5027C78.2218 34.176 77.7223 33.732 77.3305 33.1994C76.991 32.7409 76.6811 32.2613 76.4025 31.7634C75.4225 30.0314 75.2425 27.7074 75.7505 27.4234C76.2585 27.1394 78.3185 29.4514 78.3185 29.4514C78.1294 28.4781 78.0555 27.486 78.0985 26.4954C78.1865 24.9514 78.5625 23.5474 79.0065 23.2674C79.4505 22.9874 80.4345 24.9314 80.8585 26.3394C81.2825 27.7474 81.5385 28.9114 81.5385 28.9114C81.708 27.8108 81.9621 26.7249 82.2985 25.6634C82.8105 24.1994 83.2785 23.8674 83.6385 24.0154C83.9985 24.1634 84.2385 24.8434 84.3465 26.7914C84.384 27.7256 84.3546 28.6614 84.2585 29.5914C84.2585 29.5914 84.9865 28.7914 85.7905 28.0154C86.6785 27.1674 87.0585 27.0474 87.3105 27.2154C87.5625 27.3834 87.6345 28.7034 86.2625 31.1834C85.8448 31.9383 85.3644 32.6568 84.8265 33.3314C84.3451 33.9407 83.721 34.4222 83.0095 34.7333C82.298 35.0444 81.5208 35.1757 80.7465 35.1154L80.6665 35.0954Z" fill="#1C6758"/>
<path opacity="0.15" d="M80.6665 35.0954C80.0085 35.0313 79.3714 34.8294 78.7966 34.5027C78.2218 34.176 77.7223 33.732 77.3305 33.1994C76.991 32.7409 76.6811 32.2613 76.4025 31.7634C75.4225 30.0314 75.2425 27.7074 75.7505 27.4234C76.2585 27.1394 78.3185 29.4514 78.3185 29.4514C78.1294 28.4781 78.0555 27.486 78.0985 26.4954C78.1865 24.9514 78.5625 23.5474 79.0065 23.2674C79.4505 22.9874 80.4345 24.9314 80.8585 26.3394C81.2825 27.7474 81.5385 28.9114 81.5385 28.9114C81.708 27.8108 81.9621 26.7249 82.2985 25.6634C82.8105 24.1994 83.2785 23.8674 83.6385 24.0154C83.9985 24.1634 84.2385 24.8434 84.3465 26.7914C84.384 27.7256 84.3546 28.6614 84.2585 29.5914C84.2585 29.5914 84.9865 28.7914 85.7905 28.0154C86.6785 27.1674 87.0585 27.0474 87.3105 27.2154C87.5625 27.3834 87.6345 28.7034 86.2625 31.1834C85.8448 31.9383 85.3644 32.6568 84.8265 33.3314C84.3451 33.9407 83.721 34.4222 83.0095 34.7333C82.298 35.0444 81.5208 35.1757 80.7465 35.1154L80.6665 35.0954Z" fill="black"/>
<path opacity="0.15" d="M78.4014 24.5391C78.2434 25.1804 78.1469 25.8354 78.1134 26.4951C78.0704 27.4856 78.1443 28.4778 78.3334 29.4511L79.3574 30.5151C79.3574 30.5151 78.3134 27.1151 78.4014 24.5391Z" fill="black"/>
<path opacity="0.15" d="M86.8014 27.2188C86.4272 27.4352 86.0864 27.7047 85.7894 28.0188C84.9894 28.7948 84.2574 29.5947 84.2574 29.5947C84.2158 30.0877 84.1383 30.5771 84.0254 31.0587C85.5254 30.1787 86.8014 27.2188 86.8014 27.2188Z" fill="black"/>
<path opacity="0.15" d="M82.1054 27.7867C82.2662 26.5661 82.5738 25.3695 83.0214 24.2227C82.6856 24.6493 82.4356 25.1369 82.2854 25.6587C81.9489 26.7202 81.6948 27.8061 81.5254 28.9067L81.7974 30.2307C81.7974 30.2307 81.9054 29.0627 82.1054 27.7867Z" fill="black"/>
<path opacity="0.15" d="M86.6479 55.5604C86.7356 55.5328 86.8121 55.4779 86.8664 55.4038C86.9207 55.3298 86.95 55.2403 86.95 55.1484C86.95 55.0565 86.9207 54.9671 86.8664 54.893C86.8121 54.8189 86.7356 54.764 86.6479 54.7364L55.7879 37.2724C55.5624 37.16 55.3139 37.1016 55.0619 37.1016C54.81 37.1016 54.5615 37.16 54.3359 37.2724L26.3359 53.1244L58.6599 71.4044L86.6479 55.5604Z" fill="black"/>
<path d="M84.0514 55.7133C84.1254 55.6807 84.1895 55.6291 84.2373 55.5638C84.2851 55.4985 84.3147 55.4217 84.3234 55.3413V54.7653L56.6914 39.1413C56.4859 39.0406 56.2601 38.9883 56.0314 38.9883C55.8026 38.9883 55.5768 39.0406 55.3714 39.1413L29.9434 53.5413L58.6314 70.1053L84.0514 55.7133Z" fill="#1C6758"/>
<path d="M84.0514 55.1527C84.4154 54.9447 84.4154 54.6127 84.0514 54.4047L56.6914 38.5807C56.4859 38.4801 56.2601 38.4277 56.0314 38.4277C55.8026 38.4277 55.5768 38.4801 55.3714 38.5807L29.9434 52.9807L58.6314 69.5447L84.0514 55.1527Z" fill="#1C6758"/>
<path opacity="0.5" d="M84.0514 55.1527C84.4154 54.9447 84.4154 54.6127 84.0514 54.4047L56.6914 38.5807C56.4859 38.4801 56.2601 38.4277 56.0314 38.4277C55.8026 38.4277 55.5768 38.4801 55.3714 38.5807L29.9434 52.9807L58.6314 69.5447L84.0514 55.1527Z" fill="black"/>
<path d="M35.7948 49.2008L54.6228 38.5488C54.8269 38.4461 55.0523 38.3926 55.2808 38.3926C55.5093 38.3926 55.7346 38.4461 55.9388 38.5488L81.1388 53.1408L83.5868 51.7408V54.5848L83.5388 54.6128C83.6228 54.7848 83.5388 54.9808 83.3148 55.1168L61.7508 67.3168L33.0508 50.7688V47.6608L35.7948 49.2008Z" fill="#EBEBEB"/>
<path d="M83.3028 52.0277C83.3787 51.9989 83.444 51.9477 83.4901 51.8809C83.5362 51.8141 83.5609 51.7348 83.5609 51.6537C83.5609 51.5725 83.5362 51.4933 83.4901 51.4265C83.444 51.3596 83.3787 51.3085 83.3028 51.2797L55.9388 35.4557C55.734 35.3551 55.5089 35.3027 55.2808 35.3027C55.0526 35.3027 54.8275 35.3551 54.6228 35.4557L33.0508 47.6597L61.7388 64.2237L83.3028 52.0277Z" fill="#FAFAFA"/>
<path d="M61.7388 64.2241V67.3321L33.0508 50.7681V47.6641L61.7388 64.2241Z" fill="#E6E6E6"/>
<path d="M61.3918 63.0121C61.5868 63.1115 61.8107 63.1385 62.0238 63.0881C62.0659 63.08 62.1064 63.0651 62.1438 63.0441C62.3438 62.9401 62.3198 62.7441 62.0918 62.6161C61.9849 62.561 61.8678 62.5283 61.7478 62.5201C61.6107 62.5049 61.4721 62.5284 61.3478 62.5881C61.3324 62.5942 61.3187 62.6038 61.3078 62.6161C61.1478 62.7281 61.1998 62.8921 61.3918 63.0121Z" fill="#263238"/>
<path d="M58.0679 65.4438C58.0513 65.8294 58.1702 66.2087 58.4039 66.5158C58.5181 66.6554 58.6623 66.7674 58.8257 66.8436C58.9892 66.9198 59.1677 66.9581 59.3479 66.9558C59.6702 66.9479 59.9847 66.8555 60.2599 66.6878C60.3163 66.6588 60.3711 66.6268 60.4239 66.5918L60.052 66.3838C59.156 66.8758 58.452 66.4558 58.452 65.4438C58.4853 64.8866 58.6502 64.3453 58.9332 63.8641C59.2162 63.383 59.6092 62.9757 60.0799 62.6758C60.2554 62.5465 60.4652 62.4719 60.6829 62.4612C60.9006 62.4505 61.1166 62.5043 61.3039 62.6158C61.4682 62.7321 61.587 62.9017 61.64 63.0958C61.7711 63.1297 61.9088 63.1297 62.04 63.0958C61.9942 62.8873 61.8996 62.6926 61.764 62.5278C61.6494 62.3903 61.5055 62.2801 61.3429 62.2053C61.1802 62.1306 61.0029 62.0932 60.8239 62.0958C60.4993 62.1046 60.1825 62.1969 59.9039 62.3638C59.3723 62.6912 58.9276 63.1422 58.6079 63.6785C58.2882 64.2148 58.103 64.8205 58.0679 65.4438Z" fill="#455A64"/>
<path d="M59.0117 62.5084L84.3237 50.4004V50.8004C84.3177 50.9131 84.2847 51.0228 84.2277 51.1202C84.1706 51.2176 84.0911 51.3 83.9957 51.3604L59.0117 63.0884V62.5084Z" fill="#1C6758"/>
<path d="M84.0514 50.7523C84.4154 50.5443 84.4154 50.2123 84.0514 50.0043L56.6914 34.1803C56.4859 34.0797 56.2601 34.0273 56.0314 34.0273C55.8026 34.0273 55.5768 34.0797 55.3714 34.1803L29.9434 46.1523L58.6314 62.7163L84.0514 50.7523Z" fill="#1C6758"/>
<path opacity="0.4" d="M84.0514 50.7523C84.4154 50.5443 84.4154 50.2123 84.0514 50.0043L56.6914 34.1803C56.4859 34.0797 56.2601 34.0273 56.0314 34.0273C55.8026 34.0273 55.5768 34.0797 55.3714 34.1803L29.9434 46.1523L58.6314 62.7163L84.0514 50.7523Z" fill="white"/>
<path d="M58.6314 70.1006L29.9434 53.5366V46.1406L58.6314 62.7206V70.1006Z" fill="#1C6758"/>
<path opacity="0.2" d="M58.6314 70.1006L29.9434 53.5366V46.1406L58.6314 62.7206V70.1006Z" fill="white"/>
<path d="M52.8435 65.3564C53.0245 65.3593 53.2038 65.3212 53.3679 65.245C53.5321 65.1688 53.6769 65.0565 53.7915 64.9164C54.0218 64.6077 54.139 64.2292 54.1235 63.8444C54.0911 63.2206 53.9088 62.6139 53.5919 62.0756C53.2751 61.5374 52.8331 61.0834 52.3035 60.7524C52.0248 60.5859 51.708 60.4936 51.3835 60.4844C50.6155 60.4844 50.1035 61.0924 50.1035 62.0004C50.1355 62.6237 50.3178 63.23 50.6347 63.7677C50.9516 64.3053 51.3937 64.7584 51.9235 65.0884C52.2003 65.256 52.516 65.3484 52.8395 65.3564H52.8435Z" fill="#455A64"/>
<path d="M53.7424 63.8448C53.7424 64.8648 53.0144 65.2768 52.1104 64.7688C51.639 64.4696 51.2455 64.0626 50.9624 63.5813C50.6793 63.1 50.5148 62.5583 50.4824 62.0008C50.4824 60.9808 51.2104 60.5688 52.1104 61.0768C52.5826 61.3756 52.9769 61.7824 53.2607 62.2637C53.5445 62.7451 53.7096 63.287 53.7424 63.8448Z" fill="#F5F5F5"/>
<path d="M47.827 60.1331V60.6931C47.827 61.8131 47.027 62.2651 46.035 61.7051L33.999 54.5451C33.4811 54.2164 33.0485 53.7694 32.737 53.2409C32.4255 52.7124 32.2438 52.1175 32.207 51.5051V50.9451C32.207 49.8251 33.007 49.3731 33.999 49.9291L46.055 57.0931C46.5702 57.4231 46.9995 57.8709 47.3076 58.3994C47.6157 58.928 47.7937 59.5222 47.827 60.1331Z" fill="#F5F5F5"/>
<path d="M59.0229 69.8812V62.5332L58.6309 62.7212V70.1012L59.0229 69.8812Z" fill="#1C6758"/>
<path d="M55.1353 40.6842L44.4513 45.7162C44.1833 45.8402 44.1753 46.0602 44.4273 46.2082L57.1993 53.6002C57.3441 53.6736 57.5028 53.7152 57.665 53.7221C57.8271 53.729 57.9889 53.7011 58.1393 53.6402L68.8233 48.6082C69.0913 48.4842 69.0993 48.2642 68.8473 48.1162L56.0713 40.7362C55.928 40.6615 55.7704 40.6181 55.6089 40.6092C55.4475 40.6002 55.2861 40.6258 55.1353 40.6842Z" fill="#FAFAFA"/>
<path d="M68.9464 48.1797C69.0944 48.3157 69.0504 48.4917 68.8264 48.5797L65.8344 49.9997L62.2344 47.5997C63.9224 47.0037 64.4424 47.1037 66.2824 47.5317C67.0344 47.7077 67.9984 47.9357 68.9464 48.1797Z" fill="#E6E6E6"/>
<path d="M66.3188 48.7044C66.6588 48.9284 66.9628 49.1444 67.2388 49.3444L58.1428 53.6284C57.9926 53.6917 57.8306 53.722 57.6677 53.7172C57.5049 53.7123 57.3449 53.6725 57.1988 53.6004L56.1708 53.0084C55.6668 52.4764 55.2708 51.8684 55.4468 51.2604C55.4468 51.2604 57.3868 49.8164 56.6708 49.3444L59.8908 47.9444C60.2908 48.2084 61.5548 47.6804 62.7948 47.5084C63.9468 47.3324 65.6468 48.2524 66.3188 48.7044Z" fill="#F5F5F5"/>
<path d="M57.2908 46.1125C57.1671 46.4023 56.9648 46.6517 56.7068 46.8325C56.4388 47.0045 56.3068 47.2325 56.0548 47.4125C55.5308 47.8125 56.4548 48.4845 55.6108 48.6125C54.8108 48.3205 52.5348 48.4405 50.7668 47.4565C49.8708 46.9605 49.5668 46.2845 50.0668 45.6525C49.5628 45.2165 49.7868 44.9005 49.8868 44.7325C50.1548 44.3333 50.5159 44.0053 50.9388 43.7765C51.4062 43.4859 51.9005 43.2407 52.4148 43.0445C52.9988 42.8285 53.5748 42.6445 53.8428 42.2445C53.9588 42.0805 54.2148 42.1605 54.3708 42.2445C54.483 42.3145 54.5852 42.3993 54.6748 42.4965C54.7322 42.5687 54.7843 42.6449 54.8308 42.7245C54.9192 42.6231 54.9638 42.4908 54.9548 42.3565C54.9548 42.2485 54.8908 42.0085 55.1148 42.0285C55.3388 42.0672 55.5478 42.1668 55.7188 42.3165C55.8921 42.4516 56.0136 42.6423 56.0628 42.8565C56.3395 42.7573 56.6421 42.7573 56.9188 42.8565C57.0799 42.8971 57.2268 42.9812 57.3432 43.0998C57.4597 43.2183 57.5412 43.3667 57.5788 43.5285C57.5711 43.6497 57.5379 43.768 57.4813 43.8755C57.4248 43.983 57.3463 44.0774 57.2508 44.1525C57.2035 44.2009 57.1715 44.2621 57.1588 44.3285C57.1588 44.4045 57.2428 44.5005 57.2748 44.5765C57.3833 44.8176 57.4407 45.0785 57.4435 45.3428C57.4462 45.6072 57.3942 45.8692 57.2908 46.1125Z" fill="#37474F"/>
<path d="M52.0227 45.2324C52.7827 45.3324 54.9307 46.3524 56.2627 47.2324C56.199 47.2998 56.1294 47.3614 56.0547 47.4164C55.5307 47.8164 56.5027 48.5204 55.6547 48.6164C54.8547 48.3204 52.6347 48.5364 50.8547 47.5524C49.9587 47.0564 49.3427 46.2124 50.0547 45.6244C50.6828 45.3796 51.3489 45.2469 52.0227 45.2324Z" fill="#455A64"/>
<path d="M52.0232 45.2326C52.9552 45.5886 53.3672 46.4086 52.9592 46.7806C53.3052 46.8973 53.6276 47.0748 53.9112 47.3046C53.9849 47.3587 54.044 47.4301 54.0832 47.5126C54.0973 47.5523 54.0969 47.5957 54.0823 47.6351C54.0677 47.6746 54.0397 47.7077 54.0032 47.7286C53.9466 47.7627 53.8828 47.7833 53.817 47.7888C53.7511 47.7944 53.6848 47.7847 53.6232 47.7606C53.4432 47.7206 53.2512 47.6966 53.0592 47.6686C52.9754 47.6607 52.8911 47.6607 52.8072 47.6686C52.4392 47.6686 51.6592 47.8926 52.0072 48.3886C52.3552 48.8846 53.6832 49.0486 54.2912 48.8806C55.1152 48.6566 54.9112 48.1406 54.9112 48.1406L56.9112 49.5246C57.27 49.7593 57.6834 49.8971 58.1112 49.9246C59.2712 50.0406 60.7792 49.8246 62.3352 50.0606C61.9237 49.271 61.2466 48.6519 60.4232 48.3126L59.3632 47.6006C59.7027 47.4483 60.0279 47.2663 60.3352 47.0566C60.9272 46.5806 60.5952 46.0126 60.0992 45.5686C58.9912 44.5806 56.0032 43.0566 55.0872 43.2726C54.7792 43.4486 54.9952 44.0486 54.6872 44.2686C53.9592 44.8006 52.5672 44.5926 52.0232 45.2326Z" fill="#FFA8A7"/>
<path d="M55.0942 46.0011C55.1726 46.0476 55.2609 46.0751 55.3519 46.0813C55.4429 46.0876 55.5341 46.0724 55.6182 46.0371C55.7782 45.9611 55.8062 45.8291 55.6782 45.7331C55.5997 45.6863 55.5112 45.659 55.4201 45.6534C55.3289 45.6478 55.2377 45.6642 55.1542 45.7011C54.9942 45.7571 54.9662 45.8931 55.0942 46.0011Z" fill="#263238"/>
<path d="M57.1304 44.8285C57.2113 44.8709 57.3012 44.8931 57.3924 44.8931C57.4837 44.8931 57.5736 44.8709 57.6544 44.8285C57.8024 44.7485 57.8104 44.6085 57.6544 44.5245C57.5723 44.484 57.482 44.4629 57.3904 44.4629C57.2989 44.4629 57.2085 44.484 57.1264 44.5245C56.9904 44.6085 56.9864 44.7445 57.1304 44.8285Z" fill="#263238"/>
<path d="M59.3635 47.5996C58.7535 47.8628 58.1235 48.0768 57.4795 48.2396C56.9146 48.3399 56.3364 48.3399 55.7715 48.2396C56.2153 48.4484 56.7072 48.5341 57.1955 48.4876C58.0539 48.3987 58.8896 48.1576 59.6635 47.7756L59.3635 47.5996Z" fill="#F28F8F"/>
<path d="M55.6992 45.1211L57.7432 45.9971L58.2152 45.2891L55.6992 45.1211Z" fill="#F28F8F"/>
<path d="M54.7343 45.3326L54.3343 45.8206C54.0943 45.7526 53.9944 45.5846 54.1064 45.4486C54.1913 45.3752 54.2942 45.3258 54.4046 45.3054C54.515 45.285 54.6288 45.2944 54.7343 45.3326Z" fill="#263238"/>
<path d="M57.3157 44.1163L56.3877 44.2323C56.3237 44.0883 56.4757 43.9403 56.7317 43.9083C56.8387 43.8846 56.9503 43.8916 57.0535 43.9284C57.1568 43.9652 57.2476 44.0303 57.3157 44.1163Z" fill="#263238"/>
<path d="M57.123 46.7575L58.175 46.5215C58.303 46.6855 58.175 46.8735 57.879 46.9215C57.7494 46.9603 57.6121 46.9656 57.4799 46.9369C57.3477 46.9083 57.2249 46.8465 57.123 46.7575Z" fill="#B16668"/>
<path d="M57.3554 46.8324C57.3266 46.8408 57.2995 46.8544 57.2754 46.8724C57.4633 46.9625 57.6761 46.9865 57.8794 46.9404H57.9114C57.8359 46.876 57.745 46.8322 57.6476 46.8133C57.5502 46.7944 57.4495 46.8009 57.3554 46.8324Z" fill="#F28F8F"/>
<path d="M61.7299 50.0009C60.8779 49.9289 59.1339 49.7889 58.2819 49.7129C57.7363 49.6563 57.1992 49.5354 56.6819 49.3529L56.3579 49.1289C56.3579 49.1289 56.1979 49.1289 56.3579 49.5289C56.4319 49.8766 56.3956 50.2388 56.2539 50.5649C56.2539 50.5649 58.6539 51.2569 60.6539 51.0609C60.5699 50.0689 61.2659 50.0009 61.7299 50.0009Z" fill="#E6E6E6"/>
<path d="M62.1662 49.6728C61.69 49.1113 61.1101 48.6468 60.4582 48.3048L59.6582 47.7768C59.7977 47.7593 59.9387 47.7593 60.0782 47.7768C60.5151 47.8651 60.9653 47.8651 61.4022 47.7768C62.4862 48.1248 63.4502 48.7848 63.6742 49.2888C62.9702 49.2008 61.9982 49.0488 62.1662 49.6728Z" fill="#E6E6E6"/>
<path d="M58.8965 52.7646C59.0125 52.8566 59.1404 52.9726 59.2724 53.0966L58.1445 53.6286C57.9943 53.6919 57.8323 53.7222 57.6694 53.7174C57.5065 53.7125 57.3466 53.6727 57.2005 53.6006L54.5645 52.0806C54.84 51.7935 55.1354 51.5262 55.4484 51.2806C56.1884 51.2486 57.6925 51.8046 58.8965 52.7646Z" fill="#E6E6E6"/>
<path d="M71.7872 48.8004L56.4832 55.9364C56.0512 56.1404 56.0352 56.4964 56.4472 56.7364L58.9552 58.1924C59.1922 58.3129 59.4523 58.3813 59.7179 58.393C59.9835 58.4047 60.2485 58.3595 60.4952 58.2604L75.7952 51.1244C76.2312 50.9204 76.2472 50.5644 75.8312 50.3244L73.3232 48.8684C73.0869 48.7479 72.8276 48.6796 72.5626 48.6678C72.2977 48.6561 72.0333 48.7013 71.7872 48.8004Z" fill="#FAFAFA"/>
<path d="M73.8153 51.0354C73.4195 50.9783 73.0341 50.8638 72.6713 50.6954C72.4286 50.4729 72.1427 50.3027 71.8313 50.1954C71.7233 50.1514 71.7353 50.3634 71.7873 50.4074C72.0352 50.6058 72.3034 50.7775 72.5873 50.9194C72.6433 51.0754 72.6353 51.2714 72.4273 51.2634C72.2801 51.2338 72.1426 51.1678 72.0273 51.0714C71.9833 51.0434 71.9553 51.1474 71.9873 51.1754L72.0913 51.3354C71.8147 51.2917 71.5526 51.1819 71.3273 51.0154L71.2073 50.9274C71.1593 50.8954 71.1273 51.0114 71.1593 51.0394L71.2153 51.0834C71.2549 51.1176 71.2963 51.1497 71.3393 51.1794C71.492 51.292 71.6268 51.4268 71.7393 51.5794L71.8233 51.6874C71.8913 51.8314 71.8873 51.8834 71.8033 51.8394C71.7593 51.8834 71.3673 51.6394 71.2513 51.5754C70.8059 51.3335 70.3864 51.0467 69.9993 50.7194C69.9153 50.6474 69.8713 50.8434 69.9353 50.8954C70.2109 51.1203 70.4604 51.3752 70.6793 51.6554C70.8233 51.8354 70.9393 52.1394 70.5713 52.0554C70.4009 52.0019 70.2392 51.9237 70.0913 51.8234C70.0273 51.7834 70.0073 51.9234 70.0233 51.9554C70.0821 52.0916 70.1094 52.2392 70.1033 52.3874C69.8877 52.3341 69.691 52.2219 69.5353 52.0634C69.4473 51.9714 69.3913 52.1154 69.4153 52.1914C69.4873 52.4434 69.6233 52.9914 69.1873 52.6794C69.0882 52.6095 68.9993 52.526 68.9233 52.4314C68.9224 52.315 68.8909 52.2009 68.8319 52.1005C68.7729 52.0001 68.6886 51.9169 68.5873 51.8594C68.4833 51.7914 68.4593 51.9754 68.4793 52.0354C68.5382 52.1863 68.6119 52.331 68.6993 52.4674C68.6263 52.762 68.4709 53.0298 68.2513 53.2394C68.0842 53.4036 67.8909 53.5387 67.6793 53.6394C67.4673 53.7514 67.0353 53.9514 67.1873 53.5074C67.2243 53.4012 67.2798 53.3023 67.3513 53.2154C67.4971 53.113 67.6312 52.9949 67.7513 52.8634C67.8273 52.7874 67.7513 52.5554 67.6193 52.6234C67.4862 52.6984 67.366 52.7943 67.2633 52.9074C66.9553 53.1034 66.5713 53.2194 66.5313 52.6714C66.5313 52.6714 66.5313 52.6394 66.5313 52.6234C66.9246 52.5012 67.2673 52.2541 67.5073 51.9194C67.5245 51.8971 67.5338 51.8696 67.5338 51.8414C67.5338 51.8132 67.5245 51.7858 67.5073 51.7634C66.9953 51.4074 66.4113 52.0514 66.3553 52.5834C66.2312 52.6208 66.104 52.6476 65.9753 52.6634C65.9753 52.6634 65.9473 52.7074 65.9753 52.7074C66.1095 52.7089 66.2435 52.6968 66.3753 52.6714C66.3733 52.6994 66.3733 52.7275 66.3753 52.7554C66.3885 52.8886 66.4419 53.0146 66.5283 53.1168C66.6147 53.2189 66.7302 53.2924 66.8593 53.3274C66.9164 53.3353 66.9743 53.3353 67.0313 53.3274C66.9819 53.4549 66.9574 53.5907 66.9593 53.7274C66.9593 54.2154 67.3913 54.0834 67.7153 53.9354C68.2465 53.6654 68.6698 53.2224 68.9153 52.6794C68.9801 52.7771 69.0664 52.8586 69.1677 52.9175C69.269 52.9765 69.3824 53.0113 69.4993 53.0194C69.7633 52.9954 69.7433 52.6514 69.6833 52.3714C69.8413 52.4846 70.0211 52.5636 70.2113 52.6034C70.2633 52.6034 70.2993 52.5634 70.2993 52.5154C70.3046 52.3572 70.2844 52.1992 70.2393 52.0474C70.5433 52.2074 71.0673 52.4474 71.0393 51.9594C71.0147 51.7971 70.9407 51.6463 70.8273 51.5274C70.9033 51.5794 70.9753 51.6314 71.0513 51.6754C71.2433 51.7914 71.7353 52.1754 71.9833 52.0994C72.3033 51.9994 72.1073 51.6994 71.8393 51.4154C71.9812 51.4696 72.1288 51.5072 72.2793 51.5274C72.3353 51.5274 72.3473 51.4314 72.3313 51.3954C72.3218 51.3703 72.3097 51.3462 72.2953 51.3234C72.5513 51.4394 72.8513 51.4714 72.8993 51.1114C72.9035 51.0863 72.9035 51.0606 72.8993 51.0354C73.2224 51.1736 73.5608 51.273 73.9073 51.3314C73.9993 51.3674 73.9553 51.0554 73.8153 51.0354ZM67.3073 51.9074C67.1052 52.1698 66.8395 52.3763 66.5353 52.5074C66.5858 52.3397 66.6873 52.1918 66.8256 52.0843C66.9639 51.9767 67.1323 51.9149 67.3073 51.9074Z" fill="#455A64"/>
<path d="M66.7991 54.5772C66.5409 54.3985 66.2739 54.233 65.9991 54.0812C65.7693 53.7527 65.4558 53.4917 65.0911 53.3252C64.9871 53.2772 64.9951 53.4972 65.0391 53.5452C65.0831 53.5932 65.2391 53.7452 65.3471 53.8372C65.3933 53.8802 65.4443 53.9177 65.4991 53.9492C65.5551 53.9852 65.5991 54.0332 65.6551 54.0732C65.7111 54.1132 65.7711 54.1692 65.8271 54.2172C65.8564 54.2398 65.882 54.2668 65.9031 54.2972C65.9419 54.3521 65.9716 54.4128 65.9911 54.4772C66.0036 54.5248 66.0054 54.5746 65.9965 54.623C65.9875 54.6715 65.9681 54.7173 65.9394 54.7574C65.9108 54.7975 65.8737 54.8308 65.8308 54.8549C65.7879 54.8791 65.7402 54.8935 65.6911 54.8972C65.5562 54.9081 65.4204 54.8931 65.2911 54.8532C65.182 54.8271 65.0874 54.7597 65.0271 54.6652C64.9991 54.6172 64.9431 54.6372 64.9271 54.6852C64.9111 54.7332 64.8911 54.8252 64.8951 54.8212C64.7791 54.9172 64.6311 54.7292 64.5631 54.6652C64.4951 54.6012 64.4511 54.7852 64.4711 54.8332V54.9612C64.3895 54.9311 64.3127 54.8893 64.2431 54.8372C64.1777 54.7538 64.1025 54.6786 64.0191 54.6132C63.9191 54.5372 63.8991 54.7492 63.9431 54.8052C63.9912 54.8672 64.0447 54.9247 64.1031 54.9772C64.3071 55.2652 64.1991 55.6132 63.7831 55.5492C63.6592 55.5276 63.54 55.4842 63.4311 55.4212C63.4311 55.4212 63.4311 55.3852 63.4311 55.3692C63.4025 55.1202 63.3005 54.8854 63.1381 54.6945C62.9757 54.5036 62.7603 54.3653 62.5191 54.2972C62.4871 54.2972 62.4671 54.2972 62.4511 54.3292C62.2711 54.6092 62.5511 54.8892 62.7271 55.0892C62.89 55.2757 63.077 55.4398 63.2831 55.5772C63.268 55.6309 63.2382 55.6794 63.197 55.7172C63.1559 55.7549 63.105 55.7804 63.0501 55.7908C62.9952 55.8012 62.9385 55.7961 62.8864 55.776C62.8343 55.7559 62.7888 55.7217 62.7551 55.6772C62.7496 55.673 62.7432 55.6702 62.7364 55.6689C62.7297 55.6677 62.7227 55.668 62.7161 55.67C62.7094 55.6719 62.7034 55.6754 62.6983 55.6801C62.6933 55.6848 62.6895 55.6907 62.6871 55.6972C62.6871 55.6972 62.6551 55.8812 62.6551 55.8852C62.5351 56.0492 62.2311 55.7292 62.1271 55.6372C62.0231 55.5452 62.0151 55.7492 62.0631 55.8012L62.1391 56.1612C62.0053 56.0959 61.8878 56.0016 61.7951 55.8852L61.7751 55.8572C61.7502 55.8268 61.7275 55.7947 61.7071 55.7612L61.6871 55.7372C61.5831 55.6132 61.5271 55.8452 61.5751 55.9252C61.5844 55.9408 61.5951 55.9555 61.6071 55.9692C61.6729 56.0548 61.7141 56.1569 61.7261 56.2642C61.738 56.3716 61.7204 56.4802 61.6751 56.5783C61.6298 56.6763 61.5585 56.7601 61.4689 56.8206C61.3794 56.881 61.275 56.9158 61.1671 56.9212C60.998 56.9132 60.8337 56.8624 60.6895 56.7735C60.5454 56.6847 60.4262 56.5607 60.3431 56.4132C60.1431 56.1532 59.6071 55.3052 60.2631 55.2132C60.6391 55.1612 61.0231 55.5892 61.2311 55.8212C61.2311 55.8212 61.2671 55.7932 61.2591 55.7772C61.0471 55.4252 60.4151 54.7092 59.9591 55.1372C59.5031 55.5652 59.9591 56.2532 60.2431 56.6092C60.5751 57.0412 61.1151 57.4092 61.6351 57.0092C61.7423 56.9239 61.8258 56.8126 61.8776 56.6858C61.9295 56.559 61.9479 56.4211 61.9311 56.2852C62.0252 56.3515 62.1292 56.4028 62.2391 56.4372C62.2831 56.4372 62.3151 56.4052 62.3271 56.3692C62.3551 56.2494 62.3551 56.1249 62.3271 56.0052C62.4511 56.0852 62.5831 56.1492 62.6711 56.1052C62.7591 56.0612 62.7471 55.9372 62.7431 55.8372C62.7952 55.8768 62.8561 55.9031 62.9207 55.9137C62.9852 55.9243 63.0514 55.9189 63.1134 55.8979C63.1754 55.877 63.2313 55.8412 63.2762 55.7936C63.3212 55.7461 63.3537 55.6882 63.3711 55.6252C63.4733 55.6793 63.5823 55.7196 63.6951 55.7452C63.7659 55.7724 63.8419 55.7833 63.9175 55.7771C63.993 55.7708 64.0662 55.7476 64.1316 55.7092C64.1969 55.6707 64.2528 55.618 64.295 55.555C64.3371 55.492 64.3645 55.4203 64.3751 55.3452C64.3871 55.2764 64.3871 55.206 64.3751 55.1372C64.4227 55.1613 64.4722 55.1813 64.5231 55.1972C64.5631 55.1972 64.5951 55.1692 64.6071 55.1332C64.6187 55.0858 64.6267 55.0377 64.6311 54.9892C64.7271 55.0732 64.8431 55.1492 64.9391 55.0932C64.9733 55.0647 64.9973 55.0259 65.0074 54.9826C65.0176 54.9393 65.0132 54.8938 64.9951 54.8532C65.064 54.9193 65.1498 54.965 65.2431 54.9852C65.3406 55.0148 65.4414 55.0322 65.5431 55.0372C65.6362 55.0412 65.729 55.0248 65.8151 54.9892C65.9751 54.9212 66.1431 54.8652 66.1591 54.6612C66.169 54.5841 66.169 54.5062 66.1591 54.4292C66.3424 54.56 66.553 54.6476 66.7751 54.6852C66.8391 54.7212 66.8391 54.6052 66.7991 54.5772ZM62.7231 54.8012L62.6231 54.6812C62.5471 54.5412 62.5671 54.5052 62.6791 54.5772C62.8403 54.6453 62.979 54.7576 63.0791 54.9012C63.1856 55.0318 63.2571 55.1873 63.2871 55.3532C63.0748 55.1971 62.8862 55.0112 62.7271 54.8012H62.7231Z" fill="#455A64"/>
<path d="M161.002 153.276C160.999 153.614 161.08 153.948 161.237 154.249C161.394 154.549 161.622 154.805 161.902 154.996C163.87 156.096 166.722 156.316 169.074 155.588C171.774 154.752 173.002 153.344 173.526 151.496C174.05 149.648 173.926 147.588 173.158 145.124C172.666 143.524 173.002 141.352 173.206 139.728C173.546 136.964 173.282 135.3 172.406 134.032C171.926 133.335 171.233 132.814 170.43 132.545C169.628 132.277 168.761 132.277 167.958 132.544L168.49 151.532L161.002 153.276Z" fill="black"/>
<path d="M164.331 144.849C164.351 147.341 163.779 148.237 162.687 149.717C161.731 151.013 159.239 153.061 162.427 154.629C164.915 155.849 171.087 155.717 172.735 151.605C174.015 148.405 172.087 145.421 172.563 141.237C172.883 138.437 172.635 133.521 169.363 132.769C167.579 132.369 166.999 132.393 164.207 133.825C162.263 134.817 162.103 135.265 162.179 135.525L162.655 135.309C163.362 135.169 164.096 135.247 164.758 135.532C165.42 135.818 165.98 136.298 166.363 136.909C167.491 138.669 167.627 141.273 166.419 142.989L164.331 144.849Z" fill="#263238"/>
<path d="M143.814 117.757L158.482 114.061C159.194 117.021 159.642 122.861 158.41 127.321C157.178 131.781 153.042 139.229 153.042 139.229L163.218 134.049C163.218 134.049 165.322 133.857 166.878 136.669C169.338 141.109 167.018 145.569 167.018 145.569C167.018 145.569 154.934 152.701 147.266 157.317C139.686 161.877 134.898 163.297 130.758 159.993C128.314 158.041 127.79 154.425 128.758 149.245C130.358 140.445 143.834 117.757 143.834 117.757" fill="#455A64"/>
<path d="M147.266 157.317C154.934 152.701 167.018 145.569 167.018 145.569C167.018 145.569 169.338 141.109 166.878 136.669C165.334 133.869 163.278 134.045 163.222 134.045L153.046 139.225C153.046 139.225 154.922 135.841 156.526 132.269C156.59 132.125 156.658 131.981 156.722 131.833V131.813L156.906 131.393V131.373C157.19 130.709 157.458 130.049 157.706 129.413V129.373L157.93 128.761L145.198 124.621C145.998 129.193 149.714 133.485 149.714 133.485C149.714 133.485 144.602 146.849 142.086 153.393C140.114 158.533 135.566 160.053 132.286 159.257C129.366 158.549 128.59 156.313 128.498 156.013C128.577 156.421 128.687 156.822 128.826 157.213C128.89 157.401 128.966 157.585 129.042 157.761V157.789C129.118 157.953 129.202 158.117 129.286 158.273L129.33 158.341C129.41 158.481 129.494 158.621 129.586 158.741C129.614 158.781 129.646 158.817 129.674 158.861C129.754 158.969 129.834 159.081 129.922 159.185C130.01 159.289 130.042 159.313 130.098 159.377C130.154 159.441 130.23 159.525 130.302 159.597C130.438 159.729 130.582 159.853 130.73 159.973C131.225 160.37 131.761 160.712 132.33 160.993C132.729 161.192 133.145 161.354 133.574 161.477C133.856 161.56 134.144 161.626 134.434 161.673C134.881 161.746 135.333 161.782 135.786 161.781C136.084 161.781 136.382 161.765 136.678 161.733C137.367 161.657 138.048 161.523 138.714 161.333C139.234 161.193 139.77 161.017 140.314 160.809C140.686 160.669 141.062 160.517 141.45 160.349C143.442 159.455 145.372 158.432 147.23 157.285L147.266 157.317Z" fill="#37474F"/>
<path opacity="0.15" d="M152.567 145.508C155.579 141.648 163.911 136.368 165.743 135.164C164.479 133.964 163.251 134.044 163.223 134.044L158.135 136.632L153.047 139.224C153.047 139.224 148.127 149.868 144.123 151.488C147.438 150.316 150.361 148.246 152.567 145.508Z" fill="black"/>
<path d="M174.109 161.243C174.106 161.583 174.187 161.917 174.344 162.218C174.501 162.519 174.729 162.776 175.009 162.967C176.977 164.067 179.829 164.283 182.181 163.559C184.881 162.723 186.109 161.311 186.633 159.467C187.157 157.623 187.033 155.559 186.265 153.091C185.773 151.491 186.113 149.323 186.313 147.699C186.653 144.931 186.389 143.271 185.513 141.999C185.032 141.304 184.338 140.783 183.535 140.514C182.733 140.246 181.865 140.245 181.061 140.511L181.597 159.499L174.109 161.243Z" fill="#263238"/>
<path d="M177.437 152.8C177.437 155.292 176.885 156.192 175.793 157.668C174.837 158.968 172.345 161.012 175.537 162.58C178.021 163.804 184.193 163.672 185.841 159.56C187.121 156.36 185.193 153.376 185.669 149.188C185.989 146.388 185.741 141.476 182.469 140.724C180.685 140.324 180.105 140.348 177.313 141.776C175.369 142.772 175.209 143.216 175.285 143.48L175.761 143.26C176.469 143.121 177.203 143.199 177.866 143.485C178.528 143.77 179.089 144.25 179.473 144.86C180.597 146.62 180.733 149.224 179.525 150.936L177.437 152.8Z" fill="#37474F"/>
<path d="M180.358 144.52C178.602 141.168 175.246 142.304 175.246 142.304L167.598 146.512C167.598 146.512 172.042 139.232 173.73 134.912C175.73 129.808 176.462 126.784 175.578 119.404L154.934 119.044L143.806 117.744C144.17 128.144 151.538 133.012 151.538 133.012C151.538 133.012 144.634 150.052 143.25 155.812C141.95 161.232 142.87 165.316 145.314 167.268C149.454 170.572 154.822 170.068 162.402 165.492C170.07 160.88 180.802 153.276 180.802 153.276C180.802 153.276 182.878 149.324 180.358 144.52Z" fill="#455A64"/>
<path d="M167.134 152.799C171.798 146.399 175.982 143.727 178.138 142.399C177.211 142.052 176.196 142.016 175.246 142.295L167.598 146.511C167.598 146.511 162.678 157.155 158.674 158.775C162.041 157.7 164.995 155.613 167.134 152.799Z" fill="#37474F"/>
<path d="M145.531 81.625C139.931 83.753 139.651 85.353 138.055 90.025C136.231 95.381 133.199 103.757 131.631 108.229C131.943 110.473 138.055 115.077 140.431 114.529L147.679 98.261L145.531 81.625Z" fill="#E6E6E6"/>
<path d="M173.938 90.7997C177.674 107.256 176.042 122.604 176.042 122.604C171.674 126.508 149.098 127.96 143.122 118.092C146.086 107.74 143.122 104.744 142.182 91.9477C141.99 89.3917 142.182 83.6157 144.682 82.0997C147.394 80.4517 151.202 79.8397 151.102 78.3197L161.01 76.9277C161.194 79.6197 169.01 80.6077 169.01 80.6077C172.234 82.9197 173.198 87.4557 173.938 90.7997Z" fill="#F5F5F5"/>
<path d="M149.716 69.8045C150.692 70.2765 151.908 70.7365 153.008 70.7125C154 70.6925 154.956 71.0605 155.96 71.1125C158.108 71.2365 158.804 74.8645 160.54 73.5765C160.88 71.2365 164.94 67.3005 164.588 61.2205C164.404 58.1365 162.684 55.6925 159.824 54.8485C159.672 54.1662 159.34 53.5368 158.863 53.0256C158.387 52.5143 157.782 52.1397 157.112 51.9405C155.581 51.3643 153.943 51.1295 152.312 51.2525C150.688 51.2975 149.076 51.5407 147.512 51.9765C145.868 52.4765 144.284 53.0125 142.584 52.4285C141.86 52.1845 141.716 52.8925 141.784 53.4565C141.836 53.8954 141.949 54.3249 142.12 54.7325C142.262 55.0514 142.424 55.3613 142.604 55.6605C142.078 55.52 141.598 55.2442 141.212 54.8605C140.856 54.5445 140.172 53.7605 139.876 54.2445C139.616 54.6685 139.648 55.6325 139.84 56.1805C140.058 56.9885 140.47 57.7312 141.04 58.3445C140.16 58.5405 139.784 59.4325 139.696 59.9885C139.628 60.5594 139.694 61.1383 139.887 61.6796C140.081 62.221 140.397 62.7101 140.812 63.1085C141.516 63.7845 142.452 64.0325 143.384 64.2285C143.646 64.29 143.893 64.4029 144.112 64.5605C144.353 64.8351 144.561 65.1372 144.732 65.4605C146.017 67.2902 147.728 68.7808 149.716 69.8045Z" fill="#37474F"/>
<path d="M155.339 57.4117C154.451 59.1277 154.307 66.0317 155.019 70.9917C155.33 71.0529 155.643 71.0956 155.959 71.1198C158.107 71.2438 158.791 75.0398 160.531 73.7518C160.871 71.4118 165.195 67.8438 164.831 61.7518C164.647 58.6678 162.899 55.1477 159.823 54.8438C159.823 54.8558 156.731 55.6397 155.339 57.4117Z" fill="#455A64"/>
<path d="M155.339 57.4119C154.999 60.1679 157.015 63.2319 158.883 63.5039C158.763 65.0359 158.775 65.7679 159.063 66.7719C159.14 67.0927 159.276 67.3966 159.463 67.6679C159.56 67.8021 159.685 67.9134 159.829 67.9936C159.974 68.0738 160.134 68.121 160.299 68.1319C160.743 68.1319 160.907 67.8599 161.023 67.5039C161.195 67.0508 161.394 66.6086 161.619 66.1799C161.718 65.9916 161.84 65.8168 161.983 65.6599C162.619 64.9999 164.563 64.1239 165.611 66.1879C166.695 68.3239 165.055 71.1919 163.531 71.8719C161.467 72.7999 160.103 70.9639 160.103 70.9639L161.063 77.2359C161.272 78.4164 161.051 79.6326 160.439 80.6639C158.935 83.1719 155.811 85.4159 154.063 89.0119C152.015 86.2119 151.219 82.3839 151.435 80.5159L151.159 77.8239C149.878 78.065 148.568 78.1149 147.271 77.9719C144.779 77.5719 143.671 75.4439 143.079 73.2599C141.927 69.1119 141.743 58.7759 143.931 57.6599C144.999 57.5759 146.615 59.6599 147.811 59.7119C150.763 59.8159 152.375 56.6559 155.339 57.4119Z" fill="#FFA8A7"/>
<path d="M153.119 65.4844C153.155 65.6699 153.135 65.8618 153.062 66.0361C152.989 66.2103 152.866 66.3589 152.709 66.4633C152.551 66.5676 152.366 66.6229 152.177 66.6222C151.988 66.6216 151.804 66.5649 151.647 66.4595C151.49 66.3541 151.368 66.2046 151.296 66.0298C151.225 65.8551 151.206 65.663 151.243 65.4778C151.281 65.2926 151.372 65.1225 151.506 64.9892C151.64 64.8558 151.81 64.7651 151.995 64.7284C152.244 64.6802 152.503 64.7327 152.713 64.8744C152.924 65.016 153.07 65.2354 153.119 65.4844Z" fill="#263238"/>
<path d="M145.851 65.9196C145.869 66.1076 145.831 66.2967 145.742 66.463C145.652 66.6294 145.516 66.7656 145.349 66.8544C145.182 66.9432 144.993 66.9807 144.805 66.962C144.617 66.9434 144.439 66.8695 144.293 66.7497C144.147 66.6299 144.04 66.4695 143.985 66.2889C143.93 66.1082 143.93 65.9153 143.984 65.7345C144.039 65.5537 144.146 65.3931 144.291 65.273C144.437 65.1529 144.615 65.0786 144.803 65.0596C144.928 65.0469 145.055 65.0591 145.176 65.0955C145.296 65.1319 145.408 65.1917 145.506 65.2717C145.603 65.3516 145.684 65.45 145.743 65.5612C145.802 65.6723 145.839 65.7941 145.851 65.9196Z" fill="#263238"/>
<path d="M151.158 77.8246C151.158 77.8246 154.758 76.9886 156.294 76.0566C157.54 75.3193 158.527 74.2139 159.118 72.8926C159.121 73.528 158.989 74.1567 158.732 74.7378C158.475 75.3188 158.098 75.8391 157.626 76.2646C155.09 78.4766 151.274 78.9326 151.274 78.9326L151.158 77.8246Z" fill="#F28F8F"/>
<path d="M149.399 63.6602L148.979 70.2762L145.711 69.8762C145.999 68.1402 147.663 65.0762 149.399 63.6602Z" fill="#F28F8F"/>
<path d="M151.49 63.232L153.818 63.872C153.897 63.5551 153.851 63.2198 153.688 62.9364C153.526 62.653 153.26 62.4436 152.946 62.352C152.793 62.3138 152.633 62.3062 152.477 62.3298C152.321 62.3534 152.171 62.4076 152.035 62.4894C151.9 62.5712 151.782 62.6789 151.689 62.8063C151.595 62.9338 151.528 63.0784 151.49 63.232Z" fill="#263238"/>
<path d="M143.348 64.2091L145.596 63.2731C145.542 63.1236 145.459 62.9866 145.351 62.8704C145.243 62.7542 145.112 62.6613 144.967 62.5972C144.822 62.5332 144.665 62.4995 144.506 62.4981C144.348 62.4967 144.19 62.5277 144.044 62.5891C143.743 62.7192 143.503 62.9595 143.374 63.2607C143.244 63.5619 143.235 63.9012 143.348 64.2091Z" fill="#263238"/>
<path d="M152.763 71.1562L149.199 72.2203C149.257 72.456 149.362 72.6775 149.508 72.8713C149.654 73.065 149.838 73.227 150.049 73.3472C150.26 73.4673 150.493 73.5433 150.734 73.5703C150.975 73.5973 151.219 73.5748 151.451 73.5042C151.929 73.3557 152.332 73.0293 152.576 72.5923C152.82 72.1553 152.887 71.6412 152.763 71.1562Z" fill="#B16668"/>
<path d="M151.452 73.5053C151.777 73.4056 152.07 73.2218 152.301 72.9724C152.532 72.7231 152.693 72.417 152.768 72.0853C152.712 72.0645 152.655 72.0498 152.596 72.0413C152.126 71.9887 151.653 72.1103 151.267 72.3831C150.881 72.6558 150.608 73.0608 150.5 73.5213C150.813 73.6039 151.142 73.5984 151.452 73.5053Z" fill="#F28F8F"/>
<path d="M154.752 87.768C155.624 85.96 158.028 82.568 159.288 80.844C160.102 79.655 160.687 78.3241 161.012 76.92L160.808 75.568C160.808 75.568 161.184 75.4 162.136 76.92C163.088 78.44 165.472 79.884 165.472 79.884C165.472 79.884 163.336 86.228 159.264 89.116C156.4 86 155.636 87.016 154.752 87.768Z" fill="#E6E6E6"/>
<path d="M153.111 87.4842C152.071 84.8602 151.435 83.1842 151.435 80.4442L151.159 77.8242C150.834 77.9498 150.555 78.1717 150.359 78.4602C149.725 79.305 148.926 80.0126 148.011 80.5402C147.163 83.4922 148.319 87.2802 149.447 89.1962C149.851 87.4962 151.507 85.3042 153.111 87.4842Z" fill="#E6E6E6"/>
<path d="M153.891 115.052C154.083 114.76 154.763 115.292 156.155 115.5C157.927 115.764 158.599 115.656 160.487 116.008C161.338 116.23 162.216 116.33 163.095 116.304L156.451 118.16C155.746 117.921 155.082 117.577 154.479 117.14C153.495 116.376 153.647 115.424 153.891 115.052Z" fill="#FFA8A7"/>
<path d="M123.008 98.8006C122.516 98.6326 122.208 98.8486 122.288 99.2846L127.028 121.601L159.608 132.801L154.808 110.469C154.727 110.218 154.589 109.989 154.407 109.799C154.224 109.609 154 109.463 153.752 109.373L135.144 102.973L133.696 100.773C133.598 100.63 133.458 100.521 133.296 100.461L125.58 97.8046C125.392 97.7313 125.183 97.7318 124.996 97.806C124.808 97.8802 124.655 98.0226 124.568 98.2046L124.268 99.2366L123.008 98.8006Z" fill="#1C6758"/>
<path opacity="0.6" d="M123.008 98.8006C122.516 98.6326 122.208 98.8486 122.288 99.2846L127.028 121.601L159.608 132.801L154.808 110.469C154.727 110.218 154.589 109.989 154.407 109.799C154.224 109.609 154 109.463 153.752 109.373L135.144 102.973L133.696 100.773C133.598 100.63 133.458 100.521 133.296 100.461L125.58 97.8046C125.392 97.7313 125.183 97.7318 124.996 97.806C124.808 97.8802 124.655 98.0226 124.568 98.2046L124.268 99.2366L123.008 98.8006Z" fill="white"/>
<path d="M127.026 121.58L158.502 132.4L153.73 110.252L121.234 99.084L127.026 121.58Z" fill="#F0F0F0"/>
<path d="M159.599 132.777L152.799 111.817C152.692 111.569 152.535 111.346 152.34 111.16C152.144 110.975 151.912 110.831 151.659 110.737L120.935 100.177C120.447 100.009 120.159 100.221 120.299 100.649L127.027 121.601L159.599 132.777Z" fill="#1C6758"/>
<path opacity="0.4" d="M159.599 132.777L152.799 111.817C152.692 111.569 152.535 111.346 152.34 111.16C152.144 110.975 151.912 110.831 151.659 110.737L120.935 100.177C120.447 100.009 120.159 100.221 120.299 100.649L127.027 121.601L159.599 132.777Z" fill="white"/>
<path d="M122.668 108C121.424 109.744 121.504 111.048 122.156 113.2C122.808 115.352 124.408 117.82 125.248 118.468C126.088 119.116 127.648 120 129.296 119.548C130.944 119.096 130.84 116.952 131.528 116.008C132.624 114.496 130.936 113.556 129.368 113.452C125.668 113.204 123.768 111.48 123.768 111.48L122.668 108Z" fill="#FFA8A7"/>
<path d="M151.682 118.54C153.281 118.556 154.877 118.422 156.45 118.14L163.094 116.284C166.126 116.42 174.294 109.8 174.294 109.8L169.774 97.2081C167.166 91.3481 167.082 83.2481 169.014 80.5801C175.342 82.1801 176.682 82.6641 178.386 88.1441C179.77 92.5841 183.262 104.376 184.766 108.904C185.626 111.496 186.054 113.812 183.29 115.66C180.798 117.324 174.398 120.636 168.838 122.648C165.862 123.724 164.238 124.688 161.066 125.384C159.539 125.751 157.984 125.997 156.418 126.12C155.298 126.184 153.93 126.292 153.13 125.288C152.954 125.064 152.786 124.62 152.558 124.488C152.39 124.384 152.054 124.404 151.858 124.332C151.649 124.256 151.456 124.141 151.29 123.992C150.979 123.707 150.762 123.335 150.666 122.924C150.574 122.504 150.506 122.56 150.082 122.416C149.704 122.323 149.37 122.102 149.134 121.792C148.966 121.54 148.974 120.992 148.794 120.824C148.614 120.656 147.994 120.648 147.73 120.552C147.33 120.42 146.554 120.04 146.646 119.536C146.722 119.136 147.266 118.904 147.602 118.776C148.87 118.28 150.358 118.528 151.682 118.54Z" fill="#FFA8A7"/>
<path d="M168.999 80.5996C167.703 81.8956 166.747 86.2236 167.555 91.2596C168.363 96.2956 173.895 109.792 173.895 109.792L168.371 114.06C168.371 114.06 170.539 115.26 171.595 117.3C172.226 118.548 172.426 119.97 172.163 121.344C174.85 120.31 177.481 119.139 180.047 117.836C183.379 116.124 185.327 115.036 185.763 113.624C186.199 112.212 185.267 109.124 184.271 106.024C183.275 102.924 178.567 87.1996 177.235 84.4796C176.199 82.3596 173.511 81.3956 168.999 80.5996Z" fill="#E6E6E6"/>
<path d="M168.372 114.061L165.756 115.529C165.756 115.529 168.136 116.869 168.74 119.045C169.093 120.173 169.229 121.358 169.14 122.537L172.152 121.337C172.152 121.337 172.952 119.561 171.872 117.181C171.154 115.726 169.899 114.607 168.372 114.061Z" fill="#E0E0E0"/>
</svg>
