<svg width="24" height="25" viewBox="0 0 24 25" fill="none" xmlns="http://www.w3.org/2000/svg">
<path fill-rule="evenodd" clip-rule="evenodd" d="M16.0905 9.48529C16.3834 9.77819 16.3834 10.2531 16.0905 10.546L11.3445 15.292C11.0517 15.5848 10.5769 15.5849 10.284 15.2921L7.90997 12.9191C7.61701 12.6262 7.61691 12.1514 7.90974 11.8584C8.20258 11.5655 8.67745 11.5654 8.9704 11.8582L10.8141 13.7011L15.0299 9.48529C15.3227 9.1924 15.7976 9.1924 16.0905 9.48529Z" fill="#1C6758"/>
<path fill-rule="evenodd" clip-rule="evenodd" d="M4.24305 4.63197C5.91083 2.96419 8.48966 2.38867 11.9998 2.38867C15.5099 2.38867 18.0887 2.96419 19.7565 4.63197C21.4242 6.29974 21.9998 8.87857 21.9998 12.3887C21.9998 15.8988 21.4242 18.4776 19.7565 20.1454C18.0887 21.8132 15.5099 22.3887 11.9998 22.3887C8.48966 22.3887 5.91083 21.8132 4.24305 20.1454C2.57527 18.4776 1.99976 15.8988 1.99976 12.3887C1.99976 8.87857 2.57527 6.29974 4.24305 4.63197ZM5.30371 5.69263C4.08074 6.9156 3.49976 8.96177 3.49976 12.3887C3.49976 15.8156 4.08074 17.8617 5.30371 19.0847C6.52668 20.3077 8.57285 20.8887 11.9998 20.8887C15.4267 20.8887 17.4728 20.3077 18.6958 19.0847C19.9188 17.8617 20.4998 15.8156 20.4998 12.3887C20.4998 8.96177 19.9188 6.9156 18.6958 5.69263C17.4728 4.46965 15.4267 3.88867 11.9998 3.88867C8.57285 3.88867 6.52668 4.46965 5.30371 5.69263Z" fill="#1C6758"/>
</svg>
