<svg width="37" height="34" viewBox="0 0 37 34" fill="none" xmlns="http://www.w3.org/2000/svg">
<path fill-rule="evenodd" clip-rule="evenodd" d="M19.8049 5.87494L22.2634 8.19007C22.4824 8.39721 22.7719 8.50148 23.0599 8.50148C23.3464 8.50148 23.6344 8.39721 23.8534 8.19289C24.2944 7.78003 24.2944 7.11071 23.8564 6.69785L19.4764 2.57203C19.0549 2.17326 18.3049 2.17326 17.8834 2.57203L13.5034 6.69785C13.0654 7.11071 13.0654 7.78003 13.5064 8.19289C13.9474 8.60435 14.6584 8.60435 15.0964 8.19007L17.5549 5.87494V10.0853C18.3199 10.0712 19.0699 10.0712 19.8049 10.0853V5.87494Z" fill="#404040"/>
<path fill-rule="evenodd" clip-rule="evenodd" d="M25.1 10.2682C23.42 10.1555 21.6499 10.0994 19.8049 10.0853L19.805 20.2869C19.805 20.8646 19.295 21.3437 18.68 21.3437C18.065 21.3437 17.555 20.8646 17.555 20.2869L17.5549 10.0853C15.7399 10.0994 13.85 10.1696 11.9 10.2682H11.87C5.825 10.7896 3.875 13.3682 3.875 20.8364C3.875 31.5455 8.15 31.5455 18.5 31.5455C28.85 31.5455 33.125 31.5455 33.125 20.8364C33.125 13.3682 31.175 10.7896 25.1 10.2682Z" fill="#404040"/>
</svg>
