<svg width="20" height="21" viewBox="0 0 20 21" fill="none" xmlns="http://www.w3.org/2000/svg">
<path d="M5.8 0.388672H14.2C17.4 0.388672 20 2.98867 20 6.18867V14.5887C20 16.1269 19.3889 17.6022 18.3012 18.6899C17.2135 19.7776 15.7383 20.3887 14.2 20.3887H5.8C2.6 20.3887 0 17.7887 0 14.5887V6.18867C0 4.65042 0.61107 3.17516 1.69878 2.08745C2.78649 0.999742 4.26174 0.388672 5.8 0.388672ZM5.6 2.38867C4.64522 2.38867 3.72955 2.76796 3.05442 3.44309C2.37928 4.11822 2 5.03389 2 5.98867V14.7887C2 16.7787 3.61 18.3887 5.6 18.3887H14.4C15.3548 18.3887 16.2705 18.0094 16.9456 17.3343C17.6207 16.6591 18 15.7435 18 14.7887V5.98867C18 3.99867 16.39 2.38867 14.4 2.38867H5.6ZM15.25 3.88867C15.5815 3.88867 15.8995 4.02037 16.1339 4.25479C16.3683 4.48921 16.5 4.80715 16.5 5.13867C16.5 5.47019 16.3683 5.78814 16.1339 6.02256C15.8995 6.25698 15.5815 6.38867 15.25 6.38867C14.9185 6.38867 14.6005 6.25698 14.3661 6.02256C14.1317 5.78814 14 5.47019 14 5.13867C14 4.80715 14.1317 4.48921 14.3661 4.25479C14.6005 4.02037 14.9185 3.88867 15.25 3.88867ZM10 5.38867C11.3261 5.38867 12.5979 5.91546 13.5355 6.85314C14.4732 7.79082 15 9.06259 15 10.3887C15 11.7148 14.4732 12.9865 13.5355 13.9242C12.5979 14.8619 11.3261 15.3887 10 15.3887C8.67392 15.3887 7.40215 14.8619 6.46447 13.9242C5.52678 12.9865 5 11.7148 5 10.3887C5 9.06259 5.52678 7.79082 6.46447 6.85314C7.40215 5.91546 8.67392 5.38867 10 5.38867ZM10 7.38867C9.20435 7.38867 8.44129 7.70474 7.87868 8.26735C7.31607 8.82996 7 9.59302 7 10.3887C7 11.1843 7.31607 11.9474 7.87868 12.51C8.44129 13.0726 9.20435 13.3887 10 13.3887C10.7956 13.3887 11.5587 13.0726 12.1213 12.51C12.6839 11.9474 13 11.1843 13 10.3887C13 9.59302 12.6839 8.82996 12.1213 8.26735C11.5587 7.70474 10.7956 7.38867 10 7.38867Z" fill="#1C6758"/>
</svg>
