<svg width="21" height="17" viewBox="0 0 21 17" fill="none" xmlns="http://www.w3.org/2000/svg">
<path fill-rule="evenodd" clip-rule="evenodd" d="M4.84281 0.624598C8.36113 0.31003 11.9005 0.31003 15.4188 0.624598L16.9368 0.760598C17.6717 0.826215 18.363 1.13767 18.899 1.64465C19.435 2.15163 19.7844 2.82452 19.8908 3.5546C20.3852 6.93662 20.3852 10.3726 19.8908 13.7546C19.7842 14.4845 19.4347 15.1572 18.8987 15.6639C18.3627 16.1707 17.6715 16.482 16.9368 16.5476L15.4188 16.6836C11.9005 16.9982 8.36113 16.9982 4.84281 16.6836L3.32481 16.5476C2.59009 16.482 1.89892 16.1707 1.36293 15.6639C0.826936 15.1572 0.477414 14.4845 0.370813 13.7546C-0.123604 10.3726 -0.123604 6.93662 0.370813 3.5546C0.477208 2.82452 0.82664 2.15163 1.36265 1.64465C1.89866 1.13767 2.58995 0.826215 3.32481 0.760598L4.84281 0.624598ZM3.98681 3.4946C3.87257 3.43299 3.74429 3.40208 3.61453 3.4049C3.48476 3.40772 3.35794 3.44417 3.24648 3.51068C3.13502 3.57719 3.04273 3.67149 2.97864 3.78436C2.91454 3.89723 2.88083 4.0248 2.88081 4.1546V13.6546C2.88081 13.8535 2.95983 14.0443 3.10048 14.1849C3.24113 14.3256 3.4319 14.4046 3.63081 14.4046C3.82973 14.4046 4.02049 14.3256 4.16114 14.1849C4.3018 14.0443 4.38081 13.8535 4.38081 13.6546V5.4106L9.77481 8.3146C9.99681 8.4346 10.2648 8.4346 10.4868 8.3146L15.8808 5.4106V13.6546C15.8808 13.8535 15.9598 14.0443 16.1005 14.1849C16.2411 14.3256 16.4319 14.4046 16.6308 14.4046C16.8297 14.4046 17.0205 14.3256 17.1611 14.1849C17.3018 14.0443 17.3808 13.8535 17.3808 13.6546V4.1546C17.3808 4.0248 17.3471 3.89723 17.283 3.78436C17.2189 3.67149 17.1266 3.57719 17.0151 3.51068C16.9037 3.44417 16.7769 3.40772 16.6471 3.4049C16.5173 3.40208 16.3891 3.43299 16.2748 3.4946L10.1308 6.8026L3.98681 3.4946Z" fill="#1C6758"/>
</svg>
