<svg width="18" height="19" viewBox="0 0 18 19" fill="none" xmlns="http://www.w3.org/2000/svg">
<path d="M16 0.388672C16.5304 0.388672 17.0391 0.599385 17.4142 0.974458C17.7893 1.34953 18 1.85824 18 2.38867V16.3887C18 16.9191 17.7893 17.4278 17.4142 17.8029C17.0391 18.178 16.5304 18.3887 16 18.3887H2C1.46957 18.3887 0.960859 18.178 0.585786 17.8029C0.210714 17.4278 0 16.9191 0 16.3887V2.38867C0 1.85824 0.210714 1.34953 0.585786 0.974458C0.960859 0.599385 1.46957 0.388672 2 0.388672H16ZM15.5 15.8887V10.5887C15.5 9.72407 15.1565 8.89487 14.5452 8.2835C13.9338 7.67213 13.1046 7.32867 12.24 7.32867C11.39 7.32867 10.4 7.84867 9.92 8.62867V7.51867H7.13V15.8887H9.92V10.9587C9.92 10.1887 10.54 9.55867 11.31 9.55867C11.6813 9.55867 12.0374 9.70617 12.2999 9.96872C12.5625 10.2313 12.71 10.5874 12.71 10.9587V15.8887H15.5ZM3.88 5.94867C4.32556 5.94867 4.75288 5.77167 5.06794 5.45661C5.383 5.14155 5.56 4.71424 5.56 4.26867C5.56 3.33867 4.81 2.57867 3.88 2.57867C3.43178 2.57867 3.00193 2.75672 2.68499 3.07366C2.36805 3.3906 2.19 3.82046 2.19 4.26867C2.19 5.19867 2.95 5.94867 3.88 5.94867ZM5.27 15.8887V7.51867H2.5V15.8887H5.27Z" fill="#1C6758"/>
</svg>
