<svg width="200" height="200" viewBox="0 0 200 200" fill="none" xmlns="http://www.w3.org/2000/svg">
<path d="M31.0642 101.308C-7.00778 123.308 -7.00378 158.908 31.0642 180.908C69.1322 202.908 130.86 202.908 168.932 180.908C207.004 158.908 207 123.308 168.932 101.308C130.864 79.3079 69.1362 79.3279 31.0642 101.308Z" fill="#FAFAFA"/>
<path d="M172.528 119.532C172.988 119.326 173.461 119.151 173.944 119.008C174.457 118.856 174.983 118.752 175.516 118.696C176.089 118.64 176.667 118.64 177.24 118.696C177.881 118.766 178.514 118.9 179.128 119.096C179.959 119.343 180.745 119.723 181.456 120.22C182.081 120.656 182.613 121.212 183.02 121.856C183.403 122.471 183.645 123.164 183.728 123.884C183.811 124.661 183.731 125.448 183.492 126.192C183.296 126.888 182.968 127.539 182.528 128.112C182.159 128.586 181.719 129 181.224 129.34C180.772 129.648 180.284 129.901 179.772 130.092L178.356 130.608C177.952 130.755 177.558 130.927 177.176 131.124C176.855 131.284 176.594 131.544 176.432 131.864L175.388 134L172.8 133.2L173.308 130.604C173.374 130.15 173.584 129.729 173.908 129.404C174.233 129.092 174.607 128.837 175.016 128.648C175.466 128.439 175.93 128.26 176.404 128.112C176.897 127.958 177.378 127.768 177.844 127.544C178.3 127.325 178.72 127.039 179.092 126.696C179.482 126.318 179.765 125.843 179.912 125.32C180.023 124.978 180.056 124.616 180.008 124.26C179.961 123.928 179.844 123.611 179.664 123.328C179.47 123.03 179.22 122.772 178.928 122.568C178.6 122.344 178.24 122.171 177.86 122.056C177.362 121.891 176.841 121.802 176.316 121.792C175.924 121.789 175.532 121.828 175.148 121.908C174.816 121.98 174.536 122.048 174.3 122.116C174.113 122.185 173.909 122.196 173.716 122.148C173.549 122.108 173.397 122.019 173.28 121.893C173.163 121.767 173.085 121.61 173.056 121.44L172.528 119.532ZM170.4 136.896C170.494 136.585 170.649 136.295 170.856 136.044C171.051 135.801 171.293 135.599 171.568 135.452C171.843 135.305 172.145 135.215 172.456 135.188C172.785 135.154 173.117 135.186 173.433 135.283C173.749 135.38 174.043 135.54 174.296 135.752C174.534 135.954 174.733 136.198 174.884 136.472C175.037 136.754 175.131 137.064 175.162 137.384C175.193 137.703 175.16 138.026 175.064 138.332C174.971 138.649 174.812 138.942 174.596 139.192C174.396 139.432 174.15 139.629 173.872 139.772C173.595 139.914 173.294 140.001 172.984 140.028C172.656 140.06 172.325 140.025 172.012 139.924C171.694 139.829 171.398 139.672 171.14 139.464C170.898 139.269 170.698 139.027 170.552 138.752C170.407 138.478 170.317 138.177 170.288 137.868C170.261 137.54 170.299 137.209 170.4 136.896Z" fill="#E0E0E0"/>
<path d="M178.768 62.476C178.466 62.6446 178.154 62.7929 177.832 62.92C177.492 63.0549 177.14 63.158 176.78 63.228C176.394 63.3022 176.001 63.3371 175.608 63.332C175.167 63.3276 174.727 63.278 174.296 63.184C173.714 63.0678 173.154 62.857 172.64 62.56C172.188 62.301 171.792 61.9542 171.476 61.54C171.178 61.1436 170.972 60.6859 170.872 60.2C170.765 59.6713 170.772 59.1259 170.892 58.6C170.983 58.1137 171.167 57.6494 171.432 57.232C171.651 56.8882 171.921 56.5794 172.232 56.316C172.522 56.079 172.839 55.8776 173.176 55.716L174.112 55.276C174.379 55.1535 174.637 55.0132 174.884 54.856C175.093 54.7268 175.255 54.533 175.344 54.304L175.928 52.784L177.752 53.184L177.56 54.98C177.545 55.2957 177.427 55.5978 177.224 55.84C177.022 56.0717 176.783 56.2678 176.516 56.42C176.221 56.5905 175.915 56.7415 175.6 56.872C175.274 57.0056 174.958 57.1648 174.656 57.348C174.358 57.5236 174.088 57.7434 173.856 58C173.611 58.2802 173.447 58.6217 173.38 58.988C173.324 59.2186 173.321 59.4589 173.371 59.691C173.42 59.9231 173.522 60.1409 173.668 60.328C173.82 60.5198 174.007 60.6801 174.22 60.8C174.455 60.9361 174.71 61.0334 174.976 61.088C175.326 61.1696 175.686 61.1979 176.044 61.172C176.316 61.1527 176.584 61.103 176.844 61.024C177.068 60.956 177.244 60.892 177.412 60.828C177.537 60.7706 177.676 60.7512 177.812 60.772C177.928 60.7905 178.037 60.8422 178.124 60.9211C178.211 60.9999 178.274 61.1023 178.304 61.216L178.768 62.476ZM179.168 50.508C179.125 50.7271 179.038 50.9353 178.912 51.12C178.793 51.2966 178.639 51.4476 178.46 51.564C178.28 51.6805 178.079 51.7607 177.868 51.8C177.645 51.8459 177.415 51.8459 177.192 51.8C176.972 51.7559 176.763 51.666 176.58 51.536C176.406 51.412 176.256 51.2575 176.136 51.08C176.016 50.9011 175.933 50.6997 175.892 50.488C175.848 50.2675 175.848 50.0405 175.892 49.82C175.936 49.5991 176.028 49.3903 176.16 49.208C176.282 49.0331 176.437 48.8837 176.616 48.768C176.797 48.6552 176.998 48.5779 177.208 48.54C177.429 48.4961 177.656 48.4961 177.876 48.54C178.098 48.5842 178.309 48.6726 178.496 48.8C178.674 48.9191 178.827 49.0728 178.944 49.252C179.063 49.4354 179.143 49.6409 179.18 49.856C179.217 50.0711 179.21 50.2915 179.16 50.504L179.168 50.508Z" fill="#E0E0E0"/>
<path d="M24.4363 127.776C24.1337 127.943 23.8211 128.091 23.5003 128.22C23.1598 128.354 22.8076 128.455 22.4483 128.524C22.0607 128.598 21.6669 128.634 21.2723 128.632C20.8323 128.626 20.394 128.575 19.9643 128.48C19.3823 128.365 18.823 128.155 18.3083 127.86C17.8561 127.599 17.4604 127.251 17.1443 126.836C16.8441 126.44 16.6363 125.982 16.5363 125.496C16.4309 124.967 16.4391 124.422 16.5603 123.896C16.653 123.41 16.8362 122.946 17.1003 122.528C17.3202 122.185 17.5898 121.876 17.9003 121.612C18.1898 121.374 18.5083 121.174 18.8483 121.016L19.7803 120.576C20.0474 120.453 20.3054 120.311 20.5523 120.152C20.7665 120.024 20.9336 119.831 21.0283 119.6L21.6003 118.092L23.4243 118.492L23.2363 120.292C23.2189 120.606 23.1011 120.906 22.9003 121.148C22.6972 121.381 22.4566 121.578 22.1883 121.732C21.8944 121.901 21.5898 122.051 21.2763 122.18C20.9495 122.316 20.6327 122.475 20.3283 122.656C20.0309 122.833 19.7613 123.052 19.5283 123.308C19.2862 123.59 19.1233 123.931 19.0563 124.296C19.0023 124.536 19.0023 124.784 19.0563 125.024C19.1088 125.248 19.2084 125.458 19.3483 125.64C19.4985 125.832 19.6846 125.992 19.8963 126.112C20.1321 126.245 20.3872 126.341 20.6523 126.396C21.0032 126.479 21.3646 126.509 21.7243 126.484C21.9951 126.46 22.263 126.411 22.5243 126.336C22.7443 126.264 22.9243 126.2 23.0883 126.14C23.2127 126.081 23.3524 126.061 23.4883 126.084C23.6047 126.1 23.7137 126.151 23.8013 126.229C23.8889 126.307 23.9513 126.41 23.9803 126.524L24.4363 127.776ZM24.8363 115.808C24.745 116.238 24.4914 116.616 24.1283 116.864C23.9474 116.979 23.7466 117.059 23.5363 117.1C23.3131 117.144 23.0835 117.144 22.8603 117.1C22.639 117.053 22.4295 116.962 22.2443 116.832C22.0692 116.709 21.9186 116.554 21.8003 116.376C21.6825 116.196 21.6009 115.995 21.5603 115.784C21.5193 115.563 21.5222 115.337 21.5689 115.117C21.6155 114.897 21.7051 114.689 21.8323 114.504C21.9558 114.33 22.1121 114.182 22.2923 114.068C22.6667 113.831 23.1197 113.752 23.5523 113.848C23.7741 113.895 23.9847 113.985 24.1723 114.112C24.3494 114.23 24.5006 114.382 24.6168 114.561C24.733 114.739 24.8118 114.939 24.8483 115.148C24.8911 115.366 24.8911 115.59 24.8483 115.808H24.8363Z" fill="#E0E0E0"/>
<path d="M15.0039 50.7479C15.1851 50.4521 15.3842 50.1676 15.5999 49.8959C15.8285 49.608 16.0814 49.3404 16.3559 49.0959C16.6544 48.8385 16.9773 48.6108 17.3199 48.4159C17.701 48.2008 18.1031 48.0253 18.5199 47.8919C19.0829 47.7004 19.6733 47.6017 20.2679 47.5999C20.7882 47.5973 21.3038 47.6994 21.7839 47.8999C22.2418 48.0938 22.6515 48.3861 22.9839 48.7559C23.647 49.5515 23.9994 50.5604 23.9759 51.5959C23.9554 52.0063 23.8717 52.411 23.7279 52.7959C23.5949 53.1502 23.4174 53.4862 23.1999 53.7959L22.6119 54.6439C22.4428 54.8838 22.2905 55.1351 22.1559 55.3959C22.0362 55.6113 21.9925 55.8607 22.0319 56.1039L22.2879 57.7039L20.5159 58.2799L19.7799 56.6279C19.6364 56.3469 19.5873 56.027 19.6399 55.7159C19.6998 55.4133 19.8093 55.1228 19.9639 54.8559C20.1333 54.5625 20.3217 54.2806 20.5279 54.0119C20.7432 53.73 20.9383 53.4333 21.1119 53.1239C21.2799 52.8222 21.4025 52.4973 21.4759 52.1599C21.546 51.7949 21.517 51.4179 21.3919 51.0679C21.3188 50.8329 21.1945 50.6171 21.0279 50.4359C20.8725 50.2635 20.6814 50.127 20.4679 50.0359C20.2417 49.9445 19.9998 49.8983 19.7559 49.8999C19.4839 49.9013 19.2139 49.9459 18.9559 50.0319C18.6141 50.1464 18.2918 50.3123 17.9999 50.5239C17.7801 50.6761 17.5764 50.8503 17.3919 51.0439C17.2359 51.2159 17.1079 51.3679 16.9919 51.4959C16.9148 51.6077 16.8062 51.694 16.6799 51.7439C16.5708 51.7846 16.4521 51.7927 16.3385 51.7671C16.2248 51.7415 16.1211 51.6834 16.0399 51.5999L15.0039 50.7479ZM20.6399 61.3159C20.5718 61.1029 20.5447 60.879 20.5599 60.6559C20.5745 60.4427 20.6316 60.2346 20.7279 60.0439C20.8274 59.8528 20.9633 59.683 21.1279 59.5439C21.3003 59.3959 21.5001 59.2831 21.7159 59.2119C21.9311 59.1416 22.1584 59.1157 22.3839 59.1359C22.5967 59.1552 22.8042 59.2135 22.9959 59.3079C23.1889 59.4063 23.3603 59.5423 23.4999 59.7079C23.6494 59.8756 23.7613 60.0734 23.8279 60.2879C23.8995 60.5015 23.9267 60.7274 23.9079 60.9519C23.8865 61.164 23.8254 61.3703 23.7279 61.5599C23.6261 61.7483 23.4905 61.9165 23.3279 62.0559C23.1571 62.2022 22.9584 62.3124 22.7439 62.3799C22.5287 62.4507 22.3019 62.4792 22.0759 62.4639C21.863 62.4506 21.6549 62.3948 21.4639 62.2999C21.2744 62.1997 21.106 62.0639 20.9679 61.8999C20.8231 61.7274 20.7118 61.5293 20.6399 61.3159Z" fill="#E0E0E0"/>
<path d="M80.152 52.4479C79.9139 52.789 79.6547 53.115 79.376 53.4239C79.0811 53.7502 78.7556 54.0476 78.404 54.3119C78.0281 54.5956 77.6263 54.8433 77.204 55.0519C76.7244 55.2798 76.2232 55.4593 75.708 55.5879C75.0158 55.7707 74.2984 55.8396 73.584 55.7919C72.958 55.7508 72.3462 55.5864 71.784 55.3079C71.2502 55.0377 70.783 54.6524 70.416 54.1799C70.0305 53.6667 69.7579 53.0778 69.616 52.4519C69.4548 51.8787 69.4046 51.2799 69.468 50.6879C69.53 50.196 69.6648 49.7161 69.868 49.2639C70.0549 48.8539 70.2913 48.4683 70.572 48.1159L71.348 47.1439C71.5719 46.8691 71.7764 46.5791 71.96 46.2759C72.1187 46.026 72.1904 45.7307 72.164 45.4359L71.984 43.4799L74.164 42.9319L74.912 44.9759C75.0627 45.3252 75.0963 45.7139 75.008 46.0839C74.9116 46.443 74.7561 46.7837 74.548 47.0919C74.3203 47.4307 74.0704 47.754 73.8 48.0599C73.5188 48.3811 73.2608 48.722 73.028 49.0799C72.8007 49.428 72.6268 49.8082 72.512 50.2079C72.3941 50.64 72.3941 51.0958 72.512 51.5279C72.575 51.8067 72.6996 52.0679 72.8769 52.2922C73.0541 52.5164 73.2793 52.6981 73.536 52.8239C73.8 52.9525 74.0869 53.0273 74.38 53.0439C74.7069 53.0658 75.0351 53.0348 75.352 52.9519C75.7735 52.854 76.178 52.6936 76.552 52.4759C76.8289 52.3101 77.0877 52.1157 77.324 51.8959C77.528 51.7039 77.696 51.5319 77.832 51.3839C77.9366 51.2568 78.0754 51.1624 78.232 51.1119C78.3676 51.0702 78.5123 51.0688 78.6487 51.1079C78.785 51.1469 78.9071 51.2247 79 51.3319L80.152 52.4479ZM74.24 39.2919C74.3085 39.5528 74.3235 39.825 74.284 40.0919C74.2513 40.3475 74.1669 40.5939 74.036 40.8159C73.9017 41.0363 73.7265 41.229 73.52 41.3839C73.3024 41.5489 73.0543 41.6693 72.79 41.7379C72.5257 41.8066 72.2504 41.8222 71.98 41.7839C71.7252 41.7429 71.4799 41.6562 71.256 41.5279C71.0346 41.395 70.8405 41.2213 70.684 41.0159C70.5202 40.8006 70.4019 40.5543 70.336 40.2919C70.2698 40.0305 70.2562 39.7586 70.296 39.4919C70.3368 39.2371 70.4264 38.9926 70.56 38.7719C70.6975 38.5549 70.8738 38.365 71.08 38.2119C71.2969 38.049 71.5445 37.932 71.808 37.8679C72.0693 37.8013 72.341 37.7864 72.608 37.8239C72.8623 37.8572 73.1072 37.9416 73.328 38.0719C73.5466 38.204 73.7369 38.378 73.888 38.5839C74.0513 38.7941 74.171 39.0348 74.24 39.2919Z" fill="#E0E0E0"/>
<path d="M121.425 31.144C121.751 30.9885 122.088 30.8548 122.433 30.744C123.192 30.4769 123.996 30.3601 124.801 30.4C125.265 30.4287 125.724 30.5051 126.173 30.628C126.777 30.7837 127.352 31.0349 127.877 31.372C128.338 31.6704 128.735 32.058 129.045 32.512C129.336 32.9447 129.529 33.4364 129.609 33.952C129.69 34.5094 129.654 35.0778 129.501 35.62C129.377 36.1257 129.158 36.6034 128.857 37.028C128.603 37.3784 128.298 37.6885 127.953 37.948C127.635 38.1817 127.29 38.3752 126.925 38.524L125.921 38.924C125.633 39.0374 125.353 39.1711 125.085 39.324C124.857 39.4486 124.676 39.6437 124.569 39.88L123.873 41.448L121.977 40.94L122.277 39.06C122.308 38.7291 122.449 38.4182 122.677 38.176C122.9 37.9419 123.163 37.7483 123.453 37.604C123.769 37.4493 124.095 37.3144 124.429 37.2C124.78 37.0761 125.123 36.9264 125.453 36.752C125.775 36.5819 126.07 36.3649 126.329 36.108C126.599 35.8258 126.79 35.4764 126.881 35.096C126.952 34.8478 126.967 34.5867 126.925 34.332C126.882 34.0945 126.787 33.8693 126.649 33.672C126.504 33.4603 126.317 33.2806 126.101 33.144C125.86 32.9894 125.597 32.8734 125.321 32.8C124.956 32.6933 124.577 32.642 124.197 32.648C123.915 32.6574 123.634 32.6963 123.361 32.764C123.125 32.824 122.925 32.88 122.757 32.936C122.623 32.9884 122.478 33.0023 122.337 32.976C122.216 32.9506 122.105 32.8906 122.017 32.8032C121.93 32.7158 121.87 32.6049 121.845 32.484L121.425 31.144ZM120.337 43.7C120.396 43.4728 120.499 43.2594 120.641 43.072C120.777 42.8933 120.947 42.7426 121.141 42.628C121.448 42.456 121.799 42.378 122.15 42.4036C122.501 42.4292 122.837 42.5573 123.117 42.772C123.293 42.9113 123.442 43.0822 123.557 43.276C123.673 43.4706 123.748 43.6871 123.777 43.912C123.811 44.1456 123.798 44.3838 123.737 44.612C123.677 44.8414 123.569 45.0555 123.421 45.24C123.283 45.4175 123.112 45.5657 122.917 45.676C122.716 45.7898 122.494 45.8625 122.265 45.89C122.035 45.9175 121.803 45.8991 121.581 45.836C121.349 45.7753 121.132 45.6707 120.941 45.528C120.761 45.3924 120.61 45.2224 120.497 45.028C120.386 44.8355 120.314 44.6237 120.285 44.404C120.256 44.1681 120.274 43.9291 120.337 43.7Z" fill="#E0E0E0"/>
<path d="M174.908 16.736C175.077 16.2797 175.274 15.8348 175.5 15.404C175.741 14.9483 176.024 14.5158 176.344 14.112C176.69 13.674 177.078 13.272 177.504 12.912C177.979 12.5122 178.494 12.1624 179.04 11.868C179.769 11.4589 180.559 11.1711 181.38 11.016C182.101 10.8793 182.842 10.8875 183.56 11.04C184.244 11.1902 184.887 11.4908 185.44 11.92C186.033 12.3831 186.521 12.9665 186.872 13.632C187.218 14.2372 187.448 14.9021 187.548 15.592C187.624 16.165 187.614 16.7462 187.516 17.316C187.426 17.8358 187.272 18.3424 187.056 18.824C186.844 19.292 186.656 19.736 186.46 20.148C186.288 20.524 186.142 20.9116 186.024 21.308C185.915 21.6364 185.915 21.9915 186.024 22.32L186.8 24.496L184.492 25.752L183.048 23.656C182.776 23.3055 182.626 22.8757 182.62 22.432C182.623 21.9971 182.699 21.5658 182.844 21.156C183.003 20.7056 183.192 20.266 183.408 19.84C183.64 19.3968 183.838 18.9368 184 18.464C184.158 18.0025 184.245 17.5196 184.256 17.032C184.257 16.508 184.119 15.9932 183.856 15.54C183.698 15.2266 183.471 14.9531 183.192 14.74C182.932 14.5457 182.633 14.4093 182.316 14.34C181.979 14.2739 181.633 14.2739 181.296 14.34C180.92 14.417 180.559 14.5519 180.224 14.74C179.775 14.9748 179.363 15.2739 179 15.628C178.737 15.8972 178.501 16.192 178.296 16.508C178.124 16.788 177.98 17.028 177.868 17.236C177.789 17.41 177.661 17.5574 177.5 17.66C177.36 17.748 177.197 17.7931 177.031 17.7895C176.866 17.786 176.705 17.734 176.568 17.64L174.908 16.736ZM185.44 29.908C185.29 29.6314 185.193 29.3287 185.156 29.016C185.122 28.7179 185.148 28.416 185.232 28.128C185.312 27.8378 185.448 27.566 185.632 27.328C185.829 27.0759 186.077 26.8687 186.36 26.72C186.638 26.5652 186.944 26.4698 187.26 26.44C187.561 26.4118 187.865 26.4389 188.156 26.52C188.447 26.5992 188.719 26.7351 188.956 26.92C189.449 27.3165 189.765 27.8915 189.836 28.52C189.864 28.8202 189.834 29.123 189.748 29.412C189.661 29.7041 189.517 29.976 189.324 30.212C189.128 30.4604 188.881 30.6649 188.6 30.812C188.321 30.9675 188.014 31.0667 187.696 31.104C187.398 31.1372 187.097 31.1127 186.808 31.032C186.517 30.9543 186.245 30.8182 186.008 30.632C185.774 30.4292 185.581 30.1834 185.44 29.908Z" fill="#E0E0E0"/>
<path d="M24.9408 32.5519C24.4601 32.6253 23.9749 32.6654 23.4888 32.6719C22.4155 32.6924 21.3487 32.5021 20.3488 32.1119C19.7707 31.8862 19.2172 31.602 18.6968 31.2639C17.9869 30.8238 17.3544 30.2697 16.8248 29.6239C16.3593 29.0562 16.01 28.4024 15.7968 27.6999C15.6014 27.0287 15.555 26.3229 15.6608 25.6319C15.7796 24.8904 16.0521 24.1819 16.4608 23.5519C16.8268 22.9496 17.3048 22.4228 17.8688 21.9999C18.334 21.6564 18.8494 21.3866 19.3968 21.1999C19.8965 21.0308 20.415 20.9233 20.9408 20.8799L22.4008 20.7759C22.8041 20.7451 23.205 20.6876 23.6008 20.6039C23.9395 20.5366 24.2478 20.3628 24.4808 20.1079L26.0208 18.3999L28.2328 19.8159L27.0888 22.0799C26.9122 22.4883 26.6076 22.8281 26.2208 23.0479C25.8377 23.248 25.4241 23.3831 24.9968 23.4479C24.5245 23.527 24.0474 23.5738 23.5688 23.5879C23.0709 23.6036 22.575 23.6558 22.0848 23.7439C21.6059 23.8306 21.1423 23.987 20.7088 24.2079C20.25 24.463 19.8675 24.8358 19.6008 25.2879C19.4091 25.5752 19.2847 25.9019 19.2368 26.2439C19.193 26.5646 19.2203 26.891 19.3168 27.1999C19.4187 27.5266 19.5846 27.8298 19.8048 28.0919C20.0478 28.387 20.3369 28.6409 20.6608 28.8439C21.0809 29.1286 21.5423 29.3471 22.0288 29.4919C22.3916 29.5952 22.7643 29.6595 23.1408 29.6839C23.4648 29.7039 23.7488 29.7119 23.9848 29.7079C24.1754 29.6971 24.3653 29.7401 24.5328 29.8319C24.6772 29.9131 24.7947 30.0347 24.8707 30.1819C24.9468 30.329 24.9781 30.4952 24.9608 30.6599L24.9408 32.5519ZM31.4248 16.9839C31.2557 17.25 31.0355 17.4798 30.7768 17.6599C30.5363 17.8322 30.2646 17.9558 29.9768 18.0239C29.6809 18.0821 29.3766 18.0821 29.0808 18.0239C28.7647 17.9697 28.4628 17.8528 28.1928 17.6799C27.9246 17.5102 27.6944 17.2869 27.5168 17.0239C27.349 16.7742 27.2271 16.4965 27.1568 16.2039C27.0889 15.9017 27.0818 15.5891 27.1361 15.2841C27.1903 14.9792 27.3048 14.6881 27.4728 14.4279C27.64 14.1591 27.8622 13.9287 28.1248 13.7519C28.3747 13.5845 28.6544 13.4663 28.9488 13.4039C29.4087 13.3181 29.8837 13.3664 30.317 13.543C30.7504 13.7196 31.1238 14.017 31.3928 14.3999C31.5666 14.6395 31.6904 14.9115 31.7568 15.1999C31.815 15.4931 31.815 15.7948 31.7568 16.0879C31.7056 16.4054 31.5928 16.7098 31.4248 16.9839Z" fill="#E0E0E0"/>
<path d="M56.7599 169.352C56.5858 170.201 56.2401 171.005 55.7439 171.716C54.7496 173.124 53.4437 174.283 51.9279 175.104C45.3279 178.912 34.6239 178.912 28.0239 175.104C26.5096 174.283 25.2051 173.123 24.2119 171.716C23.7181 171.004 23.3738 170.2 23.1999 169.352C22.6119 166.488 24.2239 163.504 28.0279 161.304C34.6279 157.492 45.3319 157.492 51.9319 161.304C55.7359 163.504 57.3479 166.488 56.7599 169.352Z" fill="#E0E0E0"/>
<path d="M146.98 126.972C169.86 140.4 169.708 161.908 146.636 175.012C123.564 188.116 86.3155 187.844 63.4355 174.416C40.5555 160.988 40.7075 139.48 63.7795 126.38C86.8515 113.28 124.1 113.544 146.98 126.972Z" fill="#E0E0E0"/>
<path d="M73.86 73.2961C63.3 79.3921 48 93.8201 48 119.84C48 145.86 60.296 165.212 83.848 173.84C91.396 176.612 101.672 177.808 111.484 177.328C122.783 176.833 133.665 172.913 142.684 166.088C148.948 161.288 153.568 155.604 156.6 147.708C161.6 133.04 152.656 117.684 140.496 108.908C128.336 100.132 129.808 90.1521 121.2 79.7681C116.576 74.1681 109.768 69.4081 101.46 68.4841C92.4 67.4721 81.9 68.6521 73.86 73.2961Z" fill="#1C6758"/>
<path opacity="0.6" d="M73.86 73.2961C63.3 79.3921 48 93.8201 48 119.84C48 145.86 60.296 165.212 83.848 173.84C91.396 176.612 101.672 177.808 111.484 177.328C122.783 176.833 133.665 172.913 142.684 166.088C148.948 161.288 153.568 155.604 156.6 147.708C161.6 133.04 152.656 117.684 140.496 108.908C128.336 100.132 129.808 90.1521 121.2 79.7681C116.576 74.1681 109.768 69.4081 101.46 68.4841C92.4 67.4721 81.9 68.6521 73.86 73.2961Z" fill="white"/>
<path opacity="0.3" d="M149.807 141.952C151.47 140.2 152.736 138.11 153.518 135.825C154.3 133.539 154.581 131.112 154.339 128.708C154.098 126.304 153.342 123.981 152.121 121.896C150.901 119.812 149.245 118.015 147.267 116.628C143.719 114.088 139.179 113.152 135.355 111.028C126.083 105.896 124.279 100.284 116.231 79.3721C115.326 76.9856 114.215 74.6823 112.911 72.4881C109.441 70.3227 105.534 68.9564 101.471 68.4881C92.4107 67.4761 81.8987 68.6561 73.8707 73.2881C71.0742 74.9148 68.4383 76.8033 65.9987 78.9281C63.2707 90.0961 63.5987 108.588 66.6627 118.948C68.6627 125.712 71.4307 128.904 71.4307 128.904C60.8307 126.82 52.3867 133.972 52.3867 133.972C55.4347 132.524 59.3107 132.372 62.5987 132.528C66.7175 132.765 70.7761 133.628 74.6347 135.088C78.6627 136.556 80.2347 138.496 82.9187 141.732C84.6863 143.851 87.0133 145.431 89.6347 146.292C93.0027 147.396 96.6307 147.244 100.147 147.676C103.663 148.108 107.395 149.34 109.347 152.3C110.287 153.728 110.715 155.42 111.127 157.08L113.407 166.228C113.739 167.556 114.083 168.912 114.855 170.04C116.835 172.94 121.431 173.332 124.175 171.14C125.471 170.1 126.391 168.628 127.775 167.68C130.379 165.864 133.675 166.436 136.615 166.8C138.254 167.005 139.909 167.062 141.559 166.972C141.959 166.688 142.359 166.404 142.759 166.104C146.22 163.51 149.27 160.408 151.807 156.904C151.189 156.25 150.499 155.668 149.751 155.168C148.035 153.992 146.111 152.964 144.987 151.216C142.279 147.06 147.439 144.46 149.807 141.952Z" fill="#1C6758"/>
<path opacity="0.3" d="M121.699 175.928C107.323 177.08 92.4989 173.336 80.7509 165.34C61.7989 152.444 53.5989 132 57.6509 107.788C61.2509 86.3961 71.9309 74.6161 82.6669 69.7441C82.0709 69.9041 81.4669 70.0761 80.8869 70.2601C80.3029 70.4441 79.7269 70.6401 79.1589 70.8481H79.1269C78.5629 71.0561 78.0029 71.2761 77.4509 71.5121H77.4149C76.8549 71.7521 76.3042 72.0041 75.7629 72.2681C67.0669 78.6121 59.3349 89.8681 56.3749 107.544C52.2189 132.32 60.6189 153.22 79.9989 166.42C89.4029 172.82 100.723 176.54 112.243 177.292C115.427 177.097 118.59 176.641 121.699 175.928Z" fill="#1C6758"/>
<path d="M157.9 53.7202C157.27 53.5622 156.61 53.5774 155.988 53.7642C155.26 53.9935 154.557 54.2936 153.888 54.6602C152.843 55.1802 151.776 55.6602 150.688 56.1002C149.728 56.5002 148.708 56.9442 147.648 56.9322C147.296 56.9322 146.56 56.8122 147.024 56.3562C147.668 55.7951 148.262 55.1795 148.8 54.5162C149.066 54.1818 149.26 53.7959 149.369 53.3828C149.479 52.9698 149.502 52.5385 149.436 52.1162C149.395 51.8592 149.259 51.6268 149.056 51.4642C148.756 51.2602 148.56 51.4042 148.336 51.5842C148.092 51.766 147.836 51.933 147.572 52.0842C147.036 52.4122 146.5 52.7402 145.972 53.0762C142.868 55.0322 139.24 56.5682 137.476 59.8762C137.22 60.3562 136.504 62.5762 135.8 66.4282C135.096 70.2802 132.06 80.3202 132.06 80.3202C132.06 80.3202 126.06 73.3362 121.696 67.7322C119.654 65.044 116.887 62.9945 113.72 61.8242C112.155 61.2656 110.55 60.823 108.92 60.5002L113.284 79.4042C113.284 79.4042 123.72 90.5402 129.684 95.2242C135.072 99.4522 138.368 97.6722 139.38 96.1322C141.06 93.5762 142.512 92.4962 143.556 76.7722C143.644 75.5722 143.708 74.3402 143.784 73.1242C144.048 70.6042 144.776 68.1202 145.836 67.7522C147.801 67.1064 149.694 66.2578 151.484 65.2202C152.658 64.5236 153.734 63.6734 154.684 62.6922C155.084 62.2922 155.74 61.6962 155.884 61.1322C156.028 60.5682 155.884 59.9042 156.176 59.3602C156.368 58.9922 156.688 58.7202 156.86 58.3202C157.208 57.5202 157.308 56.5162 157.98 55.8722C158.348 55.5202 158.908 55.2442 158.928 54.7322C158.906 54.5291 158.826 54.3366 158.698 54.1777C158.569 54.0189 158.398 53.9003 158.204 53.8362C158.105 53.7917 158.003 53.7529 157.9 53.7202Z" fill="#FFBDA7"/>
<path d="M132.069 80.32C130.737 84.344 130.637 89.664 130.637 89.664C130.637 89.664 129.161 83.524 130.841 78.864L132.069 80.32Z" fill="#F0997A"/>
<path d="M145.844 58.4961C145.18 60.5241 143.236 62.8601 142.088 63.5561C142.088 63.5561 143.916 62.9081 144.888 61.5801C145.92 60.1241 145.976 59.3001 145.844 58.4961Z" fill="#F0997A"/>
<path d="M108.965 59.9321C115.113 61.3641 117.665 62.3321 120.565 65.5321C123.465 68.7321 132.217 79.5881 132.217 79.5881L132.841 77.7001C132.841 77.7001 132.817 81.7361 136.917 84.6041C141.017 87.4721 142.993 86.0001 142.993 86.0001C142.993 86.0001 142.537 89.1441 141.857 92.0281C141.177 94.9121 139.113 98.1601 136.881 98.4561C134.649 98.7521 131.865 97.6561 126.969 93.3721C122.073 89.0881 111.441 78.8961 111.441 78.8961L108.965 59.9321Z" fill="#E0E0E0"/>
<path opacity="0.1" d="M132.224 79.5761C131.404 82.1521 130.06 86.8641 131.556 90.0761C129.904 88.0121 129.956 83.3361 131.38 78.5281L132.224 79.5761Z" fill="black"/>
<path d="M126.128 142.468L132.028 132.992L141.628 139.792L127.856 153.444C127.856 153.444 121.716 152.332 121 149.016C120.284 145.7 124.332 143.396 126.128 142.468Z" fill="#FFBDA7"/>
<path d="M118.656 145.74C118.054 146.104 117.53 146.584 117.116 147.152C116.656 147.72 116.528 150.668 116.02 151.996C115.512 153.324 115.176 153.66 114.38 155.312C113.492 157.14 112.008 158.752 113.092 163.744C114.188 168.804 116.388 171.268 118.32 172.632C119.044 173.087 119.867 173.361 120.72 173.432C120.72 173.432 123.48 172.656 123.208 171.032C122.936 169.408 118.656 145.74 118.656 145.74Z" fill="#263238"/>
<path d="M129.904 152.1C129.788 152.592 129.02 153.3 128.704 153.7C127.624 154.992 127.024 156.812 126.548 158.408C124.304 165.968 127.024 170.144 122.628 172.668C121.364 173.32 118.892 172.896 115.532 167.716C113.816 165.072 113.156 159.88 114.112 157.64C115.068 155.4 116.228 153.984 116.868 152.252C117.508 150.52 117.548 147.192 118.66 145.752C119.37 144.948 120.251 144.313 121.24 143.896C122.016 143.496 123.672 143.064 124.46 142.696C125.308 142.296 125.7 141.896 126.132 142.472L125.176 143.468C123.664 145.22 124.016 145.524 123.976 146.524C123.936 147.524 123.48 148.632 123.2 149.648C124.264 148.52 124.748 147.496 125.784 147.772C126.748 148.032 126.944 148.008 128.324 149.552C129.704 151.096 130 151.66 129.904 152.1Z" fill="#455A64"/>
<path d="M115.528 167.704C113.812 165.06 113.152 159.868 114.108 157.628C114.427 156.888 114.787 156.167 115.188 155.468C115.144 155.62 115.084 155.776 115.052 155.908C114.976 156.204 114.912 156.5 114.856 156.796C114.644 157.944 114.54 159.196 114.936 160.324C115.288 161.32 116.084 163.812 117.372 163.98C118.104 164.072 118.788 163.408 119.14 162.616C119.288 162.28 119.568 161.364 119.568 161.364C120.732 161.741 121.827 162.302 122.812 163.028C124.584 164.436 124.488 164.704 124.488 164.704C124.332 165.237 124.263 165.793 124.284 166.348C124.344 166.95 124.534 167.531 124.84 168.052C124.971 168.21 125.12 168.353 125.284 168.476C125.052 170.244 124.484 171.6 122.624 172.656C121.36 173.308 118.888 172.884 115.528 167.704Z" fill="#37474F"/>
<path d="M126.545 158.4C125.966 160.39 125.625 162.442 125.529 164.512C124.653 166.42 124.037 166.304 124.041 165.28C124.045 164.256 125.773 160.132 127.093 156.72C126.889 157.28 126.709 157.852 126.545 158.4Z" fill="#37474F"/>
<path d="M122.941 145.652C122.941 144.647 123.294 143.673 123.937 142.9C124.129 142.828 124.313 142.76 124.457 142.692C125.305 142.292 125.697 141.892 126.129 142.468L125.173 143.464C123.661 145.216 124.013 145.52 123.973 146.52C123.933 147.52 123.477 148.628 123.197 149.644C122.121 152.916 121.309 153.968 120.661 157.092C120.013 160.216 120.465 162.392 120.005 162.532C119.545 162.672 118.673 162.236 118.729 159.692C118.785 157.148 120.273 152.996 121.237 151.052C122.201 149.108 122.981 147.012 122.941 145.652Z" fill="#37474F"/>
<path d="M119.323 161.564C119.362 161.612 119.416 161.647 119.475 161.664C121.651 162.316 122.783 162.976 124.275 165.06C124.324 165.128 124.398 165.173 124.48 165.187C124.562 165.202 124.647 165.183 124.715 165.136C124.784 165.088 124.83 165.014 124.844 164.932C124.859 164.849 124.84 164.764 124.791 164.696C123.227 162.492 121.991 161.748 119.667 161.06C119.603 161.041 119.533 161.044 119.47 161.067C119.407 161.091 119.353 161.133 119.316 161.19C119.279 161.246 119.261 161.313 119.264 161.38C119.268 161.447 119.293 161.512 119.335 161.564H119.323Z" fill="#EBEBEB"/>
<path d="M119.952 158.968C119.992 159.014 120.043 159.048 120.1 159.068C122.348 159.8 123.564 160.56 125.136 162.756C125.16 162.792 125.19 162.823 125.227 162.846C125.263 162.87 125.303 162.886 125.346 162.893C125.388 162.9 125.431 162.898 125.473 162.888C125.515 162.877 125.554 162.858 125.588 162.832C125.623 162.807 125.652 162.776 125.675 162.74C125.697 162.704 125.713 162.664 125.72 162.622C125.727 162.58 125.726 162.537 125.716 162.495C125.706 162.454 125.689 162.415 125.664 162.38C124.004 160.064 122.684 159.228 120.304 158.452C120.224 158.428 120.137 158.436 120.062 158.475C119.987 158.514 119.931 158.58 119.904 158.66C119.887 158.711 119.882 158.766 119.891 158.82C119.899 158.873 119.92 158.924 119.952 158.968Z" fill="#EBEBEB"/>
<path d="M120.149 156.064C120.194 156.115 120.252 156.154 120.317 156.176C122.793 156.976 124.205 157.896 125.917 160.32C125.974 160.393 126.058 160.441 126.149 160.454C126.241 160.467 126.335 160.444 126.41 160.39C126.485 160.336 126.537 160.255 126.554 160.163C126.571 160.072 126.552 159.978 126.501 159.9C124.677 157.356 123.141 156.348 120.501 155.5C120.411 155.471 120.313 155.479 120.228 155.521C120.143 155.564 120.079 155.638 120.049 155.728C120.036 155.788 120.039 155.85 120.056 155.909C120.074 155.967 120.106 156.021 120.149 156.064Z" fill="#EBEBEB"/>
<path d="M120.801 153.624C120.844 153.676 120.901 153.714 120.965 153.736C123.393 154.536 124.761 155.4 126.465 157.78C126.52 157.849 126.6 157.895 126.688 157.907C126.775 157.92 126.865 157.898 126.937 157.847C127.009 157.796 127.06 157.72 127.078 157.633C127.095 157.546 127.079 157.456 127.033 157.38C125.249 154.884 123.753 153.912 121.181 153.076C121.092 153.047 120.996 153.054 120.912 153.096C120.829 153.138 120.766 153.212 120.737 153.3C120.721 153.355 120.718 153.414 120.729 153.47C120.741 153.526 120.765 153.579 120.801 153.624Z" fill="#EBEBEB"/>
<path d="M121.905 151.292C121.948 151.342 122.003 151.381 122.065 151.404C124.493 152.204 125.861 153.068 127.565 155.448C127.588 155.493 127.62 155.532 127.659 155.563C127.699 155.593 127.744 155.616 127.793 155.628C127.842 155.64 127.892 155.641 127.942 155.632C127.991 155.623 128.038 155.603 128.079 155.574C128.12 155.545 128.154 155.508 128.18 155.465C128.205 155.422 128.221 155.374 128.227 155.324C128.232 155.275 128.227 155.224 128.212 155.176C128.196 155.129 128.17 155.085 128.137 155.048C126.345 152.548 124.857 151.58 122.285 150.744C122.196 150.715 122.1 150.722 122.016 150.764C121.933 150.806 121.87 150.88 121.841 150.968C121.823 151.023 121.819 151.082 121.831 151.138C121.842 151.195 121.867 151.248 121.905 151.292Z" fill="#EBEBEB"/>
<path d="M128.793 143.5L134.885 149.436L138.393 152.084L133.461 159.724L122.029 152.972L128.793 143.5Z" fill="#FFBDA7"/>
<path d="M118.552 106.532C118.552 106.532 142.764 104.656 152.972 105.612C163.372 106.584 163.676 114.496 160.648 119.06C154.856 127.804 135.796 145.752 135.796 145.752C135.796 145.752 130.196 142.572 128.844 137.372L133.6 128.636L120.8 131.536L114.8 126.708L114.564 123.416L118.552 106.532Z" fill="#455A64"/>
<path d="M118.552 106.532L76.6322 109.808C76.6322 109.808 75.3642 119.664 78.4802 128.864C81.1562 136.764 87.6802 140.736 92.9082 142.016C97.0004 142.942 101.14 143.644 105.308 144.12C105.308 144.12 108.328 146.94 111.504 148.52C114.68 150.1 128.544 157.396 128.544 157.396C128.544 157.396 132.884 154.328 133.104 147.16L120.8 131.536C118.052 127.536 117.08 126.216 115.44 125.22C118.22 114.572 118.36 112.14 118.552 106.532Z" fill="#455A64"/>
<path d="M118.944 128.936C120.192 130.688 120.788 131.536 120.788 131.536L122.84 131.056C122.84 131.056 119.64 126.9 117.532 124.68C115.228 122.244 111.932 121.828 108.732 122.08C104.676 122.396 92.9199 123.36 92.9199 123.36C92.9199 123.36 104.12 123.328 109.908 123.608C115.696 123.888 117.692 127.2 118.944 128.936Z" fill="#37474F"/>
<path d="M116.228 113.256C115.988 117.316 113.4 121.868 111.908 123.052L114.308 124.14C114.308 124.14 117.2 118.64 116.228 113.256Z" fill="#37474F"/>
<path d="M136.352 121.084C134.186 123.729 132.173 126.496 130.324 129.372L133.596 128.636C137.932 120.396 138.884 117.968 144.968 114.464C144.968 114.464 140.72 115.656 136.352 121.084Z" fill="#37474F"/>
<path d="M102.692 139.06C102.692 139.06 104.592 142.4 111.376 146C115.192 148.024 127.024 153.888 130.672 155.092C130.094 155.97 129.379 156.75 128.556 157.404C128.556 157.404 114.688 150.12 111.516 148.528C110.828 148.177 110.16 147.787 109.516 147.36C109.232 147.176 108.952 146.988 108.684 146.8C107.984 146.308 107.352 145.82 106.828 145.396C106.304 144.972 105.892 144.616 105.628 144.388L105.364 144.148L105.328 144.116C102.46 141.156 102.692 139.06 102.692 139.06Z" fill="#37474F"/>
<path d="M153.066 157.568C155.774 158.916 157.414 160.184 158.562 161.992C159.71 163.8 159.958 165.552 158.562 167.496C157.166 169.44 154.678 171.656 152.002 171.264C149.326 170.872 147.734 170.064 145.354 168.488L153.066 157.568Z" fill="#263238"/>
<path d="M130.421 158C130.309 158.836 133.709 160.8 137.241 162.9C141.025 165.128 141.889 166.44 144.973 168.308C148.501 170.44 149.889 170.668 152.817 170.124C155.745 169.58 159.617 165.792 157.501 161.816C155.765 158.576 153.245 157.508 149.397 156.128C146.335 155.065 143.345 153.802 140.449 152.348C137.705 150.996 135.533 148.808 134.885 149.448C135.285 149.68 138.085 151.772 137.481 152.224C137.321 152.468 136.905 152.352 136.201 151.984C136.051 151.89 135.883 151.829 135.707 151.805C135.532 151.782 135.354 151.797 135.185 151.848C134.842 152.035 134.564 152.321 134.385 152.668C133.853 153.468 133.749 153.988 133.297 154.844C133.029 155.344 133.149 155.052 132.897 155.56C132.617 156.128 132.097 156.976 132.097 157.52C132.097 157.848 132.329 157.972 132.565 158.152C132.801 158.332 133.137 158.552 133.365 158.756C133.453 158.84 133.601 159.096 133.537 159.212C133.429 159.412 132.925 159.268 132.737 159.16C132.549 159.052 132.181 158.936 131.937 158.816C131.693 158.696 131.045 158.344 130.421 158Z" fill="#455A64"/>
<path d="M143.76 167.576C144.268 167.888 147.476 169.732 148.608 168.892C149.832 167.984 147.288 166.14 147.288 166.14C147.288 166.14 147.1 163.584 150.468 160.14C150.96 160.592 153.16 160.764 153.244 159.468C153.328 158.172 149.78 156.268 149.728 156.236C153.408 157.572 155.816 158.656 157.5 161.804C159.628 165.78 155.744 169.564 152.816 170.112C149.888 170.66 148.5 170.428 144.972 168.296C144.62 168.08 144.068 167.792 143.76 167.576Z" fill="#37474F"/>
<path d="M147.672 165.92C149.024 166.508 147.956 167.692 145.952 167.12C142.944 166.236 140.552 164.276 137.24 162.904C133.708 160.824 130.1 158.864 130.42 157.952C131.06 158.256 132.42 158.968 132.42 158.968C132.688 159.108 133.376 159.436 133.376 159.436C136.064 160.884 138.976 163.092 141.932 164.176C144.524 165.112 146.316 165.332 147.672 165.92Z" fill="#37474F"/>
<path d="M150.225 160.6C149.025 159.748 148.845 159.1 146.441 157.732C144.037 156.364 140.021 153.536 137.541 151.784C136.615 151.049 135.728 150.265 134.885 149.436C135.361 148.98 136.917 149.572 138.425 150.72C139.933 151.868 140.849 152.588 142.357 153.548C145.269 155.664 148.665 157.216 150.321 158.496C151.977 159.776 151.437 161.448 150.225 160.6Z" fill="#37474F"/>
<path d="M150.439 160.276C150.419 160.316 150.392 160.353 150.359 160.384C150.327 160.408 148.139 162.428 147.431 166.352C147.417 166.442 147.371 166.523 147.301 166.581C147.231 166.639 147.142 166.67 147.051 166.668C147.009 166.662 146.968 166.647 146.931 166.624C146.895 166.601 146.864 166.571 146.84 166.535C146.816 166.499 146.8 166.458 146.793 166.416C146.786 166.373 146.788 166.33 146.799 166.288C147.559 162.092 149.851 159.976 149.979 159.864C150.009 159.833 150.045 159.809 150.084 159.794C150.124 159.778 150.166 159.771 150.209 159.773C150.252 159.776 150.293 159.787 150.331 159.807C150.368 159.827 150.401 159.854 150.427 159.888C150.465 159.945 150.487 160.012 150.489 160.08C150.491 160.149 150.474 160.217 150.439 160.276Z" fill="#F0F0F0"/>
<path d="M148.125 158.252C148.105 158.289 148.079 158.322 148.049 158.352C146.255 160.341 145.013 162.765 144.449 165.384C144.433 165.476 144.383 165.558 144.309 165.615C144.235 165.671 144.142 165.697 144.049 165.688C144.006 165.68 143.965 165.663 143.929 165.637C143.892 165.612 143.862 165.58 143.839 165.542C143.817 165.504 143.802 165.462 143.797 165.418C143.792 165.374 143.796 165.33 143.809 165.288C144.391 162.507 145.712 159.933 147.633 157.84C147.661 157.808 147.696 157.782 147.735 157.764C147.774 157.746 147.816 157.737 147.859 157.737C147.902 157.737 147.944 157.746 147.983 157.764C148.022 157.782 148.057 157.808 148.085 157.84C148.132 157.897 148.161 157.967 148.168 158.04C148.175 158.113 148.16 158.187 148.125 158.252Z" fill="#F0F0F0"/>
<path d="M142.049 164.912C142.019 164.971 141.974 165.02 141.918 165.056C141.863 165.091 141.798 165.11 141.733 165.112C141.69 165.109 141.648 165.097 141.611 165.076C141.573 165.056 141.54 165.028 141.514 164.994C141.488 164.96 141.469 164.921 141.459 164.879C141.449 164.837 141.449 164.794 141.457 164.752C141.993 160.292 145.241 156.352 145.389 156.212C145.418 156.181 145.454 156.157 145.493 156.142C145.533 156.126 145.576 156.119 145.618 156.121C145.661 156.124 145.702 156.135 145.74 156.155C145.778 156.175 145.811 156.202 145.837 156.236C145.883 156.314 145.902 156.406 145.89 156.496C145.877 156.586 145.835 156.669 145.769 156.732C145.733 156.76 142.593 160.616 142.097 164.768C142.089 164.818 142.073 164.867 142.049 164.912Z" fill="#F0F0F0"/>
<path d="M139.889 163.252C139.859 163.309 139.814 163.358 139.759 163.392C139.704 163.426 139.642 163.446 139.577 163.448C139.534 163.446 139.493 163.435 139.455 163.415C139.417 163.396 139.383 163.369 139.356 163.335C139.33 163.302 139.31 163.264 139.299 163.223C139.288 163.181 139.286 163.138 139.293 163.096C139.659 160.012 141.097 157.155 143.357 155.024C143.388 154.995 143.425 154.973 143.466 154.96C143.507 154.947 143.55 154.943 143.592 154.949C143.634 154.954 143.675 154.968 143.711 154.991C143.747 155.014 143.778 155.044 143.801 155.08C143.842 155.16 143.855 155.252 143.838 155.341C143.821 155.429 143.774 155.51 143.705 155.568C141.628 157.577 140.298 160.234 139.933 163.1C139.929 163.153 139.914 163.205 139.889 163.252Z" fill="#F0F0F0"/>
<path d="M137.028 161.74C136.999 161.797 136.956 161.845 136.902 161.88C136.849 161.914 136.787 161.934 136.724 161.936C136.681 161.935 136.639 161.925 136.6 161.906C136.562 161.887 136.528 161.86 136.501 161.827C136.473 161.795 136.453 161.756 136.442 161.715C136.431 161.674 136.429 161.63 136.436 161.588C136.86 156.936 140.436 153.624 140.604 153.492C140.634 153.462 140.671 153.439 140.711 153.424C140.752 153.41 140.795 153.404 140.838 153.409C140.881 153.413 140.922 153.426 140.959 153.448C140.996 153.471 141.027 153.5 141.052 153.536C141.095 153.616 141.11 153.708 141.094 153.798C141.078 153.887 141.032 153.968 140.964 154.028C140.928 154.056 137.472 157.264 137.076 161.584C137.072 161.639 137.055 161.693 137.028 161.74Z" fill="#EBEBEB"/>
<path d="M116.044 75.4842C116.444 64.3402 114.216 61.0602 108.644 59.9482L99.4443 58.1602C96.6443 58.4842 84.2203 62.8882 80.9323 63.7162C78.8123 64.2522 77.5483 68.5442 76.5083 75.3442C75.6643 80.8722 75.7443 85.2722 75.2563 92.9722C74.8563 99.4242 75.3603 109.892 76.5483 119.012C94.1483 125.7 116.12 115.324 118.2 106.884C117.684 104.528 114.32 100.548 114.272 95.9002C115.396 86.2642 115.916 78.9882 116.044 75.4842Z" fill="#263238"/>
<path d="M80.7318 63.448L90.5958 59.5C90.5958 59.5 91.5478 62.536 93.7478 68.364C95.9478 74.192 95.8198 76.736 95.2198 86.52C94.6198 96.304 93.8158 106.8 97.5998 121.056C92.9918 121.68 86.7238 122.752 75.8478 119.856C75.8478 119.856 74.6478 109.972 74.7958 92.004C74.8718 82 75.5998 65.844 80.7318 63.448Z" fill="#EBEBEB"/>
<path d="M103.527 59.8122C107.343 61.6922 109.855 66.3322 110.263 72.4842C110.671 78.6362 110.079 94.1842 110.331 98.8202C110.583 103.456 114.799 112.532 114.799 112.532C116.791 110.858 118.404 108.781 119.531 106.436C117.551 103.328 115.831 99.1042 115.779 95.2562C115.727 91.4082 117.143 79.2562 116.979 74.5602C116.815 69.8642 116.879 63.3602 111.543 60.7522C109.247 59.6202 103.679 58.7522 103.679 58.7522L103.527 59.8122Z" fill="#EBEBEB"/>
<path d="M110.399 76.0241C110.251 71.5081 108.399 63.3001 103.711 61.2521C103.568 60.7864 103.512 60.2981 103.547 59.8121L103.795 57.4961C105.199 58.1308 106.524 58.9268 107.743 59.8681C109.711 61.4001 112.943 66.0241 113.567 69.5801C111.599 67.6201 110.523 70.4401 110.399 76.0241Z" fill="#FAFAFA"/>
<path d="M89.7346 32.5762C89.7346 32.5762 87.6866 32.6562 86.2506 35.1842C85.5306 36.4522 84.9586 38.7842 86.5546 45.6122C87.5786 50.0122 88.9546 51.9442 89.5266 53.1762C89.9247 53.9311 90.5978 54.504 91.4066 54.7762L91.4626 49.5762L91.4026 45.9762C91.4026 45.9762 94.4146 43.4402 94.7586 40.8522C95.2066 37.5202 93.9586 35.5802 93.9586 35.5802L89.7346 32.5762Z" fill="#37474F"/>
<path d="M89.0195 32.7241C89.6355 29.8281 93.4595 26.4841 100.62 26.3681C106.476 26.2721 109.82 28.4081 111.728 31.8881C113.636 35.3681 112.128 39.7361 112.128 39.7361L93.8075 37.8601L89.0195 32.7241Z" fill="#37474F"/>
<path d="M86.6672 50.944C89.3072 52.352 90.6112 50.272 90.6112 50.272V61.928C95.5152 69.024 109.383 66.752 103.927 61.372L104.027 58.092C104.809 58.085 105.589 58.0302 106.363 57.928C107.57 57.7803 108.707 57.2805 109.632 56.4909C110.556 55.7013 111.228 54.6569 111.563 53.488C112.763 49.716 112.923 43.592 111.727 37.052C111.495 35.788 111.007 34.4 109.875 33.788C107.075 32.272 104.355 34.188 100.323 35.616C98.6512 36.196 94.6432 36.332 93.6072 35.796C94.9392 37.396 94.0072 41.32 93.5792 42.564C92.9792 44.356 92.1832 45.212 91.7992 45.276C90.1592 45.56 90.0192 44.152 89.3192 43.36C88.6192 42.568 85.8912 41.792 84.6152 44.26C84.3029 44.8319 84.1082 45.4604 84.0425 46.1086C83.9768 46.7568 84.0414 47.4116 84.2326 48.0345C84.4239 48.6573 84.7378 49.2356 85.1559 49.7353C85.574 50.235 86.0879 50.646 86.6672 50.944Z" fill="#FFBDA7"/>
<path d="M93.9629 54.6401C94.4269 57.2921 97.9269 59.1601 103.963 59.5241L104.007 58.0921C102.528 58.021 101.056 57.8324 99.6069 57.5281C96.7989 56.9561 93.9629 54.6401 93.9629 54.6401Z" fill="#F0997A"/>
<path d="M97.7637 39.924L100.32 38.624C100.486 38.9741 100.51 39.3746 100.389 39.7425C100.268 40.1104 100.009 40.4175 99.6677 40.6C99.499 40.6846 99.3149 40.7343 99.1266 40.746C98.9382 40.7576 98.7494 40.7311 98.5716 40.6679C98.3937 40.6048 98.2305 40.5064 98.0916 40.3785C97.9528 40.2507 97.8412 40.0961 97.7637 39.924Z" fill="#37474F"/>
<path d="M108.12 36.196L110.448 37.9C110.344 38.0573 110.21 38.1919 110.053 38.2954C109.895 38.399 109.719 38.4694 109.533 38.5024C109.348 38.5353 109.158 38.5301 108.975 38.4871C108.791 38.444 108.619 38.3641 108.468 38.252C108.157 38.0195 107.947 37.6764 107.883 37.2936C107.818 36.9109 107.903 36.5179 108.12 36.196Z" fill="#37474F"/>
<path d="M99.0345 42.8322C99.0237 43.0628 99.0815 43.2915 99.2006 43.4893C99.3197 43.6871 99.4948 43.8451 99.7037 43.9435C99.9126 44.0418 100.146 44.0761 100.374 44.0419C100.603 44.0076 100.816 43.9065 100.987 43.7513C101.158 43.596 101.279 43.3936 101.334 43.1695C101.39 42.9455 101.379 42.7099 101.301 42.4926C101.223 42.2752 101.082 42.0859 100.897 41.9484C100.711 41.8109 100.489 41.7315 100.258 41.7202C100.105 41.7126 99.9517 41.7354 99.8071 41.7873C99.6625 41.8391 99.5295 41.919 99.4158 42.0222C99.3021 42.1255 99.2099 42.2502 99.1445 42.3892C99.079 42.5282 99.0417 42.6787 99.0345 42.8322Z" fill="#263238"/>
<path d="M108.135 42.4522C108.123 42.6831 108.18 42.9123 108.299 43.1108C108.418 43.3092 108.593 43.4679 108.802 43.5668C109.011 43.6657 109.244 43.7003 109.473 43.6663C109.702 43.6322 109.915 43.5311 110.086 43.3756C110.257 43.2201 110.379 43.0174 110.434 42.793C110.49 42.5686 110.478 42.3327 110.4 42.1151C110.322 41.8976 110.18 41.7082 109.994 41.5709C109.808 41.4337 109.586 41.3548 109.355 41.3442C109.198 41.3201 109.039 41.3312 108.888 41.3767C108.736 41.4222 108.597 41.5009 108.48 41.6071C108.363 41.7133 108.271 41.8443 108.212 41.9905C108.152 42.1367 108.126 42.2945 108.135 42.4522Z" fill="#263238"/>
<path d="M103.928 40.312L104.032 47.94L108.284 46.996C107.448 43.96 105.436 41.828 103.928 40.312Z" fill="#F0997A"/>
<path d="M102.683 51.0001C102.643 50.9601 102.593 50.9312 102.539 50.9161L102.427 50.8761H102.451C102.41 50.8575 102.367 50.8467 102.323 50.8441C102.308 50.8466 102.294 50.8535 102.283 50.8641C102.277 50.8795 102.277 50.8966 102.283 50.9121C102.281 50.9323 102.284 50.9526 102.292 50.9714C102.299 50.9901 102.311 51.0068 102.327 51.0201C102.375 51.0583 102.429 51.0893 102.487 51.1121L102.623 51.1681C102.647 51.1781 102.674 51.1781 102.699 51.1681C102.707 51.1584 102.714 51.1469 102.717 51.1344C102.721 51.1219 102.721 51.1088 102.719 51.0961C102.717 51.0611 102.704 51.0276 102.683 51.0001ZM103.723 50.6321C103.628 50.5472 103.527 50.4709 103.419 50.4041C103.204 50.2645 102.974 50.1478 102.735 50.0561C102.501 49.9662 102.26 49.898 102.015 49.8521C101.754 49.7817 101.481 49.7694 101.215 49.8161C101.027 49.8641 101.175 50.0881 101.291 50.1201C101.575 50.2001 101.879 50.1961 102.167 50.2761C102.394 50.3377 102.614 50.4193 102.827 50.5201C103.038 50.6204 103.241 50.7367 103.435 50.8681C103.551 50.9401 103.671 51.0041 103.783 51.0761C103.824 51.1113 103.873 51.1348 103.927 51.1441C103.999 51.1441 104.011 51.1041 104.003 51.0401C103.955 50.8779 103.857 50.735 103.723 50.6321Z" fill="#B16668"/>
<path d="M95.5997 77.7401C95.2837 68.8801 91.0877 70.7721 89.9997 73.5761C87.2277 68.5241 87.6477 62.2681 87.8397 60.6401C88.8397 59.2081 88.9997 58.8961 89.4397 58.1921C90.0317 57.2561 90.1157 57.0681 90.6157 56.9121V59.5001C90.6157 59.5001 91.3317 61.2361 93.6717 64.7001C95.3677 67.2201 95.7837 70.3041 95.5997 77.7401Z" fill="#FAFAFA"/>
<path d="M43.3442 51.1321C43.9905 51.081 44.6387 51.2054 45.2202 51.4921C45.9 51.8378 46.5444 52.249 47.1442 52.7201C48.0935 53.4028 49.0628 54.0521 50.0522 54.6681C50.9362 55.2121 51.8682 55.8241 52.9122 55.9881C53.2642 56.0401 54.0082 56.0481 53.6242 55.5201C53.0825 54.8598 52.5981 54.1546 52.1762 53.4121C51.9684 53.0393 51.8405 52.6274 51.8005 52.2025C51.7606 51.7776 51.8095 51.3491 51.9442 50.9441C52.0258 50.6974 52.1971 50.4904 52.4242 50.3641C52.7522 50.2081 52.9242 50.3641 53.1162 50.5961C53.3256 50.8181 53.5501 51.0252 53.7882 51.2161C54.2642 51.6161 54.7362 52.0401 55.2082 52.4601C57.9482 54.9001 61.2722 57.0121 62.4682 60.5641C62.6402 61.0801 62.9842 63.3881 63.0442 67.3041C63.1042 71.2201 64.3722 80.4001 64.3722 80.4001C64.3722 80.4001 66.1322 78.1721 70.3722 72.4601C74.2562 67.2161 75.4762 65.1801 78.8362 64.1041C80.3562 63.6201 82.0362 63.2361 82.5482 63.0961C85.3482 66.4081 83.6282 77.8481 78.3442 83.4601C78.3442 83.4601 70.8802 92.6201 64.8402 97.4321C59.4802 101.696 55.9682 99.1801 55.2402 97.4961C54.0042 94.6961 52.1402 91.8961 53.7002 76.2321C53.8122 75.0321 53.9522 73.8081 54.0762 72.5961C54.2282 70.0641 53.9162 67.5001 52.9322 66.9601C51.1008 65.9988 49.3742 64.85 47.7802 63.5321C46.7389 62.6506 45.8189 61.6351 45.0442 60.5121C44.7242 60.0401 44.1682 59.3561 44.1042 58.7761C44.0402 58.1961 44.2882 57.5761 44.1042 56.9801C43.9802 56.5801 43.7042 56.2641 43.6042 55.8401C43.3962 54.9761 43.4602 53.9881 42.9042 53.2441C42.5962 52.8441 42.1042 52.4681 42.1562 51.9641C42.2094 51.7668 42.3192 51.5893 42.472 51.4536C42.6248 51.3178 42.8139 51.2297 43.0162 51.2001C43.1236 51.169 43.2332 51.1463 43.3442 51.1321Z" fill="#FFBDA7"/>
<path d="M64.3711 80.4001C65.0191 84.5881 64.4031 90.4001 64.4031 90.4001C64.4031 90.4001 66.7591 83.3001 65.8671 78.4441L64.3711 80.4001Z" fill="#F0997A"/>
<path d="M54.4482 57.8281C54.7722 59.9361 56.3042 62.5601 57.3242 63.4281C57.3242 63.4281 55.6242 62.4841 54.9002 61.0281C54.1042 59.4201 54.1882 58.6001 54.4482 57.8281Z" fill="#F0997A"/>
<path d="M82.8277 62.6121C80.0277 63.3121 77.4597 64.0121 76.0277 65.1321C74.5957 66.2521 73.6277 67.5841 71.5237 70.4441C69.4197 73.3041 64.5237 79.6441 64.5237 79.6441L63.7917 75.6441C63.7917 75.6441 63.9077 78.0721 61.4197 80.1921C58.9317 82.3121 54.1677 83.2321 53.0637 81.6881C53.0637 81.6881 52.5557 87.8361 53.0637 91.5681C53.5717 95.3001 55.2317 98.6481 56.3357 99.7881C57.4397 100.928 59.5117 101.036 63.2037 98.9881C66.8957 96.9401 73.0237 90.2841 75.4317 87.4921C77.8397 84.7001 79.7237 83.0001 80.7557 81.2761C81.7877 79.5521 86.9157 68.9201 82.8277 62.6121Z" fill="#E0E0E0"/>
<path opacity="0.1" d="M64.5044 79.6521C65.2364 83.1201 65.1805 87.9641 64.0645 90.7961C66.5765 86.1921 66.0645 80.9001 65.5525 78.2881L64.5044 79.6521Z" fill="black"/>
<path d="M53.4725 156.4H26.4805L29.2805 168.028C29.4925 169.428 30.5245 170.796 32.3805 171.872C36.5805 174.292 43.3845 174.292 47.5805 171.872C49.5805 170.716 50.6165 169.22 50.7125 167.708L53.4725 156.4Z" fill="#37474F"/>
<path d="M50.1805 164.356C50.7452 164.025 51.2805 163.647 51.7805 163.224L53.2965 157.012C52.5091 157.877 51.5881 158.611 50.5685 159.184C44.8725 162.468 35.7685 162.552 29.8605 159.448L30.5485 156.68L30.3365 156.388H26.4805L29.2805 167.988C29.4925 169.388 30.5245 170.756 32.3805 171.832C35.3725 173.556 39.6805 174.048 43.4325 173.312C36.7085 173.816 32.0965 170.876 31.4045 168.164C31.1285 167.084 30.6445 164.688 30.6445 164.688C36.2565 167.564 44.8005 167.452 50.1805 164.356Z" fill="#263238"/>
<path d="M54.8759 152.948C54.721 153.701 54.4134 154.415 53.9719 155.044C53.0914 156.295 51.9331 157.324 50.5879 158.052C44.7279 161.436 35.2279 161.436 29.3879 158.052C28.0423 157.323 26.883 156.294 25.9999 155.044C25.564 154.412 25.2593 153.7 25.1039 152.948C24.5839 150.404 26.0159 147.748 29.3919 145.804C35.2519 142.42 44.7519 142.42 50.6119 145.804C53.9639 147.756 55.3959 150.4 54.8759 152.948Z" fill="#455A64"/>
<path d="M53.9715 155.044C53.091 156.295 51.9327 157.324 50.5875 158.052C44.7275 161.436 35.2275 161.436 29.3875 158.052C28.0419 157.323 26.8826 156.294 25.9995 155.044C25.5636 154.412 25.259 153.7 25.1035 152.948L25.7715 157.524C26.0755 159.364 27.4475 161.156 29.8915 162.568C35.4915 165.788 44.5235 165.788 50.1115 162.568C52.5115 161.172 53.8915 159.404 54.2195 157.588L54.2555 157.352L54.8995 152.952C54.7368 153.706 54.421 154.418 53.9715 155.044Z" fill="#37474F"/>
<path d="M48.819 146.824C43.935 144.004 36.019 144.004 31.139 146.824C28.375 148.424 27.179 150.576 27.539 152.656C27.819 154.256 29.019 155.808 31.139 157.032C36.019 159.852 43.939 159.852 48.819 157.032C50.935 155.808 52.135 154.252 52.419 152.66C52.799 150.576 51.599 148.42 48.819 146.824Z" fill="#263238"/>
<path d="M28.3633 154.588C29.0966 155.598 30.0447 156.433 31.1393 157.032C36.0193 159.852 43.9393 159.852 48.8193 157.032C49.9127 156.433 50.8595 155.598 51.5913 154.588C51.5553 152.9 50.4233 151.22 48.1913 149.932C43.6553 147.308 36.2993 147.308 31.7633 149.932C29.5313 151.22 28.3993 152.9 28.3633 154.588Z" fill="#FAFAFA"/>
<path d="M40.9128 149.34C38.6688 148.732 38.2888 143.872 39.5448 138.744C40.7688 133.752 44.6848 126.268 45.5168 126.432C46.3488 126.596 47.3888 134.732 46.8008 140.104C46.0928 146.612 43.1568 149.948 40.9128 149.34Z" fill="#1C6758"/>
<path opacity="0.3" d="M40.9128 149.34C38.6688 148.732 38.2888 143.872 39.5448 138.744C40.7688 133.752 44.6848 126.268 45.5168 126.432C46.3488 126.596 47.3888 134.732 46.8008 140.104C46.0928 146.612 43.1568 149.948 40.9128 149.34Z" fill="black"/>
<path opacity="0.5" d="M42.0002 133.628C42.4002 134.264 42.6522 135.34 43.6002 135.344C44.3562 135.344 44.7522 134.544 45.4322 134.36C45.7007 134.32 45.9748 134.34 46.2348 134.418C46.4949 134.496 46.7344 134.631 46.9362 134.812C46.9362 134.616 46.9362 134.412 46.9122 134.228C46.5361 133.945 46.0824 133.785 45.6122 133.768C45.2061 133.811 44.8247 133.984 44.5242 134.26C44.1762 134.532 43.7482 134.944 43.2642 134.744C42.7802 134.544 42.5642 133.836 42.2842 133.376C42.137 133.127 41.9328 132.915 41.6882 132.76C41.6242 132.9 41.5642 133.036 41.5042 133.16C41.7103 133.266 41.8822 133.429 42.0002 133.628ZM44.6642 131.628C44.9842 131.476 45.1722 131.156 45.4202 130.916C45.5711 130.772 45.7603 130.674 45.9653 130.634C46.1702 130.595 46.3823 130.615 46.5762 130.692L46.6162 130.712C46.6162 130.54 46.5722 130.368 46.5522 130.204C46.4823 130.179 46.4099 130.161 46.3362 130.152C46.0095 130.095 45.6735 130.168 45.4002 130.356C45.0882 130.576 44.9162 130.96 44.6002 131.156C44.0122 131.504 43.5442 130.868 43.3722 130.388C43.2922 130.172 43.2322 129.948 43.1602 129.732L42.9802 130.076C43.0202 130.228 43.0602 130.384 43.1042 130.532C43.3002 131.152 43.9002 132 44.6682 131.62L44.6642 131.628ZM44.5882 138.12C44.1882 138.368 43.8362 138.788 43.3642 138.92C42.2042 139.248 41.9402 137.464 41.2042 136.92C40.8999 136.704 40.527 136.608 40.1562 136.648C40.1082 136.784 40.0642 136.92 40.0202 137.048C40.2143 137.01 40.414 137.01 40.6082 137.048C40.8324 137.115 41.0393 137.23 41.2141 137.386C41.389 137.541 41.5276 137.733 41.6202 137.948C41.9882 138.612 42.4562 139.548 43.3842 139.376C43.7805 139.254 44.146 139.048 44.4562 138.772C44.6712 138.593 44.9221 138.463 45.192 138.39C45.4619 138.317 45.7443 138.302 46.0202 138.348C46.3474 138.43 46.6496 138.591 46.9002 138.816C46.9002 138.644 46.9002 138.468 46.9282 138.288C46.6207 138.038 46.2521 137.873 45.8602 137.812C45.4159 137.768 44.9695 137.873 44.5922 138.112L44.5882 138.12ZM45.2922 142.044C44.7752 141.929 44.2342 142 43.7642 142.244C43.2282 142.508 42.8402 143.044 42.2802 143.236C41.0562 143.7 40.8682 141.928 39.9722 141.496C39.6852 141.356 39.3666 141.294 39.0482 141.316C39.0482 141.456 39.0082 141.592 38.9922 141.716C39.1106 141.704 39.2298 141.704 39.3482 141.716C39.624 141.758 39.8845 141.87 40.1051 142.04C40.3256 142.211 40.4988 142.436 40.6082 142.692C41.0402 143.492 41.6082 144.152 42.6082 143.668C43.1362 143.412 43.5162 142.928 44.0602 142.696C44.3487 142.55 44.6724 142.489 44.9943 142.518C45.3163 142.548 45.6233 142.668 45.8802 142.864C46.0095 142.991 46.1249 143.132 46.2242 143.284C46.2722 143.112 46.3122 142.928 46.3562 142.752C46.0929 142.402 45.7196 142.15 45.2962 142.036L45.2922 142.044Z" fill="#1C6758"/>
<path opacity="0.1" d="M40.9128 149.34C43.1568 149.948 46.1128 146.608 46.8008 140.104C46.9798 138.25 47.0226 136.385 46.9288 134.524C45.0928 136.028 43.2568 139.1 43.2568 139.1C42.6197 137.426 41.892 135.787 41.0768 134.192C40.4608 135.672 39.9489 137.193 39.5448 138.744C38.2888 143.872 38.6688 148.732 40.9128 149.34Z" fill="black"/>
<path d="M39.0844 152.036C36.1324 153.932 33.3804 147.192 31.9124 142.108C30.4444 137.024 31.4044 123.728 32.8884 123C33.9444 122.484 39.5164 134.4 40.6124 140.2C41.4044 144.4 41.4324 150.532 39.0844 152.036Z" fill="#1C6758"/>
<path opacity="0.1" d="M39.0844 152.036C36.1324 153.932 33.3804 147.192 31.9124 142.108C30.4444 137.024 31.4044 123.728 32.8884 123C33.9444 122.484 39.5164 134.4 40.6124 140.2C41.4044 144.4 41.4324 150.532 39.0844 152.036Z" fill="black"/>
<path d="M32.7113 132.4C33.6393 132.856 34.3753 132.86 35.1113 132.076C35.8473 131.292 36.2793 130.432 37.3273 130.552C37.2273 130.316 37.1233 130.084 37.0233 129.856C36.851 129.846 36.6781 129.863 36.5113 129.908C35.5953 130.152 35.1873 131.108 34.5433 131.708C33.5513 132.636 32.4953 131.416 31.3753 131.484H31.2753C31.2753 131.688 31.2753 131.884 31.2473 132.096C31.7537 132.065 32.2592 132.17 32.7113 132.4ZM40.8273 141.548C40.6687 141.488 40.5055 141.441 40.3393 141.408C40.0981 141.361 39.8496 141.365 39.6099 141.419C39.3702 141.473 39.1445 141.577 38.9473 141.724C38.0553 142.38 38.0113 143.836 36.5473 143.456C35.4473 143.164 34.6273 142.44 33.4713 143.02C33.0766 143.227 32.7185 143.497 32.4113 143.82L32.5793 144.328C32.9707 143.909 33.4662 143.601 34.0153 143.436C35.2593 143.116 36.1993 144.372 37.4353 144.168C38.4433 144 38.5553 142.892 39.2553 142.344C39.7753 141.944 40.3313 142.04 40.8913 142.244C40.8873 142 40.8553 141.764 40.8273 141.536V141.548ZM32.7633 127.56C33.1113 128.036 33.5953 128.56 34.2353 128.232C34.8753 127.904 34.9713 127.032 35.4113 126.508C35.3313 126.352 35.2513 126.196 35.1713 126.048C34.7473 126.62 34.5313 127.864 33.7153 127.82C33.0713 127.784 32.8233 126.836 32.2833 126.56C32.12 126.474 31.9347 126.439 31.7513 126.46L31.6913 126.86H31.8193C32.2673 126.856 32.5273 127.232 32.7633 127.56ZM34.9873 137.652C36.1553 137.904 36.7233 136.516 37.2473 135.748C37.6256 135.137 38.1848 134.659 38.8473 134.38L38.6073 133.752C38.394 133.796 38.1889 133.873 37.9993 133.98C37.4862 134.304 37.0549 134.742 36.7393 135.26C36.3873 135.784 36.0953 136.488 35.5393 136.86C34.9153 137.26 34.1833 136.632 33.5393 136.512C32.9381 136.402 32.3185 136.454 31.7433 136.66C31.5515 136.728 31.3677 136.816 31.1953 136.924C31.1953 137.212 31.2113 137.496 31.2433 137.776C31.7731 137.337 32.4475 137.11 33.1353 137.14C33.8473 137.14 34.3513 137.516 34.9873 137.652Z" fill="#1C6758"/>
<path opacity="0.1" d="M39.0646 134.916C38.088 136.105 37.2804 137.422 36.6646 138.832C36.6646 138.832 33.4646 134.488 31.2086 132.516C31.0846 136.116 31.2646 139.896 31.9046 142.116C33.3726 147.2 36.1246 153.94 39.0766 152.044C41.4246 150.54 41.3966 144.4 40.6046 140.204C40.2249 138.405 39.7101 136.638 39.0646 134.916Z" fill="black"/>
<path d="M38.8797 155.5C33.4837 155.792 28.4397 152.524 25.1677 148.404C21.8957 144.284 19.3397 135.772 20.0797 135.248C20.8197 134.724 29.5277 140.096 32.7997 143.972C37.0877 149.052 38.8797 155.5 38.8797 155.5Z" fill="#1C6758"/>
<path opacity="0.2" d="M38.8797 155.5C33.4837 155.792 28.4397 152.524 25.1677 148.404C21.8957 144.284 19.3397 135.772 20.0797 135.248C20.8197 134.724 29.5277 140.096 32.7997 143.972C37.0877 149.052 38.8797 155.5 38.8797 155.5Z" fill="black"/>
<path d="M27.0999 142C27.4159 141.492 27.2359 140.88 27.1679 140.332C27.1116 139.968 27.1883 139.596 27.3839 139.284L26.7759 138.852C26.534 139.299 26.4562 139.817 26.5559 140.316C26.6439 140.94 26.7959 141.716 25.9599 141.828C25.0519 141.952 23.7959 141.14 23.0679 142.04C22.7159 142.476 22.8519 143.032 22.8399 143.54C22.8262 143.772 22.7591 143.998 22.6439 144.2C22.7399 144.404 22.8399 144.6 22.9439 144.808C23.1601 144.546 23.2986 144.229 23.3439 143.892C23.4239 143.268 23.1759 142.456 24.0239 142.324C24.6079 142.228 25.1759 142.5 25.7519 142.54C26.0046 142.585 26.2649 142.559 26.5032 142.463C26.7415 142.368 26.9482 142.207 27.0999 142ZM24.0879 137.496C24.1529 137.398 24.2341 137.311 24.3279 137.24C24.1639 137.136 23.9999 137.036 23.8399 136.944C23.4399 137.464 23.4399 138.176 23.0399 138.696C22.9207 138.844 22.7585 138.951 22.5758 139.003C22.393 139.054 22.1988 139.048 22.0199 138.984C21.6513 138.871 21.2555 138.885 20.8959 139.024C20.8178 139.06 20.7428 139.103 20.6719 139.152C20.7119 139.28 20.7519 139.412 20.7959 139.552C20.9681 139.454 21.1619 139.401 21.3599 139.396C21.7599 139.396 22.1599 139.596 22.5599 139.568C22.6973 139.558 22.8314 139.52 22.9543 139.458C23.0772 139.395 23.1865 139.309 23.2759 139.204C23.7239 138.692 23.7439 138 24.0879 137.476V137.496ZM30.0879 144.728C30.4917 144.359 30.7712 143.874 30.8879 143.34C30.9589 142.961 31.0056 142.577 31.0279 142.192L30.5159 141.74C30.4079 142.372 30.4679 143.012 30.1399 143.604C29.7639 144.288 29.2039 144.484 28.4599 144.484C27.9199 144.484 27.3959 144.516 27.0159 144.944C26.7001 145.365 26.5125 145.867 26.4759 146.392C26.3679 147.144 26.2519 147.84 25.5519 148.264C25.4335 148.334 25.309 148.393 25.1799 148.44C25.3079 148.6 25.4399 148.752 25.5799 148.908C25.8787 148.777 26.1439 148.58 26.3559 148.332C27.2599 147.264 26.5239 145.132 28.4439 145.132C29.0399 145.116 29.5999 145.112 30.0679 144.708L30.0879 144.728ZM32.9919 145.272C33.0999 145.066 33.2344 144.875 33.3919 144.704C33.2399 144.512 33.0839 144.304 32.9239 144.124C32.4873 144.601 32.1886 145.187 32.0599 145.82C31.8959 146.508 31.8039 147.256 31.3559 147.82C30.9079 148.384 30.1559 148.36 29.5199 148.708C28.9916 149.007 28.5842 149.481 28.3679 150.048C28.2223 150.491 28.1257 150.948 28.0799 151.412C28.2679 151.572 28.4799 151.728 28.6519 151.88C28.6519 151.852 28.6519 151.824 28.6519 151.8C28.7719 151.032 28.8639 150.248 29.4519 149.688C30.0399 149.128 30.7999 149.224 31.4239 148.8C32.5879 147.976 32.3999 146.4 32.9719 145.252L32.9919 145.272ZM35.3279 147.52C35.1723 147.642 35.0265 147.776 34.8919 147.92C33.9719 148.932 34.0919 150.244 33.7479 151.484C33.6871 151.812 33.552 152.121 33.353 152.388C33.154 152.655 32.8963 152.872 32.5999 153.024C32.0839 153.236 31.5039 153.024 31.0559 153.424L31.0119 153.472C31.2799 153.624 31.5479 153.768 31.8119 153.908C31.9606 153.877 32.1119 153.859 32.2639 153.856C32.5552 153.849 32.8416 153.779 33.1039 153.652C33.5592 153.402 33.9192 153.008 34.1279 152.532C34.6879 151.372 34.4399 149.964 35.1359 148.86C35.2971 148.608 35.4953 148.381 35.7239 148.188C35.5999 147.956 35.4479 147.728 35.3079 147.5L35.3279 147.52Z" fill="#1C6758"/>
<path opacity="0.2" d="M26.7285 138.8C27.2325 143.268 29.6205 155.292 38.8805 155.5C38.8805 155.5 37.0885 149.052 32.7965 143.972C31.4125 142.328 29.0485 140.4 26.7285 138.8Z" fill="black"/>
<path d="M38.8801 155.5C34.6361 154.88 30.9921 152.196 29.1201 144.196C27.2481 136.196 26.9641 132.596 28.2481 131.796C29.7321 130.88 35.5241 138.94 37.3881 142.488C42.0721 151.396 38.8801 155.5 38.8801 155.5Z" fill="#1C6758"/>
<path opacity="0.2" d="M31.0041 140.724C32.0601 141.056 33.4401 141.408 34.2321 140.364C34.6321 139.852 34.7281 139.164 34.9961 138.62L34.4281 137.82C33.9601 138.576 33.9721 139.688 33.1561 140.12C32.5401 140.444 31.8121 140.232 31.1881 140.044C30.5674 139.807 29.9031 139.706 29.2401 139.748C28.8808 139.799 28.5354 139.922 28.2241 140.108C28.2681 140.34 28.3201 140.588 28.3721 140.832C28.5087 140.756 28.6503 140.689 28.7961 140.632C29.5203 140.404 30.3014 140.437 31.0041 140.724ZM29.7521 136.584C30.0529 136.747 30.3965 136.812 30.7361 136.772C31.3801 136.64 31.7201 136.016 32.0481 135.512C32.1423 135.368 32.2509 135.234 32.3721 135.112L31.9721 134.632L31.8881 134.712C31.4881 135.2 31.1521 136.192 30.4041 136.204C30.0406 136.14 29.6852 136.037 29.3441 135.896C29.0428 135.831 28.7319 135.825 28.4281 135.876C28.1263 135.925 27.8378 136.036 27.5801 136.2C27.6001 136.384 27.6241 136.576 27.6521 136.772C27.9986 136.556 28.3928 136.428 28.8001 136.4C29.1268 136.394 29.4512 136.456 29.7521 136.584ZM34.4001 145.468C34.8001 144.876 35.0961 144.204 35.6961 143.776C36.3961 143.272 37.1001 143.304 37.8601 143.376C37.7161 143.08 37.5681 142.78 37.4041 142.472C36.915 142.401 36.4165 142.432 35.9401 142.564C35.2905 142.78 34.7288 143.201 34.3401 143.764C33.9721 144.276 33.7241 144.904 33.2521 145.332C32.3881 146.132 31.2201 145.432 30.2561 145.24C29.9771 145.184 29.6924 145.161 29.4081 145.172C29.4841 145.452 29.5601 145.724 29.6401 145.992C30.0185 145.99 30.395 146.047 30.7561 146.16C32.1601 146.612 33.4201 146.876 34.4001 145.468ZM39.2881 147.024C39.2164 147.04 39.1457 147.06 39.0761 147.084C38.5059 147.305 38.0076 147.679 37.6361 148.164C37.2361 148.696 37.0081 149.34 36.6201 149.884C36.4571 150.17 36.1942 150.386 35.882 150.49C35.5697 150.594 35.2301 150.579 34.9281 150.448C34.3397 150.195 33.6837 150.146 33.0641 150.308C32.6126 150.459 32.202 150.713 31.8641 151.048C32.0081 151.264 32.1561 151.448 32.3081 151.66C32.5707 151.42 32.8817 151.238 33.2201 151.128C33.7139 151.004 34.2364 151.069 34.6841 151.312C35.2068 151.571 35.8086 151.621 36.3667 151.451C36.9249 151.282 37.3974 150.906 37.6881 150.4C38.0521 149.868 38.2601 149.24 38.6681 148.736C38.9052 148.448 39.2048 148.219 39.5441 148.064C39.4681 147.724 39.3801 147.38 39.2721 147.024H39.2881Z" fill="white"/>
<path opacity="0.15" d="M37.3877 142.488C37.0517 141.844 36.5877 141.056 36.0397 140.196C34.2037 145.876 33.6117 154.156 38.8797 155.5C38.8797 155.5 42.0717 151.396 37.3877 142.488Z" fill="black"/>
<path d="M41.0762 155.5C46.4722 155.792 51.5162 152.524 54.7882 148.404C58.0602 144.284 60.6162 135.772 59.8762 135.248C59.1362 134.724 50.4282 140.096 47.1602 143.972C42.8682 149.052 41.0762 155.5 41.0762 155.5Z" fill="#1C6758"/>
<path opacity="0.2" d="M41.0762 155.5C46.4722 155.792 51.5162 152.524 54.7882 148.404C58.0602 144.284 60.6162 135.772 59.8762 135.248C59.1362 134.724 50.4282 140.096 47.1602 143.972C42.8682 149.052 41.0762 155.5 41.0762 155.5Z" fill="black"/>
<path d="M54.2041 142.52C54.7801 142.48 55.3481 142.208 55.9321 142.304C56.7801 142.436 56.5321 143.248 56.6121 143.872C56.6574 144.209 56.7959 144.526 57.0121 144.788C57.1161 144.588 57.2161 144.388 57.3121 144.18C57.1969 143.978 57.1298 143.752 57.1161 143.52C57.1161 143.012 57.2401 142.456 56.8881 142.02C56.1601 141.12 54.8881 141.932 53.9961 141.808C53.1601 141.696 53.3121 140.92 53.4001 140.296C53.4998 139.797 53.422 139.279 53.1801 138.832L52.5721 139.264C52.7678 139.576 52.8444 139.948 52.7881 140.312C52.7201 140.86 52.5401 141.472 52.8561 141.98C53.0078 142.187 53.2146 142.348 53.4528 142.443C53.6911 142.538 53.9514 142.565 54.2041 142.52ZM56.6761 139.176C56.7655 139.281 56.8748 139.367 56.9977 139.43C57.1206 139.492 57.2547 139.53 57.3921 139.54C57.7921 139.568 58.1921 139.356 58.5921 139.368C58.7901 139.373 58.9839 139.426 59.1561 139.524C59.2001 139.392 59.2401 139.26 59.2801 139.124C59.2092 139.075 59.1342 139.032 59.0561 138.996C58.6965 138.857 58.3007 138.843 57.9321 138.956C57.7532 139.02 57.559 139.026 57.3763 138.975C57.1935 138.923 57.0313 138.816 56.9121 138.668C56.5121 138.148 56.5121 137.436 56.1121 136.916C55.9521 137.008 55.7881 137.108 55.6241 137.212C55.718 137.283 55.7991 137.37 55.8641 137.468C56.2121 138 56.2321 138.692 56.6761 139.176ZM51.5201 145.116C53.4401 145.116 52.7201 147.244 53.6081 148.316C53.8201 148.564 54.0854 148.761 54.3841 148.892C54.5161 148.736 54.6481 148.584 54.7841 148.424C54.655 148.377 54.5305 148.318 54.4121 148.248C53.7121 147.824 53.6121 147.128 53.4881 146.376C53.4515 145.851 53.2639 145.349 52.9481 144.928C52.5681 144.5 52.0441 144.468 51.5041 144.468C50.7601 144.468 50.2001 144.272 49.8241 143.588C49.4961 142.996 49.5561 142.356 49.4481 141.724L48.9361 142.176C48.9584 142.561 49.0051 142.945 49.0761 143.324C49.1928 143.858 49.4724 144.343 49.8761 144.712C50.3761 145.112 50.9161 145.116 51.5201 145.116ZM48.5321 148.796C49.1401 149.224 49.9241 149.144 50.4961 149.68C51.0681 150.216 51.1841 151.024 51.2961 151.792C51.2961 151.816 51.2961 151.844 51.2961 151.872C51.4881 151.72 51.6961 151.564 51.8681 151.404C51.8223 150.94 51.7257 150.483 51.5801 150.04C51.3638 149.473 50.9564 148.999 50.4281 148.7C49.8081 148.352 49.0601 148.416 48.5921 147.812C48.1241 147.208 48.0521 146.488 47.8881 145.812C47.761 145.178 47.4621 144.592 47.0241 144.116C46.8641 144.308 46.7081 144.516 46.5561 144.696C46.7137 144.867 46.8481 145.058 46.9561 145.264C47.5721 146.4 47.3681 147.976 48.5321 148.8V148.796ZM44.2441 148.184C44.4727 148.377 44.671 148.604 44.8321 148.856C45.5281 149.96 45.2801 151.368 45.8401 152.528C46.0489 153.004 46.4088 153.398 46.8641 153.648C47.1264 153.775 47.4128 153.845 47.7041 153.852C47.8561 153.855 48.0074 153.873 48.1561 153.904C48.4281 153.764 48.6961 153.62 48.9561 153.468L48.9121 153.42C48.4641 153.02 47.8841 153.22 47.3681 153.02C47.0717 152.868 46.8141 152.651 46.615 152.384C46.416 152.117 46.2809 151.807 46.2201 151.48C45.8841 150.24 45.9961 148.928 45.0761 147.916C44.9415 147.771 44.7957 147.638 44.6401 147.516C44.5081 147.728 44.3761 147.956 44.2441 148.184Z" fill="#1C6758"/>
<path opacity="0.2" d="M53.2322 138.8C52.7242 143.268 50.3362 155.292 41.0762 155.5C41.0762 155.5 42.8682 149.052 47.1602 143.972C48.5442 142.328 50.9082 140.4 53.2322 138.8Z" fill="black"/>
<path d="M41.0756 155.5C45.3196 154.88 48.9636 152.196 50.8356 144.196C52.7076 136.196 52.9916 132.596 51.7076 131.796C50.2236 130.88 44.4316 138.94 42.5676 142.488C37.8836 151.396 41.0756 155.5 41.0756 155.5Z" fill="#1C6758"/>
<path opacity="0.2" d="M51.1604 140.616C51.3065 140.672 51.4482 140.739 51.5844 140.816C51.6364 140.572 51.6884 140.324 51.7324 140.092C51.421 139.906 51.0756 139.783 50.7164 139.732C50.0534 139.69 49.389 139.791 48.7684 140.028C48.1444 140.216 47.4164 140.428 46.8004 140.104C46.0004 139.672 46.0004 138.56 45.5284 137.804L44.9604 138.604C45.2284 139.144 45.3364 139.836 45.7244 140.348C46.5244 141.392 47.8964 141.04 48.9524 140.708C49.6551 140.421 50.4362 140.388 51.1604 140.616ZM51.1604 136.404C51.5629 136.426 51.954 136.546 52.3004 136.752C52.3284 136.556 52.3524 136.352 52.3724 136.18C52.1146 136.016 51.8261 135.905 51.5244 135.856C51.2205 135.805 50.9097 135.811 50.6084 135.876C50.2673 136.017 49.9119 136.12 49.5484 136.184C48.8004 136.184 48.4644 135.18 48.0644 134.692L47.9804 134.612L47.5804 135.092C47.7016 135.214 47.8101 135.348 47.9044 135.492C48.2324 135.996 48.5724 136.62 49.2164 136.752C49.5559 136.792 49.8996 136.727 50.2004 136.564C50.5052 136.442 50.8324 136.386 51.1604 136.4V136.404ZM49.2364 146.16C49.5975 146.047 49.9739 145.99 50.3524 145.992C50.4324 145.724 50.5084 145.452 50.5844 145.172C50.3 145.161 50.0154 145.184 49.7364 145.24C48.7724 145.432 47.6044 146.12 46.7404 145.332C46.2684 144.904 46.0204 144.276 45.6524 143.764C45.2637 143.201 44.702 142.78 44.0524 142.564C43.576 142.432 43.0775 142.401 42.5884 142.472C42.4244 142.78 42.2764 143.08 42.1324 143.376C42.8924 143.288 43.5964 143.256 44.2964 143.776C44.8964 144.204 45.1884 144.876 45.5924 145.468C46.5364 146.876 47.7964 146.612 49.2364 146.16ZM40.4004 148.06C40.7397 148.215 41.0393 148.444 41.2764 148.732C41.6764 149.236 41.8924 149.864 42.2564 150.396C42.5464 150.902 43.0186 151.279 43.5768 151.449C44.1351 151.62 44.7372 151.571 45.2604 151.312C45.7081 151.069 46.2306 151.004 46.7244 151.128C47.0628 151.238 47.3737 151.42 47.6364 151.66C47.7884 151.464 47.9364 151.26 48.0804 151.048C47.7424 150.713 47.3319 150.459 46.8804 150.308C46.2608 150.146 45.6048 150.195 45.0164 150.448C44.7144 150.579 44.3747 150.594 44.0625 150.49C43.7503 150.386 43.4874 150.17 43.3244 149.884C42.9244 149.34 42.7204 148.684 42.3084 148.164C41.9369 147.678 41.4386 147.305 40.8684 147.084C40.7988 147.06 40.7281 147.04 40.6564 147.024C40.5764 147.38 40.4884 147.724 40.4004 148.06Z" fill="white"/>
<path opacity="0.15" d="M42.5676 142.488C42.9036 141.844 43.3676 141.056 43.9156 140.196C45.7516 145.876 46.3436 154.156 41.0756 155.5C41.0756 155.5 37.8836 151.396 42.5676 142.488Z" fill="black"/>
<path d="M39.9761 156.4C43.5761 156.4 44.7481 151.528 44.3761 147.6C44.0041 143.672 41.5401 136.216 39.9761 136.216C38.4121 136.216 35.9241 143.68 35.5761 147.6C35.2281 151.52 36.4001 156.4 39.9761 156.4Z" fill="#1C6758"/>
<path opacity="0.3" d="M39.9761 156.4C43.5761 156.4 44.7481 151.528 44.3761 147.6C44.0041 143.672 41.5401 136.216 39.9761 136.216C38.4121 136.216 35.9241 143.68 35.5761 147.6C35.2281 151.52 36.4001 156.4 39.9761 156.4Z" fill="white"/>
<path opacity="0.2" d="M39.9553 141.304C40.5273 141.192 40.8913 140.724 41.2913 140.348C41.6003 140.06 41.9821 139.863 42.3953 139.776C42.3033 139.544 42.2113 139.316 42.1193 139.1C41.5407 139.267 41.0182 139.588 40.6073 140.028C40.4036 140.27 40.1479 140.463 39.8593 140.592C39.4233 140.74 39.1593 140.508 38.8753 140.224C38.5616 139.878 38.1524 139.633 37.6993 139.52H37.6633C37.5873 139.704 37.5153 139.892 37.4393 140.084C37.9237 140.176 38.3632 140.429 38.6873 140.8C38.8347 140.989 39.03 141.136 39.2529 141.224C39.4758 141.313 39.7183 141.341 39.9553 141.304ZM37.2833 145.6C38.4833 146.536 39.4633 145.2 40.2273 144.42C40.8633 143.764 41.5353 143.62 42.2633 144.236C42.6562 144.643 43.118 144.978 43.6273 145.224C43.7569 145.271 43.8909 145.304 44.0273 145.324C43.9833 145.104 43.9353 144.876 43.8833 144.648C43.3233 144.508 42.9153 144.08 42.4273 143.68C41.3633 142.804 40.4033 143.172 39.5593 144.14C39.0713 144.7 38.2833 145.66 37.4833 145.06C37.0113 144.708 36.7873 144.108 36.2833 143.764H36.2633C36.2127 143.961 36.1647 144.157 36.1193 144.352C36.6033 144.656 36.8393 145.256 37.2833 145.6ZM38.6233 149.892C39.2993 150.788 40.1433 151.012 41.0593 150.24C41.5033 149.868 41.7993 149.336 42.2873 149.004C42.9673 148.544 43.7473 148.784 44.4513 149.06C44.4513 148.844 44.4513 148.632 44.4513 148.424C44.1331 148.284 43.8004 148.18 43.4593 148.112C43.1942 148.058 42.9209 148.058 42.6557 148.112C42.3905 148.165 42.1388 148.272 41.9153 148.424C41.4113 148.784 41.1153 149.348 40.6113 149.724C40.3433 149.928 39.9233 150.184 39.5753 150.056C39.2273 149.928 38.9233 149.392 38.6233 149.092C38.2448 148.703 37.7657 148.426 37.2393 148.292C36.6666 148.146 36.0607 148.205 35.5273 148.46C35.5273 148.663 35.5273 148.867 35.5273 149.072C36.0588 148.831 36.6573 148.781 37.2215 148.93C37.7856 149.08 38.2808 149.42 38.6233 149.892ZM42.0193 153.544C41.4556 153.996 40.739 154.212 40.0193 154.148C39.6372 154.127 39.2753 153.969 38.9993 153.704C38.8033 153.5 38.6593 153.252 38.4553 153.048C38.0825 152.688 37.602 152.461 37.0873 152.4C36.7114 152.351 36.3295 152.384 35.9673 152.496C36.0273 152.716 36.0953 152.928 36.1713 153.14C36.465 153.026 36.7828 152.989 37.0948 153.032C37.4069 153.075 37.703 153.196 37.9553 153.384C38.3873 153.704 38.5913 154.228 39.0473 154.524C39.4673 154.779 39.9525 154.905 40.4433 154.888C40.9605 154.887 41.4697 154.761 41.9273 154.52C42.4433 154.248 42.8073 153.784 43.3073 153.496C43.4346 153.421 43.5685 153.358 43.7073 153.308C43.8118 153.047 43.9012 152.78 43.9753 152.508C43.8053 152.526 43.6377 152.562 43.4753 152.616C42.9395 152.838 42.4466 153.152 42.0193 153.544Z" fill="white"/>
<path d="M134.978 22.5319L136.65 20.6799C136.683 20.6484 136.718 20.6191 136.754 20.5919L140.282 18.0999C140.457 17.9824 140.669 17.9311 140.878 17.9553C141.088 17.9795 141.282 18.0776 141.426 18.2319L159.198 38.0319L163.642 42.9879C163.777 43.1249 163.853 43.3095 163.853 43.5019C163.853 43.6943 163.777 43.8789 163.642 44.0159C163.642 44.0159 162.234 45.6159 161.966 45.8679L161.934 45.9039L158.734 48.7599C158.582 48.8958 158.382 48.9659 158.178 48.9546C157.974 48.9434 157.783 48.8518 157.646 48.6999L134.986 23.4599C134.864 23.3369 134.794 23.1709 134.793 22.9975C134.791 22.8241 134.858 22.657 134.978 22.5319Z" fill="#263238"/>
<path d="M134.978 22.5318L136.65 20.6798C136.683 20.6484 136.718 20.619 136.754 20.5918L140.282 18.0998C140.389 18.0286 140.511 17.9813 140.638 17.9613C140.765 17.9413 140.895 17.949 141.018 17.9838L135.174 23.6918L134.966 23.4598C134.847 23.3342 134.781 23.1668 134.783 22.9934C134.786 22.82 134.856 22.6543 134.978 22.5318Z" fill="#455A64"/>
<path d="M135.082 22.444L138.61 19.952C138.785 19.8344 138.996 19.7832 139.206 19.8074C139.416 19.8316 139.61 19.9296 139.754 20.084L157.53 39.8839L161.974 44.8399C162.043 44.9113 162.097 44.996 162.133 45.089C162.169 45.1819 162.185 45.281 162.181 45.3805C162.178 45.48 162.154 45.5776 162.111 45.6676C162.069 45.7576 162.008 45.838 161.934 45.9039L158.734 48.76C158.581 48.8959 158.381 48.9659 158.177 48.9547C157.973 48.9434 157.782 48.8518 157.646 48.6999L134.986 23.46C134.918 23.3905 134.866 23.3071 134.833 23.2155C134.801 23.124 134.789 23.0264 134.798 22.9297C134.807 22.8329 134.837 22.7394 134.886 22.6555C134.935 22.5716 135.002 22.4994 135.082 22.444Z" fill="#37474F"/>
<path d="M164.578 25.3638L155.306 33.6918L151.806 33.4998L147.478 37.3878L149.134 39.2358L144.798 43.1398L139.826 47.5998C139.689 47.7361 139.503 47.8126 139.31 47.8126C139.117 47.8126 138.931 47.7361 138.794 47.5998C138.794 47.5998 137.194 46.1958 136.946 45.9318C136.933 45.9208 136.921 45.9088 136.91 45.8958L134.05 42.6958C133.914 42.5422 133.845 42.3412 133.857 42.1366C133.869 41.932 133.961 41.7405 134.114 41.6038C137.986 38.1318 155.482 22.4038 159.354 18.9438C159.477 18.8217 159.644 18.7532 159.818 18.7532C159.992 18.7532 160.158 18.8217 160.282 18.9438L162.134 20.6118C162.165 20.6446 162.195 20.6794 162.222 20.7158L164.71 24.2438C164.822 24.4167 164.87 24.6231 164.846 24.8276C164.822 25.0321 164.727 25.2217 164.578 25.3638Z" fill="#263238"/>
<path d="M160.281 18.9158L162.133 20.5878C162.164 20.6196 162.193 20.6545 162.217 20.6918L164.709 24.2198C164.782 24.3261 164.831 24.4472 164.851 24.5744C164.872 24.7016 164.864 24.8319 164.829 24.9558L159.121 19.1118L159.353 18.9038C159.479 18.7842 159.646 18.7185 159.82 18.7208C159.993 18.723 160.159 18.793 160.281 18.9158Z" fill="#455A64"/>
<path d="M160.37 19.0198L162.858 22.5478C162.976 22.7227 163.028 22.9338 163.004 23.1434C162.981 23.353 162.884 23.5474 162.73 23.6918L142.93 41.4678L137.974 45.9118C137.903 45.9817 137.818 46.0364 137.725 46.0724C137.632 46.1084 137.533 46.125 137.433 46.1213C137.334 46.1175 137.236 46.0935 137.146 46.0506C137.056 46.0077 136.976 45.9469 136.91 45.8718L134.05 42.6518C133.915 42.4985 133.847 42.2983 133.859 42.0947C133.871 41.8911 133.962 41.7004 134.114 41.5638L159.354 18.9038C159.425 18.8369 159.509 18.7862 159.602 18.7553C159.694 18.7245 159.792 18.7142 159.889 18.7253C159.986 18.7363 160.079 18.7684 160.162 18.8193C160.245 18.8702 160.316 18.9386 160.37 19.0198Z" fill="#37474F"/>
<path d="M67.8164 23.412L66.0004 21.692C65.9679 21.6609 65.9316 21.634 65.8924 21.612L62.1884 19.388C62.0057 19.2841 61.7921 19.2484 61.5855 19.2873C61.379 19.3261 61.1929 19.4369 61.0604 19.6L46.6044 38.336L40.8004 33.9C40.6361 33.7736 40.4293 33.716 40.2234 33.7391C40.0174 33.7622 39.8285 33.8644 39.6964 34.024L35.8364 38.484C35.7124 38.6317 35.6513 38.8221 35.6663 39.0143C35.6812 39.2066 35.771 39.3853 35.9164 39.512C35.9164 39.512 37.4364 40.988 37.7204 41.236L37.7604 41.264L47.8844 49C48.0472 49.1227 48.2518 49.1763 48.4539 49.1494C48.656 49.1225 48.8394 49.0171 48.9644 48.856L67.8964 24.34C68.0075 24.2057 68.0614 24.0332 68.0464 23.8596C68.0314 23.686 67.9488 23.5252 67.8164 23.412Z" fill="#263238"/>
<path d="M67.8173 23.412L66.0013 21.692C65.9688 21.6609 65.9325 21.634 65.8933 21.612L62.1893 19.388C62.0772 19.3244 61.9527 19.2858 61.8243 19.2748C61.6959 19.2637 61.5666 19.2805 61.4453 19.324L67.6973 24.584L67.8853 24.34C67.9978 24.2072 68.0538 24.0356 68.041 23.8621C68.0283 23.6885 67.948 23.5269 67.8173 23.412Z" fill="#455A64"/>
<path d="M67.7085 23.336L64.0005 21.112C63.818 21.0074 63.6042 20.9712 63.3975 21.0101C63.1907 21.0489 63.0046 21.1603 62.8725 21.324L48.4005 40.056L42.5925 35.624C42.4283 35.4977 42.2214 35.44 42.0155 35.4632C41.8096 35.4863 41.6207 35.5884 41.4885 35.748L37.6405 40.208C37.5765 40.2842 37.5287 40.3725 37.5 40.4677C37.4712 40.563 37.4622 40.663 37.4734 40.7619C37.4847 40.8607 37.5159 40.9562 37.5653 41.0425C37.6146 41.1289 37.6811 41.2042 37.7605 41.264L47.8845 49C48.0474 49.1227 48.252 49.1764 48.4541 49.1495C48.6562 49.1225 48.8395 49.0171 48.9645 48.856L67.8965 24.34C67.9581 24.2647 68.0025 24.1769 68.0266 24.0826C68.0506 23.9883 68.0538 23.89 68.0359 23.7943C68.018 23.6987 67.9794 23.6082 67.9229 23.529C67.8663 23.4498 67.7932 23.384 67.7085 23.336Z" fill="#37474F"/>
<path d="M46.6049 38.3361L48.4049 40.0601L42.5969 35.6241C42.4301 35.4977 42.2205 35.4417 42.0129 35.4681L40.2129 33.7441C40.4178 33.7198 40.6242 33.7757 40.7889 33.9001L46.6049 38.3361Z" fill="#455A64"/>
<path d="M158.336 66.984C160.796 65.588 164.184 65.784 167.936 67.96C175.464 72.308 181.564 82.876 181.564 91.56C181.564 95.904 180.04 98.956 177.564 100.38L172.904 103.056C170.44 104.476 167.036 104.256 163.276 102.1C155.748 97.756 149.648 87.184 149.648 78.5C149.648 74.168 151.164 71.12 153.62 69.7C154.656 69.092 157.292 67.576 158.336 66.984Z" fill="#1C6758"/>
<path opacity="0.15" d="M181.057 87.052C181.38 88.536 181.547 90.0494 181.557 91.568C181.557 95.912 180.033 98.964 177.557 100.388L172.897 103.064C170.433 104.484 167.029 104.264 163.269 102.108C161.962 101.342 160.738 100.443 159.617 99.424L181.057 87.052Z" fill="black"/>
<path d="M153.641 91.9239C151.181 87.6559 149.641 82.8439 149.641 78.4999C149.641 69.8079 155.741 66.2839 163.269 70.6319C170.797 74.9799 176.901 85.5479 176.901 94.2319C176.901 102.916 170.801 106.456 163.285 102.108C161.31 100.937 159.518 99.4825 157.965 97.7919L152.401 98.7999C152.24 98.8294 152.074 98.8152 151.92 98.7588C151.766 98.7025 151.631 98.606 151.527 98.4794C151.423 98.3529 151.355 98.2008 151.33 98.0391C151.305 97.8774 151.324 97.7119 151.385 97.5599L153.641 91.9239Z" fill="#1C6758"/>
<path opacity="0.35" d="M153.641 91.9239C151.181 87.6559 149.641 82.8439 149.641 78.4999C149.641 69.8079 155.741 66.2839 163.269 70.6319C170.797 74.9799 176.901 85.5479 176.901 94.2319C176.901 102.916 170.801 106.456 163.285 102.108C161.31 100.937 159.518 99.4825 157.965 97.7919L152.401 98.7999C152.24 98.8294 152.074 98.8152 151.92 98.7588C151.766 98.7025 151.631 98.606 151.527 98.4794C151.423 98.3529 151.355 98.2008 151.33 98.0391C151.305 97.8774 151.324 97.7119 151.385 97.5599L153.641 91.9239Z" fill="white"/>
<path d="M161.042 91.1319C160.914 91.0561 160.811 90.9449 160.746 90.8119C160.688 90.7114 160.64 90.6056 160.602 90.4959L158.142 83.4319V89.0119C158.147 89.0593 158.142 89.1072 158.127 89.1526C158.113 89.198 158.089 89.24 158.058 89.2759C158.029 89.3004 157.993 89.3139 157.956 89.3139C157.918 89.3139 157.882 89.3004 157.854 89.2759L156.45 88.4759C156.357 88.4168 156.286 88.33 156.246 88.2279C156.189 88.1149 156.159 87.9904 156.158 87.8639V77.1999C156.153 77.1522 156.159 77.1041 156.174 77.0586C156.189 77.0132 156.214 76.9714 156.246 76.9359C156.274 76.9114 156.31 76.8979 156.348 76.8979C156.385 76.8979 156.421 76.9114 156.45 76.9359L157.566 77.5799C157.693 77.6549 157.795 77.7664 157.858 77.8999C157.915 78.0002 157.964 78.1045 158.006 78.2119L160.462 85.2799V79.6799C160.458 79.6325 160.463 79.5848 160.477 79.5395C160.492 79.4942 160.515 79.4522 160.546 79.4159C160.574 79.3906 160.61 79.3766 160.648 79.3766C160.685 79.3766 160.722 79.3906 160.75 79.4159L162.158 80.2159C162.247 80.2792 162.316 80.3666 162.358 80.4679C162.416 80.5806 162.446 80.7053 162.446 80.8319V91.4999C162.451 91.5477 162.446 91.596 162.431 91.6416C162.416 91.6872 162.391 91.7289 162.358 91.7639C162.33 91.7881 162.295 91.8014 162.258 91.8014C162.221 91.8014 162.185 91.7881 162.158 91.7639L161.042 91.1319Z" fill="#FAFAFA"/>
<path d="M163.7 85.416C163.709 84.8729 163.796 84.3339 163.96 83.816C164.08 83.4148 164.307 83.0538 164.616 82.772C164.905 82.53 165.271 82.4007 165.648 82.408C166.145 82.434 166.626 82.5898 167.044 82.86C167.571 83.1658 168.043 83.5579 168.44 84.02C168.848 84.4941 169.196 85.0167 169.476 85.576C169.762 86.1495 169.982 86.7533 170.132 87.376C170.283 87.9962 170.37 88.6301 170.392 89.268C170.397 89.756 170.4 90.2667 170.4 90.8C170.4 91.3333 170.392 91.8133 170.376 92.24C170.368 92.7831 170.28 93.3221 170.116 93.84C169.996 94.243 169.769 94.6063 169.46 94.892C169.172 95.1378 168.802 95.2663 168.424 95.252C167.927 95.2206 167.447 95.0622 167.028 94.792C166.501 94.4898 166.029 94.1003 165.632 93.64C165.223 93.1679 164.876 92.645 164.6 92.084C164.315 91.5088 164.095 90.9038 163.944 90.28C163.793 89.6585 163.706 89.0232 163.684 88.384C163.668 87.9253 163.66 87.4373 163.66 86.92C163.66 86.4027 163.673 85.9013 163.7 85.416ZM168.4 90.992C168.4 90.8 168.408 90.584 168.424 90.344C168.424 90.108 168.424 89.86 168.424 89.608C168.424 89.356 168.424 89.108 168.424 88.868C168.424 88.628 168.424 88.408 168.4 88.22C168.388 87.9412 168.35 87.6641 168.288 87.392C168.229 87.1343 168.144 86.8836 168.032 86.644C167.927 86.4128 167.793 86.1963 167.632 86C167.469 85.8052 167.273 85.6412 167.052 85.516C166.88 85.4034 166.681 85.3398 166.476 85.332C166.327 85.3339 166.184 85.3925 166.076 85.496C165.955 85.6248 165.867 85.7814 165.82 85.952C165.754 86.1771 165.716 86.4096 165.708 86.644C165.708 86.824 165.684 87.044 165.68 87.264C165.676 87.484 165.68 87.744 165.68 87.996C165.68 88.248 165.68 88.5 165.68 88.744C165.68 88.988 165.68 89.212 165.708 89.42C165.729 89.9717 165.854 90.5145 166.076 91.02C166.279 91.4895 166.627 91.8819 167.068 92.14C167.512 92.396 167.844 92.404 168.056 92.164C168.297 91.8218 168.418 91.4099 168.4 90.992Z" fill="#FAFAFA"/>
<path d="M37.2476 71.3839C34.7836 69.9879 31.3956 70.1839 27.6476 72.3599C20.1196 76.7079 14.0156 87.2759 14.0156 95.9599C14.0156 100.304 15.5396 103.356 18.0156 104.78L22.6716 107.456C25.1396 108.876 28.5396 108.656 32.2996 106.5C39.8276 102.156 45.9316 91.5839 45.9316 82.8999C45.9316 78.5679 44.4116 75.5199 41.9596 74.0999C40.9236 73.4919 38.2916 71.9759 37.2476 71.3839Z" fill="#1C6758"/>
<path opacity="0.15" d="M14.5234 91.4519C14.2008 92.9359 14.0333 94.4493 14.0234 95.9679C14.0234 100.312 15.5474 103.364 18.0234 104.788L22.6794 107.464C25.1474 108.884 28.5474 108.664 32.3074 106.508C33.6165 105.742 34.8418 104.841 35.9634 103.82L14.5234 91.4519Z" fill="black"/>
<path d="M45.929 82.8998C45.929 86.6559 44.829 90.4678 43.221 93.8718C43.093 94.1478 42.957 94.4198 42.821 94.6718C40.9658 98.4379 38.3589 101.784 35.161 104.504C28.001 110.82 18.557 109.528 18.665 98.6358C18.689 94.2638 20.129 89.8678 22.205 86.0238C22.349 85.7558 22.501 85.4878 22.649 85.2238C23.8637 83.1129 25.3129 81.1457 26.969 79.3598V79.3399C33.693 71.5999 45.765 69.6718 45.929 82.8998Z" fill="#1C6758"/>
<path d="M40 75.6L48.28 70.92C48.3962 70.8539 48.53 70.8255 48.663 70.8389C48.796 70.8523 48.9215 70.9067 49.0221 70.9946C49.1228 71.0826 49.1936 71.1996 49.2248 71.3296C49.2559 71.4595 49.2459 71.596 49.196 71.72L44.528 83.6L40 75.6Z" fill="#1C6758"/>
<path opacity="0.35" d="M48.261 70.9039L42.261 74.2799C38.125 71.6719 31.385 74.2439 26.969 79.3279V79.3479C25.315 81.1302 23.8672 83.0933 22.653 85.1999C22.505 85.4599 22.353 85.7279 22.209 85.9999C20.133 89.8439 18.693 94.2399 18.669 98.6119C18.557 109.528 28.001 110.82 35.161 104.504C38.3478 101.793 40.9475 98.4591 42.801 94.7079C42.937 94.4399 43.073 94.1679 43.201 93.9079C44.801 90.5039 45.901 86.7079 45.909 82.9359C45.8996 82.1327 45.8382 81.3311 45.725 80.5359L49.157 71.7359C49.2132 71.6127 49.2293 71.475 49.2028 71.3422C49.1763 71.2095 49.1086 71.0884 49.0094 70.9963C48.9102 70.9042 48.7845 70.8457 48.6501 70.8291C48.5158 70.8125 48.3796 70.8387 48.261 70.9039Z" fill="white"/>
<path d="M26.299 100.368C26.2979 100.494 26.2692 100.618 26.215 100.732C26.172 100.832 26.1013 100.918 26.011 100.98L24.603 101.78C24.5746 101.804 24.5384 101.818 24.501 101.818C24.4635 101.818 24.4273 101.804 24.399 101.78C24.3676 101.744 24.344 101.702 24.3296 101.656C24.3151 101.611 24.3102 101.563 24.315 101.516V97.9998L21.835 92.3997C21.8076 92.3395 21.794 92.2739 21.795 92.2078C21.7945 92.1052 21.8177 92.0038 21.863 91.9117C21.8993 91.8297 21.9574 91.7592 22.031 91.7078L23.499 90.8597C23.643 90.7757 23.747 90.7717 23.823 90.8597C23.8765 90.9081 23.92 90.9665 23.951 91.0318L25.303 94.3157L26.663 89.4677C26.6977 89.3568 26.7405 89.2485 26.791 89.1438C26.8605 88.9961 26.9736 88.8733 27.115 88.7917L28.583 87.9437C28.6066 87.9242 28.6363 87.9136 28.667 87.9136C28.6976 87.9136 28.7273 87.9242 28.751 87.9437C28.8014 88.0039 28.8258 88.0816 28.819 88.1597C28.8169 88.2412 28.8034 88.322 28.779 88.3997L26.299 96.8477V100.368Z" fill="#FAFAFA"/>
<path d="M35.1195 93.0799C35.1472 93.0557 35.1828 93.0424 35.2195 93.0424C35.2563 93.0424 35.2919 93.0557 35.3195 93.0799C35.3524 93.1149 35.3773 93.1567 35.3925 93.2023C35.4077 93.2478 35.4129 93.2962 35.4075 93.3439V95.0919C35.4074 95.2185 35.3773 95.3433 35.3195 95.4559C35.2782 95.5572 35.2088 95.6446 35.1195 95.7079L30.0315 98.6439C30.0032 98.6684 29.967 98.6819 29.9295 98.6819C29.8921 98.6819 29.8559 98.6684 29.8275 98.6439C29.7968 98.6076 29.7736 98.5656 29.7591 98.5203C29.7447 98.475 29.7394 98.4273 29.7435 98.3799V87.7079C29.7446 87.5832 29.7733 87.4602 29.8275 87.3479C29.8704 87.2463 29.9411 87.159 30.0315 87.0959L35.0315 84.2119C35.0595 84.1866 35.0958 84.1726 35.1335 84.1726C35.1712 84.1726 35.2076 84.1866 35.2355 84.2119C35.2663 84.2482 35.2895 84.2902 35.304 84.3355C35.3184 84.3808 35.3237 84.4285 35.3195 84.4759V86.2279C35.3184 86.3539 35.2898 86.4782 35.2355 86.5919C35.1954 86.694 35.124 86.7808 35.0315 86.8399L31.7275 88.7479V90.5319L34.7995 88.7719C34.8279 88.7474 34.8641 88.7339 34.9015 88.7339C34.939 88.7339 34.9752 88.7474 35.0035 88.7719C35.035 88.8079 35.059 88.8497 35.0741 88.8951C35.0892 88.9404 35.0951 88.9883 35.0915 89.0359V90.7999C35.0885 90.9261 35.0585 91.0503 35.0035 91.1639C34.9634 91.266 34.892 91.3528 34.7995 91.4119L31.7275 93.1999V95.0479L35.1195 93.0799Z" fill="#FAFAFA"/>
<path d="M39.4312 81.5038C39.8133 81.2718 40.2453 81.1347 40.6912 81.1038C41.0354 81.0784 41.3796 81.1519 41.6832 81.3158C41.9633 81.474 42.1912 81.7102 42.3392 81.9958C42.4957 82.2933 42.5793 82.6237 42.5832 82.9598C42.5813 83.0621 42.5581 83.1629 42.5152 83.2558C42.4826 83.3344 42.4285 83.4023 42.3592 83.4518L40.9552 84.2518C40.8829 84.2995 40.7979 84.3246 40.7112 84.3238C40.6419 84.3115 40.5771 84.2812 40.5232 84.2358C40.5232 84.2358 40.4672 84.1798 40.4232 84.1278C40.3666 84.0722 40.2983 84.0298 40.2232 84.0038C40.1204 83.9687 40.0106 83.9591 39.9032 83.9758C39.7349 84.0016 39.574 84.063 39.4312 84.1558C39.2914 84.2351 39.1577 84.3246 39.0312 84.4238C38.9091 84.5194 38.7978 84.628 38.6992 84.7478C38.6009 84.8685 38.5213 85.0034 38.4632 85.1478C38.4115 85.2926 38.3898 85.4464 38.3992 85.5998C38.3869 85.7256 38.4226 85.8513 38.4992 85.9518C38.5463 85.992 38.6011 86.0224 38.6602 86.0409C38.7193 86.0595 38.7816 86.0659 38.8432 86.0598C39.0595 86.052 39.2742 86.0198 39.4832 85.9638C39.7472 85.8998 40.0752 85.8118 40.4672 85.7078C40.8016 85.6072 41.1503 85.5626 41.4992 85.5758C41.7686 85.5826 42.0278 85.6798 42.2352 85.8518C42.4491 86.0518 42.6017 86.3084 42.6752 86.5918C42.7819 87.003 42.8304 87.4271 42.8192 87.8518C42.8192 88.4104 42.7356 88.9659 42.5712 89.4998C42.4053 90.036 42.1728 90.5494 41.8792 91.0278C41.5835 91.5113 41.2302 91.9572 40.8272 92.3558C40.4307 92.748 39.9857 93.0881 39.5032 93.3678C39.1005 93.6197 38.647 93.7796 38.1752 93.8358C37.8193 93.8793 37.4585 93.8152 37.1392 93.6518C36.8444 93.491 36.6058 93.244 36.4552 92.9438C36.2855 92.6063 36.1978 92.2336 36.1992 91.8558C36.2007 91.7534 36.2239 91.6525 36.2672 91.5598C36.2987 91.4805 36.353 91.4123 36.4232 91.3638L37.8312 90.5638C37.9002 90.5143 37.9824 90.4865 38.0672 90.4838C38.1306 90.4925 38.1902 90.5188 38.2392 90.5598L38.3672 90.6998C38.4404 90.7838 38.5328 90.8489 38.6366 90.8893C38.7405 90.9297 38.8525 90.9443 38.9632 90.9318C39.1561 90.9096 39.3411 90.8425 39.5032 90.7358C39.8542 90.5391 40.1737 90.2911 40.4512 89.9998C40.699 89.7617 40.8428 89.4354 40.8512 89.0918C40.8591 89.029 40.8503 88.9653 40.8258 88.907C40.8012 88.8487 40.7617 88.798 40.7112 88.7598C40.5865 88.7015 40.4479 88.6793 40.3112 88.6958C40.0702 88.7211 39.8319 88.768 39.5992 88.8358C39.3072 88.9158 38.9672 88.9998 38.5752 89.0958C37.8392 89.2798 37.3059 89.1865 36.9752 88.8158C36.6446 88.4451 36.4526 87.7825 36.3992 86.8278C36.4018 86.3287 36.4717 85.8322 36.6072 85.3518C36.7443 84.8326 36.943 84.3317 37.1992 83.8598C37.464 83.3773 37.7863 82.9286 38.1592 82.5238C38.527 82.119 38.9562 81.7748 39.4312 81.5038Z" fill="#FAFAFA"/>
</svg>
