<svg width="130" height="130" viewBox="0 0 130 130" fill="none" xmlns="http://www.w3.org/2000/svg">
<rect width="130" height="130" rx="30" fill="#1C6758"/>
<path d="M70.4689 34.6829C70.702 34.7573 70.9489 34.8047 71.2039 34.8216C70.9588 34.7707 70.7154 34.7253 70.4689 34.6829ZM71.41 34.8637V34.9125L71.4152 34.8637H71.41ZM77.8019 36.9646C77.7784 36.9829 77.7528 37.007 77.7292 37.0321C77.7665 37.0152 77.8037 36.9983 77.8426 36.9829C77.829 36.9762 77.8156 36.971 77.8019 36.9646ZM77.606 37.0847C77.6193 37.0914 77.6348 37.098 77.6496 37.1047C77.6749 37.0794 77.7025 37.0539 77.7292 37.0321C77.6874 37.0492 77.6464 37.0675 77.606 37.0847Z" fill="white"/>
<path d="M87.9287 44.7015C87.9273 44.6035 87.9235 44.5073 87.9206 44.4093C87.8482 42.2508 87.5522 40.1316 87.0452 38.0764C87.0332 38.0212 87.0196 37.9668 87.0044 37.911C86.9486 37.9313 86.8911 37.9549 86.8355 37.977C85.4612 38.523 84.1366 39.167 82.8687 39.897C82.8076 39.9325 82.7468 39.9662 82.6878 40.0034C78.1784 42.6396 74.3976 46.3901 71.7222 50.8722L71.5554 51.1565C71.5347 51.1903 71.5144 51.2257 71.4943 51.2612C71.4571 51.3255 71.4199 51.3912 71.383 51.4589C68.8273 55.9593 67.3757 61.1598 67.389 66.6949C67.3954 69.2048 67.6998 71.6686 68.2866 74.0451C68.3002 74.1012 68.3136 74.1553 68.3273 74.2108C68.3828 74.1887 68.4407 74.1649 68.4962 74.1434C72.3784 72.6056 75.9377 70.2678 78.9713 67.2191C79.1809 67.0095 79.387 66.7966 79.5882 66.5803C79.6272 66.5393 79.6659 66.4992 79.7031 66.4571C81.7923 64.2143 83.5095 61.711 84.8239 59.024C84.8565 58.9597 84.8885 58.8937 84.9187 58.8295C86.9079 54.6954 87.9508 50.1322 87.9389 45.4103C87.9392 45.1731 87.9357 44.9367 87.9287 44.7015ZM71.5606 51.4874V51.4537C71.5623 51.4604 71.5658 51.4691 71.5673 51.4755C71.5655 51.4793 71.5638 51.4822 71.5606 51.4874Z" fill="white"/>
<path d="M95.7424 67.2813C95.7368 67.3386 95.7336 67.3961 95.7287 67.4523C95.7133 67.6517 95.695 67.8526 95.6758 68.0503C95.6711 68.1076 95.6644 68.1652 95.6575 68.2213C95.6153 68.6402 95.5644 69.0577 95.5037 69.4735C95.4955 69.5348 95.4865 69.595 95.4781 69.6546C94.5099 76.0951 91.5339 82.0396 86.8556 86.7429C85.0876 88.5196 83.144 90.0518 81.0602 91.3282C81.0128 91.3573 80.9637 91.3872 80.9149 91.4157C80.7913 91.4924 80.6666 91.5663 80.5413 91.639C80.4823 91.6747 80.4215 91.7082 80.3604 91.7439C80.2372 91.8149 80.1136 91.8858 79.9886 91.9553C79.9211 91.9928 79.8516 92.0315 79.7824 92.069C76.0999 94.0864 72.0301 95.3256 67.7778 95.7003C67.7205 95.7056 67.6647 95.7105 67.6071 95.714C67.6106 95.6567 67.6158 95.6009 67.6205 95.5448C67.9132 91.8152 68.8747 88.2696 70.384 85.0275C70.411 84.965 70.4415 84.9025 70.47 84.8412C70.8608 84.0166 71.2867 83.2124 71.7443 82.4312C71.7815 82.3693 71.8188 82.3062 71.858 82.2437C73.6679 79.2069 75.9868 76.5062 78.6962 74.2614C78.7808 74.1905 78.8652 74.1213 78.9498 74.0541C81.1434 72.2722 83.5874 70.7868 86.2186 69.6561C86.3049 69.6186 86.3913 69.5817 86.4791 69.5459C87.9595 68.9257 89.4976 68.4187 91.0827 68.0366C91.3531 67.9698 91.6234 67.9084 91.8956 67.8509C93.0975 67.5941 94.3244 67.4081 95.5717 67.2967C95.629 67.2915 95.6851 67.2863 95.7424 67.2813Z" fill="white"/>
<path d="M71.4018 28.4584C71.3344 28.4584 71.2681 28.4601 71.2021 28.4668C71.7365 28.5546 72.265 28.6544 72.7907 28.7675C72.3703 28.568 71.8987 28.4584 71.4018 28.4584Z" fill="white"/>
<path d="M106.552 37.1338C106.502 37.0556 106.449 36.978 106.395 36.9021C106.315 36.7855 106.236 36.6689 106.155 36.5538C106.084 36.4509 106.011 36.3476 105.939 36.2447C104.281 33.8955 102.408 31.6728 100.331 29.601C91.2487 20.5456 79.3013 15.4024 66.541 15.0238C66.0342 15.0067 65.5254 15 65.0166 15H64.8849C64.675 15 64.4671 15.0017 64.2595 15.0052H64.2514C63.5446 15.0154 62.8416 15.0407 62.1403 15.0814C61.8647 15.0968 61.5908 15.1137 61.3172 15.134C59.0492 15.2977 56.8131 15.614 54.6177 16.0752C53.8908 16.2272 53.1692 16.3964 52.4525 16.5822C45.3797 18.4025 38.7935 21.7641 33.1029 26.4979C32.895 26.6686 32.6889 26.8442 32.4845 27.0201C31.4785 27.8839 30.5034 28.7898 29.5587 29.7397C21.0255 38.3186 15.9788 49.4411 15.1287 61.3865C15.1235 61.4557 15.1188 61.5252 15.1153 61.5961C15.0362 62.7707 14.997 63.9538 15.0002 65.142C15.0359 78.4786 20.2545 91.0104 29.6974 100.426C35.2846 105.998 41.9588 110.09 49.2398 112.5C49.3058 112.523 49.3716 112.544 49.4393 112.566C54.3999 114.185 59.6405 115.027 65.0119 115.027H65.1422C65.4292 115.027 65.7167 115.023 66.004 115.017C66.0801 115.017 66.1546 115.015 66.2305 115.012C66.195 114.956 66.1595 114.9 66.1258 114.844C63.6394 110.869 62.0391 106.289 61.6048 101.378C61.5995 101.32 61.5946 101.263 61.5894 101.203C61.5321 101.199 61.4742 101.193 61.4167 101.187C60.707 101.114 60.0042 101.021 59.3062 100.907C59.2486 100.9 59.191 100.889 59.1317 100.879C52.7857 99.821 46.9817 97.1255 42.1717 93.2398C42.0908 93.1755 42.0091 93.1098 41.9283 93.0421C33.7483 86.3239 28.5089 76.1445 28.4801 64.7699C28.4786 64.3085 28.4868 63.8488 28.5022 63.3926C28.506 63.288 28.5103 63.183 28.5158 63.0783C28.585 61.4237 28.7656 59.7979 29.0517 58.2076C29.07 58.0974 29.0906 57.9892 29.1124 57.8796C29.1735 57.5516 29.2392 57.2254 29.3084 56.8992C29.3221 56.8419 29.3337 56.7841 29.3474 56.7251C29.9725 53.9061 30.9226 51.2071 32.158 48.6704C32.2036 48.5721 32.2527 48.4756 32.3016 48.3776C38.2978 36.3241 50.7334 28.0089 65.0878 27.9714H65.1858C67.2344 27.9714 69.2437 28.1403 71.2024 28.4668C71.2684 28.4601 71.3344 28.4584 71.4021 28.4584C71.899 28.4584 72.3706 28.568 72.791 28.7674C73.9049 29.2879 74.677 30.4154 74.6805 31.7185C74.6861 33.3678 73.4606 34.7416 71.8702 34.9649C71.7196 34.9294 71.5676 34.8957 71.4155 34.8634L71.4103 34.9122V34.8634C71.3411 34.848 71.2734 34.8343 71.2042 34.821C70.9492 34.8041 70.702 34.7567 70.4692 34.6823C70.2459 34.6416 70.0229 34.6044 69.7996 34.5689C68.2313 34.3255 66.6323 34.202 65.0152 34.202H64.934C50.7915 34.2395 38.8697 43.8476 35.2965 56.8678C35.2811 56.9237 35.2663 56.9812 35.2512 57.0368C35.2474 57.0504 35.2445 57.0655 35.241 57.0792C35.2206 57.1536 35.2003 57.2281 35.182 57.3025C35.0956 57.6368 35.0145 57.9735 34.9383 58.3116C34.9165 58.4146 34.893 58.5178 34.8723 58.6207C34.4298 60.7079 34.1998 62.8731 34.2048 65.092C34.2048 65.3284 34.2083 65.5636 34.2147 65.7985C34.2164 65.8962 34.2199 65.9945 34.2231 66.0922C34.49 73.9331 37.6762 81.2648 43.2564 86.8284C45.4216 88.9868 47.8504 90.783 50.47 92.1893C50.5374 92.2263 50.6052 92.2638 50.6747 92.299C53.9158 94.0076 57.4466 95.1212 61.1277 95.5811C61.1832 95.5896 61.2393 95.5965 61.2966 95.6015C61.3137 95.5459 61.3271 95.4901 61.3422 95.4346C61.4452 95.0485 61.5402 94.6618 61.6277 94.2728C61.8051 93.4834 61.9505 92.6862 62.0653 91.8815C62.2784 90.4027 62.3834 88.8967 62.3799 87.3755C62.3746 85.5721 62.2177 83.793 61.9101 82.0518C61.8929 81.9541 61.8746 81.8558 61.8557 81.7576C61.5094 79.8933 60.9939 78.075 60.3145 76.3227C60.2906 76.2631 60.2688 76.2041 60.2453 76.1451H60.2386C60.2403 76.1451 60.2421 76.1451 60.2438 76.1434C60.2238 76.0893 60.2014 76.0349 60.1796 75.9808C58.6468 72.153 56.3345 68.6408 53.3262 65.6409C52.0519 64.3698 50.6845 63.2243 49.241 62.2085C48.7157 61.8398 48.1816 61.4883 47.6358 61.1539C47.1695 60.5893 46.8889 59.8677 46.8857 59.0801C46.8837 58.2064 47.2218 57.3833 47.8367 56.7646C48.4147 56.1849 49.1701 55.847 49.9833 55.8046C49.9833 55.8046 49.9833 55.8046 49.985 55.8046C50.1827 55.8671 50.3787 55.9314 50.5732 55.9991C51.0276 56.1544 51.4757 56.3302 51.915 56.5213C52.1057 56.6021 52.2935 56.6867 52.481 56.778C57.3637 59.0818 61.1227 63.395 62.6805 68.6425C62.6383 68.3451 62.6014 68.0439 62.5674 67.7436C62.6703 68.0337 62.7654 68.3297 62.8526 68.6271C62.6549 67.2415 62.552 65.8247 62.5482 64.387C62.525 55.5496 66.265 47.5656 72.2566 41.9528C72.402 41.8176 72.5488 41.6824 72.6977 41.5487C72.821 41.3545 72.9509 41.1652 73.0864 40.9791C73.4347 40.4994 73.8214 40.043 74.2473 39.6153C75.0387 38.8213 75.9258 38.1552 76.8823 37.6345C77.0059 37.5027 77.1341 37.3739 77.2626 37.2457C77.376 37.1902 77.4908 37.1358 77.606 37.0835C77.6464 37.0663 77.6868 37.048 77.7292 37.0309C77.7528 37.0056 77.7784 36.9817 77.8019 36.9634C79.558 35.319 81.6217 34.0057 83.8982 33.1169C83.9761 33.0849 84.0537 33.0541 84.1331 33.0274C84.4122 32.9207 84.696 32.821 84.9818 32.7297C85.0425 32.7096 85.1033 32.6892 85.1658 32.6724C86.7544 32.1758 88.4329 31.883 90.17 31.8223C90.4625 32.3971 90.7364 32.9817 90.9914 33.5766C91.0152 33.6307 91.0388 33.6865 91.0609 33.742C91.4307 34.616 91.7604 35.51 92.0479 36.4209C92.0651 36.475 92.0817 36.5291 92.0988 36.5834C92.4925 37.856 92.8053 39.1658 93.0318 40.5023C93.0522 40.6259 93.0722 40.7495 93.0923 40.8742C93.2615 41.961 93.3731 43.0678 93.4237 44.1901C93.4356 44.4233 93.4441 44.6564 93.4493 44.8913C93.4546 45.1042 93.4574 45.3173 93.4574 45.5318C93.4627 47.6479 93.2565 49.7316 92.844 51.7581C92.8239 51.8613 92.8036 51.9645 92.7797 52.0674C92.7376 52.2701 92.6919 52.4715 92.6445 52.6742C92.5905 52.9039 92.5332 53.1356 92.4742 53.3635C91.4973 57.1275 89.8069 60.6667 87.4711 63.8151C87.385 63.9317 87.299 64.0465 87.2106 64.1614C87.3345 64.0869 87.4589 64.0145 87.5859 63.945C89.9488 62.6201 92.6192 61.7834 95.4621 61.5723C95.5194 61.5671 95.5769 61.5639 95.6342 61.5604C96.0363 61.5334 96.4404 61.52 96.8495 61.5179H96.9004C98.5919 61.5179 100.235 61.7395 101.8 62.1567C101.856 62.958 101.885 63.7657 101.886 64.5786C101.888 65.2412 101.873 65.9 101.839 66.5576C101.835 66.6303 101.832 66.7013 101.827 66.774C101.817 66.9705 101.803 67.1664 101.79 67.3607C101.786 67.4179 101.782 67.4755 101.776 67.5334C101.731 68.1332 101.672 68.7298 101.596 69.3232C101.589 69.3851 101.58 69.4464 101.572 69.5089C100.534 77.4453 96.9443 84.7894 91.2033 90.5592C89.8441 91.9248 88.3959 93.1718 86.8719 94.2923C86.8091 94.3394 86.7434 94.387 86.6791 94.4342C86.5119 94.5545 86.3427 94.6743 86.1738 94.7923C86.113 94.836 86.0537 94.8787 85.9933 94.9191C85.6633 95.1473 85.3324 95.3689 84.9975 95.5817C84.9483 95.6157 84.8977 95.6477 84.8466 95.6782C79.7665 98.9162 73.9679 100.841 67.8717 101.281C67.8144 101.286 67.7565 101.289 67.699 101.293C67.706 101.348 67.7109 101.405 67.7176 101.46C68.2328 106.069 69.7679 110.45 72.2116 114.337C72.2453 114.391 72.279 114.445 72.313 114.499C72.384 114.489 72.4549 114.479 72.5244 114.469C83.0792 112.887 92.8073 107.987 100.47 100.284C100.756 99.9963 101.036 99.7073 101.315 99.4148C101.386 99.3404 101.457 99.2642 101.526 99.1883C102.204 98.4667 102.856 97.7285 103.485 96.9749C103.541 96.9084 103.597 96.8415 103.652 96.7749C104.991 95.1508 106.22 93.4558 107.333 91.696C107.394 91.6018 107.453 91.507 107.512 91.411C110.321 86.9098 112.38 82.005 113.624 76.8542C113.642 76.7815 113.659 76.7106 113.676 76.6397C113.963 75.4226 114.207 74.1939 114.403 72.9536C114.42 72.8519 114.435 72.7493 114.45 72.6458C114.484 72.4294 114.516 72.2131 114.545 71.9951C114.555 71.9259 114.565 71.8564 114.575 71.7872C114.88 69.5174 115.032 67.2121 115.027 64.8815C115.001 54.8507 112.04 45.2728 106.552 37.1338ZM92.9655 52.0162C92.9606 52.0064 92.9553 51.9979 92.9518 51.9875C92.9638 51.9587 92.9757 51.9302 92.9873 51.9014C92.9806 51.9389 92.9719 51.9776 92.9655 52.0162Z" fill="white"/>
</svg>
