<svg width="20" height="17" viewBox="0 0 20 17" fill="none" xmlns="http://www.w3.org/2000/svg">
<path fill-rule="evenodd" clip-rule="evenodd" d="M10.0023 5.63989C8.67039 5.63989 7.59033 6.71926 7.59033 8.05189C7.59033 9.38368 8.67055 10.4639 10.0023 10.4639C11.3341 10.4639 12.4143 9.38368 12.4143 8.05189C12.4143 6.71926 11.3343 5.63989 10.0023 5.63989ZM6.09033 8.05189C6.09033 5.89052 7.84227 4.13989 10.0023 4.13989C12.1624 4.13989 13.9143 5.89052 13.9143 8.05189C13.9143 10.2121 12.1625 11.9639 10.0023 11.9639C7.84212 11.9639 6.09033 10.2121 6.09033 8.05189Z" fill="#262626"/>
<path fill-rule="evenodd" clip-rule="evenodd" d="M2.97602 2.59826C4.77042 1.08118 7.25123 0 10.0025 0C12.7531 0 15.2339 1.08034 17.0285 2.59706C18.8035 4.09726 20.0045 6.11404 20.0045 8.052C20.0045 9.98996 18.8035 12.0067 17.0285 13.5069C15.2339 15.0237 12.7531 16.104 10.0025 16.104C7.25123 16.104 4.77042 15.0228 2.97602 13.5057C1.20123 12.0052 0.000488281 9.98849 0.000488281 8.052C0.000488281 6.11551 1.20123 4.09876 2.97602 2.59826ZM3.94446 3.74374C2.37074 5.07424 1.50049 6.70849 1.50049 8.052C1.50049 9.39551 2.37074 11.0298 3.94446 12.3603C5.49856 13.6742 7.64375 14.604 10.0025 14.604C12.3609 14.604 14.5061 13.6748 16.0602 12.3613C17.6339 11.0313 18.5045 9.39704 18.5045 8.052C18.5045 6.70696 17.6339 5.07274 16.0602 3.74269C14.5061 2.42916 12.3609 1.5 10.0025 1.5C7.64375 1.5 5.49856 2.42982 3.94446 3.74374Z" fill="#262626"/>
</svg>
