<svg width="18" height="20" viewBox="0 0 18 20" fill="none" xmlns="http://www.w3.org/2000/svg">
<path fill-rule="evenodd" clip-rule="evenodd" d="M4.8119 3.77466C4.85481 3.07987 5.05263 2.08786 5.7494 1.28657C6.4864 0.437568 7.5804 0.00756836 8.9994 0.00756836C10.4194 0.00756836 11.5124 0.437568 12.2504 1.28657C12.947 2.08769 13.1446 3.07981 13.1872 3.77466H17.0758C17.4898 3.77466 17.8258 4.11066 17.8258 4.52466C17.8258 4.93866 17.4898 5.27466 17.0758 5.27466H0.924805C0.510805 5.27466 0.174805 4.93866 0.174805 4.52466C0.174805 4.11066 0.510805 3.77466 0.924805 3.77466H4.8119ZM11.6845 3.77466C11.6467 3.32276 11.5138 2.72145 11.1124 2.26357C10.6724 1.76157 9.9614 1.50757 8.9994 1.50757C8.0384 1.50757 7.3274 1.76157 6.8864 2.26357C6.485 2.72145 6.35243 3.32276 6.31472 3.77466H11.6845Z" fill="#262626"/>
<path d="M8.98927 19.9924C6.03027 19.9924 4.20827 19.4794 3.08227 18.3314C1.49421 16.7124 1.54621 14.0586 1.61814 10.387L1.61827 10.3804C1.63527 9.51941 1.65327 8.59341 1.65327 7.59741C1.65327 7.18341 1.98927 6.84741 2.40327 6.84741C2.81727 6.84741 3.15327 7.18341 3.15327 7.59741C3.15327 8.60341 3.13527 9.54041 3.11727 10.4104C3.05027 13.8434 3.00627 16.1104 4.15327 17.2804C4.96327 18.1074 6.50027 18.4924 8.98927 18.4924C11.4833 18.4924 13.0233 18.1054 13.8373 17.2764C14.9912 16.0995 14.9483 13.8187 14.8833 10.366L14.8815 10.2693C14.866 9.44048 14.8493 8.54949 14.8493 7.59741C14.8493 7.18341 15.1853 6.84741 15.5993 6.84741C16.0133 6.84741 16.3493 7.18341 16.3493 7.59741C16.3493 8.57641 16.3663 9.48841 16.3833 10.3374L16.3834 10.3451C16.4523 14.0351 16.5022 16.7025 14.9073 18.3274C13.7783 19.4784 11.9523 19.9924 8.98927 19.9924Z" fill="#262626"/>
</svg>
