<svg width="20" height="20" viewBox="0 0 20 20" fill="none" xmlns="http://www.w3.org/2000/svg">
<path d="M10 20C2.617 20 0 17.383 0 10C0 2.617 2.617 0 10 0C10.414 0 10.75 0.336 10.75 0.75C10.75 1.164 10.414 1.5 10 1.5C3.486 1.5 1.5 3.486 1.5 10C1.5 16.514 3.486 18.5 10 18.5C16.514 18.5 18.5 16.514 18.5 10C18.5 9.586 18.836 9.25 19.25 9.25C19.664 9.25 20 9.586 20 10C20 17.383 17.383 20 10 20Z" fill="#262626"/>
<path fill-rule="evenodd" clip-rule="evenodd" d="M17.2365 7.38594L18.2952 6.1906C19.4472 4.8896 19.3252 2.8946 18.0252 1.7416C17.3952 1.1836 16.5812 0.903598 15.7452 0.955598C14.9052 1.0066 14.1352 1.3826 13.5772 2.0126L7.6932 8.6606C5.8692 10.7186 7.1172 13.4396 7.1712 13.5546C7.2602 13.7436 7.4242 13.8876 7.6232 13.9496C7.6802 13.9686 8.3442 14.1716 9.2192 14.1716C10.2042 14.1716 11.4572 13.9126 12.4092 12.8366L17.0774 7.56559C17.1082 7.54033 17.1374 7.51226 17.1646 7.48138C17.1915 7.45105 17.2155 7.41912 17.2365 7.38594ZM8.4082 12.5956C9.0352 12.7096 10.4192 12.8216 11.2862 11.8426L15.5371 7.04286L13.0656 4.85399L8.8172 9.6556C7.9292 10.6566 8.2122 11.9916 8.4082 12.5956ZM14.0596 3.73064L16.5322 5.91926L17.1722 5.1966C17.7752 4.5146 17.7122 3.4686 17.0312 2.8656C16.7002 2.5736 16.2712 2.4246 15.8362 2.4526C15.3962 2.4806 14.9932 2.6766 14.7002 3.0066L14.0596 3.73064Z" fill="#262626"/>
</svg>
